  0
SECTION
  2
BLOCKS
  0
ENDSEC
  0
SECTION
  2
ENTITIES
  0
LINE
  8
0
 10
448
 20
624.8
 11
0
 21
624.8
  0
LINE
  8
0
 10
0
 20
624.8
 11
0
 21
0
  0
LINE
  8
0
 10
0
 20
0
 11
448
 21
0
  0
LINE
  8
0
 10
448
 20
0
 11
448
 21
624.8
  0
LINE
  8
0
 10
203.525
 20
554.419
 11
203.146
 21
554.461
  0
LINE
  8
0
 10
203.146
 20
554.461
 11
202.771
 21
554.527
  0
LINE
  8
0
 10
202.771
 20
554.527
 11
202.401
 21
554.617
  0
LINE
  8
0
 10
202.401
 20
554.617
 11
202.038
 21
554.73
  0
LINE
  8
0
 10
202.038
 20
554.73
 11
201.682
 21
554.866
  0
LINE
  8
0
 10
201.682
 20
554.866
 11
201.336
 21
555.024
  0
LINE
  8
0
 10
201.336
 20
555.024
 11
201
 21
555.204
  0
LINE
  8
0
 10
201
 20
555.204
 11
200.676
 21
555.405
  0
LINE
  8
0
 10
200.676
 20
555.405
 11
200.366
 21
555.625
  0
LINE
  8
0
 10
200.366
 20
555.625
 11
200.071
 21
555.865
  0
LINE
  8
0
 10
200.071
 20
555.865
 11
199.791
 21
556.124
  0
LINE
  8
0
 10
199.791
 20
556.124
 11
199.528
 21
556.399
  0
LINE
  8
0
 10
199.528
 20
556.399
 11
199.284
 21
556.691
  0
LINE
  8
0
 10
199.284
 20
556.691
 11
199.058
 21
556.998
  0
LINE
  8
0
 10
199.058
 20
556.998
 11
198.852
 21
557.318
  0
LINE
  8
0
 10
198.852
 20
557.318
 11
198.667
 21
557.651
  0
LINE
  8
0
 10
198.667
 20
557.651
 11
198.503
 21
557.994
  0
LINE
  8
0
 10
198.503
 20
557.994
 11
198.362
 21
558.348
  0
LINE
  8
0
 10
198.362
 20
558.348
 11
198.243
 21
558.71
  0
LINE
  8
0
 10
198.243
 20
558.71
 11
198.147
 21
559.078
  0
LINE
  8
0
 10
198.147
 20
559.078
 11
198.075
 21
559.452
  0
LINE
  8
0
 10
198.075
 20
559.452
 11
198.027
 21
559.83
  0
LINE
  8
0
 10
198.027
 20
559.83
 11
198.003
 21
560.21
  0
LINE
  8
0
 10
198.003
 20
560.21
 11
198.003
 21
586.59
  0
LINE
  8
0
 10
198.003
 20
586.59
 11
198.027
 21
586.97
  0
LINE
  8
0
 10
198.027
 20
586.97
 11
198.075
 21
587.348
  0
LINE
  8
0
 10
198.075
 20
587.348
 11
198.147
 21
587.722
  0
LINE
  8
0
 10
198.147
 20
587.722
 11
198.243
 21
588.09
  0
LINE
  8
0
 10
198.243
 20
588.09
 11
198.362
 21
588.452
  0
LINE
  8
0
 10
198.362
 20
588.452
 11
198.503
 21
588.806
  0
LINE
  8
0
 10
198.503
 20
588.806
 11
198.667
 21
589.149
  0
LINE
  8
0
 10
198.667
 20
589.149
 11
198.852
 21
589.482
  0
LINE
  8
0
 10
198.852
 20
589.482
 11
199.058
 21
589.802
  0
LINE
  8
0
 10
199.058
 20
589.802
 11
199.284
 21
590.109
  0
LINE
  8
0
 10
199.284
 20
590.109
 11
199.528
 21
590.401
  0
LINE
  8
0
 10
199.528
 20
590.401
 11
199.791
 21
590.676
  0
LINE
  8
0
 10
199.791
 20
590.676
 11
200.071
 21
590.935
  0
LINE
  8
0
 10
200.071
 20
590.935
 11
200.366
 21
591.175
  0
LINE
  8
0
 10
200.366
 20
591.175
 11
200.676
 21
591.395
  0
LINE
  8
0
 10
200.676
 20
591.395
 11
201
 21
591.596
  0
LINE
  8
0
 10
201
 20
591.596
 11
201.336
 21
591.776
  0
LINE
  8
0
 10
201.336
 20
591.776
 11
201.682
 21
591.934
  0
LINE
  8
0
 10
201.682
 20
591.934
 11
202.038
 21
592.07
  0
LINE
  8
0
 10
202.038
 20
592.07
 11
202.401
 21
592.183
  0
LINE
  8
0
 10
202.401
 20
592.183
 11
202.771
 21
592.273
  0
LINE
  8
0
 10
202.771
 20
592.273
 11
203.146
 21
592.339
  0
LINE
  8
0
 10
203.146
 20
592.339
 11
203.525
 21
592.381
  0
LINE
  8
0
 10
203.525
 20
592.381
 11
203.905
 21
592.399
  0
LINE
  8
0
 10
203.905
 20
592.399
 11
204.285
 21
592.393
  0
LINE
  8
0
 10
204.285
 20
592.393
 11
204.665
 21
592.363
  0
LINE
  8
0
 10
204.665
 20
592.363
 11
205.042
 21
592.309
  0
LINE
  8
0
 10
205.042
 20
592.309
 11
205.415
 21
592.231
  0
LINE
  8
0
 10
205.415
 20
592.231
 11
205.782
 21
592.129
  0
LINE
  8
0
 10
205.782
 20
592.129
 11
206.141
 21
592.005
  0
LINE
  8
0
 10
206.141
 20
592.005
 11
206.492
 21
591.858
  0
LINE
  8
0
 10
206.492
 20
591.858
 11
206.834
 21
591.689
  0
LINE
  8
0
 10
206.834
 20
591.689
 11
207.163
 21
591.498
  0
LINE
  8
0
 10
207.163
 20
591.498
 11
207.48
 21
591.287
  0
LINE
  8
0
 10
207.48
 20
591.287
 11
207.783
 21
591.057
  0
LINE
  8
0
 10
207.783
 20
591.057
 11
208.071
 21
590.808
  0
LINE
  8
0
 10
208.071
 20
590.808
 11
208.342
 21
590.54
  0
LINE
  8
0
 10
208.342
 20
590.54
 11
208.596
 21
590.257
  0
LINE
  8
0
 10
208.596
 20
590.257
 11
208.832
 21
589.957
  0
LINE
  8
0
 10
208.832
 20
589.957
 11
209.048
 21
589.644
  0
LINE
  8
0
 10
209.048
 20
589.644
 11
209.243
 21
589.317
  0
LINE
  8
0
 10
209.243
 20
589.317
 11
209.418
 21
588.979
  0
LINE
  8
0
 10
209.418
 20
588.979
 11
209.57
 21
588.63
  0
LINE
  8
0
 10
209.57
 20
588.63
 11
209.7
 21
588.272
  0
LINE
  8
0
 10
209.7
 20
588.272
 11
209.808
 21
587.907
  0
LINE
  8
0
 10
209.808
 20
587.907
 11
209.892
 21
587.536
  0
LINE
  8
0
 10
209.892
 20
587.536
 11
209.952
 21
587.16
  0
LINE
  8
0
 10
209.952
 20
587.16
 11
209.988
 21
586.781
  0
LINE
  8
0
 10
209.988
 20
586.781
 11
210
 21
586.4
  0
LINE
  8
0
 10
210
 20
586.4
 11
210
 21
560.4
  0
LINE
  8
0
 10
210
 20
560.4
 11
209.988
 21
560.019
  0
LINE
  8
0
 10
209.988
 20
560.019
 11
209.952
 21
559.64
  0
LINE
  8
0
 10
209.952
 20
559.64
 11
209.892
 21
559.264
  0
LINE
  8
0
 10
209.892
 20
559.264
 11
209.808
 21
558.893
  0
LINE
  8
0
 10
209.808
 20
558.893
 11
209.7
 21
558.528
  0
LINE
  8
0
 10
209.7
 20
558.528
 11
209.57
 21
558.17
  0
LINE
  8
0
 10
209.57
 20
558.17
 11
209.418
 21
557.821
  0
LINE
  8
0
 10
209.418
 20
557.821
 11
209.243
 21
557.483
  0
LINE
  8
0
 10
209.243
 20
557.483
 11
209.048
 21
557.156
  0
LINE
  8
0
 10
209.048
 20
557.156
 11
208.832
 21
556.843
  0
LINE
  8
0
 10
208.832
 20
556.843
 11
208.596
 21
556.543
  0
LINE
  8
0
 10
208.596
 20
556.543
 11
208.342
 21
556.26
  0
LINE
  8
0
 10
208.342
 20
556.26
 11
208.071
 21
555.992
  0
LINE
  8
0
 10
208.071
 20
555.992
 11
207.783
 21
555.743
  0
LINE
  8
0
 10
207.783
 20
555.743
 11
207.48
 21
555.513
  0
LINE
  8
0
 10
207.48
 20
555.513
 11
207.163
 21
555.302
  0
LINE
  8
0
 10
207.163
 20
555.302
 11
206.834
 21
555.111
  0
LINE
  8
0
 10
206.834
 20
555.111
 11
206.492
 21
554.942
  0
LINE
  8
0
 10
206.492
 20
554.942
 11
206.141
 21
554.795
  0
LINE
  8
0
 10
206.141
 20
554.795
 11
205.782
 21
554.671
  0
LINE
  8
0
 10
205.782
 20
554.671
 11
205.415
 21
554.569
  0
LINE
  8
0
 10
205.415
 20
554.569
 11
205.042
 21
554.491
  0
LINE
  8
0
 10
205.042
 20
554.491
 11
204.665
 21
554.437
  0
LINE
  8
0
 10
204.665
 20
554.437
 11
204.285
 21
554.407
  0
LINE
  8
0
 10
204.285
 20
554.407
 11
203.905
 21
554.401
  0
LINE
  8
0
 10
203.905
 20
554.401
 11
203.525
 21
554.419
  0
LINE
  8
0
 10
19.6037
 20
569.916
 11
19.2884
 21
569.951
  0
LINE
  8
0
 10
19.2884
 20
569.951
 11
18.976
 21
570.006
  0
LINE
  8
0
 10
18.976
 20
570.006
 11
18.6676
 21
570.081
  0
LINE
  8
0
 10
18.6676
 20
570.081
 11
18.3647
 21
570.175
  0
LINE
  8
0
 10
18.3647
 20
570.175
 11
18.0683
 21
570.288
  0
LINE
  8
0
 10
18.0683
 20
570.288
 11
17.7797
 21
570.42
  0
LINE
  8
0
 10
17.7797
 20
570.42
 11
17.5
 21
570.57
  0
LINE
  8
0
 10
17.5
 20
570.57
 11
17.2304
 21
570.737
  0
LINE
  8
0
 10
17.2304
 20
570.737
 11
16.9719
 21
570.921
  0
LINE
  8
0
 10
16.9719
 20
570.921
 11
16.7257
 21
571.121
  0
LINE
  8
0
 10
16.7257
 20
571.121
 11
16.4926
 21
571.337
  0
LINE
  8
0
 10
16.4926
 20
571.337
 11
16.2737
 21
571.566
  0
LINE
  8
0
 10
16.2737
 20
571.566
 11
16.0697
 21
571.809
  0
LINE
  8
0
 10
16.0697
 20
571.809
 11
15.8816
 21
572.065
  0
LINE
  8
0
 10
15.8816
 20
572.065
 11
15.7101
 21
572.332
  0
LINE
  8
0
 10
15.7101
 20
572.332
 11
15.5558
 21
572.609
  0
LINE
  8
0
 10
15.5558
 20
572.609
 11
15.4194
 21
572.895
  0
LINE
  8
0
 10
15.4194
 20
572.895
 11
15.3015
 21
573.19
  0
LINE
  8
0
 10
15.3015
 20
573.19
 11
15.2025
 21
573.491
  0
LINE
  8
0
 10
15.2025
 20
573.491
 11
15.1228
 21
573.798
  0
LINE
  8
0
 10
15.1228
 20
573.798
 11
15.0628
 21
574.11
  0
LINE
  8
0
 10
15.0628
 20
574.11
 11
15.0226
 21
574.425
  0
LINE
  8
0
 10
15.0226
 20
574.425
 11
15.0025
 21
574.741
  0
LINE
  8
0
 10
15.0025
 20
574.741
 11
15.0025
 21
575.059
  0
LINE
  8
0
 10
15.0025
 20
575.059
 11
15.0226
 21
575.375
  0
LINE
  8
0
 10
15.0226
 20
575.375
 11
15.0628
 21
575.69
  0
LINE
  8
0
 10
15.0628
 20
575.69
 11
15.1228
 21
576.002
  0
LINE
  8
0
 10
15.1228
 20
576.002
 11
15.2025
 21
576.309
  0
LINE
  8
0
 10
15.2025
 20
576.309
 11
15.3015
 21
576.61
  0
LINE
  8
0
 10
15.3015
 20
576.61
 11
15.4194
 21
576.905
  0
LINE
  8
0
 10
15.4194
 20
576.905
 11
15.5558
 21
577.191
  0
LINE
  8
0
 10
15.5558
 20
577.191
 11
15.7101
 21
577.468
  0
LINE
  8
0
 10
15.7101
 20
577.468
 11
15.8816
 21
577.735
  0
LINE
  8
0
 10
15.8816
 20
577.735
 11
16.0697
 21
577.991
  0
LINE
  8
0
 10
16.0697
 20
577.991
 11
16.2737
 21
578.234
  0
LINE
  8
0
 10
16.2737
 20
578.234
 11
16.4926
 21
578.464
  0
LINE
  8
0
 10
16.4926
 20
578.464
 11
16.7257
 21
578.679
  0
LINE
  8
0
 10
16.7257
 20
578.679
 11
16.9719
 21
578.879
  0
LINE
  8
0
 10
16.9719
 20
578.879
 11
17.2304
 21
579.063
  0
LINE
  8
0
 10
17.2304
 20
579.063
 11
17.5
 21
579.23
  0
LINE
  8
0
 10
17.5
 20
579.23
 11
17.7797
 21
579.38
  0
LINE
  8
0
 10
17.7797
 20
579.38
 11
18.0683
 21
579.512
  0
LINE
  8
0
 10
18.0683
 20
579.512
 11
18.3647
 21
579.625
  0
LINE
  8
0
 10
18.3647
 20
579.625
 11
18.6676
 21
579.719
  0
LINE
  8
0
 10
18.6676
 20
579.719
 11
18.976
 21
579.794
  0
LINE
  8
0
 10
18.976
 20
579.794
 11
19.2884
 21
579.849
  0
LINE
  8
0
 10
19.2884
 20
579.849
 11
19.6037
 21
579.884
  0
LINE
  8
0
 10
19.6037
 20
579.884
 11
19.9207
 21
579.899
  0
LINE
  8
0
 10
19.9207
 20
579.899
 11
20.2379
 21
579.894
  0
LINE
  8
0
 10
20.2379
 20
579.894
 11
20.5542
 21
579.869
  0
LINE
  8
0
 10
20.5542
 20
579.869
 11
20.8682
 21
579.824
  0
LINE
  8
0
 10
20.8682
 20
579.824
 11
21.1788
 21
579.759
  0
LINE
  8
0
 10
21.1788
 20
579.759
 11
21.4846
 21
579.674
  0
LINE
  8
0
 10
21.4846
 20
579.674
 11
21.7844
 21
579.571
  0
LINE
  8
0
 10
21.7844
 20
579.571
 11
22.0771
 21
579.448
  0
LINE
  8
0
 10
22.0771
 20
579.448
 11
22.3613
 21
579.307
  0
LINE
  8
0
 10
22.3613
 20
579.307
 11
22.6361
 21
579.149
  0
LINE
  8
0
 10
22.6361
 20
579.149
 11
22.9003
 21
578.973
  0
LINE
  8
0
 10
22.9003
 20
578.973
 11
23.1528
 21
578.781
  0
LINE
  8
0
 10
23.1528
 20
578.781
 11
23.3925
 21
578.573
  0
LINE
  8
0
 10
23.3925
 20
578.573
 11
23.6187
 21
578.35
  0
LINE
  8
0
 10
23.6187
 20
578.35
 11
23.8302
 21
578.114
  0
LINE
  8
0
 10
23.8302
 20
578.114
 11
24.0264
 21
577.865
  0
LINE
  8
0
 10
24.0264
 20
577.865
 11
24.2063
 21
577.603
  0
LINE
  8
0
 10
24.2063
 20
577.603
 11
24.3692
 21
577.331
  0
LINE
  8
0
 10
24.3692
 20
577.331
 11
24.5146
 21
577.049
  0
LINE
  8
0
 10
24.5146
 20
577.049
 11
24.6418
 21
576.758
  0
LINE
  8
0
 10
24.6418
 20
576.758
 11
24.7504
 21
576.46
  0
LINE
  8
0
 10
24.7504
 20
576.46
 11
24.8397
 21
576.156
  0
LINE
  8
0
 10
24.8397
 20
576.156
 11
24.9096
 21
575.846
  0
LINE
  8
0
 10
24.9096
 20
575.846
 11
24.9598
 21
575.533
  0
LINE
  8
0
 10
24.9598
 20
575.533
 11
24.9899
 21
575.217
  0
LINE
  8
0
 10
24.9899
 20
575.217
 11
25
 21
574.9
  0
LINE
  8
0
 10
25
 20
574.9
 11
24.9899
 21
574.583
  0
LINE
  8
0
 10
24.9899
 20
574.583
 11
24.9598
 21
574.267
  0
LINE
  8
0
 10
24.9598
 20
574.267
 11
24.9096
 21
573.954
  0
LINE
  8
0
 10
24.9096
 20
573.954
 11
24.8397
 21
573.644
  0
LINE
  8
0
 10
24.8397
 20
573.644
 11
24.7504
 21
573.34
  0
LINE
  8
0
 10
24.7504
 20
573.34
 11
24.6418
 21
573.042
  0
LINE
  8
0
 10
24.6418
 20
573.042
 11
24.5146
 21
572.751
  0
LINE
  8
0
 10
24.5146
 20
572.751
 11
24.3692
 21
572.469
  0
LINE
  8
0
 10
24.3692
 20
572.469
 11
24.2063
 21
572.197
  0
LINE
  8
0
 10
24.2063
 20
572.197
 11
24.0264
 21
571.935
  0
LINE
  8
0
 10
24.0264
 20
571.935
 11
23.8302
 21
571.686
  0
LINE
  8
0
 10
23.8302
 20
571.686
 11
23.6187
 21
571.45
  0
LINE
  8
0
 10
23.6187
 20
571.45
 11
23.3925
 21
571.227
  0
LINE
  8
0
 10
23.3925
 20
571.227
 11
23.1528
 21
571.019
  0
LINE
  8
0
 10
23.1528
 20
571.019
 11
22.9003
 21
570.827
  0
LINE
  8
0
 10
22.9003
 20
570.827
 11
22.6361
 21
570.651
  0
LINE
  8
0
 10
22.6361
 20
570.651
 11
22.3613
 21
570.493
  0
LINE
  8
0
 10
22.3613
 20
570.493
 11
22.0771
 21
570.352
  0
LINE
  8
0
 10
22.0771
 20
570.352
 11
21.7844
 21
570.229
  0
LINE
  8
0
 10
21.7844
 20
570.229
 11
21.4846
 21
570.125
  0
LINE
  8
0
 10
21.4846
 20
570.125
 11
21.1788
 21
570.041
  0
LINE
  8
0
 10
21.1788
 20
570.041
 11
20.8682
 21
569.976
  0
LINE
  8
0
 10
20.8682
 20
569.976
 11
20.5542
 21
569.931
  0
LINE
  8
0
 10
20.5542
 20
569.931
 11
20.2379
 21
569.906
  0
LINE
  8
0
 10
20.2379
 20
569.906
 11
19.9207
 21
569.901
  0
LINE
  8
0
 10
19.9207
 20
569.901
 11
19.6037
 21
569.916
  0
LINE
  8
0
 10
343.702
 20
550.208
 11
343.544
 21
550.225
  0
LINE
  8
0
 10
343.544
 20
550.225
 11
343.388
 21
550.253
  0
LINE
  8
0
 10
343.388
 20
550.253
 11
343.234
 21
550.29
  0
LINE
  8
0
 10
343.234
 20
550.29
 11
343.082
 21
550.338
  0
LINE
  8
0
 10
343.082
 20
550.338
 11
342.934
 21
550.394
  0
LINE
  8
0
 10
342.934
 20
550.394
 11
342.79
 21
550.46
  0
LINE
  8
0
 10
342.79
 20
550.46
 11
342.65
 21
550.535
  0
LINE
  8
0
 10
342.65
 20
550.535
 11
342.515
 21
550.619
  0
LINE
  8
0
 10
342.515
 20
550.619
 11
342.386
 21
550.711
  0
LINE
  8
0
 10
342.386
 20
550.711
 11
342.263
 21
550.811
  0
LINE
  8
0
 10
342.263
 20
550.811
 11
342.146
 21
550.918
  0
LINE
  8
0
 10
342.146
 20
550.918
 11
342.037
 21
551.033
  0
LINE
  8
0
 10
342.037
 20
551.033
 11
341.935
 21
551.155
  0
LINE
  8
0
 10
341.935
 20
551.155
 11
341.841
 21
551.282
  0
LINE
  8
0
 10
341.841
 20
551.282
 11
341.755
 21
551.416
  0
LINE
  8
0
 10
341.755
 20
551.416
 11
341.678
 21
551.554
  0
LINE
  8
0
 10
341.678
 20
551.554
 11
341.61
 21
551.698
  0
LINE
  8
0
 10
341.61
 20
551.698
 11
341.551
 21
551.845
  0
LINE
  8
0
 10
341.551
 20
551.845
 11
341.501
 21
551.996
  0
LINE
  8
0
 10
341.501
 20
551.996
 11
341.461
 21
552.149
  0
LINE
  8
0
 10
341.461
 20
552.149
 11
341.431
 21
552.305
  0
LINE
  8
0
 10
341.431
 20
552.305
 11
341.411
 21
552.462
  0
LINE
  8
0
 10
341.411
 20
552.462
 11
341.401
 21
552.621
  0
LINE
  8
0
 10
341.401
 20
552.621
 11
341.401
 21
552.779
  0
LINE
  8
0
 10
341.401
 20
552.779
 11
341.411
 21
552.938
  0
LINE
  8
0
 10
341.411
 20
552.938
 11
341.431
 21
553.095
  0
LINE
  8
0
 10
341.431
 20
553.095
 11
341.461
 21
553.251
  0
LINE
  8
0
 10
341.461
 20
553.251
 11
341.501
 21
553.404
  0
LINE
  8
0
 10
341.501
 20
553.404
 11
341.551
 21
553.555
  0
LINE
  8
0
 10
341.551
 20
553.555
 11
341.61
 21
553.702
  0
LINE
  8
0
 10
341.61
 20
553.702
 11
341.678
 21
553.846
  0
LINE
  8
0
 10
341.678
 20
553.846
 11
341.755
 21
553.984
  0
LINE
  8
0
 10
341.755
 20
553.984
 11
341.841
 21
554.118
  0
LINE
  8
0
 10
341.841
 20
554.118
 11
341.935
 21
554.245
  0
LINE
  8
0
 10
341.935
 20
554.245
 11
342.037
 21
554.367
  0
LINE
  8
0
 10
342.037
 20
554.367
 11
342.146
 21
554.482
  0
LINE
  8
0
 10
342.146
 20
554.482
 11
342.263
 21
554.589
  0
LINE
  8
0
 10
342.263
 20
554.589
 11
342.386
 21
554.689
  0
LINE
  8
0
 10
342.386
 20
554.689
 11
342.515
 21
554.781
  0
LINE
  8
0
 10
342.515
 20
554.781
 11
342.65
 21
554.865
  0
LINE
  8
0
 10
342.65
 20
554.865
 11
342.79
 21
554.94
  0
LINE
  8
0
 10
342.79
 20
554.94
 11
342.934
 21
555.006
  0
LINE
  8
0
 10
342.934
 20
555.006
 11
343.082
 21
555.062
  0
LINE
  8
0
 10
343.082
 20
555.062
 11
343.234
 21
555.11
  0
LINE
  8
0
 10
343.234
 20
555.11
 11
343.388
 21
555.147
  0
LINE
  8
0
 10
343.388
 20
555.147
 11
343.544
 21
555.175
  0
LINE
  8
0
 10
343.544
 20
555.175
 11
343.702
 21
555.192
  0
LINE
  8
0
 10
343.702
 20
555.192
 11
343.86
 21
555.2
  0
LINE
  8
0
 10
343.86
 20
555.2
 11
344.019
 21
555.197
  0
LINE
  8
0
 10
344.019
 20
555.197
 11
344.177
 21
555.185
  0
LINE
  8
0
 10
344.177
 20
555.185
 11
344.334
 21
555.162
  0
LINE
  8
0
 10
344.334
 20
555.162
 11
344.489
 21
555.13
  0
LINE
  8
0
 10
344.489
 20
555.13
 11
344.642
 21
555.087
  0
LINE
  8
0
 10
344.642
 20
555.087
 11
344.792
 21
555.035
  0
LINE
  8
0
 10
344.792
 20
555.035
 11
344.939
 21
554.974
  0
LINE
  8
0
 10
344.939
 20
554.974
 11
345.081
 21
554.904
  0
LINE
  8
0
 10
345.081
 20
554.904
 11
345.218
 21
554.824
  0
LINE
  8
0
 10
345.218
 20
554.824
 11
345.35
 21
554.736
  0
LINE
  8
0
 10
345.35
 20
554.736
 11
345.476
 21
554.64
  0
LINE
  8
0
 10
345.476
 20
554.64
 11
345.596
 21
554.536
  0
LINE
  8
0
 10
345.596
 20
554.536
 11
345.709
 21
554.425
  0
LINE
  8
0
 10
345.709
 20
554.425
 11
345.815
 21
554.307
  0
LINE
  8
0
 10
345.815
 20
554.307
 11
345.913
 21
554.182
  0
LINE
  8
0
 10
345.913
 20
554.182
 11
346.003
 21
554.052
  0
LINE
  8
0
 10
346.003
 20
554.052
 11
346.085
 21
553.915
  0
LINE
  8
0
 10
346.085
 20
553.915
 11
346.157
 21
553.774
  0
LINE
  8
0
 10
346.157
 20
553.774
 11
346.221
 21
553.629
  0
LINE
  8
0
 10
346.221
 20
553.629
 11
346.275
 21
553.48
  0
LINE
  8
0
 10
346.275
 20
553.48
 11
346.32
 21
553.328
  0
LINE
  8
0
 10
346.32
 20
553.328
 11
346.355
 21
553.173
  0
LINE
  8
0
 10
346.355
 20
553.173
 11
346.38
 21
553.016
  0
LINE
  8
0
 10
346.38
 20
553.016
 11
346.395
 21
552.859
  0
LINE
  8
0
 10
346.395
 20
552.859
 11
346.4
 21
552.7
  0
LINE
  8
0
 10
346.4
 20
552.7
 11
346.395
 21
552.541
  0
LINE
  8
0
 10
346.395
 20
552.541
 11
346.38
 21
552.384
  0
LINE
  8
0
 10
346.38
 20
552.384
 11
346.355
 21
552.227
  0
LINE
  8
0
 10
346.355
 20
552.227
 11
346.32
 21
552.072
  0
LINE
  8
0
 10
346.32
 20
552.072
 11
346.275
 21
551.92
  0
LINE
  8
0
 10
346.275
 20
551.92
 11
346.221
 21
551.771
  0
LINE
  8
0
 10
346.221
 20
551.771
 11
346.157
 21
551.625
  0
LINE
  8
0
 10
346.157
 20
551.625
 11
346.085
 21
551.484
  0
LINE
  8
0
 10
346.085
 20
551.484
 11
346.003
 21
551.348
  0
LINE
  8
0
 10
346.003
 20
551.348
 11
345.913
 21
551.218
  0
LINE
  8
0
 10
345.913
 20
551.218
 11
345.815
 21
551.093
  0
LINE
  8
0
 10
345.815
 20
551.093
 11
345.709
 21
550.975
  0
LINE
  8
0
 10
345.709
 20
550.975
 11
345.596
 21
550.864
  0
LINE
  8
0
 10
345.596
 20
550.864
 11
345.476
 21
550.76
  0
LINE
  8
0
 10
345.476
 20
550.76
 11
345.35
 21
550.664
  0
LINE
  8
0
 10
345.35
 20
550.664
 11
345.218
 21
550.576
  0
LINE
  8
0
 10
345.218
 20
550.576
 11
345.081
 21
550.496
  0
LINE
  8
0
 10
345.081
 20
550.496
 11
344.939
 21
550.426
  0
LINE
  8
0
 10
344.939
 20
550.426
 11
344.792
 21
550.365
  0
LINE
  8
0
 10
344.792
 20
550.365
 11
344.642
 21
550.313
  0
LINE
  8
0
 10
344.642
 20
550.313
 11
344.489
 21
550.27
  0
LINE
  8
0
 10
344.489
 20
550.27
 11
344.334
 21
550.238
  0
LINE
  8
0
 10
344.334
 20
550.238
 11
344.177
 21
550.215
  0
LINE
  8
0
 10
344.177
 20
550.215
 11
344.019
 21
550.203
  0
LINE
  8
0
 10
344.019
 20
550.203
 11
343.86
 21
550.2
  0
LINE
  8
0
 10
343.86
 20
550.2
 11
343.702
 21
550.208
  0
LINE
  8
0
 10
283.181
 20
550.203
 11
283.023
 21
550.215
  0
LINE
  8
0
 10
283.023
 20
550.215
 11
282.866
 21
550.238
  0
LINE
  8
0
 10
282.866
 20
550.238
 11
282.711
 21
550.27
  0
LINE
  8
0
 10
282.711
 20
550.27
 11
282.558
 21
550.313
  0
LINE
  8
0
 10
282.558
 20
550.313
 11
282.408
 21
550.365
  0
LINE
  8
0
 10
282.408
 20
550.365
 11
282.261
 21
550.426
  0
LINE
  8
0
 10
282.261
 20
550.426
 11
282.119
 21
550.496
  0
LINE
  8
0
 10
282.119
 20
550.496
 11
281.982
 21
550.576
  0
LINE
  8
0
 10
281.982
 20
550.576
 11
281.85
 21
550.664
  0
LINE
  8
0
 10
281.85
 20
550.664
 11
281.724
 21
550.76
  0
LINE
  8
0
 10
281.724
 20
550.76
 11
281.604
 21
550.864
  0
LINE
  8
0
 10
281.604
 20
550.864
 11
281.491
 21
550.975
  0
LINE
  8
0
 10
281.491
 20
550.975
 11
281.385
 21
551.093
  0
LINE
  8
0
 10
281.385
 20
551.093
 11
281.287
 21
551.218
  0
LINE
  8
0
 10
281.287
 20
551.218
 11
281.197
 21
551.348
  0
LINE
  8
0
 10
281.197
 20
551.348
 11
281.115
 21
551.484
  0
LINE
  8
0
 10
281.115
 20
551.484
 11
281.043
 21
551.625
  0
LINE
  8
0
 10
281.043
 20
551.625
 11
280.979
 21
551.771
  0
LINE
  8
0
 10
280.979
 20
551.771
 11
280.925
 21
551.92
  0
LINE
  8
0
 10
280.925
 20
551.92
 11
280.88
 21
552.072
  0
LINE
  8
0
 10
280.88
 20
552.072
 11
280.845
 21
552.227
  0
LINE
  8
0
 10
280.845
 20
552.227
 11
280.82
 21
552.384
  0
LINE
  8
0
 10
280.82
 20
552.384
 11
280.805
 21
552.541
  0
LINE
  8
0
 10
280.805
 20
552.541
 11
280.8
 21
552.7
  0
LINE
  8
0
 10
280.8
 20
552.7
 11
280.805
 21
552.859
  0
LINE
  8
0
 10
280.805
 20
552.859
 11
280.82
 21
553.016
  0
LINE
  8
0
 10
280.82
 20
553.016
 11
280.845
 21
553.173
  0
LINE
  8
0
 10
280.845
 20
553.173
 11
280.88
 21
553.328
  0
LINE
  8
0
 10
280.88
 20
553.328
 11
280.925
 21
553.48
  0
LINE
  8
0
 10
280.925
 20
553.48
 11
280.979
 21
553.629
  0
LINE
  8
0
 10
280.979
 20
553.629
 11
281.043
 21
553.774
  0
LINE
  8
0
 10
281.043
 20
553.774
 11
281.115
 21
553.915
  0
LINE
  8
0
 10
281.115
 20
553.915
 11
281.197
 21
554.052
  0
LINE
  8
0
 10
281.197
 20
554.052
 11
281.287
 21
554.182
  0
LINE
  8
0
 10
281.287
 20
554.182
 11
281.385
 21
554.307
  0
LINE
  8
0
 10
281.385
 20
554.307
 11
281.491
 21
554.425
  0
LINE
  8
0
 10
281.491
 20
554.425
 11
281.604
 21
554.536
  0
LINE
  8
0
 10
281.604
 20
554.536
 11
281.724
 21
554.64
  0
LINE
  8
0
 10
281.724
 20
554.64
 11
281.85
 21
554.736
  0
LINE
  8
0
 10
281.85
 20
554.736
 11
281.982
 21
554.824
  0
LINE
  8
0
 10
281.982
 20
554.824
 11
282.119
 21
554.904
  0
LINE
  8
0
 10
282.119
 20
554.904
 11
282.261
 21
554.974
  0
LINE
  8
0
 10
282.261
 20
554.974
 11
282.408
 21
555.035
  0
LINE
  8
0
 10
282.408
 20
555.035
 11
282.558
 21
555.087
  0
LINE
  8
0
 10
282.558
 20
555.087
 11
282.711
 21
555.13
  0
LINE
  8
0
 10
282.711
 20
555.13
 11
282.866
 21
555.162
  0
LINE
  8
0
 10
282.866
 20
555.162
 11
283.023
 21
555.185
  0
LINE
  8
0
 10
283.023
 20
555.185
 11
283.181
 21
555.197
  0
LINE
  8
0
 10
283.181
 20
555.197
 11
283.34
 21
555.2
  0
LINE
  8
0
 10
283.34
 20
555.2
 11
283.498
 21
555.192
  0
LINE
  8
0
 10
283.498
 20
555.192
 11
283.656
 21
555.175
  0
LINE
  8
0
 10
283.656
 20
555.175
 11
283.812
 21
555.147
  0
LINE
  8
0
 10
283.812
 20
555.147
 11
283.966
 21
555.11
  0
LINE
  8
0
 10
283.966
 20
555.11
 11
284.118
 21
555.062
  0
LINE
  8
0
 10
284.118
 20
555.062
 11
284.266
 21
555.006
  0
LINE
  8
0
 10
284.266
 20
555.006
 11
284.41
 21
554.94
  0
LINE
  8
0
 10
284.41
 20
554.94
 11
284.55
 21
554.865
  0
LINE
  8
0
 10
284.55
 20
554.865
 11
284.685
 21
554.781
  0
LINE
  8
0
 10
284.685
 20
554.781
 11
284.814
 21
554.689
  0
LINE
  8
0
 10
284.814
 20
554.689
 11
284.937
 21
554.589
  0
LINE
  8
0
 10
284.937
 20
554.589
 11
285.054
 21
554.482
  0
LINE
  8
0
 10
285.054
 20
554.482
 11
285.163
 21
554.367
  0
LINE
  8
0
 10
285.163
 20
554.367
 11
285.265
 21
554.245
  0
LINE
  8
0
 10
285.265
 20
554.245
 11
285.359
 21
554.118
  0
LINE
  8
0
 10
285.359
 20
554.118
 11
285.445
 21
553.984
  0
LINE
  8
0
 10
285.445
 20
553.984
 11
285.522
 21
553.846
  0
LINE
  8
0
 10
285.522
 20
553.846
 11
285.59
 21
553.702
  0
LINE
  8
0
 10
285.59
 20
553.702
 11
285.649
 21
553.555
  0
LINE
  8
0
 10
285.649
 20
553.555
 11
285.699
 21
553.404
  0
LINE
  8
0
 10
285.699
 20
553.404
 11
285.739
 21
553.251
  0
LINE
  8
0
 10
285.739
 20
553.251
 11
285.769
 21
553.095
  0
LINE
  8
0
 10
285.769
 20
553.095
 11
285.789
 21
552.938
  0
LINE
  8
0
 10
285.789
 20
552.938
 11
285.799
 21
552.779
  0
LINE
  8
0
 10
285.799
 20
552.779
 11
285.799
 21
552.621
  0
LINE
  8
0
 10
285.799
 20
552.621
 11
285.789
 21
552.462
  0
LINE
  8
0
 10
285.789
 20
552.462
 11
285.769
 21
552.305
  0
LINE
  8
0
 10
285.769
 20
552.305
 11
285.739
 21
552.149
  0
LINE
  8
0
 10
285.739
 20
552.149
 11
285.699
 21
551.996
  0
LINE
  8
0
 10
285.699
 20
551.996
 11
285.649
 21
551.845
  0
LINE
  8
0
 10
285.649
 20
551.845
 11
285.59
 21
551.698
  0
LINE
  8
0
 10
285.59
 20
551.698
 11
285.522
 21
551.554
  0
LINE
  8
0
 10
285.522
 20
551.554
 11
285.445
 21
551.416
  0
LINE
  8
0
 10
285.445
 20
551.416
 11
285.359
 21
551.282
  0
LINE
  8
0
 10
285.359
 20
551.282
 11
285.265
 21
551.155
  0
LINE
  8
0
 10
285.265
 20
551.155
 11
285.163
 21
551.033
  0
LINE
  8
0
 10
285.163
 20
551.033
 11
285.054
 21
550.918
  0
LINE
  8
0
 10
285.054
 20
550.918
 11
284.937
 21
550.811
  0
LINE
  8
0
 10
284.937
 20
550.811
 11
284.814
 21
550.711
  0
LINE
  8
0
 10
284.814
 20
550.711
 11
284.685
 21
550.619
  0
LINE
  8
0
 10
284.685
 20
550.619
 11
284.55
 21
550.535
  0
LINE
  8
0
 10
284.55
 20
550.535
 11
284.41
 21
550.46
  0
LINE
  8
0
 10
284.41
 20
550.46
 11
284.266
 21
550.394
  0
LINE
  8
0
 10
284.266
 20
550.394
 11
284.118
 21
550.338
  0
LINE
  8
0
 10
284.118
 20
550.338
 11
283.966
 21
550.29
  0
LINE
  8
0
 10
283.966
 20
550.29
 11
283.812
 21
550.253
  0
LINE
  8
0
 10
283.812
 20
550.253
 11
283.656
 21
550.225
  0
LINE
  8
0
 10
283.656
 20
550.225
 11
283.498
 21
550.208
  0
LINE
  8
0
 10
283.498
 20
550.208
 11
283.34
 21
550.2
  0
LINE
  8
0
 10
283.34
 20
550.2
 11
283.181
 21
550.203
  0
LINE
  8
0
 10
311.223
 20
492.494
 11
309.331
 21
492.705
  0
LINE
  8
0
 10
309.331
 20
492.705
 11
307.456
 21
493.036
  0
LINE
  8
0
 10
307.456
 20
493.036
 11
305.606
 21
493.485
  0
LINE
  8
0
 10
305.606
 20
493.485
 11
303.788
 21
494.05
  0
LINE
  8
0
 10
303.788
 20
494.05
 11
302.01
 21
494.729
  0
LINE
  8
0
 10
302.01
 20
494.729
 11
300.278
 21
495.52
  0
LINE
  8
0
 10
300.278
 20
495.52
 11
298.6
 21
496.419
  0
LINE
  8
0
 10
298.6
 20
496.419
 11
296.982
 21
497.423
  0
LINE
  8
0
 10
296.982
 20
497.423
 11
295.432
 21
498.527
  0
LINE
  8
0
 10
295.432
 20
498.527
 11
293.954
 21
499.728
  0
LINE
  8
0
 10
293.954
 20
499.728
 11
292.556
 21
501.019
  0
LINE
  8
0
 10
292.556
 20
501.019
 11
291.242
 21
502.397
  0
LINE
  8
0
 10
291.242
 20
502.397
 11
290.018
 21
503.855
  0
LINE
  8
0
 10
290.018
 20
503.855
 11
288.89
 21
505.388
  0
LINE
  8
0
 10
288.89
 20
505.388
 11
287.861
 21
506.99
  0
LINE
  8
0
 10
287.861
 20
506.99
 11
286.935
 21
508.653
  0
LINE
  8
0
 10
286.935
 20
508.653
 11
286.117
 21
510.372
  0
LINE
  8
0
 10
286.117
 20
510.372
 11
285.409
 21
512.139
  0
LINE
  8
0
 10
285.409
 20
512.139
 11
284.815
 21
513.948
  0
LINE
  8
0
 10
284.815
 20
513.948
 11
284.337
 21
515.791
  0
LINE
  8
0
 10
284.337
 20
515.791
 11
283.977
 21
517.66
  0
LINE
  8
0
 10
283.977
 20
517.66
 11
283.736
 21
519.548
  0
LINE
  8
0
 10
283.736
 20
519.548
 11
283.615
 21
521.448
  0
LINE
  8
0
 10
283.615
 20
521.448
 11
283.615
 21
523.352
  0
LINE
  8
0
 10
283.615
 20
523.352
 11
283.736
 21
525.252
  0
LINE
  8
0
 10
283.736
 20
525.252
 11
283.977
 21
527.14
  0
LINE
  8
0
 10
283.977
 20
527.14
 11
284.337
 21
529.009
  0
LINE
  8
0
 10
284.337
 20
529.009
 11
284.815
 21
530.852
  0
LINE
  8
0
 10
284.815
 20
530.852
 11
285.409
 21
532.661
  0
LINE
  8
0
 10
285.409
 20
532.661
 11
286.117
 21
534.428
  0
LINE
  8
0
 10
286.117
 20
534.428
 11
286.935
 21
536.147
  0
LINE
  8
0
 10
286.935
 20
536.147
 11
287.861
 21
537.81
  0
LINE
  8
0
 10
287.861
 20
537.81
 11
288.89
 21
539.412
  0
LINE
  8
0
 10
288.89
 20
539.412
 11
290.018
 21
540.945
  0
LINE
  8
0
 10
290.018
 20
540.945
 11
291.242
 21
542.403
  0
LINE
  8
0
 10
291.242
 20
542.403
 11
292.556
 21
543.781
  0
LINE
  8
0
 10
292.556
 20
543.781
 11
293.954
 21
545.073
  0
LINE
  8
0
 10
293.954
 20
545.073
 11
295.432
 21
546.273
  0
LINE
  8
0
 10
295.432
 20
546.273
 11
296.982
 21
547.377
  0
LINE
  8
0
 10
296.982
 20
547.377
 11
298.6
 21
548.381
  0
LINE
  8
0
 10
298.6
 20
548.381
 11
300.278
 21
549.28
  0
LINE
  8
0
 10
300.278
 20
549.28
 11
302.01
 21
550.071
  0
LINE
  8
0
 10
302.01
 20
550.071
 11
303.788
 21
550.75
  0
LINE
  8
0
 10
303.788
 20
550.75
 11
305.606
 21
551.315
  0
LINE
  8
0
 10
305.606
 20
551.315
 11
307.456
 21
551.764
  0
LINE
  8
0
 10
307.456
 20
551.764
 11
309.331
 21
552.095
  0
LINE
  8
0
 10
309.331
 20
552.095
 11
311.223
 21
552.306
  0
LINE
  8
0
 10
311.223
 20
552.306
 11
313.124
 21
552.396
  0
LINE
  8
0
 10
313.124
 20
552.396
 11
315.027
 21
552.366
  0
LINE
  8
0
 10
315.027
 20
552.366
 11
316.925
 21
552.215
  0
LINE
  8
0
 10
316.925
 20
552.215
 11
318.809
 21
551.944
  0
LINE
  8
0
 10
318.809
 20
551.944
 11
320.673
 21
551.554
  0
LINE
  8
0
 10
320.673
 20
551.554
 11
322.508
 21
551.047
  0
LINE
  8
0
 10
322.508
 20
551.047
 11
324.307
 21
550.424
  0
LINE
  8
0
 10
324.307
 20
550.424
 11
326.062
 21
549.689
  0
LINE
  8
0
 10
326.062
 20
549.689
 11
327.768
 21
548.844
  0
LINE
  8
0
 10
327.768
 20
548.844
 11
329.417
 21
547.892
  0
LINE
  8
0
 10
329.417
 20
547.892
 11
331.002
 21
546.837
  0
LINE
  8
0
 10
331.002
 20
546.837
 11
332.517
 21
545.684
  0
LINE
  8
0
 10
332.517
 20
545.684
 11
333.955
 21
544.438
  0
LINE
  8
0
 10
333.955
 20
544.438
 11
335.312
 21
543.102
  0
LINE
  8
0
 10
335.312
 20
543.102
 11
336.581
 21
541.684
  0
LINE
  8
0
 10
336.581
 20
541.684
 11
337.758
 21
540.187
  0
LINE
  8
0
 10
337.758
 20
540.187
 11
338.838
 21
538.619
  0
LINE
  8
0
 10
338.838
 20
538.619
 11
339.815
 21
536.986
  0
LINE
  8
0
 10
339.815
 20
536.986
 11
340.688
 21
535.294
  0
LINE
  8
0
 10
340.688
 20
535.294
 11
341.451
 21
533.55
  0
LINE
  8
0
 10
341.451
 20
533.55
 11
342.102
 21
531.761
  0
LINE
  8
0
 10
342.102
 20
531.761
 11
342.638
 21
529.934
  0
LINE
  8
0
 10
342.638
 20
529.934
 11
343.058
 21
528.078
  0
LINE
  8
0
 10
343.058
 20
528.078
 11
343.359
 21
526.198
  0
LINE
  8
0
 10
343.359
 20
526.198
 11
343.54
 21
524.303
  0
LINE
  8
0
 10
343.54
 20
524.303
 11
343.6
 21
522.4
  0
LINE
  8
0
 10
343.6
 20
522.4
 11
343.54
 21
520.497
  0
LINE
  8
0
 10
343.54
 20
520.497
 11
343.359
 21
518.602
  0
LINE
  8
0
 10
343.359
 20
518.602
 11
343.058
 21
516.722
  0
LINE
  8
0
 10
343.058
 20
516.722
 11
342.638
 21
514.866
  0
LINE
  8
0
 10
342.638
 20
514.866
 11
342.102
 21
513.039
  0
LINE
  8
0
 10
342.102
 20
513.039
 11
341.451
 21
511.25
  0
LINE
  8
0
 10
341.451
 20
511.25
 11
340.688
 21
509.506
  0
LINE
  8
0
 10
340.688
 20
509.506
 11
339.815
 21
507.814
  0
LINE
  8
0
 10
339.815
 20
507.814
 11
338.838
 21
506.181
  0
LINE
  8
0
 10
338.838
 20
506.181
 11
337.758
 21
504.613
  0
LINE
  8
0
 10
337.758
 20
504.613
 11
336.581
 21
503.116
  0
LINE
  8
0
 10
336.581
 20
503.116
 11
335.312
 21
501.698
  0
LINE
  8
0
 10
335.312
 20
501.698
 11
333.955
 21
500.362
  0
LINE
  8
0
 10
333.955
 20
500.362
 11
332.517
 21
499.116
  0
LINE
  8
0
 10
332.517
 20
499.116
 11
331.002
 21
497.963
  0
LINE
  8
0
 10
331.002
 20
497.963
 11
329.417
 21
496.908
  0
LINE
  8
0
 10
329.417
 20
496.908
 11
327.768
 21
495.956
  0
LINE
  8
0
 10
327.768
 20
495.956
 11
326.062
 21
495.111
  0
LINE
  8
0
 10
326.062
 20
495.111
 11
324.307
 21
494.376
  0
LINE
  8
0
 10
324.307
 20
494.376
 11
322.508
 21
493.753
  0
LINE
  8
0
 10
322.508
 20
493.753
 11
320.673
 21
493.246
  0
LINE
  8
0
 10
320.673
 20
493.246
 11
318.809
 21
492.856
  0
LINE
  8
0
 10
318.809
 20
492.856
 11
316.925
 21
492.585
  0
LINE
  8
0
 10
316.925
 20
492.585
 11
315.027
 21
492.434
  0
LINE
  8
0
 10
315.027
 20
492.434
 11
313.124
 21
492.404
  0
LINE
  8
0
 10
313.124
 20
492.404
 11
311.223
 21
492.494
  0
LINE
  8
0
 10
288.481
 20
544.903
 11
288.323
 21
544.915
  0
LINE
  8
0
 10
288.323
 20
544.915
 11
288.166
 21
544.938
  0
LINE
  8
0
 10
288.166
 20
544.938
 11
288.011
 21
544.97
  0
LINE
  8
0
 10
288.011
 20
544.97
 11
287.858
 21
545.013
  0
LINE
  8
0
 10
287.858
 20
545.013
 11
287.708
 21
545.065
  0
LINE
  8
0
 10
287.708
 20
545.065
 11
287.561
 21
545.126
  0
LINE
  8
0
 10
287.561
 20
545.126
 11
287.419
 21
545.196
  0
LINE
  8
0
 10
287.419
 20
545.196
 11
287.282
 21
545.276
  0
LINE
  8
0
 10
287.282
 20
545.276
 11
287.15
 21
545.364
  0
LINE
  8
0
 10
287.15
 20
545.364
 11
287.024
 21
545.46
  0
LINE
  8
0
 10
287.024
 20
545.46
 11
286.904
 21
545.564
  0
LINE
  8
0
 10
286.904
 20
545.564
 11
286.791
 21
545.675
  0
LINE
  8
0
 10
286.791
 20
545.675
 11
286.685
 21
545.793
  0
LINE
  8
0
 10
286.685
 20
545.793
 11
286.587
 21
545.918
  0
LINE
  8
0
 10
286.587
 20
545.918
 11
286.497
 21
546.048
  0
LINE
  8
0
 10
286.497
 20
546.048
 11
286.415
 21
546.185
  0
LINE
  8
0
 10
286.415
 20
546.185
 11
286.343
 21
546.326
  0
LINE
  8
0
 10
286.343
 20
546.326
 11
286.279
 21
546.471
  0
LINE
  8
0
 10
286.279
 20
546.471
 11
286.225
 21
546.62
  0
LINE
  8
0
 10
286.225
 20
546.62
 11
286.18
 21
546.772
  0
LINE
  8
0
 10
286.18
 20
546.772
 11
286.145
 21
546.927
  0
LINE
  8
0
 10
286.145
 20
546.927
 11
286.12
 21
547.083
  0
LINE
  8
0
 10
286.12
 20
547.083
 11
286.105
 21
547.241
  0
LINE
  8
0
 10
286.105
 20
547.241
 11
286.1
 21
547.4
  0
LINE
  8
0
 10
286.1
 20
547.4
 11
286.105
 21
547.559
  0
LINE
  8
0
 10
286.105
 20
547.559
 11
286.12
 21
547.716
  0
LINE
  8
0
 10
286.12
 20
547.716
 11
286.145
 21
547.873
  0
LINE
  8
0
 10
286.145
 20
547.873
 11
286.18
 21
548.028
  0
LINE
  8
0
 10
286.18
 20
548.028
 11
286.225
 21
548.18
  0
LINE
  8
0
 10
286.225
 20
548.18
 11
286.279
 21
548.329
  0
LINE
  8
0
 10
286.279
 20
548.329
 11
286.343
 21
548.474
  0
LINE
  8
0
 10
286.343
 20
548.474
 11
286.415
 21
548.615
  0
LINE
  8
0
 10
286.415
 20
548.615
 11
286.497
 21
548.752
  0
LINE
  8
0
 10
286.497
 20
548.752
 11
286.587
 21
548.882
  0
LINE
  8
0
 10
286.587
 20
548.882
 11
286.685
 21
549.007
  0
LINE
  8
0
 10
286.685
 20
549.007
 11
286.791
 21
549.125
  0
LINE
  8
0
 10
286.791
 20
549.125
 11
286.904
 21
549.236
  0
LINE
  8
0
 10
286.904
 20
549.236
 11
287.024
 21
549.34
  0
LINE
  8
0
 10
287.024
 20
549.34
 11
287.15
 21
549.436
  0
LINE
  8
0
 10
287.15
 20
549.436
 11
287.282
 21
549.524
  0
LINE
  8
0
 10
287.282
 20
549.524
 11
287.419
 21
549.604
  0
LINE
  8
0
 10
287.419
 20
549.604
 11
287.561
 21
549.674
  0
LINE
  8
0
 10
287.561
 20
549.674
 11
287.708
 21
549.735
  0
LINE
  8
0
 10
287.708
 20
549.735
 11
287.858
 21
549.787
  0
LINE
  8
0
 10
287.858
 20
549.787
 11
288.011
 21
549.83
  0
LINE
  8
0
 10
288.011
 20
549.83
 11
288.166
 21
549.862
  0
LINE
  8
0
 10
288.166
 20
549.862
 11
288.323
 21
549.885
  0
LINE
  8
0
 10
288.323
 20
549.885
 11
288.481
 21
549.897
  0
LINE
  8
0
 10
288.481
 20
549.897
 11
288.64
 21
549.9
  0
LINE
  8
0
 10
288.64
 20
549.9
 11
288.798
 21
549.892
  0
LINE
  8
0
 10
288.798
 20
549.892
 11
288.956
 21
549.875
  0
LINE
  8
0
 10
288.956
 20
549.875
 11
289.112
 21
549.847
  0
LINE
  8
0
 10
289.112
 20
549.847
 11
289.266
 21
549.81
  0
LINE
  8
0
 10
289.266
 20
549.81
 11
289.418
 21
549.763
  0
LINE
  8
0
 10
289.418
 20
549.763
 11
289.566
 21
549.706
  0
LINE
  8
0
 10
289.566
 20
549.706
 11
289.71
 21
549.64
  0
LINE
  8
0
 10
289.71
 20
549.64
 11
289.85
 21
549.565
  0
LINE
  8
0
 10
289.85
 20
549.565
 11
289.985
 21
549.481
  0
LINE
  8
0
 10
289.985
 20
549.481
 11
290.114
 21
549.389
  0
LINE
  8
0
 10
290.114
 20
549.389
 11
290.237
 21
549.289
  0
LINE
  8
0
 10
290.237
 20
549.289
 11
290.354
 21
549.182
  0
LINE
  8
0
 10
290.354
 20
549.182
 11
290.463
 21
549.067
  0
LINE
  8
0
 10
290.463
 20
549.067
 11
290.565
 21
548.945
  0
LINE
  8
0
 10
290.565
 20
548.945
 11
290.659
 21
548.818
  0
LINE
  8
0
 10
290.659
 20
548.818
 11
290.745
 21
548.684
  0
LINE
  8
0
 10
290.745
 20
548.684
 11
290.822
 21
548.546
  0
LINE
  8
0
 10
290.822
 20
548.546
 11
290.89
 21
548.402
  0
LINE
  8
0
 10
290.89
 20
548.402
 11
290.949
 21
548.255
  0
LINE
  8
0
 10
290.949
 20
548.255
 11
290.999
 21
548.104
  0
LINE
  8
0
 10
290.999
 20
548.104
 11
291.039
 21
547.951
  0
LINE
  8
0
 10
291.039
 20
547.951
 11
291.069
 21
547.795
  0
LINE
  8
0
 10
291.069
 20
547.795
 11
291.089
 21
547.638
  0
LINE
  8
0
 10
291.089
 20
547.638
 11
291.099
 21
547.479
  0
LINE
  8
0
 10
291.099
 20
547.479
 11
291.099
 21
547.321
  0
LINE
  8
0
 10
291.099
 20
547.321
 11
291.089
 21
547.162
  0
LINE
  8
0
 10
291.089
 20
547.162
 11
291.069
 21
547.005
  0
LINE
  8
0
 10
291.069
 20
547.005
 11
291.039
 21
546.849
  0
LINE
  8
0
 10
291.039
 20
546.849
 11
290.999
 21
546.696
  0
LINE
  8
0
 10
290.999
 20
546.696
 11
290.949
 21
546.545
  0
LINE
  8
0
 10
290.949
 20
546.545
 11
290.89
 21
546.398
  0
LINE
  8
0
 10
290.89
 20
546.398
 11
290.822
 21
546.254
  0
LINE
  8
0
 10
290.822
 20
546.254
 11
290.745
 21
546.116
  0
LINE
  8
0
 10
290.745
 20
546.116
 11
290.659
 21
545.982
  0
LINE
  8
0
 10
290.659
 20
545.982
 11
290.565
 21
545.855
  0
LINE
  8
0
 10
290.565
 20
545.855
 11
290.463
 21
545.733
  0
LINE
  8
0
 10
290.463
 20
545.733
 11
290.354
 21
545.618
  0
LINE
  8
0
 10
290.354
 20
545.618
 11
290.237
 21
545.511
  0
LINE
  8
0
 10
290.237
 20
545.511
 11
290.114
 21
545.411
  0
LINE
  8
0
 10
290.114
 20
545.411
 11
289.985
 21
545.319
  0
LINE
  8
0
 10
289.985
 20
545.319
 11
289.85
 21
545.235
  0
LINE
  8
0
 10
289.85
 20
545.235
 11
289.71
 21
545.16
  0
LINE
  8
0
 10
289.71
 20
545.16
 11
289.566
 21
545.094
  0
LINE
  8
0
 10
289.566
 20
545.094
 11
289.418
 21
545.037
  0
LINE
  8
0
 10
289.418
 20
545.037
 11
289.266
 21
544.99
  0
LINE
  8
0
 10
289.266
 20
544.99
 11
289.112
 21
544.953
  0
LINE
  8
0
 10
289.112
 20
544.953
 11
288.956
 21
544.925
  0
LINE
  8
0
 10
288.956
 20
544.925
 11
288.798
 21
544.908
  0
LINE
  8
0
 10
288.798
 20
544.908
 11
288.64
 21
544.9
  0
LINE
  8
0
 10
288.64
 20
544.9
 11
288.481
 21
544.903
  0
LINE
  8
0
 10
338.402
 20
544.908
 11
338.244
 21
544.925
  0
LINE
  8
0
 10
338.244
 20
544.925
 11
338.088
 21
544.953
  0
LINE
  8
0
 10
338.088
 20
544.953
 11
337.934
 21
544.99
  0
LINE
  8
0
 10
337.934
 20
544.99
 11
337.782
 21
545.037
  0
LINE
  8
0
 10
337.782
 20
545.037
 11
337.634
 21
545.094
  0
LINE
  8
0
 10
337.634
 20
545.094
 11
337.49
 21
545.16
  0
LINE
  8
0
 10
337.49
 20
545.16
 11
337.35
 21
545.235
  0
LINE
  8
0
 10
337.35
 20
545.235
 11
337.215
 21
545.319
  0
LINE
  8
0
 10
337.215
 20
545.319
 11
337.086
 21
545.411
  0
LINE
  8
0
 10
337.086
 20
545.411
 11
336.963
 21
545.511
  0
LINE
  8
0
 10
336.963
 20
545.511
 11
336.846
 21
545.618
  0
LINE
  8
0
 10
336.846
 20
545.618
 11
336.737
 21
545.733
  0
LINE
  8
0
 10
336.737
 20
545.733
 11
336.635
 21
545.855
  0
LINE
  8
0
 10
336.635
 20
545.855
 11
336.541
 21
545.982
  0
LINE
  8
0
 10
336.541
 20
545.982
 11
336.455
 21
546.116
  0
LINE
  8
0
 10
336.455
 20
546.116
 11
336.378
 21
546.254
  0
LINE
  8
0
 10
336.378
 20
546.254
 11
336.31
 21
546.398
  0
LINE
  8
0
 10
336.31
 20
546.398
 11
336.251
 21
546.545
  0
LINE
  8
0
 10
336.251
 20
546.545
 11
336.201
 21
546.696
  0
LINE
  8
0
 10
336.201
 20
546.696
 11
336.161
 21
546.849
  0
LINE
  8
0
 10
336.161
 20
546.849
 11
336.131
 21
547.005
  0
LINE
  8
0
 10
336.131
 20
547.005
 11
336.111
 21
547.162
  0
LINE
  8
0
 10
336.111
 20
547.162
 11
336.101
 21
547.321
  0
LINE
  8
0
 10
336.101
 20
547.321
 11
336.101
 21
547.479
  0
LINE
  8
0
 10
336.101
 20
547.479
 11
336.111
 21
547.638
  0
LINE
  8
0
 10
336.111
 20
547.638
 11
336.131
 21
547.795
  0
LINE
  8
0
 10
336.131
 20
547.795
 11
336.161
 21
547.951
  0
LINE
  8
0
 10
336.161
 20
547.951
 11
336.201
 21
548.104
  0
LINE
  8
0
 10
336.201
 20
548.104
 11
336.251
 21
548.255
  0
LINE
  8
0
 10
336.251
 20
548.255
 11
336.31
 21
548.402
  0
LINE
  8
0
 10
336.31
 20
548.402
 11
336.378
 21
548.546
  0
LINE
  8
0
 10
336.378
 20
548.546
 11
336.455
 21
548.684
  0
LINE
  8
0
 10
336.455
 20
548.684
 11
336.541
 21
548.818
  0
LINE
  8
0
 10
336.541
 20
548.818
 11
336.635
 21
548.945
  0
LINE
  8
0
 10
336.635
 20
548.945
 11
336.737
 21
549.067
  0
LINE
  8
0
 10
336.737
 20
549.067
 11
336.846
 21
549.182
  0
LINE
  8
0
 10
336.846
 20
549.182
 11
336.963
 21
549.289
  0
LINE
  8
0
 10
336.963
 20
549.289
 11
337.086
 21
549.389
  0
LINE
  8
0
 10
337.086
 20
549.389
 11
337.215
 21
549.481
  0
LINE
  8
0
 10
337.215
 20
549.481
 11
337.35
 21
549.565
  0
LINE
  8
0
 10
337.35
 20
549.565
 11
337.49
 21
549.64
  0
LINE
  8
0
 10
337.49
 20
549.64
 11
337.634
 21
549.706
  0
LINE
  8
0
 10
337.634
 20
549.706
 11
337.782
 21
549.763
  0
LINE
  8
0
 10
337.782
 20
549.763
 11
337.934
 21
549.81
  0
LINE
  8
0
 10
337.934
 20
549.81
 11
338.088
 21
549.847
  0
LINE
  8
0
 10
338.088
 20
549.847
 11
338.244
 21
549.875
  0
LINE
  8
0
 10
338.244
 20
549.875
 11
338.402
 21
549.892
  0
LINE
  8
0
 10
338.402
 20
549.892
 11
338.56
 21
549.9
  0
LINE
  8
0
 10
338.56
 20
549.9
 11
338.719
 21
549.897
  0
LINE
  8
0
 10
338.719
 20
549.897
 11
338.877
 21
549.885
  0
LINE
  8
0
 10
338.877
 20
549.885
 11
339.034
 21
549.862
  0
LINE
  8
0
 10
339.034
 20
549.862
 11
339.189
 21
549.83
  0
LINE
  8
0
 10
339.189
 20
549.83
 11
339.342
 21
549.787
  0
LINE
  8
0
 10
339.342
 20
549.787
 11
339.492
 21
549.735
  0
LINE
  8
0
 10
339.492
 20
549.735
 11
339.639
 21
549.674
  0
LINE
  8
0
 10
339.639
 20
549.674
 11
339.781
 21
549.604
  0
LINE
  8
0
 10
339.781
 20
549.604
 11
339.918
 21
549.524
  0
LINE
  8
0
 10
339.918
 20
549.524
 11
340.05
 21
549.436
  0
LINE
  8
0
 10
340.05
 20
549.436
 11
340.176
 21
549.34
  0
LINE
  8
0
 10
340.176
 20
549.34
 11
340.296
 21
549.236
  0
LINE
  8
0
 10
340.296
 20
549.236
 11
340.409
 21
549.125
  0
LINE
  8
0
 10
340.409
 20
549.125
 11
340.515
 21
549.007
  0
LINE
  8
0
 10
340.515
 20
549.007
 11
340.613
 21
548.882
  0
LINE
  8
0
 10
340.613
 20
548.882
 11
340.703
 21
548.752
  0
LINE
  8
0
 10
340.703
 20
548.752
 11
340.785
 21
548.615
  0
LINE
  8
0
 10
340.785
 20
548.615
 11
340.857
 21
548.474
  0
LINE
  8
0
 10
340.857
 20
548.474
 11
340.921
 21
548.329
  0
LINE
  8
0
 10
340.921
 20
548.329
 11
340.975
 21
548.18
  0
LINE
  8
0
 10
340.975
 20
548.18
 11
341.02
 21
548.028
  0
LINE
  8
0
 10
341.02
 20
548.028
 11
341.055
 21
547.873
  0
LINE
  8
0
 10
341.055
 20
547.873
 11
341.08
 21
547.716
  0
LINE
  8
0
 10
341.08
 20
547.716
 11
341.095
 21
547.559
  0
LINE
  8
0
 10
341.095
 20
547.559
 11
341.1
 21
547.4
  0
LINE
  8
0
 10
341.1
 20
547.4
 11
341.095
 21
547.241
  0
LINE
  8
0
 10
341.095
 20
547.241
 11
341.08
 21
547.083
  0
LINE
  8
0
 10
341.08
 20
547.083
 11
341.055
 21
546.927
  0
LINE
  8
0
 10
341.055
 20
546.927
 11
341.02
 21
546.772
  0
LINE
  8
0
 10
341.02
 20
546.772
 11
340.975
 21
546.62
  0
LINE
  8
0
 10
340.975
 20
546.62
 11
340.921
 21
546.471
  0
LINE
  8
0
 10
340.921
 20
546.471
 11
340.857
 21
546.326
  0
LINE
  8
0
 10
340.857
 20
546.326
 11
340.785
 21
546.185
  0
LINE
  8
0
 10
340.785
 20
546.185
 11
340.703
 21
546.048
  0
LINE
  8
0
 10
340.703
 20
546.048
 11
340.613
 21
545.918
  0
LINE
  8
0
 10
340.613
 20
545.918
 11
340.515
 21
545.793
  0
LINE
  8
0
 10
340.515
 20
545.793
 11
340.409
 21
545.675
  0
LINE
  8
0
 10
340.409
 20
545.675
 11
340.296
 21
545.564
  0
LINE
  8
0
 10
340.296
 20
545.564
 11
340.176
 21
545.46
  0
LINE
  8
0
 10
340.176
 20
545.46
 11
340.05
 21
545.364
  0
LINE
  8
0
 10
340.05
 20
545.364
 11
339.918
 21
545.276
  0
LINE
  8
0
 10
339.918
 20
545.276
 11
339.781
 21
545.196
  0
LINE
  8
0
 10
339.781
 20
545.196
 11
339.639
 21
545.126
  0
LINE
  8
0
 10
339.639
 20
545.126
 11
339.492
 21
545.065
  0
LINE
  8
0
 10
339.492
 20
545.065
 11
339.342
 21
545.013
  0
LINE
  8
0
 10
339.342
 20
545.013
 11
339.189
 21
544.97
  0
LINE
  8
0
 10
339.189
 20
544.97
 11
339.034
 21
544.938
  0
LINE
  8
0
 10
339.034
 20
544.938
 11
338.877
 21
544.915
  0
LINE
  8
0
 10
338.877
 20
544.915
 11
338.719
 21
544.903
  0
LINE
  8
0
 10
338.719
 20
544.903
 11
338.56
 21
544.9
  0
LINE
  8
0
 10
338.56
 20
544.9
 11
338.402
 21
544.908
  0
LINE
  8
0
 10
142.333
 20
492.9
 11
142.333
 21
499.9
  0
LINE
  8
0
 10
142.333
 20
499.9
 11
156.333
 21
499.9
  0
LINE
  8
0
 10
156.333
 20
499.9
 11
156.333
 21
492.9
  0
LINE
  8
0
 10
156.333
 20
492.9
 11
142.333
 21
492.9
  0
LINE
  8
0
 10
338.402
 20
494.908
 11
338.244
 21
494.925
  0
LINE
  8
0
 10
338.244
 20
494.925
 11
338.088
 21
494.953
  0
LINE
  8
0
 10
338.088
 20
494.953
 11
337.934
 21
494.99
  0
LINE
  8
0
 10
337.934
 20
494.99
 11
337.782
 21
495.038
  0
LINE
  8
0
 10
337.782
 20
495.038
 11
337.634
 21
495.094
  0
LINE
  8
0
 10
337.634
 20
495.094
 11
337.49
 21
495.16
  0
LINE
  8
0
 10
337.49
 20
495.16
 11
337.35
 21
495.235
  0
LINE
  8
0
 10
337.35
 20
495.235
 11
337.215
 21
495.319
  0
LINE
  8
0
 10
337.215
 20
495.319
 11
337.086
 21
495.411
  0
LINE
  8
0
 10
337.086
 20
495.411
 11
336.963
 21
495.511
  0
LINE
  8
0
 10
336.963
 20
495.511
 11
336.846
 21
495.618
  0
LINE
  8
0
 10
336.846
 20
495.618
 11
336.737
 21
495.733
  0
LINE
  8
0
 10
336.737
 20
495.733
 11
336.635
 21
495.855
  0
LINE
  8
0
 10
336.635
 20
495.855
 11
336.541
 21
495.982
  0
LINE
  8
0
 10
336.541
 20
495.982
 11
336.455
 21
496.116
  0
LINE
  8
0
 10
336.455
 20
496.116
 11
336.378
 21
496.254
  0
LINE
  8
0
 10
336.378
 20
496.254
 11
336.31
 21
496.398
  0
LINE
  8
0
 10
336.31
 20
496.398
 11
336.251
 21
496.545
  0
LINE
  8
0
 10
336.251
 20
496.545
 11
336.201
 21
496.696
  0
LINE
  8
0
 10
336.201
 20
496.696
 11
336.161
 21
496.849
  0
LINE
  8
0
 10
336.161
 20
496.849
 11
336.131
 21
497.005
  0
LINE
  8
0
 10
336.131
 20
497.005
 11
336.111
 21
497.162
  0
LINE
  8
0
 10
336.111
 20
497.162
 11
336.101
 21
497.321
  0
LINE
  8
0
 10
336.101
 20
497.321
 11
336.101
 21
497.479
  0
LINE
  8
0
 10
336.101
 20
497.479
 11
336.111
 21
497.638
  0
LINE
  8
0
 10
336.111
 20
497.638
 11
336.131
 21
497.795
  0
LINE
  8
0
 10
336.131
 20
497.795
 11
336.161
 21
497.951
  0
LINE
  8
0
 10
336.161
 20
497.951
 11
336.201
 21
498.104
  0
LINE
  8
0
 10
336.201
 20
498.104
 11
336.251
 21
498.255
  0
LINE
  8
0
 10
336.251
 20
498.255
 11
336.31
 21
498.402
  0
LINE
  8
0
 10
336.31
 20
498.402
 11
336.378
 21
498.546
  0
LINE
  8
0
 10
336.378
 20
498.546
 11
336.455
 21
498.684
  0
LINE
  8
0
 10
336.455
 20
498.684
 11
336.541
 21
498.818
  0
LINE
  8
0
 10
336.541
 20
498.818
 11
336.635
 21
498.945
  0
LINE
  8
0
 10
336.635
 20
498.945
 11
336.737
 21
499.067
  0
LINE
  8
0
 10
336.737
 20
499.067
 11
336.846
 21
499.182
  0
LINE
  8
0
 10
336.846
 20
499.182
 11
336.963
 21
499.289
  0
LINE
  8
0
 10
336.963
 20
499.289
 11
337.086
 21
499.389
  0
LINE
  8
0
 10
337.086
 20
499.389
 11
337.215
 21
499.481
  0
LINE
  8
0
 10
337.215
 20
499.481
 11
337.35
 21
499.565
  0
LINE
  8
0
 10
337.35
 20
499.565
 11
337.49
 21
499.64
  0
LINE
  8
0
 10
337.49
 20
499.64
 11
337.634
 21
499.706
  0
LINE
  8
0
 10
337.634
 20
499.706
 11
337.782
 21
499.763
  0
LINE
  8
0
 10
337.782
 20
499.763
 11
337.934
 21
499.81
  0
LINE
  8
0
 10
337.934
 20
499.81
 11
338.088
 21
499.847
  0
LINE
  8
0
 10
338.088
 20
499.847
 11
338.244
 21
499.875
  0
LINE
  8
0
 10
338.244
 20
499.875
 11
338.402
 21
499.892
  0
LINE
  8
0
 10
338.402
 20
499.892
 11
338.56
 21
499.9
  0
LINE
  8
0
 10
338.56
 20
499.9
 11
338.719
 21
499.897
  0
LINE
  8
0
 10
338.719
 20
499.897
 11
338.877
 21
499.885
  0
LINE
  8
0
 10
338.877
 20
499.885
 11
339.034
 21
499.862
  0
LINE
  8
0
 10
339.034
 20
499.862
 11
339.189
 21
499.83
  0
LINE
  8
0
 10
339.189
 20
499.83
 11
339.342
 21
499.787
  0
LINE
  8
0
 10
339.342
 20
499.787
 11
339.492
 21
499.735
  0
LINE
  8
0
 10
339.492
 20
499.735
 11
339.639
 21
499.674
  0
LINE
  8
0
 10
339.639
 20
499.674
 11
339.781
 21
499.604
  0
LINE
  8
0
 10
339.781
 20
499.604
 11
339.918
 21
499.524
  0
LINE
  8
0
 10
339.918
 20
499.524
 11
340.05
 21
499.436
  0
LINE
  8
0
 10
340.05
 20
499.436
 11
340.176
 21
499.34
  0
LINE
  8
0
 10
340.176
 20
499.34
 11
340.296
 21
499.236
  0
LINE
  8
0
 10
340.296
 20
499.236
 11
340.409
 21
499.125
  0
LINE
  8
0
 10
340.409
 20
499.125
 11
340.515
 21
499.007
  0
LINE
  8
0
 10
340.515
 20
499.007
 11
340.613
 21
498.882
  0
LINE
  8
0
 10
340.613
 20
498.882
 11
340.703
 21
498.752
  0
LINE
  8
0
 10
340.703
 20
498.752
 11
340.785
 21
498.615
  0
LINE
  8
0
 10
340.785
 20
498.615
 11
340.857
 21
498.474
  0
LINE
  8
0
 10
340.857
 20
498.474
 11
340.921
 21
498.329
  0
LINE
  8
0
 10
340.921
 20
498.329
 11
340.975
 21
498.18
  0
LINE
  8
0
 10
340.975
 20
498.18
 11
341.02
 21
498.028
  0
LINE
  8
0
 10
341.02
 20
498.028
 11
341.055
 21
497.873
  0
LINE
  8
0
 10
341.055
 20
497.873
 11
341.08
 21
497.716
  0
LINE
  8
0
 10
341.08
 20
497.716
 11
341.095
 21
497.559
  0
LINE
  8
0
 10
341.095
 20
497.559
 11
341.1
 21
497.4
  0
LINE
  8
0
 10
341.1
 20
497.4
 11
341.095
 21
497.241
  0
LINE
  8
0
 10
341.095
 20
497.241
 11
341.08
 21
497.084
  0
LINE
  8
0
 10
341.08
 20
497.084
 11
341.055
 21
496.927
  0
LINE
  8
0
 10
341.055
 20
496.927
 11
341.02
 21
496.772
  0
LINE
  8
0
 10
341.02
 20
496.772
 11
340.975
 21
496.62
  0
LINE
  8
0
 10
340.975
 20
496.62
 11
340.921
 21
496.471
  0
LINE
  8
0
 10
340.921
 20
496.471
 11
340.857
 21
496.326
  0
LINE
  8
0
 10
340.857
 20
496.326
 11
340.785
 21
496.185
  0
LINE
  8
0
 10
340.785
 20
496.185
 11
340.703
 21
496.048
  0
LINE
  8
0
 10
340.703
 20
496.048
 11
340.613
 21
495.918
  0
LINE
  8
0
 10
340.613
 20
495.918
 11
340.515
 21
495.793
  0
LINE
  8
0
 10
340.515
 20
495.793
 11
340.409
 21
495.675
  0
LINE
  8
0
 10
340.409
 20
495.675
 11
340.296
 21
495.564
  0
LINE
  8
0
 10
340.296
 20
495.564
 11
340.176
 21
495.46
  0
LINE
  8
0
 10
340.176
 20
495.46
 11
340.05
 21
495.364
  0
LINE
  8
0
 10
340.05
 20
495.364
 11
339.918
 21
495.276
  0
LINE
  8
0
 10
339.918
 20
495.276
 11
339.781
 21
495.196
  0
LINE
  8
0
 10
339.781
 20
495.196
 11
339.639
 21
495.126
  0
LINE
  8
0
 10
339.639
 20
495.126
 11
339.492
 21
495.065
  0
LINE
  8
0
 10
339.492
 20
495.065
 11
339.342
 21
495.013
  0
LINE
  8
0
 10
339.342
 20
495.013
 11
339.189
 21
494.97
  0
LINE
  8
0
 10
339.189
 20
494.97
 11
339.034
 21
494.938
  0
LINE
  8
0
 10
339.034
 20
494.938
 11
338.877
 21
494.915
  0
LINE
  8
0
 10
338.877
 20
494.915
 11
338.719
 21
494.903
  0
LINE
  8
0
 10
338.719
 20
494.903
 11
338.56
 21
494.9
  0
LINE
  8
0
 10
338.56
 20
494.9
 11
338.402
 21
494.908
  0
LINE
  8
0
 10
288.441
 20
494.905
 11
288.284
 21
494.92
  0
LINE
  8
0
 10
288.284
 20
494.92
 11
288.127
 21
494.945
  0
LINE
  8
0
 10
288.127
 20
494.945
 11
287.972
 21
494.98
  0
LINE
  8
0
 10
287.972
 20
494.98
 11
287.82
 21
495.025
  0
LINE
  8
0
 10
287.82
 20
495.025
 11
287.671
 21
495.079
  0
LINE
  8
0
 10
287.671
 20
495.079
 11
287.526
 21
495.143
  0
LINE
  8
0
 10
287.526
 20
495.143
 11
287.385
 21
495.215
  0
LINE
  8
0
 10
287.385
 20
495.215
 11
287.248
 21
495.297
  0
LINE
  8
0
 10
287.248
 20
495.297
 11
287.118
 21
495.387
  0
LINE
  8
0
 10
287.118
 20
495.387
 11
286.993
 21
495.485
  0
LINE
  8
0
 10
286.993
 20
495.485
 11
286.875
 21
495.591
  0
LINE
  8
0
 10
286.875
 20
495.591
 11
286.764
 21
495.704
  0
LINE
  8
0
 10
286.764
 20
495.704
 11
286.66
 21
495.824
  0
LINE
  8
0
 10
286.66
 20
495.824
 11
286.564
 21
495.95
  0
LINE
  8
0
 10
286.564
 20
495.95
 11
286.476
 21
496.082
  0
LINE
  8
0
 10
286.476
 20
496.082
 11
286.396
 21
496.219
  0
LINE
  8
0
 10
286.396
 20
496.219
 11
286.326
 21
496.361
  0
LINE
  8
0
 10
286.326
 20
496.361
 11
286.265
 21
496.508
  0
LINE
  8
0
 10
286.265
 20
496.508
 11
286.213
 21
496.658
  0
LINE
  8
0
 10
286.213
 20
496.658
 11
286.17
 21
496.811
  0
LINE
  8
0
 10
286.17
 20
496.811
 11
286.138
 21
496.966
  0
LINE
  8
0
 10
286.138
 20
496.966
 11
286.115
 21
497.123
  0
LINE
  8
0
 10
286.115
 20
497.123
 11
286.103
 21
497.281
  0
LINE
  8
0
 10
286.103
 20
497.281
 11
286.1
 21
497.44
  0
LINE
  8
0
 10
286.1
 20
497.44
 11
286.108
 21
497.598
  0
LINE
  8
0
 10
286.108
 20
497.598
 11
286.125
 21
497.756
  0
LINE
  8
0
 10
286.125
 20
497.756
 11
286.153
 21
497.912
  0
LINE
  8
0
 10
286.153
 20
497.912
 11
286.19
 21
498.066
  0
LINE
  8
0
 10
286.19
 20
498.066
 11
286.237
 21
498.218
  0
LINE
  8
0
 10
286.237
 20
498.218
 11
286.294
 21
498.366
  0
LINE
  8
0
 10
286.294
 20
498.366
 11
286.36
 21
498.51
  0
LINE
  8
0
 10
286.36
 20
498.51
 11
286.435
 21
498.65
  0
LINE
  8
0
 10
286.435
 20
498.65
 11
286.519
 21
498.785
  0
LINE
  8
0
 10
286.519
 20
498.785
 11
286.611
 21
498.914
  0
LINE
  8
0
 10
286.611
 20
498.914
 11
286.711
 21
499.037
  0
LINE
  8
0
 10
286.711
 20
499.037
 11
286.818
 21
499.154
  0
LINE
  8
0
 10
286.818
 20
499.154
 11
286.933
 21
499.263
  0
LINE
  8
0
 10
286.933
 20
499.263
 11
287.055
 21
499.365
  0
LINE
  8
0
 10
287.055
 20
499.365
 11
287.182
 21
499.459
  0
LINE
  8
0
 10
287.182
 20
499.459
 11
287.316
 21
499.545
  0
LINE
  8
0
 10
287.316
 20
499.545
 11
287.454
 21
499.622
  0
LINE
  8
0
 10
287.454
 20
499.622
 11
287.598
 21
499.69
  0
LINE
  8
0
 10
287.598
 20
499.69
 11
287.745
 21
499.749
  0
LINE
  8
0
 10
287.745
 20
499.749
 11
287.896
 21
499.799
  0
LINE
  8
0
 10
287.896
 20
499.799
 11
288.049
 21
499.839
  0
LINE
  8
0
 10
288.049
 20
499.839
 11
288.205
 21
499.869
  0
LINE
  8
0
 10
288.205
 20
499.869
 11
288.362
 21
499.889
  0
LINE
  8
0
 10
288.362
 20
499.889
 11
288.521
 21
499.899
  0
LINE
  8
0
 10
288.521
 20
499.899
 11
288.679
 21
499.899
  0
LINE
  8
0
 10
288.679
 20
499.899
 11
288.838
 21
499.889
  0
LINE
  8
0
 10
288.838
 20
499.889
 11
288.995
 21
499.869
  0
LINE
  8
0
 10
288.995
 20
499.869
 11
289.151
 21
499.839
  0
LINE
  8
0
 10
289.151
 20
499.839
 11
289.304
 21
499.799
  0
LINE
  8
0
 10
289.304
 20
499.799
 11
289.455
 21
499.749
  0
LINE
  8
0
 10
289.455
 20
499.749
 11
289.602
 21
499.69
  0
LINE
  8
0
 10
289.602
 20
499.69
 11
289.746
 21
499.622
  0
LINE
  8
0
 10
289.746
 20
499.622
 11
289.884
 21
499.545
  0
LINE
  8
0
 10
289.884
 20
499.545
 11
290.018
 21
499.459
  0
LINE
  8
0
 10
290.018
 20
499.459
 11
290.145
 21
499.365
  0
LINE
  8
0
 10
290.145
 20
499.365
 11
290.267
 21
499.263
  0
LINE
  8
0
 10
290.267
 20
499.263
 11
290.382
 21
499.154
  0
LINE
  8
0
 10
290.382
 20
499.154
 11
290.489
 21
499.037
  0
LINE
  8
0
 10
290.489
 20
499.037
 11
290.589
 21
498.914
  0
LINE
  8
0
 10
290.589
 20
498.914
 11
290.681
 21
498.785
  0
LINE
  8
0
 10
290.681
 20
498.785
 11
290.765
 21
498.65
  0
LINE
  8
0
 10
290.765
 20
498.65
 11
290.84
 21
498.51
  0
LINE
  8
0
 10
290.84
 20
498.51
 11
290.906
 21
498.366
  0
LINE
  8
0
 10
290.906
 20
498.366
 11
290.962
 21
498.218
  0
LINE
  8
0
 10
290.962
 20
498.218
 11
291.01
 21
498.066
  0
LINE
  8
0
 10
291.01
 20
498.066
 11
291.047
 21
497.912
  0
LINE
  8
0
 10
291.047
 20
497.912
 11
291.075
 21
497.756
  0
LINE
  8
0
 10
291.075
 20
497.756
 11
291.092
 21
497.598
  0
LINE
  8
0
 10
291.092
 20
497.598
 11
291.1
 21
497.44
  0
LINE
  8
0
 10
291.1
 20
497.44
 11
291.097
 21
497.281
  0
LINE
  8
0
 10
291.097
 20
497.281
 11
291.085
 21
497.123
  0
LINE
  8
0
 10
291.085
 20
497.123
 11
291.062
 21
496.966
  0
LINE
  8
0
 10
291.062
 20
496.966
 11
291.03
 21
496.811
  0
LINE
  8
0
 10
291.03
 20
496.811
 11
290.987
 21
496.658
  0
LINE
  8
0
 10
290.987
 20
496.658
 11
290.935
 21
496.508
  0
LINE
  8
0
 10
290.935
 20
496.508
 11
290.874
 21
496.361
  0
LINE
  8
0
 10
290.874
 20
496.361
 11
290.804
 21
496.219
  0
LINE
  8
0
 10
290.804
 20
496.219
 11
290.724
 21
496.082
  0
LINE
  8
0
 10
290.724
 20
496.082
 11
290.636
 21
495.95
  0
LINE
  8
0
 10
290.636
 20
495.95
 11
290.54
 21
495.824
  0
LINE
  8
0
 10
290.54
 20
495.824
 11
290.436
 21
495.704
  0
LINE
  8
0
 10
290.436
 20
495.704
 11
290.325
 21
495.591
  0
LINE
  8
0
 10
290.325
 20
495.591
 11
290.207
 21
495.485
  0
LINE
  8
0
 10
290.207
 20
495.485
 11
290.082
 21
495.387
  0
LINE
  8
0
 10
290.082
 20
495.387
 11
289.952
 21
495.297
  0
LINE
  8
0
 10
289.952
 20
495.297
 11
289.815
 21
495.215
  0
LINE
  8
0
 10
289.815
 20
495.215
 11
289.674
 21
495.143
  0
LINE
  8
0
 10
289.674
 20
495.143
 11
289.529
 21
495.079
  0
LINE
  8
0
 10
289.529
 20
495.079
 11
289.38
 21
495.025
  0
LINE
  8
0
 10
289.38
 20
495.025
 11
289.228
 21
494.98
  0
LINE
  8
0
 10
289.228
 20
494.98
 11
289.073
 21
494.945
  0
LINE
  8
0
 10
289.073
 20
494.945
 11
288.916
 21
494.92
  0
LINE
  8
0
 10
288.916
 20
494.92
 11
288.759
 21
494.905
  0
LINE
  8
0
 10
288.759
 20
494.905
 11
288.6
 21
494.9
  0
LINE
  8
0
 10
288.6
 20
494.9
 11
288.441
 21
494.905
  0
LINE
  8
0
 10
343.702
 20
489.608
 11
343.544
 21
489.625
  0
LINE
  8
0
 10
343.544
 20
489.625
 11
343.388
 21
489.653
  0
LINE
  8
0
 10
343.388
 20
489.653
 11
343.234
 21
489.69
  0
LINE
  8
0
 10
343.234
 20
489.69
 11
343.082
 21
489.737
  0
LINE
  8
0
 10
343.082
 20
489.737
 11
342.934
 21
489.794
  0
LINE
  8
0
 10
342.934
 20
489.794
 11
342.79
 21
489.86
  0
LINE
  8
0
 10
342.79
 20
489.86
 11
342.65
 21
489.935
  0
LINE
  8
0
 10
342.65
 20
489.935
 11
342.515
 21
490.019
  0
LINE
  8
0
 10
342.515
 20
490.019
 11
342.386
 21
490.111
  0
LINE
  8
0
 10
342.386
 20
490.111
 11
342.263
 21
490.211
  0
LINE
  8
0
 10
342.263
 20
490.211
 11
342.146
 21
490.318
  0
LINE
  8
0
 10
342.146
 20
490.318
 11
342.037
 21
490.433
  0
LINE
  8
0
 10
342.037
 20
490.433
 11
341.935
 21
490.555
  0
LINE
  8
0
 10
341.935
 20
490.555
 11
341.841
 21
490.682
  0
LINE
  8
0
 10
341.841
 20
490.682
 11
341.755
 21
490.816
  0
LINE
  8
0
 10
341.755
 20
490.816
 11
341.678
 21
490.954
  0
LINE
  8
0
 10
341.678
 20
490.954
 11
341.61
 21
491.098
  0
LINE
  8
0
 10
341.61
 20
491.098
 11
341.551
 21
491.245
  0
LINE
  8
0
 10
341.551
 20
491.245
 11
341.501
 21
491.396
  0
LINE
  8
0
 10
341.501
 20
491.396
 11
341.461
 21
491.549
  0
LINE
  8
0
 10
341.461
 20
491.549
 11
341.431
 21
491.705
  0
LINE
  8
0
 10
341.431
 20
491.705
 11
341.411
 21
491.862
  0
LINE
  8
0
 10
341.411
 20
491.862
 11
341.401
 21
492.021
  0
LINE
  8
0
 10
341.401
 20
492.021
 11
341.401
 21
492.179
  0
LINE
  8
0
 10
341.401
 20
492.179
 11
341.411
 21
492.338
  0
LINE
  8
0
 10
341.411
 20
492.338
 11
341.431
 21
492.495
  0
LINE
  8
0
 10
341.431
 20
492.495
 11
341.461
 21
492.651
  0
LINE
  8
0
 10
341.461
 20
492.651
 11
341.501
 21
492.804
  0
LINE
  8
0
 10
341.501
 20
492.804
 11
341.551
 21
492.955
  0
LINE
  8
0
 10
341.551
 20
492.955
 11
341.61
 21
493.102
  0
LINE
  8
0
 10
341.61
 20
493.102
 11
341.678
 21
493.246
  0
LINE
  8
0
 10
341.678
 20
493.246
 11
341.755
 21
493.384
  0
LINE
  8
0
 10
341.755
 20
493.384
 11
341.841
 21
493.518
  0
LINE
  8
0
 10
341.841
 20
493.518
 11
341.935
 21
493.645
  0
LINE
  8
0
 10
341.935
 20
493.645
 11
342.037
 21
493.767
  0
LINE
  8
0
 10
342.037
 20
493.767
 11
342.146
 21
493.882
  0
LINE
  8
0
 10
342.146
 20
493.882
 11
342.263
 21
493.989
  0
LINE
  8
0
 10
342.263
 20
493.989
 11
342.386
 21
494.089
  0
LINE
  8
0
 10
342.386
 20
494.089
 11
342.515
 21
494.181
  0
LINE
  8
0
 10
342.515
 20
494.181
 11
342.65
 21
494.265
  0
LINE
  8
0
 10
342.65
 20
494.265
 11
342.79
 21
494.34
  0
LINE
  8
0
 10
342.79
 20
494.34
 11
342.934
 21
494.406
  0
LINE
  8
0
 10
342.934
 20
494.406
 11
343.082
 21
494.462
  0
LINE
  8
0
 10
343.082
 20
494.462
 11
343.234
 21
494.51
  0
LINE
  8
0
 10
343.234
 20
494.51
 11
343.388
 21
494.547
  0
LINE
  8
0
 10
343.388
 20
494.547
 11
343.544
 21
494.575
  0
LINE
  8
0
 10
343.544
 20
494.575
 11
343.702
 21
494.592
  0
LINE
  8
0
 10
343.702
 20
494.592
 11
343.86
 21
494.6
  0
LINE
  8
0
 10
343.86
 20
494.6
 11
344.019
 21
494.597
  0
LINE
  8
0
 10
344.019
 20
494.597
 11
344.177
 21
494.585
  0
LINE
  8
0
 10
344.177
 20
494.585
 11
344.334
 21
494.562
  0
LINE
  8
0
 10
344.334
 20
494.562
 11
344.489
 21
494.53
  0
LINE
  8
0
 10
344.489
 20
494.53
 11
344.642
 21
494.487
  0
LINE
  8
0
 10
344.642
 20
494.487
 11
344.792
 21
494.435
  0
LINE
  8
0
 10
344.792
 20
494.435
 11
344.939
 21
494.374
  0
LINE
  8
0
 10
344.939
 20
494.374
 11
345.081
 21
494.304
  0
LINE
  8
0
 10
345.081
 20
494.304
 11
345.218
 21
494.224
  0
LINE
  8
0
 10
345.218
 20
494.224
 11
345.35
 21
494.136
  0
LINE
  8
0
 10
345.35
 20
494.136
 11
345.476
 21
494.04
  0
LINE
  8
0
 10
345.476
 20
494.04
 11
345.596
 21
493.936
  0
LINE
  8
0
 10
345.596
 20
493.936
 11
345.709
 21
493.825
  0
LINE
  8
0
 10
345.709
 20
493.825
 11
345.815
 21
493.707
  0
LINE
  8
0
 10
345.815
 20
493.707
 11
345.913
 21
493.582
  0
LINE
  8
0
 10
345.913
 20
493.582
 11
346.003
 21
493.452
  0
LINE
  8
0
 10
346.003
 20
493.452
 11
346.085
 21
493.315
  0
LINE
  8
0
 10
346.085
 20
493.315
 11
346.157
 21
493.174
  0
LINE
  8
0
 10
346.157
 20
493.174
 11
346.221
 21
493.029
  0
LINE
  8
0
 10
346.221
 20
493.029
 11
346.275
 21
492.88
  0
LINE
  8
0
 10
346.275
 20
492.88
 11
346.32
 21
492.728
  0
LINE
  8
0
 10
346.32
 20
492.728
 11
346.355
 21
492.573
  0
LINE
  8
0
 10
346.355
 20
492.573
 11
346.38
 21
492.416
  0
LINE
  8
0
 10
346.38
 20
492.416
 11
346.395
 21
492.259
  0
LINE
  8
0
 10
346.395
 20
492.259
 11
346.4
 21
492.1
  0
LINE
  8
0
 10
346.4
 20
492.1
 11
346.395
 21
491.941
  0
LINE
  8
0
 10
346.395
 20
491.941
 11
346.38
 21
491.784
  0
LINE
  8
0
 10
346.38
 20
491.784
 11
346.355
 21
491.627
  0
LINE
  8
0
 10
346.355
 20
491.627
 11
346.32
 21
491.472
  0
LINE
  8
0
 10
346.32
 20
491.472
 11
346.275
 21
491.32
  0
LINE
  8
0
 10
346.275
 20
491.32
 11
346.221
 21
491.171
  0
LINE
  8
0
 10
346.221
 20
491.171
 11
346.157
 21
491.026
  0
LINE
  8
0
 10
346.157
 20
491.026
 11
346.085
 21
490.885
  0
LINE
  8
0
 10
346.085
 20
490.885
 11
346.003
 21
490.748
  0
LINE
  8
0
 10
346.003
 20
490.748
 11
345.913
 21
490.618
  0
LINE
  8
0
 10
345.913
 20
490.618
 11
345.815
 21
490.493
  0
LINE
  8
0
 10
345.815
 20
490.493
 11
345.709
 21
490.375
  0
LINE
  8
0
 10
345.709
 20
490.375
 11
345.596
 21
490.264
  0
LINE
  8
0
 10
345.596
 20
490.264
 11
345.476
 21
490.16
  0
LINE
  8
0
 10
345.476
 20
490.16
 11
345.35
 21
490.064
  0
LINE
  8
0
 10
345.35
 20
490.064
 11
345.218
 21
489.976
  0
LINE
  8
0
 10
345.218
 20
489.976
 11
345.081
 21
489.896
  0
LINE
  8
0
 10
345.081
 20
489.896
 11
344.939
 21
489.826
  0
LINE
  8
0
 10
344.939
 20
489.826
 11
344.792
 21
489.765
  0
LINE
  8
0
 10
344.792
 20
489.765
 11
344.642
 21
489.713
  0
LINE
  8
0
 10
344.642
 20
489.713
 11
344.489
 21
489.67
  0
LINE
  8
0
 10
344.489
 20
489.67
 11
344.334
 21
489.638
  0
LINE
  8
0
 10
344.334
 20
489.638
 11
344.177
 21
489.615
  0
LINE
  8
0
 10
344.177
 20
489.615
 11
344.019
 21
489.603
  0
LINE
  8
0
 10
344.019
 20
489.603
 11
343.86
 21
489.6
  0
LINE
  8
0
 10
343.86
 20
489.6
 11
343.702
 21
489.608
  0
LINE
  8
0
 10
283.141
 20
489.605
 11
282.984
 21
489.62
  0
LINE
  8
0
 10
282.984
 20
489.62
 11
282.827
 21
489.645
  0
LINE
  8
0
 10
282.827
 20
489.645
 11
282.672
 21
489.68
  0
LINE
  8
0
 10
282.672
 20
489.68
 11
282.52
 21
489.725
  0
LINE
  8
0
 10
282.52
 20
489.725
 11
282.371
 21
489.779
  0
LINE
  8
0
 10
282.371
 20
489.779
 11
282.226
 21
489.843
  0
LINE
  8
0
 10
282.226
 20
489.843
 11
282.085
 21
489.915
  0
LINE
  8
0
 10
282.085
 20
489.915
 11
281.948
 21
489.997
  0
LINE
  8
0
 10
281.948
 20
489.997
 11
281.818
 21
490.087
  0
LINE
  8
0
 10
281.818
 20
490.087
 11
281.693
 21
490.185
  0
LINE
  8
0
 10
281.693
 20
490.185
 11
281.575
 21
490.291
  0
LINE
  8
0
 10
281.575
 20
490.291
 11
281.464
 21
490.404
  0
LINE
  8
0
 10
281.464
 20
490.404
 11
281.36
 21
490.524
  0
LINE
  8
0
 10
281.36
 20
490.524
 11
281.264
 21
490.65
  0
LINE
  8
0
 10
281.264
 20
490.65
 11
281.176
 21
490.782
  0
LINE
  8
0
 10
281.176
 20
490.782
 11
281.096
 21
490.919
  0
LINE
  8
0
 10
281.096
 20
490.919
 11
281.026
 21
491.061
  0
LINE
  8
0
 10
281.026
 20
491.061
 11
280.965
 21
491.208
  0
LINE
  8
0
 10
280.965
 20
491.208
 11
280.913
 21
491.358
  0
LINE
  8
0
 10
280.913
 20
491.358
 11
280.87
 21
491.511
  0
LINE
  8
0
 10
280.87
 20
491.511
 11
280.838
 21
491.666
  0
LINE
  8
0
 10
280.838
 20
491.666
 11
280.815
 21
491.823
  0
LINE
  8
0
 10
280.815
 20
491.823
 11
280.803
 21
491.981
  0
LINE
  8
0
 10
280.803
 20
491.981
 11
280.8
 21
492.14
  0
LINE
  8
0
 10
280.8
 20
492.14
 11
280.808
 21
492.298
  0
LINE
  8
0
 10
280.808
 20
492.298
 11
280.825
 21
492.456
  0
LINE
  8
0
 10
280.825
 20
492.456
 11
280.853
 21
492.612
  0
LINE
  8
0
 10
280.853
 20
492.612
 11
280.89
 21
492.766
  0
LINE
  8
0
 10
280.89
 20
492.766
 11
280.938
 21
492.918
  0
LINE
  8
0
 10
280.938
 20
492.918
 11
280.994
 21
493.066
  0
LINE
  8
0
 10
280.994
 20
493.066
 11
281.06
 21
493.21
  0
LINE
  8
0
 10
281.06
 20
493.21
 11
281.135
 21
493.35
  0
LINE
  8
0
 10
281.135
 20
493.35
 11
281.219
 21
493.485
  0
LINE
  8
0
 10
281.219
 20
493.485
 11
281.311
 21
493.614
  0
LINE
  8
0
 10
281.311
 20
493.614
 11
281.411
 21
493.737
  0
LINE
  8
0
 10
281.411
 20
493.737
 11
281.518
 21
493.854
  0
LINE
  8
0
 10
281.518
 20
493.854
 11
281.633
 21
493.963
  0
LINE
  8
0
 10
281.633
 20
493.963
 11
281.755
 21
494.065
  0
LINE
  8
0
 10
281.755
 20
494.065
 11
281.882
 21
494.159
  0
LINE
  8
0
 10
281.882
 20
494.159
 11
282.016
 21
494.245
  0
LINE
  8
0
 10
282.016
 20
494.245
 11
282.154
 21
494.322
  0
LINE
  8
0
 10
282.154
 20
494.322
 11
282.298
 21
494.39
  0
LINE
  8
0
 10
282.298
 20
494.39
 11
282.445
 21
494.449
  0
LINE
  8
0
 10
282.445
 20
494.449
 11
282.596
 21
494.499
  0
LINE
  8
0
 10
282.596
 20
494.499
 11
282.749
 21
494.539
  0
LINE
  8
0
 10
282.749
 20
494.539
 11
282.905
 21
494.569
  0
LINE
  8
0
 10
282.905
 20
494.569
 11
283.062
 21
494.589
  0
LINE
  8
0
 10
283.062
 20
494.589
 11
283.221
 21
494.599
  0
LINE
  8
0
 10
283.221
 20
494.599
 11
283.379
 21
494.599
  0
LINE
  8
0
 10
283.379
 20
494.599
 11
283.538
 21
494.589
  0
LINE
  8
0
 10
283.538
 20
494.589
 11
283.695
 21
494.569
  0
LINE
  8
0
 10
283.695
 20
494.569
 11
283.851
 21
494.539
  0
LINE
  8
0
 10
283.851
 20
494.539
 11
284.004
 21
494.499
  0
LINE
  8
0
 10
284.004
 20
494.499
 11
284.155
 21
494.449
  0
LINE
  8
0
 10
284.155
 20
494.449
 11
284.302
 21
494.39
  0
LINE
  8
0
 10
284.302
 20
494.39
 11
284.446
 21
494.322
  0
LINE
  8
0
 10
284.446
 20
494.322
 11
284.584
 21
494.245
  0
LINE
  8
0
 10
284.584
 20
494.245
 11
284.718
 21
494.159
  0
LINE
  8
0
 10
284.718
 20
494.159
 11
284.845
 21
494.065
  0
LINE
  8
0
 10
284.845
 20
494.065
 11
284.967
 21
493.963
  0
LINE
  8
0
 10
284.967
 20
493.963
 11
285.082
 21
493.854
  0
LINE
  8
0
 10
285.082
 20
493.854
 11
285.189
 21
493.737
  0
LINE
  8
0
 10
285.189
 20
493.737
 11
285.289
 21
493.614
  0
LINE
  8
0
 10
285.289
 20
493.614
 11
285.381
 21
493.485
  0
LINE
  8
0
 10
285.381
 20
493.485
 11
285.465
 21
493.35
  0
LINE
  8
0
 10
285.465
 20
493.35
 11
285.54
 21
493.21
  0
LINE
  8
0
 10
285.54
 20
493.21
 11
285.606
 21
493.066
  0
LINE
  8
0
 10
285.606
 20
493.066
 11
285.663
 21
492.918
  0
LINE
  8
0
 10
285.663
 20
492.918
 11
285.71
 21
492.766
  0
LINE
  8
0
 10
285.71
 20
492.766
 11
285.747
 21
492.612
  0
LINE
  8
0
 10
285.747
 20
492.612
 11
285.775
 21
492.456
  0
LINE
  8
0
 10
285.775
 20
492.456
 11
285.792
 21
492.298
  0
LINE
  8
0
 10
285.792
 20
492.298
 11
285.8
 21
492.14
  0
LINE
  8
0
 10
285.8
 20
492.14
 11
285.797
 21
491.981
  0
LINE
  8
0
 10
285.797
 20
491.981
 11
285.785
 21
491.823
  0
LINE
  8
0
 10
285.785
 20
491.823
 11
285.762
 21
491.666
  0
LINE
  8
0
 10
285.762
 20
491.666
 11
285.73
 21
491.511
  0
LINE
  8
0
 10
285.73
 20
491.511
 11
285.687
 21
491.358
  0
LINE
  8
0
 10
285.687
 20
491.358
 11
285.635
 21
491.208
  0
LINE
  8
0
 10
285.635
 20
491.208
 11
285.574
 21
491.061
  0
LINE
  8
0
 10
285.574
 20
491.061
 11
285.504
 21
490.919
  0
LINE
  8
0
 10
285.504
 20
490.919
 11
285.424
 21
490.782
  0
LINE
  8
0
 10
285.424
 20
490.782
 11
285.336
 21
490.65
  0
LINE
  8
0
 10
285.336
 20
490.65
 11
285.24
 21
490.524
  0
LINE
  8
0
 10
285.24
 20
490.524
 11
285.136
 21
490.404
  0
LINE
  8
0
 10
285.136
 20
490.404
 11
285.025
 21
490.291
  0
LINE
  8
0
 10
285.025
 20
490.291
 11
284.907
 21
490.185
  0
LINE
  8
0
 10
284.907
 20
490.185
 11
284.782
 21
490.087
  0
LINE
  8
0
 10
284.782
 20
490.087
 11
284.652
 21
489.997
  0
LINE
  8
0
 10
284.652
 20
489.997
 11
284.516
 21
489.915
  0
LINE
  8
0
 10
284.516
 20
489.915
 11
284.374
 21
489.843
  0
LINE
  8
0
 10
284.374
 20
489.843
 11
284.229
 21
489.779
  0
LINE
  8
0
 10
284.229
 20
489.779
 11
284.08
 21
489.725
  0
LINE
  8
0
 10
284.08
 20
489.725
 11
283.928
 21
489.68
  0
LINE
  8
0
 10
283.928
 20
489.68
 11
283.773
 21
489.645
  0
LINE
  8
0
 10
283.773
 20
489.645
 11
283.616
 21
489.62
  0
LINE
  8
0
 10
283.616
 20
489.62
 11
283.459
 21
489.605
  0
LINE
  8
0
 10
283.459
 20
489.605
 11
283.3
 21
489.6
  0
LINE
  8
0
 10
283.3
 20
489.6
 11
283.141
 21
489.605
  0
LINE
  8
0
 10
203.525
 20
344.419
 11
203.146
 21
344.461
  0
LINE
  8
0
 10
203.146
 20
344.461
 11
202.771
 21
344.527
  0
LINE
  8
0
 10
202.771
 20
344.527
 11
202.401
 21
344.617
  0
LINE
  8
0
 10
202.401
 20
344.617
 11
202.038
 21
344.73
  0
LINE
  8
0
 10
202.038
 20
344.73
 11
201.682
 21
344.866
  0
LINE
  8
0
 10
201.682
 20
344.866
 11
201.336
 21
345.024
  0
LINE
  8
0
 10
201.336
 20
345.024
 11
201
 21
345.204
  0
LINE
  8
0
 10
201
 20
345.204
 11
200.676
 21
345.405
  0
LINE
  8
0
 10
200.676
 20
345.405
 11
200.366
 21
345.625
  0
LINE
  8
0
 10
200.366
 20
345.625
 11
200.071
 21
345.866
  0
LINE
  8
0
 10
200.071
 20
345.866
 11
199.791
 21
346.124
  0
LINE
  8
0
 10
199.791
 20
346.124
 11
199.528
 21
346.399
  0
LINE
  8
0
 10
199.528
 20
346.399
 11
199.284
 21
346.691
  0
LINE
  8
0
 10
199.284
 20
346.691
 11
199.058
 21
346.998
  0
LINE
  8
0
 10
199.058
 20
346.998
 11
198.852
 21
347.318
  0
LINE
  8
0
 10
198.852
 20
347.318
 11
198.667
 21
347.651
  0
LINE
  8
0
 10
198.667
 20
347.651
 11
198.503
 21
347.994
  0
LINE
  8
0
 10
198.503
 20
347.994
 11
198.362
 21
348.348
  0
LINE
  8
0
 10
198.362
 20
348.348
 11
198.243
 21
348.71
  0
LINE
  8
0
 10
198.243
 20
348.71
 11
198.147
 21
349.078
  0
LINE
  8
0
 10
198.147
 20
349.078
 11
198.075
 21
349.452
  0
LINE
  8
0
 10
198.075
 20
349.452
 11
198.027
 21
349.83
  0
LINE
  8
0
 10
198.027
 20
349.83
 11
198.003
 21
350.21
  0
LINE
  8
0
 10
198.003
 20
350.21
 11
198.003
 21
376.59
  0
LINE
  8
0
 10
198.003
 20
376.59
 11
198.027
 21
376.97
  0
LINE
  8
0
 10
198.027
 20
376.97
 11
198.075
 21
377.348
  0
LINE
  8
0
 10
198.075
 20
377.348
 11
198.147
 21
377.722
  0
LINE
  8
0
 10
198.147
 20
377.722
 11
198.243
 21
378.09
  0
LINE
  8
0
 10
198.243
 20
378.09
 11
198.362
 21
378.452
  0
LINE
  8
0
 10
198.362
 20
378.452
 11
198.503
 21
378.806
  0
LINE
  8
0
 10
198.503
 20
378.806
 11
198.667
 21
379.149
  0
LINE
  8
0
 10
198.667
 20
379.149
 11
198.852
 21
379.482
  0
LINE
  8
0
 10
198.852
 20
379.482
 11
199.058
 21
379.802
  0
LINE
  8
0
 10
199.058
 20
379.802
 11
199.284
 21
380.109
  0
LINE
  8
0
 10
199.284
 20
380.109
 11
199.528
 21
380.401
  0
LINE
  8
0
 10
199.528
 20
380.401
 11
199.791
 21
380.676
  0
LINE
  8
0
 10
199.791
 20
380.676
 11
200.071
 21
380.935
  0
LINE
  8
0
 10
200.071
 20
380.935
 11
200.366
 21
381.175
  0
LINE
  8
0
 10
200.366
 20
381.175
 11
200.676
 21
381.395
  0
LINE
  8
0
 10
200.676
 20
381.395
 11
201
 21
381.596
  0
LINE
  8
0
 10
201
 20
381.596
 11
201.336
 21
381.776
  0
LINE
  8
0
 10
201.336
 20
381.776
 11
201.682
 21
381.934
  0
LINE
  8
0
 10
201.682
 20
381.934
 11
202.038
 21
382.07
  0
LINE
  8
0
 10
202.038
 20
382.07
 11
202.401
 21
382.183
  0
LINE
  8
0
 10
202.401
 20
382.183
 11
202.771
 21
382.273
  0
LINE
  8
0
 10
202.771
 20
382.273
 11
203.146
 21
382.339
  0
LINE
  8
0
 10
203.146
 20
382.339
 11
203.525
 21
382.381
  0
LINE
  8
0
 10
203.525
 20
382.381
 11
203.905
 21
382.399
  0
LINE
  8
0
 10
203.905
 20
382.399
 11
204.285
 21
382.393
  0
LINE
  8
0
 10
204.285
 20
382.393
 11
204.665
 21
382.363
  0
LINE
  8
0
 10
204.665
 20
382.363
 11
205.042
 21
382.309
  0
LINE
  8
0
 10
205.042
 20
382.309
 11
205.415
 21
382.231
  0
LINE
  8
0
 10
205.415
 20
382.231
 11
205.782
 21
382.129
  0
LINE
  8
0
 10
205.782
 20
382.129
 11
206.141
 21
382.005
  0
LINE
  8
0
 10
206.141
 20
382.005
 11
206.492
 21
381.858
  0
LINE
  8
0
 10
206.492
 20
381.858
 11
206.834
 21
381.689
  0
LINE
  8
0
 10
206.834
 20
381.689
 11
207.163
 21
381.498
  0
LINE
  8
0
 10
207.163
 20
381.498
 11
207.48
 21
381.287
  0
LINE
  8
0
 10
207.48
 20
381.287
 11
207.783
 21
381.057
  0
LINE
  8
0
 10
207.783
 20
381.057
 11
208.071
 21
380.808
  0
LINE
  8
0
 10
208.071
 20
380.808
 11
208.342
 21
380.54
  0
LINE
  8
0
 10
208.342
 20
380.54
 11
208.596
 21
380.257
  0
LINE
  8
0
 10
208.596
 20
380.257
 11
208.832
 21
379.957
  0
LINE
  8
0
 10
208.832
 20
379.957
 11
209.048
 21
379.644
  0
LINE
  8
0
 10
209.048
 20
379.644
 11
209.243
 21
379.317
  0
LINE
  8
0
 10
209.243
 20
379.317
 11
209.418
 21
378.979
  0
LINE
  8
0
 10
209.418
 20
378.979
 11
209.57
 21
378.63
  0
LINE
  8
0
 10
209.57
 20
378.63
 11
209.7
 21
378.272
  0
LINE
  8
0
 10
209.7
 20
378.272
 11
209.808
 21
377.907
  0
LINE
  8
0
 10
209.808
 20
377.907
 11
209.892
 21
377.535
  0
LINE
  8
0
 10
209.892
 20
377.535
 11
209.952
 21
377.16
  0
LINE
  8
0
 10
209.952
 20
377.16
 11
209.988
 21
376.781
  0
LINE
  8
0
 10
209.988
 20
376.781
 11
210
 21
376.4
  0
LINE
  8
0
 10
210
 20
376.4
 11
210
 21
350.4
  0
LINE
  8
0
 10
210
 20
350.4
 11
209.988
 21
350.019
  0
LINE
  8
0
 10
209.988
 20
350.019
 11
209.952
 21
349.64
  0
LINE
  8
0
 10
209.952
 20
349.64
 11
209.892
 21
349.264
  0
LINE
  8
0
 10
209.892
 20
349.264
 11
209.808
 21
348.893
  0
LINE
  8
0
 10
209.808
 20
348.893
 11
209.7
 21
348.528
  0
LINE
  8
0
 10
209.7
 20
348.528
 11
209.57
 21
348.17
  0
LINE
  8
0
 10
209.57
 20
348.17
 11
209.418
 21
347.821
  0
LINE
  8
0
 10
209.418
 20
347.821
 11
209.243
 21
347.483
  0
LINE
  8
0
 10
209.243
 20
347.483
 11
209.048
 21
347.156
  0
LINE
  8
0
 10
209.048
 20
347.156
 11
208.832
 21
346.843
  0
LINE
  8
0
 10
208.832
 20
346.843
 11
208.596
 21
346.543
  0
LINE
  8
0
 10
208.596
 20
346.543
 11
208.342
 21
346.26
  0
LINE
  8
0
 10
208.342
 20
346.26
 11
208.071
 21
345.992
  0
LINE
  8
0
 10
208.071
 20
345.992
 11
207.783
 21
345.743
  0
LINE
  8
0
 10
207.783
 20
345.743
 11
207.48
 21
345.513
  0
LINE
  8
0
 10
207.48
 20
345.513
 11
207.163
 21
345.302
  0
LINE
  8
0
 10
207.163
 20
345.302
 11
206.834
 21
345.111
  0
LINE
  8
0
 10
206.834
 20
345.111
 11
206.492
 21
344.942
  0
LINE
  8
0
 10
206.492
 20
344.942
 11
206.141
 21
344.795
  0
LINE
  8
0
 10
206.141
 20
344.795
 11
205.782
 21
344.671
  0
LINE
  8
0
 10
205.782
 20
344.671
 11
205.415
 21
344.569
  0
LINE
  8
0
 10
205.415
 20
344.569
 11
205.042
 21
344.491
  0
LINE
  8
0
 10
205.042
 20
344.491
 11
204.665
 21
344.437
  0
LINE
  8
0
 10
204.665
 20
344.437
 11
204.285
 21
344.407
  0
LINE
  8
0
 10
204.285
 20
344.407
 11
203.905
 21
344.401
  0
LINE
  8
0
 10
203.905
 20
344.401
 11
203.525
 21
344.419
  0
LINE
  8
0
 10
142.333
 20
372.9
 11
142.333
 21
379.9
  0
LINE
  8
0
 10
142.333
 20
379.9
 11
156.333
 21
379.9
  0
LINE
  8
0
 10
156.333
 20
379.9
 11
156.333
 21
372.9
  0
LINE
  8
0
 10
156.333
 20
372.9
 11
142.333
 21
372.9
  0
LINE
  8
0
 10
19.6037
 20
359.916
 11
19.2884
 21
359.951
  0
LINE
  8
0
 10
19.2884
 20
359.951
 11
18.976
 21
360.006
  0
LINE
  8
0
 10
18.976
 20
360.006
 11
18.6676
 21
360.081
  0
LINE
  8
0
 10
18.6676
 20
360.081
 11
18.3647
 21
360.175
  0
LINE
  8
0
 10
18.3647
 20
360.175
 11
18.0683
 21
360.288
  0
LINE
  8
0
 10
18.0683
 20
360.288
 11
17.7797
 21
360.42
  0
LINE
  8
0
 10
17.7797
 20
360.42
 11
17.5
 21
360.57
  0
LINE
  8
0
 10
17.5
 20
360.57
 11
17.2304
 21
360.737
  0
LINE
  8
0
 10
17.2304
 20
360.737
 11
16.9719
 21
360.921
  0
LINE
  8
0
 10
16.9719
 20
360.921
 11
16.7257
 21
361.121
  0
LINE
  8
0
 10
16.7257
 20
361.121
 11
16.4926
 21
361.337
  0
LINE
  8
0
 10
16.4926
 20
361.337
 11
16.2737
 21
361.566
  0
LINE
  8
0
 10
16.2737
 20
361.566
 11
16.0697
 21
361.809
  0
LINE
  8
0
 10
16.0697
 20
361.809
 11
15.8816
 21
362.065
  0
LINE
  8
0
 10
15.8816
 20
362.065
 11
15.7101
 21
362.332
  0
LINE
  8
0
 10
15.7101
 20
362.332
 11
15.5558
 21
362.609
  0
LINE
  8
0
 10
15.5558
 20
362.609
 11
15.4194
 21
362.895
  0
LINE
  8
0
 10
15.4194
 20
362.895
 11
15.3015
 21
363.19
  0
LINE
  8
0
 10
15.3015
 20
363.19
 11
15.2025
 21
363.491
  0
LINE
  8
0
 10
15.2025
 20
363.491
 11
15.1228
 21
363.798
  0
LINE
  8
0
 10
15.1228
 20
363.798
 11
15.0628
 21
364.11
  0
LINE
  8
0
 10
15.0628
 20
364.11
 11
15.0226
 21
364.425
  0
LINE
  8
0
 10
15.0226
 20
364.425
 11
15.0025
 21
364.741
  0
LINE
  8
0
 10
15.0025
 20
364.741
 11
15.0025
 21
365.059
  0
LINE
  8
0
 10
15.0025
 20
365.059
 11
15.0226
 21
365.375
  0
LINE
  8
0
 10
15.0226
 20
365.375
 11
15.0628
 21
365.69
  0
LINE
  8
0
 10
15.0628
 20
365.69
 11
15.1228
 21
366.002
  0
LINE
  8
0
 10
15.1228
 20
366.002
 11
15.2025
 21
366.309
  0
LINE
  8
0
 10
15.2025
 20
366.309
 11
15.3015
 21
366.61
  0
LINE
  8
0
 10
15.3015
 20
366.61
 11
15.4194
 21
366.905
  0
LINE
  8
0
 10
15.4194
 20
366.905
 11
15.5558
 21
367.191
  0
LINE
  8
0
 10
15.5558
 20
367.191
 11
15.7101
 21
367.468
  0
LINE
  8
0
 10
15.7101
 20
367.468
 11
15.8816
 21
367.735
  0
LINE
  8
0
 10
15.8816
 20
367.735
 11
16.0697
 21
367.991
  0
LINE
  8
0
 10
16.0697
 20
367.991
 11
16.2737
 21
368.234
  0
LINE
  8
0
 10
16.2737
 20
368.234
 11
16.4926
 21
368.463
  0
LINE
  8
0
 10
16.4926
 20
368.463
 11
16.7257
 21
368.679
  0
LINE
  8
0
 10
16.7257
 20
368.679
 11
16.9719
 21
368.879
  0
LINE
  8
0
 10
16.9719
 20
368.879
 11
17.2304
 21
369.063
  0
LINE
  8
0
 10
17.2304
 20
369.063
 11
17.5
 21
369.23
  0
LINE
  8
0
 10
17.5
 20
369.23
 11
17.7797
 21
369.38
  0
LINE
  8
0
 10
17.7797
 20
369.38
 11
18.0683
 21
369.512
  0
LINE
  8
0
 10
18.0683
 20
369.512
 11
18.3647
 21
369.625
  0
LINE
  8
0
 10
18.3647
 20
369.625
 11
18.6676
 21
369.719
  0
LINE
  8
0
 10
18.6676
 20
369.719
 11
18.976
 21
369.794
  0
LINE
  8
0
 10
18.976
 20
369.794
 11
19.2884
 21
369.849
  0
LINE
  8
0
 10
19.2884
 20
369.849
 11
19.6037
 21
369.884
  0
LINE
  8
0
 10
19.6037
 20
369.884
 11
19.9207
 21
369.899
  0
LINE
  8
0
 10
19.9207
 20
369.899
 11
20.2379
 21
369.894
  0
LINE
  8
0
 10
20.2379
 20
369.894
 11
20.5542
 21
369.869
  0
LINE
  8
0
 10
20.5542
 20
369.869
 11
20.8682
 21
369.824
  0
LINE
  8
0
 10
20.8682
 20
369.824
 11
21.1788
 21
369.759
  0
LINE
  8
0
 10
21.1788
 20
369.759
 11
21.4846
 21
369.674
  0
LINE
  8
0
 10
21.4846
 20
369.674
 11
21.7844
 21
369.571
  0
LINE
  8
0
 10
21.7844
 20
369.571
 11
22.0771
 21
369.448
  0
LINE
  8
0
 10
22.0771
 20
369.448
 11
22.3613
 21
369.307
  0
LINE
  8
0
 10
22.3613
 20
369.307
 11
22.6361
 21
369.149
  0
LINE
  8
0
 10
22.6361
 20
369.149
 11
22.9003
 21
368.973
  0
LINE
  8
0
 10
22.9003
 20
368.973
 11
23.1528
 21
368.781
  0
LINE
  8
0
 10
23.1528
 20
368.781
 11
23.3925
 21
368.573
  0
LINE
  8
0
 10
23.3925
 20
368.573
 11
23.6187
 21
368.35
  0
LINE
  8
0
 10
23.6187
 20
368.35
 11
23.8302
 21
368.114
  0
LINE
  8
0
 10
23.8302
 20
368.114
 11
24.0264
 21
367.865
  0
LINE
  8
0
 10
24.0264
 20
367.865
 11
24.2063
 21
367.603
  0
LINE
  8
0
 10
24.2063
 20
367.603
 11
24.3692
 21
367.331
  0
LINE
  8
0
 10
24.3692
 20
367.331
 11
24.5146
 21
367.049
  0
LINE
  8
0
 10
24.5146
 20
367.049
 11
24.6418
 21
366.758
  0
LINE
  8
0
 10
24.6418
 20
366.758
 11
24.7504
 21
366.46
  0
LINE
  8
0
 10
24.7504
 20
366.46
 11
24.8397
 21
366.156
  0
LINE
  8
0
 10
24.8397
 20
366.156
 11
24.9096
 21
365.846
  0
LINE
  8
0
 10
24.9096
 20
365.846
 11
24.9598
 21
365.533
  0
LINE
  8
0
 10
24.9598
 20
365.533
 11
24.9899
 21
365.217
  0
LINE
  8
0
 10
24.9899
 20
365.217
 11
25
 21
364.9
  0
LINE
  8
0
 10
25
 20
364.9
 11
24.9899
 21
364.583
  0
LINE
  8
0
 10
24.9899
 20
364.583
 11
24.9598
 21
364.267
  0
LINE
  8
0
 10
24.9598
 20
364.267
 11
24.9096
 21
363.954
  0
LINE
  8
0
 10
24.9096
 20
363.954
 11
24.8397
 21
363.644
  0
LINE
  8
0
 10
24.8397
 20
363.644
 11
24.7504
 21
363.34
  0
LINE
  8
0
 10
24.7504
 20
363.34
 11
24.6418
 21
363.042
  0
LINE
  8
0
 10
24.6418
 20
363.042
 11
24.5146
 21
362.751
  0
LINE
  8
0
 10
24.5146
 20
362.751
 11
24.3692
 21
362.469
  0
LINE
  8
0
 10
24.3692
 20
362.469
 11
24.2063
 21
362.197
  0
LINE
  8
0
 10
24.2063
 20
362.197
 11
24.0264
 21
361.935
  0
LINE
  8
0
 10
24.0264
 20
361.935
 11
23.8302
 21
361.686
  0
LINE
  8
0
 10
23.8302
 20
361.686
 11
23.6187
 21
361.45
  0
LINE
  8
0
 10
23.6187
 20
361.45
 11
23.3925
 21
361.227
  0
LINE
  8
0
 10
23.3925
 20
361.227
 11
23.1528
 21
361.019
  0
LINE
  8
0
 10
23.1528
 20
361.019
 11
22.9003
 21
360.827
  0
LINE
  8
0
 10
22.9003
 20
360.827
 11
22.6361
 21
360.651
  0
LINE
  8
0
 10
22.6361
 20
360.651
 11
22.3613
 21
360.493
  0
LINE
  8
0
 10
22.3613
 20
360.493
 11
22.0771
 21
360.352
  0
LINE
  8
0
 10
22.0771
 20
360.352
 11
21.7844
 21
360.229
  0
LINE
  8
0
 10
21.7844
 20
360.229
 11
21.4846
 21
360.125
  0
LINE
  8
0
 10
21.4846
 20
360.125
 11
21.1788
 21
360.041
  0
LINE
  8
0
 10
21.1788
 20
360.041
 11
20.8682
 21
359.976
  0
LINE
  8
0
 10
20.8682
 20
359.976
 11
20.5542
 21
359.931
  0
LINE
  8
0
 10
20.5542
 20
359.931
 11
20.2379
 21
359.906
  0
LINE
  8
0
 10
20.2379
 20
359.906
 11
19.9207
 21
359.901
  0
LINE
  8
0
 10
19.9207
 20
359.901
 11
19.6037
 21
359.916
  0
LINE
  8
0
 10
283.181
 20
340.203
 11
283.023
 21
340.215
  0
LINE
  8
0
 10
283.023
 20
340.215
 11
282.866
 21
340.238
  0
LINE
  8
0
 10
282.866
 20
340.238
 11
282.711
 21
340.27
  0
LINE
  8
0
 10
282.711
 20
340.27
 11
282.558
 21
340.313
  0
LINE
  8
0
 10
282.558
 20
340.313
 11
282.408
 21
340.365
  0
LINE
  8
0
 10
282.408
 20
340.365
 11
282.261
 21
340.426
  0
LINE
  8
0
 10
282.261
 20
340.426
 11
282.119
 21
340.496
  0
LINE
  8
0
 10
282.119
 20
340.496
 11
281.982
 21
340.576
  0
LINE
  8
0
 10
281.982
 20
340.576
 11
281.85
 21
340.664
  0
LINE
  8
0
 10
281.85
 20
340.664
 11
281.724
 21
340.76
  0
LINE
  8
0
 10
281.724
 20
340.76
 11
281.604
 21
340.864
  0
LINE
  8
0
 10
281.604
 20
340.864
 11
281.491
 21
340.975
  0
LINE
  8
0
 10
281.491
 20
340.975
 11
281.385
 21
341.093
  0
LINE
  8
0
 10
281.385
 20
341.093
 11
281.287
 21
341.218
  0
LINE
  8
0
 10
281.287
 20
341.218
 11
281.197
 21
341.348
  0
LINE
  8
0
 10
281.197
 20
341.348
 11
281.115
 21
341.484
  0
LINE
  8
0
 10
281.115
 20
341.484
 11
281.043
 21
341.626
  0
LINE
  8
0
 10
281.043
 20
341.626
 11
280.979
 21
341.771
  0
LINE
  8
0
 10
280.979
 20
341.771
 11
280.925
 21
341.92
  0
LINE
  8
0
 10
280.925
 20
341.92
 11
280.88
 21
342.072
  0
LINE
  8
0
 10
280.88
 20
342.072
 11
280.845
 21
342.227
  0
LINE
  8
0
 10
280.845
 20
342.227
 11
280.82
 21
342.384
  0
LINE
  8
0
 10
280.82
 20
342.384
 11
280.805
 21
342.541
  0
LINE
  8
0
 10
280.805
 20
342.541
 11
280.8
 21
342.7
  0
LINE
  8
0
 10
280.8
 20
342.7
 11
280.805
 21
342.859
  0
LINE
  8
0
 10
280.805
 20
342.859
 11
280.82
 21
343.016
  0
LINE
  8
0
 10
280.82
 20
343.016
 11
280.845
 21
343.173
  0
LINE
  8
0
 10
280.845
 20
343.173
 11
280.88
 21
343.328
  0
LINE
  8
0
 10
280.88
 20
343.328
 11
280.925
 21
343.48
  0
LINE
  8
0
 10
280.925
 20
343.48
 11
280.979
 21
343.629
  0
LINE
  8
0
 10
280.979
 20
343.629
 11
281.043
 21
343.774
  0
LINE
  8
0
 10
281.043
 20
343.774
 11
281.115
 21
343.915
  0
LINE
  8
0
 10
281.115
 20
343.915
 11
281.197
 21
344.052
  0
LINE
  8
0
 10
281.197
 20
344.052
 11
281.287
 21
344.182
  0
LINE
  8
0
 10
281.287
 20
344.182
 11
281.385
 21
344.307
  0
LINE
  8
0
 10
281.385
 20
344.307
 11
281.491
 21
344.425
  0
LINE
  8
0
 10
281.491
 20
344.425
 11
281.604
 21
344.536
  0
LINE
  8
0
 10
281.604
 20
344.536
 11
281.724
 21
344.64
  0
LINE
  8
0
 10
281.724
 20
344.64
 11
281.85
 21
344.736
  0
LINE
  8
0
 10
281.85
 20
344.736
 11
281.982
 21
344.824
  0
LINE
  8
0
 10
281.982
 20
344.824
 11
282.119
 21
344.904
  0
LINE
  8
0
 10
282.119
 20
344.904
 11
282.261
 21
344.974
  0
LINE
  8
0
 10
282.261
 20
344.974
 11
282.408
 21
345.035
  0
LINE
  8
0
 10
282.408
 20
345.035
 11
282.558
 21
345.087
  0
LINE
  8
0
 10
282.558
 20
345.087
 11
282.711
 21
345.13
  0
LINE
  8
0
 10
282.711
 20
345.13
 11
282.866
 21
345.162
  0
LINE
  8
0
 10
282.866
 20
345.162
 11
283.023
 21
345.185
  0
LINE
  8
0
 10
283.023
 20
345.185
 11
283.181
 21
345.197
  0
LINE
  8
0
 10
283.181
 20
345.197
 11
283.34
 21
345.2
  0
LINE
  8
0
 10
283.34
 20
345.2
 11
283.498
 21
345.192
  0
LINE
  8
0
 10
283.498
 20
345.192
 11
283.656
 21
345.175
  0
LINE
  8
0
 10
283.656
 20
345.175
 11
283.812
 21
345.147
  0
LINE
  8
0
 10
283.812
 20
345.147
 11
283.966
 21
345.11
  0
LINE
  8
0
 10
283.966
 20
345.11
 11
284.118
 21
345.062
  0
LINE
  8
0
 10
284.118
 20
345.062
 11
284.266
 21
345.006
  0
LINE
  8
0
 10
284.266
 20
345.006
 11
284.41
 21
344.94
  0
LINE
  8
0
 10
284.41
 20
344.94
 11
284.55
 21
344.865
  0
LINE
  8
0
 10
284.55
 20
344.865
 11
284.685
 21
344.781
  0
LINE
  8
0
 10
284.685
 20
344.781
 11
284.814
 21
344.689
  0
LINE
  8
0
 10
284.814
 20
344.689
 11
284.937
 21
344.589
  0
LINE
  8
0
 10
284.937
 20
344.589
 11
285.054
 21
344.482
  0
LINE
  8
0
 10
285.054
 20
344.482
 11
285.163
 21
344.367
  0
LINE
  8
0
 10
285.163
 20
344.367
 11
285.265
 21
344.245
  0
LINE
  8
0
 10
285.265
 20
344.245
 11
285.359
 21
344.118
  0
LINE
  8
0
 10
285.359
 20
344.118
 11
285.445
 21
343.984
  0
LINE
  8
0
 10
285.445
 20
343.984
 11
285.522
 21
343.846
  0
LINE
  8
0
 10
285.522
 20
343.846
 11
285.59
 21
343.702
  0
LINE
  8
0
 10
285.59
 20
343.702
 11
285.649
 21
343.555
  0
LINE
  8
0
 10
285.649
 20
343.555
 11
285.699
 21
343.404
  0
LINE
  8
0
 10
285.699
 20
343.404
 11
285.739
 21
343.251
  0
LINE
  8
0
 10
285.739
 20
343.251
 11
285.769
 21
343.095
  0
LINE
  8
0
 10
285.769
 20
343.095
 11
285.789
 21
342.938
  0
LINE
  8
0
 10
285.789
 20
342.938
 11
285.799
 21
342.779
  0
LINE
  8
0
 10
285.799
 20
342.779
 11
285.799
 21
342.621
  0
LINE
  8
0
 10
285.799
 20
342.621
 11
285.789
 21
342.462
  0
LINE
  8
0
 10
285.789
 20
342.462
 11
285.769
 21
342.305
  0
LINE
  8
0
 10
285.769
 20
342.305
 11
285.739
 21
342.149
  0
LINE
  8
0
 10
285.739
 20
342.149
 11
285.699
 21
341.996
  0
LINE
  8
0
 10
285.699
 20
341.996
 11
285.649
 21
341.845
  0
LINE
  8
0
 10
285.649
 20
341.845
 11
285.59
 21
341.698
  0
LINE
  8
0
 10
285.59
 20
341.698
 11
285.522
 21
341.554
  0
LINE
  8
0
 10
285.522
 20
341.554
 11
285.445
 21
341.416
  0
LINE
  8
0
 10
285.445
 20
341.416
 11
285.359
 21
341.282
  0
LINE
  8
0
 10
285.359
 20
341.282
 11
285.265
 21
341.155
  0
LINE
  8
0
 10
285.265
 20
341.155
 11
285.163
 21
341.033
  0
LINE
  8
0
 10
285.163
 20
341.033
 11
285.054
 21
340.918
  0
LINE
  8
0
 10
285.054
 20
340.918
 11
284.937
 21
340.811
  0
LINE
  8
0
 10
284.937
 20
340.811
 11
284.814
 21
340.711
  0
LINE
  8
0
 10
284.814
 20
340.711
 11
284.685
 21
340.619
  0
LINE
  8
0
 10
284.685
 20
340.619
 11
284.55
 21
340.535
  0
LINE
  8
0
 10
284.55
 20
340.535
 11
284.41
 21
340.46
  0
LINE
  8
0
 10
284.41
 20
340.46
 11
284.266
 21
340.394
  0
LINE
  8
0
 10
284.266
 20
340.394
 11
284.118
 21
340.337
  0
LINE
  8
0
 10
284.118
 20
340.337
 11
283.966
 21
340.29
  0
LINE
  8
0
 10
283.966
 20
340.29
 11
283.812
 21
340.253
  0
LINE
  8
0
 10
283.812
 20
340.253
 11
283.656
 21
340.225
  0
LINE
  8
0
 10
283.656
 20
340.225
 11
283.498
 21
340.208
  0
LINE
  8
0
 10
283.498
 20
340.208
 11
283.34
 21
340.2
  0
LINE
  8
0
 10
283.34
 20
340.2
 11
283.181
 21
340.203
  0
LINE
  8
0
 10
343.702
 20
340.208
 11
343.544
 21
340.225
  0
LINE
  8
0
 10
343.544
 20
340.225
 11
343.388
 21
340.253
  0
LINE
  8
0
 10
343.388
 20
340.253
 11
343.234
 21
340.29
  0
LINE
  8
0
 10
343.234
 20
340.29
 11
343.082
 21
340.337
  0
LINE
  8
0
 10
343.082
 20
340.337
 11
342.934
 21
340.394
  0
LINE
  8
0
 10
342.934
 20
340.394
 11
342.79
 21
340.46
  0
LINE
  8
0
 10
342.79
 20
340.46
 11
342.65
 21
340.535
  0
LINE
  8
0
 10
342.65
 20
340.535
 11
342.515
 21
340.619
  0
LINE
  8
0
 10
342.515
 20
340.619
 11
342.386
 21
340.711
  0
LINE
  8
0
 10
342.386
 20
340.711
 11
342.263
 21
340.811
  0
LINE
  8
0
 10
342.263
 20
340.811
 11
342.146
 21
340.918
  0
LINE
  8
0
 10
342.146
 20
340.918
 11
342.037
 21
341.033
  0
LINE
  8
0
 10
342.037
 20
341.033
 11
341.935
 21
341.155
  0
LINE
  8
0
 10
341.935
 20
341.155
 11
341.841
 21
341.282
  0
LINE
  8
0
 10
341.841
 20
341.282
 11
341.755
 21
341.416
  0
LINE
  8
0
 10
341.755
 20
341.416
 11
341.678
 21
341.554
  0
LINE
  8
0
 10
341.678
 20
341.554
 11
341.61
 21
341.698
  0
LINE
  8
0
 10
341.61
 20
341.698
 11
341.551
 21
341.845
  0
LINE
  8
0
 10
341.551
 20
341.845
 11
341.501
 21
341.996
  0
LINE
  8
0
 10
341.501
 20
341.996
 11
341.461
 21
342.149
  0
LINE
  8
0
 10
341.461
 20
342.149
 11
341.431
 21
342.305
  0
LINE
  8
0
 10
341.431
 20
342.305
 11
341.411
 21
342.462
  0
LINE
  8
0
 10
341.411
 20
342.462
 11
341.401
 21
342.621
  0
LINE
  8
0
 10
341.401
 20
342.621
 11
341.401
 21
342.779
  0
LINE
  8
0
 10
341.401
 20
342.779
 11
341.411
 21
342.938
  0
LINE
  8
0
 10
341.411
 20
342.938
 11
341.431
 21
343.095
  0
LINE
  8
0
 10
341.431
 20
343.095
 11
341.461
 21
343.251
  0
LINE
  8
0
 10
341.461
 20
343.251
 11
341.501
 21
343.404
  0
LINE
  8
0
 10
341.501
 20
343.404
 11
341.551
 21
343.555
  0
LINE
  8
0
 10
341.551
 20
343.555
 11
341.61
 21
343.702
  0
LINE
  8
0
 10
341.61
 20
343.702
 11
341.678
 21
343.846
  0
LINE
  8
0
 10
341.678
 20
343.846
 11
341.755
 21
343.984
  0
LINE
  8
0
 10
341.755
 20
343.984
 11
341.841
 21
344.118
  0
LINE
  8
0
 10
341.841
 20
344.118
 11
341.935
 21
344.245
  0
LINE
  8
0
 10
341.935
 20
344.245
 11
342.037
 21
344.367
  0
LINE
  8
0
 10
342.037
 20
344.367
 11
342.146
 21
344.482
  0
LINE
  8
0
 10
342.146
 20
344.482
 11
342.263
 21
344.589
  0
LINE
  8
0
 10
342.263
 20
344.589
 11
342.386
 21
344.689
  0
LINE
  8
0
 10
342.386
 20
344.689
 11
342.515
 21
344.781
  0
LINE
  8
0
 10
342.515
 20
344.781
 11
342.65
 21
344.865
  0
LINE
  8
0
 10
342.65
 20
344.865
 11
342.79
 21
344.94
  0
LINE
  8
0
 10
342.79
 20
344.94
 11
342.934
 21
345.006
  0
LINE
  8
0
 10
342.934
 20
345.006
 11
343.082
 21
345.062
  0
LINE
  8
0
 10
343.082
 20
345.062
 11
343.234
 21
345.11
  0
LINE
  8
0
 10
343.234
 20
345.11
 11
343.388
 21
345.147
  0
LINE
  8
0
 10
343.388
 20
345.147
 11
343.544
 21
345.175
  0
LINE
  8
0
 10
343.544
 20
345.175
 11
343.702
 21
345.192
  0
LINE
  8
0
 10
343.702
 20
345.192
 11
343.86
 21
345.2
  0
LINE
  8
0
 10
343.86
 20
345.2
 11
344.019
 21
345.197
  0
LINE
  8
0
 10
344.019
 20
345.197
 11
344.177
 21
345.185
  0
LINE
  8
0
 10
344.177
 20
345.185
 11
344.334
 21
345.162
  0
LINE
  8
0
 10
344.334
 20
345.162
 11
344.489
 21
345.13
  0
LINE
  8
0
 10
344.489
 20
345.13
 11
344.642
 21
345.087
  0
LINE
  8
0
 10
344.642
 20
345.087
 11
344.792
 21
345.035
  0
LINE
  8
0
 10
344.792
 20
345.035
 11
344.939
 21
344.974
  0
LINE
  8
0
 10
344.939
 20
344.974
 11
345.081
 21
344.904
  0
LINE
  8
0
 10
345.081
 20
344.904
 11
345.218
 21
344.824
  0
LINE
  8
0
 10
345.218
 20
344.824
 11
345.35
 21
344.736
  0
LINE
  8
0
 10
345.35
 20
344.736
 11
345.476
 21
344.64
  0
LINE
  8
0
 10
345.476
 20
344.64
 11
345.596
 21
344.536
  0
LINE
  8
0
 10
345.596
 20
344.536
 11
345.709
 21
344.425
  0
LINE
  8
0
 10
345.709
 20
344.425
 11
345.815
 21
344.307
  0
LINE
  8
0
 10
345.815
 20
344.307
 11
345.913
 21
344.182
  0
LINE
  8
0
 10
345.913
 20
344.182
 11
346.003
 21
344.052
  0
LINE
  8
0
 10
346.003
 20
344.052
 11
346.085
 21
343.915
  0
LINE
  8
0
 10
346.085
 20
343.915
 11
346.157
 21
343.774
  0
LINE
  8
0
 10
346.157
 20
343.774
 11
346.221
 21
343.629
  0
LINE
  8
0
 10
346.221
 20
343.629
 11
346.275
 21
343.48
  0
LINE
  8
0
 10
346.275
 20
343.48
 11
346.32
 21
343.328
  0
LINE
  8
0
 10
346.32
 20
343.328
 11
346.355
 21
343.173
  0
LINE
  8
0
 10
346.355
 20
343.173
 11
346.38
 21
343.016
  0
LINE
  8
0
 10
346.38
 20
343.016
 11
346.395
 21
342.859
  0
LINE
  8
0
 10
346.395
 20
342.859
 11
346.4
 21
342.7
  0
LINE
  8
0
 10
346.4
 20
342.7
 11
346.395
 21
342.541
  0
LINE
  8
0
 10
346.395
 20
342.541
 11
346.38
 21
342.384
  0
LINE
  8
0
 10
346.38
 20
342.384
 11
346.355
 21
342.227
  0
LINE
  8
0
 10
346.355
 20
342.227
 11
346.32
 21
342.072
  0
LINE
  8
0
 10
346.32
 20
342.072
 11
346.275
 21
341.92
  0
LINE
  8
0
 10
346.275
 20
341.92
 11
346.221
 21
341.771
  0
LINE
  8
0
 10
346.221
 20
341.771
 11
346.157
 21
341.626
  0
LINE
  8
0
 10
346.157
 20
341.626
 11
346.085
 21
341.484
  0
LINE
  8
0
 10
346.085
 20
341.484
 11
346.003
 21
341.348
  0
LINE
  8
0
 10
346.003
 20
341.348
 11
345.913
 21
341.218
  0
LINE
  8
0
 10
345.913
 20
341.218
 11
345.815
 21
341.093
  0
LINE
  8
0
 10
345.815
 20
341.093
 11
345.709
 21
340.975
  0
LINE
  8
0
 10
345.709
 20
340.975
 11
345.596
 21
340.864
  0
LINE
  8
0
 10
345.596
 20
340.864
 11
345.476
 21
340.76
  0
LINE
  8
0
 10
345.476
 20
340.76
 11
345.35
 21
340.664
  0
LINE
  8
0
 10
345.35
 20
340.664
 11
345.218
 21
340.576
  0
LINE
  8
0
 10
345.218
 20
340.576
 11
345.081
 21
340.496
  0
LINE
  8
0
 10
345.081
 20
340.496
 11
344.939
 21
340.426
  0
LINE
  8
0
 10
344.939
 20
340.426
 11
344.792
 21
340.365
  0
LINE
  8
0
 10
344.792
 20
340.365
 11
344.642
 21
340.313
  0
LINE
  8
0
 10
344.642
 20
340.313
 11
344.489
 21
340.27
  0
LINE
  8
0
 10
344.489
 20
340.27
 11
344.334
 21
340.238
  0
LINE
  8
0
 10
344.334
 20
340.238
 11
344.177
 21
340.215
  0
LINE
  8
0
 10
344.177
 20
340.215
 11
344.019
 21
340.203
  0
LINE
  8
0
 10
344.019
 20
340.203
 11
343.86
 21
340.2
  0
LINE
  8
0
 10
343.86
 20
340.2
 11
343.702
 21
340.208
  0
LINE
  8
0
 10
311.223
 20
282.494
 11
309.331
 21
282.705
  0
LINE
  8
0
 10
309.331
 20
282.705
 11
307.456
 21
283.036
  0
LINE
  8
0
 10
307.456
 20
283.036
 11
305.606
 21
283.485
  0
LINE
  8
0
 10
305.606
 20
283.485
 11
303.788
 21
284.05
  0
LINE
  8
0
 10
303.788
 20
284.05
 11
302.01
 21
284.729
  0
LINE
  8
0
 10
302.01
 20
284.729
 11
300.278
 21
285.52
  0
LINE
  8
0
 10
300.278
 20
285.52
 11
298.6
 21
286.419
  0
LINE
  8
0
 10
298.6
 20
286.419
 11
296.982
 21
287.423
  0
LINE
  8
0
 10
296.982
 20
287.423
 11
295.432
 21
288.527
  0
LINE
  8
0
 10
295.432
 20
288.527
 11
293.954
 21
289.728
  0
LINE
  8
0
 10
293.954
 20
289.728
 11
292.556
 21
291.019
  0
LINE
  8
0
 10
292.556
 20
291.019
 11
291.242
 21
292.397
  0
LINE
  8
0
 10
291.242
 20
292.397
 11
290.018
 21
293.855
  0
LINE
  8
0
 10
290.018
 20
293.855
 11
288.89
 21
295.388
  0
LINE
  8
0
 10
288.89
 20
295.388
 11
287.861
 21
296.99
  0
LINE
  8
0
 10
287.861
 20
296.99
 11
286.935
 21
298.653
  0
LINE
  8
0
 10
286.935
 20
298.653
 11
286.117
 21
300.372
  0
LINE
  8
0
 10
286.117
 20
300.372
 11
285.409
 21
302.139
  0
LINE
  8
0
 10
285.409
 20
302.139
 11
284.815
 21
303.948
  0
LINE
  8
0
 10
284.815
 20
303.948
 11
284.337
 21
305.791
  0
LINE
  8
0
 10
284.337
 20
305.791
 11
283.977
 21
307.66
  0
LINE
  8
0
 10
283.977
 20
307.66
 11
283.736
 21
309.548
  0
LINE
  8
0
 10
283.736
 20
309.548
 11
283.615
 21
311.448
  0
LINE
  8
0
 10
283.615
 20
311.448
 11
283.615
 21
313.352
  0
LINE
  8
0
 10
283.615
 20
313.352
 11
283.736
 21
315.252
  0
LINE
  8
0
 10
283.736
 20
315.252
 11
283.977
 21
317.14
  0
LINE
  8
0
 10
283.977
 20
317.14
 11
284.337
 21
319.009
  0
LINE
  8
0
 10
284.337
 20
319.009
 11
284.815
 21
320.852
  0
LINE
  8
0
 10
284.815
 20
320.852
 11
285.409
 21
322.661
  0
LINE
  8
0
 10
285.409
 20
322.661
 11
286.117
 21
324.428
  0
LINE
  8
0
 10
286.117
 20
324.428
 11
286.935
 21
326.147
  0
LINE
  8
0
 10
286.935
 20
326.147
 11
287.861
 21
327.81
  0
LINE
  8
0
 10
287.861
 20
327.81
 11
288.89
 21
329.412
  0
LINE
  8
0
 10
288.89
 20
329.412
 11
290.018
 21
330.945
  0
LINE
  8
0
 10
290.018
 20
330.945
 11
291.242
 21
332.403
  0
LINE
  8
0
 10
291.242
 20
332.403
 11
292.556
 21
333.781
  0
LINE
  8
0
 10
292.556
 20
333.781
 11
293.954
 21
335.072
  0
LINE
  8
0
 10
293.954
 20
335.072
 11
295.432
 21
336.273
  0
LINE
  8
0
 10
295.432
 20
336.273
 11
296.982
 21
337.377
  0
LINE
  8
0
 10
296.982
 20
337.377
 11
298.6
 21
338.381
  0
LINE
  8
0
 10
298.6
 20
338.381
 11
300.278
 21
339.28
  0
LINE
  8
0
 10
300.278
 20
339.28
 11
302.01
 21
340.071
  0
LINE
  8
0
 10
302.01
 20
340.071
 11
303.788
 21
340.75
  0
LINE
  8
0
 10
303.788
 20
340.75
 11
305.606
 21
341.315
  0
LINE
  8
0
 10
305.606
 20
341.315
 11
307.456
 21
341.764
  0
LINE
  8
0
 10
307.456
 20
341.764
 11
309.331
 21
342.095
  0
LINE
  8
0
 10
309.331
 20
342.095
 11
311.223
 21
342.306
  0
LINE
  8
0
 10
311.223
 20
342.306
 11
313.124
 21
342.396
  0
LINE
  8
0
 10
313.124
 20
342.396
 11
315.027
 21
342.366
  0
LINE
  8
0
 10
315.027
 20
342.366
 11
316.925
 21
342.215
  0
LINE
  8
0
 10
316.925
 20
342.215
 11
318.809
 21
341.944
  0
LINE
  8
0
 10
318.809
 20
341.944
 11
320.673
 21
341.554
  0
LINE
  8
0
 10
320.673
 20
341.554
 11
322.508
 21
341.047
  0
LINE
  8
0
 10
322.508
 20
341.047
 11
324.307
 21
340.424
  0
LINE
  8
0
 10
324.307
 20
340.424
 11
326.062
 21
339.689
  0
LINE
  8
0
 10
326.062
 20
339.689
 11
327.768
 21
338.844
  0
LINE
  8
0
 10
327.768
 20
338.844
 11
329.417
 21
337.892
  0
LINE
  8
0
 10
329.417
 20
337.892
 11
331.002
 21
336.837
  0
LINE
  8
0
 10
331.002
 20
336.837
 11
332.517
 21
335.684
  0
LINE
  8
0
 10
332.517
 20
335.684
 11
333.955
 21
334.438
  0
LINE
  8
0
 10
333.955
 20
334.438
 11
335.312
 21
333.102
  0
LINE
  8
0
 10
335.312
 20
333.102
 11
336.581
 21
331.684
  0
LINE
  8
0
 10
336.581
 20
331.684
 11
337.758
 21
330.187
  0
LINE
  8
0
 10
337.758
 20
330.187
 11
338.838
 21
328.619
  0
LINE
  8
0
 10
338.838
 20
328.619
 11
339.815
 21
326.986
  0
LINE
  8
0
 10
339.815
 20
326.986
 11
340.688
 21
325.294
  0
LINE
  8
0
 10
340.688
 20
325.294
 11
341.451
 21
323.55
  0
LINE
  8
0
 10
341.451
 20
323.55
 11
342.102
 21
321.761
  0
LINE
  8
0
 10
342.102
 20
321.761
 11
342.638
 21
319.934
  0
LINE
  8
0
 10
342.638
 20
319.934
 11
343.058
 21
318.078
  0
LINE
  8
0
 10
343.058
 20
318.078
 11
343.359
 21
316.198
  0
LINE
  8
0
 10
343.359
 20
316.198
 11
343.54
 21
314.303
  0
LINE
  8
0
 10
343.54
 20
314.303
 11
343.6
 21
312.4
  0
LINE
  8
0
 10
343.6
 20
312.4
 11
343.54
 21
310.497
  0
LINE
  8
0
 10
343.54
 20
310.497
 11
343.359
 21
308.602
  0
LINE
  8
0
 10
343.359
 20
308.602
 11
343.058
 21
306.722
  0
LINE
  8
0
 10
343.058
 20
306.722
 11
342.638
 21
304.866
  0
LINE
  8
0
 10
342.638
 20
304.866
 11
342.102
 21
303.039
  0
LINE
  8
0
 10
342.102
 20
303.039
 11
341.451
 21
301.25
  0
LINE
  8
0
 10
341.451
 20
301.25
 11
340.688
 21
299.506
  0
LINE
  8
0
 10
340.688
 20
299.506
 11
339.815
 21
297.814
  0
LINE
  8
0
 10
339.815
 20
297.814
 11
338.838
 21
296.181
  0
LINE
  8
0
 10
338.838
 20
296.181
 11
337.758
 21
294.613
  0
LINE
  8
0
 10
337.758
 20
294.613
 11
336.581
 21
293.116
  0
LINE
  8
0
 10
336.581
 20
293.116
 11
335.312
 21
291.698
  0
LINE
  8
0
 10
335.312
 20
291.698
 11
333.955
 21
290.362
  0
LINE
  8
0
 10
333.955
 20
290.362
 11
332.517
 21
289.116
  0
LINE
  8
0
 10
332.517
 20
289.116
 11
331.002
 21
287.963
  0
LINE
  8
0
 10
331.002
 20
287.963
 11
329.417
 21
286.908
  0
LINE
  8
0
 10
329.417
 20
286.908
 11
327.768
 21
285.956
  0
LINE
  8
0
 10
327.768
 20
285.956
 11
326.062
 21
285.111
  0
LINE
  8
0
 10
326.062
 20
285.111
 11
324.307
 21
284.376
  0
LINE
  8
0
 10
324.307
 20
284.376
 11
322.508
 21
283.753
  0
LINE
  8
0
 10
322.508
 20
283.753
 11
320.673
 21
283.246
  0
LINE
  8
0
 10
320.673
 20
283.246
 11
318.809
 21
282.856
  0
LINE
  8
0
 10
318.809
 20
282.856
 11
316.925
 21
282.585
  0
LINE
  8
0
 10
316.925
 20
282.585
 11
315.027
 21
282.434
  0
LINE
  8
0
 10
315.027
 20
282.434
 11
313.124
 21
282.404
  0
LINE
  8
0
 10
313.124
 20
282.404
 11
311.223
 21
282.494
  0
LINE
  8
0
 10
288.481
 20
334.903
 11
288.323
 21
334.915
  0
LINE
  8
0
 10
288.323
 20
334.915
 11
288.166
 21
334.938
  0
LINE
  8
0
 10
288.166
 20
334.938
 11
288.011
 21
334.97
  0
LINE
  8
0
 10
288.011
 20
334.97
 11
287.858
 21
335.013
  0
LINE
  8
0
 10
287.858
 20
335.013
 11
287.708
 21
335.065
  0
LINE
  8
0
 10
287.708
 20
335.065
 11
287.561
 21
335.126
  0
LINE
  8
0
 10
287.561
 20
335.126
 11
287.419
 21
335.196
  0
LINE
  8
0
 10
287.419
 20
335.196
 11
287.282
 21
335.276
  0
LINE
  8
0
 10
287.282
 20
335.276
 11
287.15
 21
335.364
  0
LINE
  8
0
 10
287.15
 20
335.364
 11
287.024
 21
335.46
  0
LINE
  8
0
 10
287.024
 20
335.46
 11
286.904
 21
335.564
  0
LINE
  8
0
 10
286.904
 20
335.564
 11
286.791
 21
335.675
  0
LINE
  8
0
 10
286.791
 20
335.675
 11
286.685
 21
335.793
  0
LINE
  8
0
 10
286.685
 20
335.793
 11
286.587
 21
335.918
  0
LINE
  8
0
 10
286.587
 20
335.918
 11
286.497
 21
336.048
  0
LINE
  8
0
 10
286.497
 20
336.048
 11
286.415
 21
336.185
  0
LINE
  8
0
 10
286.415
 20
336.185
 11
286.343
 21
336.326
  0
LINE
  8
0
 10
286.343
 20
336.326
 11
286.279
 21
336.471
  0
LINE
  8
0
 10
286.279
 20
336.471
 11
286.225
 21
336.62
  0
LINE
  8
0
 10
286.225
 20
336.62
 11
286.18
 21
336.772
  0
LINE
  8
0
 10
286.18
 20
336.772
 11
286.145
 21
336.927
  0
LINE
  8
0
 10
286.145
 20
336.927
 11
286.12
 21
337.084
  0
LINE
  8
0
 10
286.12
 20
337.084
 11
286.105
 21
337.241
  0
LINE
  8
0
 10
286.105
 20
337.241
 11
286.1
 21
337.4
  0
LINE
  8
0
 10
286.1
 20
337.4
 11
286.105
 21
337.559
  0
LINE
  8
0
 10
286.105
 20
337.559
 11
286.12
 21
337.716
  0
LINE
  8
0
 10
286.12
 20
337.716
 11
286.145
 21
337.873
  0
LINE
  8
0
 10
286.145
 20
337.873
 11
286.18
 21
338.028
  0
LINE
  8
0
 10
286.18
 20
338.028
 11
286.225
 21
338.18
  0
LINE
  8
0
 10
286.225
 20
338.18
 11
286.279
 21
338.329
  0
LINE
  8
0
 10
286.279
 20
338.329
 11
286.343
 21
338.474
  0
LINE
  8
0
 10
286.343
 20
338.474
 11
286.415
 21
338.615
  0
LINE
  8
0
 10
286.415
 20
338.615
 11
286.497
 21
338.752
  0
LINE
  8
0
 10
286.497
 20
338.752
 11
286.587
 21
338.882
  0
LINE
  8
0
 10
286.587
 20
338.882
 11
286.685
 21
339.007
  0
LINE
  8
0
 10
286.685
 20
339.007
 11
286.791
 21
339.125
  0
LINE
  8
0
 10
286.791
 20
339.125
 11
286.904
 21
339.236
  0
LINE
  8
0
 10
286.904
 20
339.236
 11
287.024
 21
339.34
  0
LINE
  8
0
 10
287.024
 20
339.34
 11
287.15
 21
339.436
  0
LINE
  8
0
 10
287.15
 20
339.436
 11
287.282
 21
339.524
  0
LINE
  8
0
 10
287.282
 20
339.524
 11
287.419
 21
339.604
  0
LINE
  8
0
 10
287.419
 20
339.604
 11
287.561
 21
339.674
  0
LINE
  8
0
 10
287.561
 20
339.674
 11
287.708
 21
339.735
  0
LINE
  8
0
 10
287.708
 20
339.735
 11
287.858
 21
339.787
  0
LINE
  8
0
 10
287.858
 20
339.787
 11
288.011
 21
339.83
  0
LINE
  8
0
 10
288.011
 20
339.83
 11
288.166
 21
339.862
  0
LINE
  8
0
 10
288.166
 20
339.862
 11
288.323
 21
339.885
  0
LINE
  8
0
 10
288.323
 20
339.885
 11
288.481
 21
339.897
  0
LINE
  8
0
 10
288.481
 20
339.897
 11
288.64
 21
339.9
  0
LINE
  8
0
 10
288.64
 20
339.9
 11
288.798
 21
339.892
  0
LINE
  8
0
 10
288.798
 20
339.892
 11
288.956
 21
339.875
  0
LINE
  8
0
 10
288.956
 20
339.875
 11
289.112
 21
339.847
  0
LINE
  8
0
 10
289.112
 20
339.847
 11
289.266
 21
339.81
  0
LINE
  8
0
 10
289.266
 20
339.81
 11
289.418
 21
339.763
  0
LINE
  8
0
 10
289.418
 20
339.763
 11
289.566
 21
339.706
  0
LINE
  8
0
 10
289.566
 20
339.706
 11
289.71
 21
339.64
  0
LINE
  8
0
 10
289.71
 20
339.64
 11
289.85
 21
339.565
  0
LINE
  8
0
 10
289.85
 20
339.565
 11
289.985
 21
339.481
  0
LINE
  8
0
 10
289.985
 20
339.481
 11
290.114
 21
339.389
  0
LINE
  8
0
 10
290.114
 20
339.389
 11
290.237
 21
339.289
  0
LINE
  8
0
 10
290.237
 20
339.289
 11
290.354
 21
339.182
  0
LINE
  8
0
 10
290.354
 20
339.182
 11
290.463
 21
339.067
  0
LINE
  8
0
 10
290.463
 20
339.067
 11
290.565
 21
338.945
  0
LINE
  8
0
 10
290.565
 20
338.945
 11
290.659
 21
338.818
  0
LINE
  8
0
 10
290.659
 20
338.818
 11
290.745
 21
338.684
  0
LINE
  8
0
 10
290.745
 20
338.684
 11
290.822
 21
338.546
  0
LINE
  8
0
 10
290.822
 20
338.546
 11
290.89
 21
338.402
  0
LINE
  8
0
 10
290.89
 20
338.402
 11
290.949
 21
338.255
  0
LINE
  8
0
 10
290.949
 20
338.255
 11
290.999
 21
338.104
  0
LINE
  8
0
 10
290.999
 20
338.104
 11
291.039
 21
337.951
  0
LINE
  8
0
 10
291.039
 20
337.951
 11
291.069
 21
337.795
  0
LINE
  8
0
 10
291.069
 20
337.795
 11
291.089
 21
337.638
  0
LINE
  8
0
 10
291.089
 20
337.638
 11
291.099
 21
337.479
  0
LINE
  8
0
 10
291.099
 20
337.479
 11
291.099
 21
337.321
  0
LINE
  8
0
 10
291.099
 20
337.321
 11
291.089
 21
337.162
  0
LINE
  8
0
 10
291.089
 20
337.162
 11
291.069
 21
337.005
  0
LINE
  8
0
 10
291.069
 20
337.005
 11
291.039
 21
336.849
  0
LINE
  8
0
 10
291.039
 20
336.849
 11
290.999
 21
336.696
  0
LINE
  8
0
 10
290.999
 20
336.696
 11
290.949
 21
336.545
  0
LINE
  8
0
 10
290.949
 20
336.545
 11
290.89
 21
336.398
  0
LINE
  8
0
 10
290.89
 20
336.398
 11
290.822
 21
336.254
  0
LINE
  8
0
 10
290.822
 20
336.254
 11
290.745
 21
336.116
  0
LINE
  8
0
 10
290.745
 20
336.116
 11
290.659
 21
335.982
  0
LINE
  8
0
 10
290.659
 20
335.982
 11
290.565
 21
335.855
  0
LINE
  8
0
 10
290.565
 20
335.855
 11
290.463
 21
335.733
  0
LINE
  8
0
 10
290.463
 20
335.733
 11
290.354
 21
335.618
  0
LINE
  8
0
 10
290.354
 20
335.618
 11
290.237
 21
335.511
  0
LINE
  8
0
 10
290.237
 20
335.511
 11
290.114
 21
335.411
  0
LINE
  8
0
 10
290.114
 20
335.411
 11
289.985
 21
335.319
  0
LINE
  8
0
 10
289.985
 20
335.319
 11
289.85
 21
335.235
  0
LINE
  8
0
 10
289.85
 20
335.235
 11
289.71
 21
335.16
  0
LINE
  8
0
 10
289.71
 20
335.16
 11
289.566
 21
335.094
  0
LINE
  8
0
 10
289.566
 20
335.094
 11
289.418
 21
335.038
  0
LINE
  8
0
 10
289.418
 20
335.038
 11
289.266
 21
334.99
  0
LINE
  8
0
 10
289.266
 20
334.99
 11
289.112
 21
334.953
  0
LINE
  8
0
 10
289.112
 20
334.953
 11
288.956
 21
334.925
  0
LINE
  8
0
 10
288.956
 20
334.925
 11
288.798
 21
334.908
  0
LINE
  8
0
 10
288.798
 20
334.908
 11
288.64
 21
334.9
  0
LINE
  8
0
 10
288.64
 20
334.9
 11
288.481
 21
334.903
  0
LINE
  8
0
 10
338.402
 20
334.908
 11
338.244
 21
334.925
  0
LINE
  8
0
 10
338.244
 20
334.925
 11
338.088
 21
334.953
  0
LINE
  8
0
 10
338.088
 20
334.953
 11
337.934
 21
334.99
  0
LINE
  8
0
 10
337.934
 20
334.99
 11
337.782
 21
335.038
  0
LINE
  8
0
 10
337.782
 20
335.038
 11
337.634
 21
335.094
  0
LINE
  8
0
 10
337.634
 20
335.094
 11
337.49
 21
335.16
  0
LINE
  8
0
 10
337.49
 20
335.16
 11
337.35
 21
335.235
  0
LINE
  8
0
 10
337.35
 20
335.235
 11
337.215
 21
335.319
  0
LINE
  8
0
 10
337.215
 20
335.319
 11
337.086
 21
335.411
  0
LINE
  8
0
 10
337.086
 20
335.411
 11
336.963
 21
335.511
  0
LINE
  8
0
 10
336.963
 20
335.511
 11
336.846
 21
335.618
  0
LINE
  8
0
 10
336.846
 20
335.618
 11
336.737
 21
335.733
  0
LINE
  8
0
 10
336.737
 20
335.733
 11
336.635
 21
335.855
  0
LINE
  8
0
 10
336.635
 20
335.855
 11
336.541
 21
335.982
  0
LINE
  8
0
 10
336.541
 20
335.982
 11
336.455
 21
336.116
  0
LINE
  8
0
 10
336.455
 20
336.116
 11
336.378
 21
336.254
  0
LINE
  8
0
 10
336.378
 20
336.254
 11
336.31
 21
336.398
  0
LINE
  8
0
 10
336.31
 20
336.398
 11
336.251
 21
336.545
  0
LINE
  8
0
 10
336.251
 20
336.545
 11
336.201
 21
336.696
  0
LINE
  8
0
 10
336.201
 20
336.696
 11
336.161
 21
336.849
  0
LINE
  8
0
 10
336.161
 20
336.849
 11
336.131
 21
337.005
  0
LINE
  8
0
 10
336.131
 20
337.005
 11
336.111
 21
337.162
  0
LINE
  8
0
 10
336.111
 20
337.162
 11
336.101
 21
337.321
  0
LINE
  8
0
 10
336.101
 20
337.321
 11
336.101
 21
337.479
  0
LINE
  8
0
 10
336.101
 20
337.479
 11
336.111
 21
337.638
  0
LINE
  8
0
 10
336.111
 20
337.638
 11
336.131
 21
337.795
  0
LINE
  8
0
 10
336.131
 20
337.795
 11
336.161
 21
337.951
  0
LINE
  8
0
 10
336.161
 20
337.951
 11
336.201
 21
338.104
  0
LINE
  8
0
 10
336.201
 20
338.104
 11
336.251
 21
338.255
  0
LINE
  8
0
 10
336.251
 20
338.255
 11
336.31
 21
338.402
  0
LINE
  8
0
 10
336.31
 20
338.402
 11
336.378
 21
338.546
  0
LINE
  8
0
 10
336.378
 20
338.546
 11
336.455
 21
338.684
  0
LINE
  8
0
 10
336.455
 20
338.684
 11
336.541
 21
338.818
  0
LINE
  8
0
 10
336.541
 20
338.818
 11
336.635
 21
338.945
  0
LINE
  8
0
 10
336.635
 20
338.945
 11
336.737
 21
339.067
  0
LINE
  8
0
 10
336.737
 20
339.067
 11
336.846
 21
339.182
  0
LINE
  8
0
 10
336.846
 20
339.182
 11
336.963
 21
339.289
  0
LINE
  8
0
 10
336.963
 20
339.289
 11
337.086
 21
339.389
  0
LINE
  8
0
 10
337.086
 20
339.389
 11
337.215
 21
339.481
  0
LINE
  8
0
 10
337.215
 20
339.481
 11
337.35
 21
339.565
  0
LINE
  8
0
 10
337.35
 20
339.565
 11
337.49
 21
339.64
  0
LINE
  8
0
 10
337.49
 20
339.64
 11
337.634
 21
339.706
  0
LINE
  8
0
 10
337.634
 20
339.706
 11
337.782
 21
339.763
  0
LINE
  8
0
 10
337.782
 20
339.763
 11
337.934
 21
339.81
  0
LINE
  8
0
 10
337.934
 20
339.81
 11
338.088
 21
339.847
  0
LINE
  8
0
 10
338.088
 20
339.847
 11
338.244
 21
339.875
  0
LINE
  8
0
 10
338.244
 20
339.875
 11
338.402
 21
339.892
  0
LINE
  8
0
 10
338.402
 20
339.892
 11
338.56
 21
339.9
  0
LINE
  8
0
 10
338.56
 20
339.9
 11
338.719
 21
339.897
  0
LINE
  8
0
 10
338.719
 20
339.897
 11
338.877
 21
339.885
  0
LINE
  8
0
 10
338.877
 20
339.885
 11
339.034
 21
339.862
  0
LINE
  8
0
 10
339.034
 20
339.862
 11
339.189
 21
339.83
  0
LINE
  8
0
 10
339.189
 20
339.83
 11
339.342
 21
339.787
  0
LINE
  8
0
 10
339.342
 20
339.787
 11
339.492
 21
339.735
  0
LINE
  8
0
 10
339.492
 20
339.735
 11
339.639
 21
339.674
  0
LINE
  8
0
 10
339.639
 20
339.674
 11
339.781
 21
339.604
  0
LINE
  8
0
 10
339.781
 20
339.604
 11
339.918
 21
339.524
  0
LINE
  8
0
 10
339.918
 20
339.524
 11
340.05
 21
339.436
  0
LINE
  8
0
 10
340.05
 20
339.436
 11
340.176
 21
339.34
  0
LINE
  8
0
 10
340.176
 20
339.34
 11
340.296
 21
339.236
  0
LINE
  8
0
 10
340.296
 20
339.236
 11
340.409
 21
339.125
  0
LINE
  8
0
 10
340.409
 20
339.125
 11
340.515
 21
339.007
  0
LINE
  8
0
 10
340.515
 20
339.007
 11
340.613
 21
338.882
  0
LINE
  8
0
 10
340.613
 20
338.882
 11
340.703
 21
338.752
  0
LINE
  8
0
 10
340.703
 20
338.752
 11
340.785
 21
338.615
  0
LINE
  8
0
 10
340.785
 20
338.615
 11
340.857
 21
338.474
  0
LINE
  8
0
 10
340.857
 20
338.474
 11
340.921
 21
338.329
  0
LINE
  8
0
 10
340.921
 20
338.329
 11
340.975
 21
338.18
  0
LINE
  8
0
 10
340.975
 20
338.18
 11
341.02
 21
338.028
  0
LINE
  8
0
 10
341.02
 20
338.028
 11
341.055
 21
337.873
  0
LINE
  8
0
 10
341.055
 20
337.873
 11
341.08
 21
337.716
  0
LINE
  8
0
 10
341.08
 20
337.716
 11
341.095
 21
337.559
  0
LINE
  8
0
 10
341.095
 20
337.559
 11
341.1
 21
337.4
  0
LINE
  8
0
 10
341.1
 20
337.4
 11
341.095
 21
337.241
  0
LINE
  8
0
 10
341.095
 20
337.241
 11
341.08
 21
337.084
  0
LINE
  8
0
 10
341.08
 20
337.084
 11
341.055
 21
336.927
  0
LINE
  8
0
 10
341.055
 20
336.927
 11
341.02
 21
336.772
  0
LINE
  8
0
 10
341.02
 20
336.772
 11
340.975
 21
336.62
  0
LINE
  8
0
 10
340.975
 20
336.62
 11
340.921
 21
336.471
  0
LINE
  8
0
 10
340.921
 20
336.471
 11
340.857
 21
336.326
  0
LINE
  8
0
 10
340.857
 20
336.326
 11
340.785
 21
336.185
  0
LINE
  8
0
 10
340.785
 20
336.185
 11
340.703
 21
336.048
  0
LINE
  8
0
 10
340.703
 20
336.048
 11
340.613
 21
335.918
  0
LINE
  8
0
 10
340.613
 20
335.918
 11
340.515
 21
335.793
  0
LINE
  8
0
 10
340.515
 20
335.793
 11
340.409
 21
335.675
  0
LINE
  8
0
 10
340.409
 20
335.675
 11
340.296
 21
335.564
  0
LINE
  8
0
 10
340.296
 20
335.564
 11
340.176
 21
335.46
  0
LINE
  8
0
 10
340.176
 20
335.46
 11
340.05
 21
335.364
  0
LINE
  8
0
 10
340.05
 20
335.364
 11
339.918
 21
335.276
  0
LINE
  8
0
 10
339.918
 20
335.276
 11
339.781
 21
335.196
  0
LINE
  8
0
 10
339.781
 20
335.196
 11
339.639
 21
335.126
  0
LINE
  8
0
 10
339.639
 20
335.126
 11
339.492
 21
335.065
  0
LINE
  8
0
 10
339.492
 20
335.065
 11
339.342
 21
335.013
  0
LINE
  8
0
 10
339.342
 20
335.013
 11
339.189
 21
334.97
  0
LINE
  8
0
 10
339.189
 20
334.97
 11
339.034
 21
334.938
  0
LINE
  8
0
 10
339.034
 20
334.938
 11
338.877
 21
334.915
  0
LINE
  8
0
 10
338.877
 20
334.915
 11
338.719
 21
334.903
  0
LINE
  8
0
 10
338.719
 20
334.903
 11
338.56
 21
334.9
  0
LINE
  8
0
 10
338.56
 20
334.9
 11
338.402
 21
334.908
  0
LINE
  8
0
 10
338.402
 20
284.908
 11
338.244
 21
284.925
  0
LINE
  8
0
 10
338.244
 20
284.925
 11
338.088
 21
284.953
  0
LINE
  8
0
 10
338.088
 20
284.953
 11
337.934
 21
284.99
  0
LINE
  8
0
 10
337.934
 20
284.99
 11
337.782
 21
285.038
  0
LINE
  8
0
 10
337.782
 20
285.038
 11
337.634
 21
285.094
  0
LINE
  8
0
 10
337.634
 20
285.094
 11
337.49
 21
285.16
  0
LINE
  8
0
 10
337.49
 20
285.16
 11
337.35
 21
285.235
  0
LINE
  8
0
 10
337.35
 20
285.235
 11
337.215
 21
285.319
  0
LINE
  8
0
 10
337.215
 20
285.319
 11
337.086
 21
285.411
  0
LINE
  8
0
 10
337.086
 20
285.411
 11
336.963
 21
285.511
  0
LINE
  8
0
 10
336.963
 20
285.511
 11
336.846
 21
285.618
  0
LINE
  8
0
 10
336.846
 20
285.618
 11
336.737
 21
285.733
  0
LINE
  8
0
 10
336.737
 20
285.733
 11
336.635
 21
285.855
  0
LINE
  8
0
 10
336.635
 20
285.855
 11
336.541
 21
285.982
  0
LINE
  8
0
 10
336.541
 20
285.982
 11
336.455
 21
286.116
  0
LINE
  8
0
 10
336.455
 20
286.116
 11
336.378
 21
286.254
  0
LINE
  8
0
 10
336.378
 20
286.254
 11
336.31
 21
286.398
  0
LINE
  8
0
 10
336.31
 20
286.398
 11
336.251
 21
286.545
  0
LINE
  8
0
 10
336.251
 20
286.545
 11
336.201
 21
286.696
  0
LINE
  8
0
 10
336.201
 20
286.696
 11
336.161
 21
286.849
  0
LINE
  8
0
 10
336.161
 20
286.849
 11
336.131
 21
287.005
  0
LINE
  8
0
 10
336.131
 20
287.005
 11
336.111
 21
287.162
  0
LINE
  8
0
 10
336.111
 20
287.162
 11
336.101
 21
287.321
  0
LINE
  8
0
 10
336.101
 20
287.321
 11
336.101
 21
287.479
  0
LINE
  8
0
 10
336.101
 20
287.479
 11
336.111
 21
287.638
  0
LINE
  8
0
 10
336.111
 20
287.638
 11
336.131
 21
287.795
  0
LINE
  8
0
 10
336.131
 20
287.795
 11
336.161
 21
287.951
  0
LINE
  8
0
 10
336.161
 20
287.951
 11
336.201
 21
288.104
  0
LINE
  8
0
 10
336.201
 20
288.104
 11
336.251
 21
288.255
  0
LINE
  8
0
 10
336.251
 20
288.255
 11
336.31
 21
288.402
  0
LINE
  8
0
 10
336.31
 20
288.402
 11
336.378
 21
288.546
  0
LINE
  8
0
 10
336.378
 20
288.546
 11
336.455
 21
288.684
  0
LINE
  8
0
 10
336.455
 20
288.684
 11
336.541
 21
288.818
  0
LINE
  8
0
 10
336.541
 20
288.818
 11
336.635
 21
288.945
  0
LINE
  8
0
 10
336.635
 20
288.945
 11
336.737
 21
289.067
  0
LINE
  8
0
 10
336.737
 20
289.067
 11
336.846
 21
289.182
  0
LINE
  8
0
 10
336.846
 20
289.182
 11
336.963
 21
289.289
  0
LINE
  8
0
 10
336.963
 20
289.289
 11
337.086
 21
289.389
  0
LINE
  8
0
 10
337.086
 20
289.389
 11
337.215
 21
289.481
  0
LINE
  8
0
 10
337.215
 20
289.481
 11
337.35
 21
289.565
  0
LINE
  8
0
 10
337.35
 20
289.565
 11
337.49
 21
289.64
  0
LINE
  8
0
 10
337.49
 20
289.64
 11
337.634
 21
289.706
  0
LINE
  8
0
 10
337.634
 20
289.706
 11
337.782
 21
289.763
  0
LINE
  8
0
 10
337.782
 20
289.763
 11
337.934
 21
289.81
  0
LINE
  8
0
 10
337.934
 20
289.81
 11
338.088
 21
289.847
  0
LINE
  8
0
 10
338.088
 20
289.847
 11
338.244
 21
289.875
  0
LINE
  8
0
 10
338.244
 20
289.875
 11
338.402
 21
289.892
  0
LINE
  8
0
 10
338.402
 20
289.892
 11
338.56
 21
289.9
  0
LINE
  8
0
 10
338.56
 20
289.9
 11
338.719
 21
289.897
  0
LINE
  8
0
 10
338.719
 20
289.897
 11
338.877
 21
289.885
  0
LINE
  8
0
 10
338.877
 20
289.885
 11
339.034
 21
289.862
  0
LINE
  8
0
 10
339.034
 20
289.862
 11
339.189
 21
289.83
  0
LINE
  8
0
 10
339.189
 20
289.83
 11
339.342
 21
289.787
  0
LINE
  8
0
 10
339.342
 20
289.787
 11
339.492
 21
289.735
  0
LINE
  8
0
 10
339.492
 20
289.735
 11
339.639
 21
289.674
  0
LINE
  8
0
 10
339.639
 20
289.674
 11
339.781
 21
289.604
  0
LINE
  8
0
 10
339.781
 20
289.604
 11
339.918
 21
289.524
  0
LINE
  8
0
 10
339.918
 20
289.524
 11
340.05
 21
289.436
  0
LINE
  8
0
 10
340.05
 20
289.436
 11
340.176
 21
289.34
  0
LINE
  8
0
 10
340.176
 20
289.34
 11
340.296
 21
289.236
  0
LINE
  8
0
 10
340.296
 20
289.236
 11
340.409
 21
289.125
  0
LINE
  8
0
 10
340.409
 20
289.125
 11
340.515
 21
289.007
  0
LINE
  8
0
 10
340.515
 20
289.007
 11
340.613
 21
288.882
  0
LINE
  8
0
 10
340.613
 20
288.882
 11
340.703
 21
288.752
  0
LINE
  8
0
 10
340.703
 20
288.752
 11
340.785
 21
288.615
  0
LINE
  8
0
 10
340.785
 20
288.615
 11
340.857
 21
288.474
  0
LINE
  8
0
 10
340.857
 20
288.474
 11
340.921
 21
288.329
  0
LINE
  8
0
 10
340.921
 20
288.329
 11
340.975
 21
288.18
  0
LINE
  8
0
 10
340.975
 20
288.18
 11
341.02
 21
288.028
  0
LINE
  8
0
 10
341.02
 20
288.028
 11
341.055
 21
287.873
  0
LINE
  8
0
 10
341.055
 20
287.873
 11
341.08
 21
287.716
  0
LINE
  8
0
 10
341.08
 20
287.716
 11
341.095
 21
287.559
  0
LINE
  8
0
 10
341.095
 20
287.559
 11
341.1
 21
287.4
  0
LINE
  8
0
 10
341.1
 20
287.4
 11
341.095
 21
287.241
  0
LINE
  8
0
 10
341.095
 20
287.241
 11
341.08
 21
287.084
  0
LINE
  8
0
 10
341.08
 20
287.084
 11
341.055
 21
286.927
  0
LINE
  8
0
 10
341.055
 20
286.927
 11
341.02
 21
286.772
  0
LINE
  8
0
 10
341.02
 20
286.772
 11
340.975
 21
286.62
  0
LINE
  8
0
 10
340.975
 20
286.62
 11
340.921
 21
286.471
  0
LINE
  8
0
 10
340.921
 20
286.471
 11
340.857
 21
286.326
  0
LINE
  8
0
 10
340.857
 20
286.326
 11
340.785
 21
286.185
  0
LINE
  8
0
 10
340.785
 20
286.185
 11
340.703
 21
286.048
  0
LINE
  8
0
 10
340.703
 20
286.048
 11
340.613
 21
285.918
  0
LINE
  8
0
 10
340.613
 20
285.918
 11
340.515
 21
285.793
  0
LINE
  8
0
 10
340.515
 20
285.793
 11
340.409
 21
285.675
  0
LINE
  8
0
 10
340.409
 20
285.675
 11
340.296
 21
285.564
  0
LINE
  8
0
 10
340.296
 20
285.564
 11
340.176
 21
285.46
  0
LINE
  8
0
 10
340.176
 20
285.46
 11
340.05
 21
285.364
  0
LINE
  8
0
 10
340.05
 20
285.364
 11
339.918
 21
285.276
  0
LINE
  8
0
 10
339.918
 20
285.276
 11
339.781
 21
285.196
  0
LINE
  8
0
 10
339.781
 20
285.196
 11
339.639
 21
285.126
  0
LINE
  8
0
 10
339.639
 20
285.126
 11
339.492
 21
285.065
  0
LINE
  8
0
 10
339.492
 20
285.065
 11
339.342
 21
285.013
  0
LINE
  8
0
 10
339.342
 20
285.013
 11
339.189
 21
284.97
  0
LINE
  8
0
 10
339.189
 20
284.97
 11
339.034
 21
284.938
  0
LINE
  8
0
 10
339.034
 20
284.938
 11
338.877
 21
284.915
  0
LINE
  8
0
 10
338.877
 20
284.915
 11
338.719
 21
284.903
  0
LINE
  8
0
 10
338.719
 20
284.903
 11
338.56
 21
284.9
  0
LINE
  8
0
 10
338.56
 20
284.9
 11
338.402
 21
284.908
  0
LINE
  8
0
 10
288.441
 20
284.905
 11
288.284
 21
284.92
  0
LINE
  8
0
 10
288.284
 20
284.92
 11
288.127
 21
284.945
  0
LINE
  8
0
 10
288.127
 20
284.945
 11
287.972
 21
284.98
  0
LINE
  8
0
 10
287.972
 20
284.98
 11
287.82
 21
285.025
  0
LINE
  8
0
 10
287.82
 20
285.025
 11
287.671
 21
285.079
  0
LINE
  8
0
 10
287.671
 20
285.079
 11
287.526
 21
285.143
  0
LINE
  8
0
 10
287.526
 20
285.143
 11
287.385
 21
285.215
  0
LINE
  8
0
 10
287.385
 20
285.215
 11
287.248
 21
285.297
  0
LINE
  8
0
 10
287.248
 20
285.297
 11
287.118
 21
285.387
  0
LINE
  8
0
 10
287.118
 20
285.387
 11
286.993
 21
285.485
  0
LINE
  8
0
 10
286.993
 20
285.485
 11
286.875
 21
285.591
  0
LINE
  8
0
 10
286.875
 20
285.591
 11
286.764
 21
285.704
  0
LINE
  8
0
 10
286.764
 20
285.704
 11
286.66
 21
285.824
  0
LINE
  8
0
 10
286.66
 20
285.824
 11
286.564
 21
285.95
  0
LINE
  8
0
 10
286.564
 20
285.95
 11
286.476
 21
286.082
  0
LINE
  8
0
 10
286.476
 20
286.082
 11
286.396
 21
286.219
  0
LINE
  8
0
 10
286.396
 20
286.219
 11
286.326
 21
286.361
  0
LINE
  8
0
 10
286.326
 20
286.361
 11
286.265
 21
286.508
  0
LINE
  8
0
 10
286.265
 20
286.508
 11
286.213
 21
286.658
  0
LINE
  8
0
 10
286.213
 20
286.658
 11
286.17
 21
286.811
  0
LINE
  8
0
 10
286.17
 20
286.811
 11
286.138
 21
286.966
  0
LINE
  8
0
 10
286.138
 20
286.966
 11
286.115
 21
287.123
  0
LINE
  8
0
 10
286.115
 20
287.123
 11
286.103
 21
287.281
  0
LINE
  8
0
 10
286.103
 20
287.281
 11
286.1
 21
287.44
  0
LINE
  8
0
 10
286.1
 20
287.44
 11
286.108
 21
287.598
  0
LINE
  8
0
 10
286.108
 20
287.598
 11
286.125
 21
287.756
  0
LINE
  8
0
 10
286.125
 20
287.756
 11
286.153
 21
287.912
  0
LINE
  8
0
 10
286.153
 20
287.912
 11
286.19
 21
288.066
  0
LINE
  8
0
 10
286.19
 20
288.066
 11
286.237
 21
288.218
  0
LINE
  8
0
 10
286.237
 20
288.218
 11
286.294
 21
288.366
  0
LINE
  8
0
 10
286.294
 20
288.366
 11
286.36
 21
288.51
  0
LINE
  8
0
 10
286.36
 20
288.51
 11
286.435
 21
288.65
  0
LINE
  8
0
 10
286.435
 20
288.65
 11
286.519
 21
288.785
  0
LINE
  8
0
 10
286.519
 20
288.785
 11
286.611
 21
288.914
  0
LINE
  8
0
 10
286.611
 20
288.914
 11
286.711
 21
289.037
  0
LINE
  8
0
 10
286.711
 20
289.037
 11
286.818
 21
289.154
  0
LINE
  8
0
 10
286.818
 20
289.154
 11
286.933
 21
289.263
  0
LINE
  8
0
 10
286.933
 20
289.263
 11
287.055
 21
289.365
  0
LINE
  8
0
 10
287.055
 20
289.365
 11
287.182
 21
289.459
  0
LINE
  8
0
 10
287.182
 20
289.459
 11
287.316
 21
289.545
  0
LINE
  8
0
 10
287.316
 20
289.545
 11
287.454
 21
289.622
  0
LINE
  8
0
 10
287.454
 20
289.622
 11
287.598
 21
289.69
  0
LINE
  8
0
 10
287.598
 20
289.69
 11
287.745
 21
289.749
  0
LINE
  8
0
 10
287.745
 20
289.749
 11
287.896
 21
289.799
  0
LINE
  8
0
 10
287.896
 20
289.799
 11
288.049
 21
289.839
  0
LINE
  8
0
 10
288.049
 20
289.839
 11
288.205
 21
289.869
  0
LINE
  8
0
 10
288.205
 20
289.869
 11
288.362
 21
289.889
  0
LINE
  8
0
 10
288.362
 20
289.889
 11
288.521
 21
289.899
  0
LINE
  8
0
 10
288.521
 20
289.899
 11
288.679
 21
289.899
  0
LINE
  8
0
 10
288.679
 20
289.899
 11
288.838
 21
289.889
  0
LINE
  8
0
 10
288.838
 20
289.889
 11
288.995
 21
289.869
  0
LINE
  8
0
 10
288.995
 20
289.869
 11
289.151
 21
289.839
  0
LINE
  8
0
 10
289.151
 20
289.839
 11
289.304
 21
289.799
  0
LINE
  8
0
 10
289.304
 20
289.799
 11
289.455
 21
289.749
  0
LINE
  8
0
 10
289.455
 20
289.749
 11
289.602
 21
289.69
  0
LINE
  8
0
 10
289.602
 20
289.69
 11
289.746
 21
289.622
  0
LINE
  8
0
 10
289.746
 20
289.622
 11
289.884
 21
289.545
  0
LINE
  8
0
 10
289.884
 20
289.545
 11
290.018
 21
289.459
  0
LINE
  8
0
 10
290.018
 20
289.459
 11
290.145
 21
289.365
  0
LINE
  8
0
 10
290.145
 20
289.365
 11
290.267
 21
289.263
  0
LINE
  8
0
 10
290.267
 20
289.263
 11
290.382
 21
289.154
  0
LINE
  8
0
 10
290.382
 20
289.154
 11
290.489
 21
289.037
  0
LINE
  8
0
 10
290.489
 20
289.037
 11
290.589
 21
288.914
  0
LINE
  8
0
 10
290.589
 20
288.914
 11
290.681
 21
288.785
  0
LINE
  8
0
 10
290.681
 20
288.785
 11
290.765
 21
288.65
  0
LINE
  8
0
 10
290.765
 20
288.65
 11
290.84
 21
288.51
  0
LINE
  8
0
 10
290.84
 20
288.51
 11
290.906
 21
288.366
  0
LINE
  8
0
 10
290.906
 20
288.366
 11
290.962
 21
288.218
  0
LINE
  8
0
 10
290.962
 20
288.218
 11
291.01
 21
288.066
  0
LINE
  8
0
 10
291.01
 20
288.066
 11
291.047
 21
287.912
  0
LINE
  8
0
 10
291.047
 20
287.912
 11
291.075
 21
287.756
  0
LINE
  8
0
 10
291.075
 20
287.756
 11
291.092
 21
287.598
  0
LINE
  8
0
 10
291.092
 20
287.598
 11
291.1
 21
287.44
  0
LINE
  8
0
 10
291.1
 20
287.44
 11
291.097
 21
287.281
  0
LINE
  8
0
 10
291.097
 20
287.281
 11
291.085
 21
287.123
  0
LINE
  8
0
 10
291.085
 20
287.123
 11
291.062
 21
286.966
  0
LINE
  8
0
 10
291.062
 20
286.966
 11
291.03
 21
286.811
  0
LINE
  8
0
 10
291.03
 20
286.811
 11
290.987
 21
286.658
  0
LINE
  8
0
 10
290.987
 20
286.658
 11
290.935
 21
286.508
  0
LINE
  8
0
 10
290.935
 20
286.508
 11
290.874
 21
286.361
  0
LINE
  8
0
 10
290.874
 20
286.361
 11
290.804
 21
286.219
  0
LINE
  8
0
 10
290.804
 20
286.219
 11
290.724
 21
286.082
  0
LINE
  8
0
 10
290.724
 20
286.082
 11
290.636
 21
285.95
  0
LINE
  8
0
 10
290.636
 20
285.95
 11
290.54
 21
285.824
  0
LINE
  8
0
 10
290.54
 20
285.824
 11
290.436
 21
285.704
  0
LINE
  8
0
 10
290.436
 20
285.704
 11
290.325
 21
285.591
  0
LINE
  8
0
 10
290.325
 20
285.591
 11
290.207
 21
285.485
  0
LINE
  8
0
 10
290.207
 20
285.485
 11
290.082
 21
285.387
  0
LINE
  8
0
 10
290.082
 20
285.387
 11
289.952
 21
285.297
  0
LINE
  8
0
 10
289.952
 20
285.297
 11
289.815
 21
285.215
  0
LINE
  8
0
 10
289.815
 20
285.215
 11
289.674
 21
285.143
  0
LINE
  8
0
 10
289.674
 20
285.143
 11
289.529
 21
285.079
  0
LINE
  8
0
 10
289.529
 20
285.079
 11
289.38
 21
285.025
  0
LINE
  8
0
 10
289.38
 20
285.025
 11
289.228
 21
284.98
  0
LINE
  8
0
 10
289.228
 20
284.98
 11
289.073
 21
284.945
  0
LINE
  8
0
 10
289.073
 20
284.945
 11
288.916
 21
284.92
  0
LINE
  8
0
 10
288.916
 20
284.92
 11
288.759
 21
284.905
  0
LINE
  8
0
 10
288.759
 20
284.905
 11
288.6
 21
284.9
  0
LINE
  8
0
 10
288.6
 20
284.9
 11
288.441
 21
284.905
  0
LINE
  8
0
 10
343.702
 20
279.608
 11
343.544
 21
279.625
  0
LINE
  8
0
 10
343.544
 20
279.625
 11
343.388
 21
279.653
  0
LINE
  8
0
 10
343.388
 20
279.653
 11
343.234
 21
279.69
  0
LINE
  8
0
 10
343.234
 20
279.69
 11
343.082
 21
279.737
  0
LINE
  8
0
 10
343.082
 20
279.737
 11
342.934
 21
279.794
  0
LINE
  8
0
 10
342.934
 20
279.794
 11
342.79
 21
279.86
  0
LINE
  8
0
 10
342.79
 20
279.86
 11
342.65
 21
279.935
  0
LINE
  8
0
 10
342.65
 20
279.935
 11
342.515
 21
280.019
  0
LINE
  8
0
 10
342.515
 20
280.019
 11
342.386
 21
280.111
  0
LINE
  8
0
 10
342.386
 20
280.111
 11
342.263
 21
280.211
  0
LINE
  8
0
 10
342.263
 20
280.211
 11
342.146
 21
280.318
  0
LINE
  8
0
 10
342.146
 20
280.318
 11
342.037
 21
280.433
  0
LINE
  8
0
 10
342.037
 20
280.433
 11
341.935
 21
280.555
  0
LINE
  8
0
 10
341.935
 20
280.555
 11
341.841
 21
280.682
  0
LINE
  8
0
 10
341.841
 20
280.682
 11
341.755
 21
280.816
  0
LINE
  8
0
 10
341.755
 20
280.816
 11
341.678
 21
280.954
  0
LINE
  8
0
 10
341.678
 20
280.954
 11
341.61
 21
281.098
  0
LINE
  8
0
 10
341.61
 20
281.098
 11
341.551
 21
281.245
  0
LINE
  8
0
 10
341.551
 20
281.245
 11
341.501
 21
281.396
  0
LINE
  8
0
 10
341.501
 20
281.396
 11
341.461
 21
281.549
  0
LINE
  8
0
 10
341.461
 20
281.549
 11
341.431
 21
281.705
  0
LINE
  8
0
 10
341.431
 20
281.705
 11
341.411
 21
281.862
  0
LINE
  8
0
 10
341.411
 20
281.862
 11
341.401
 21
282.021
  0
LINE
  8
0
 10
341.401
 20
282.021
 11
341.401
 21
282.179
  0
LINE
  8
0
 10
341.401
 20
282.179
 11
341.411
 21
282.338
  0
LINE
  8
0
 10
341.411
 20
282.338
 11
341.431
 21
282.495
  0
LINE
  8
0
 10
341.431
 20
282.495
 11
341.461
 21
282.651
  0
LINE
  8
0
 10
341.461
 20
282.651
 11
341.501
 21
282.804
  0
LINE
  8
0
 10
341.501
 20
282.804
 11
341.551
 21
282.955
  0
LINE
  8
0
 10
341.551
 20
282.955
 11
341.61
 21
283.102
  0
LINE
  8
0
 10
341.61
 20
283.102
 11
341.678
 21
283.246
  0
LINE
  8
0
 10
341.678
 20
283.246
 11
341.755
 21
283.384
  0
LINE
  8
0
 10
341.755
 20
283.384
 11
341.841
 21
283.518
  0
LINE
  8
0
 10
341.841
 20
283.518
 11
341.935
 21
283.645
  0
LINE
  8
0
 10
341.935
 20
283.645
 11
342.037
 21
283.767
  0
LINE
  8
0
 10
342.037
 20
283.767
 11
342.146
 21
283.882
  0
LINE
  8
0
 10
342.146
 20
283.882
 11
342.263
 21
283.989
  0
LINE
  8
0
 10
342.263
 20
283.989
 11
342.386
 21
284.089
  0
LINE
  8
0
 10
342.386
 20
284.089
 11
342.515
 21
284.181
  0
LINE
  8
0
 10
342.515
 20
284.181
 11
342.65
 21
284.265
  0
LINE
  8
0
 10
342.65
 20
284.265
 11
342.79
 21
284.34
  0
LINE
  8
0
 10
342.79
 20
284.34
 11
342.934
 21
284.406
  0
LINE
  8
0
 10
342.934
 20
284.406
 11
343.082
 21
284.462
  0
LINE
  8
0
 10
343.082
 20
284.462
 11
343.234
 21
284.51
  0
LINE
  8
0
 10
343.234
 20
284.51
 11
343.388
 21
284.547
  0
LINE
  8
0
 10
343.388
 20
284.547
 11
343.544
 21
284.575
  0
LINE
  8
0
 10
343.544
 20
284.575
 11
343.702
 21
284.592
  0
LINE
  8
0
 10
343.702
 20
284.592
 11
343.86
 21
284.6
  0
LINE
  8
0
 10
343.86
 20
284.6
 11
344.019
 21
284.597
  0
LINE
  8
0
 10
344.019
 20
284.597
 11
344.177
 21
284.585
  0
LINE
  8
0
 10
344.177
 20
284.585
 11
344.334
 21
284.562
  0
LINE
  8
0
 10
344.334
 20
284.562
 11
344.489
 21
284.53
  0
LINE
  8
0
 10
344.489
 20
284.53
 11
344.642
 21
284.487
  0
LINE
  8
0
 10
344.642
 20
284.487
 11
344.792
 21
284.435
  0
LINE
  8
0
 10
344.792
 20
284.435
 11
344.939
 21
284.374
  0
LINE
  8
0
 10
344.939
 20
284.374
 11
345.081
 21
284.304
  0
LINE
  8
0
 10
345.081
 20
284.304
 11
345.218
 21
284.224
  0
LINE
  8
0
 10
345.218
 20
284.224
 11
345.35
 21
284.136
  0
LINE
  8
0
 10
345.35
 20
284.136
 11
345.476
 21
284.04
  0
LINE
  8
0
 10
345.476
 20
284.04
 11
345.596
 21
283.936
  0
LINE
  8
0
 10
345.596
 20
283.936
 11
345.709
 21
283.825
  0
LINE
  8
0
 10
345.709
 20
283.825
 11
345.815
 21
283.707
  0
LINE
  8
0
 10
345.815
 20
283.707
 11
345.913
 21
283.582
  0
LINE
  8
0
 10
345.913
 20
283.582
 11
346.003
 21
283.452
  0
LINE
  8
0
 10
346.003
 20
283.452
 11
346.085
 21
283.315
  0
LINE
  8
0
 10
346.085
 20
283.315
 11
346.157
 21
283.174
  0
LINE
  8
0
 10
346.157
 20
283.174
 11
346.221
 21
283.029
  0
LINE
  8
0
 10
346.221
 20
283.029
 11
346.275
 21
282.88
  0
LINE
  8
0
 10
346.275
 20
282.88
 11
346.32
 21
282.728
  0
LINE
  8
0
 10
346.32
 20
282.728
 11
346.355
 21
282.573
  0
LINE
  8
0
 10
346.355
 20
282.573
 11
346.38
 21
282.416
  0
LINE
  8
0
 10
346.38
 20
282.416
 11
346.395
 21
282.259
  0
LINE
  8
0
 10
346.395
 20
282.259
 11
346.4
 21
282.1
  0
LINE
  8
0
 10
346.4
 20
282.1
 11
346.395
 21
281.941
  0
LINE
  8
0
 10
346.395
 20
281.941
 11
346.38
 21
281.784
  0
LINE
  8
0
 10
346.38
 20
281.784
 11
346.355
 21
281.627
  0
LINE
  8
0
 10
346.355
 20
281.627
 11
346.32
 21
281.472
  0
LINE
  8
0
 10
346.32
 20
281.472
 11
346.275
 21
281.32
  0
LINE
  8
0
 10
346.275
 20
281.32
 11
346.221
 21
281.171
  0
LINE
  8
0
 10
346.221
 20
281.171
 11
346.157
 21
281.026
  0
LINE
  8
0
 10
346.157
 20
281.026
 11
346.085
 21
280.885
  0
LINE
  8
0
 10
346.085
 20
280.885
 11
346.003
 21
280.748
  0
LINE
  8
0
 10
346.003
 20
280.748
 11
345.913
 21
280.618
  0
LINE
  8
0
 10
345.913
 20
280.618
 11
345.815
 21
280.493
  0
LINE
  8
0
 10
345.815
 20
280.493
 11
345.709
 21
280.375
  0
LINE
  8
0
 10
345.709
 20
280.375
 11
345.596
 21
280.264
  0
LINE
  8
0
 10
345.596
 20
280.264
 11
345.476
 21
280.16
  0
LINE
  8
0
 10
345.476
 20
280.16
 11
345.35
 21
280.064
  0
LINE
  8
0
 10
345.35
 20
280.064
 11
345.218
 21
279.976
  0
LINE
  8
0
 10
345.218
 20
279.976
 11
345.081
 21
279.896
  0
LINE
  8
0
 10
345.081
 20
279.896
 11
344.939
 21
279.826
  0
LINE
  8
0
 10
344.939
 20
279.826
 11
344.792
 21
279.765
  0
LINE
  8
0
 10
344.792
 20
279.765
 11
344.642
 21
279.713
  0
LINE
  8
0
 10
344.642
 20
279.713
 11
344.489
 21
279.67
  0
LINE
  8
0
 10
344.489
 20
279.67
 11
344.334
 21
279.638
  0
LINE
  8
0
 10
344.334
 20
279.638
 11
344.177
 21
279.615
  0
LINE
  8
0
 10
344.177
 20
279.615
 11
344.019
 21
279.603
  0
LINE
  8
0
 10
344.019
 20
279.603
 11
343.86
 21
279.6
  0
LINE
  8
0
 10
343.86
 20
279.6
 11
343.702
 21
279.608
  0
LINE
  8
0
 10
283.141
 20
279.605
 11
282.984
 21
279.62
  0
LINE
  8
0
 10
282.984
 20
279.62
 11
282.827
 21
279.645
  0
LINE
  8
0
 10
282.827
 20
279.645
 11
282.672
 21
279.68
  0
LINE
  8
0
 10
282.672
 20
279.68
 11
282.52
 21
279.725
  0
LINE
  8
0
 10
282.52
 20
279.725
 11
282.371
 21
279.779
  0
LINE
  8
0
 10
282.371
 20
279.779
 11
282.226
 21
279.843
  0
LINE
  8
0
 10
282.226
 20
279.843
 11
282.085
 21
279.915
  0
LINE
  8
0
 10
282.085
 20
279.915
 11
281.948
 21
279.997
  0
LINE
  8
0
 10
281.948
 20
279.997
 11
281.818
 21
280.087
  0
LINE
  8
0
 10
281.818
 20
280.087
 11
281.693
 21
280.185
  0
LINE
  8
0
 10
281.693
 20
280.185
 11
281.575
 21
280.291
  0
LINE
  8
0
 10
281.575
 20
280.291
 11
281.464
 21
280.404
  0
LINE
  8
0
 10
281.464
 20
280.404
 11
281.36
 21
280.524
  0
LINE
  8
0
 10
281.36
 20
280.524
 11
281.264
 21
280.65
  0
LINE
  8
0
 10
281.264
 20
280.65
 11
281.176
 21
280.782
  0
LINE
  8
0
 10
281.176
 20
280.782
 11
281.096
 21
280.919
  0
LINE
  8
0
 10
281.096
 20
280.919
 11
281.026
 21
281.061
  0
LINE
  8
0
 10
281.026
 20
281.061
 11
280.965
 21
281.208
  0
LINE
  8
0
 10
280.965
 20
281.208
 11
280.913
 21
281.358
  0
LINE
  8
0
 10
280.913
 20
281.358
 11
280.87
 21
281.511
  0
LINE
  8
0
 10
280.87
 20
281.511
 11
280.838
 21
281.666
  0
LINE
  8
0
 10
280.838
 20
281.666
 11
280.815
 21
281.823
  0
LINE
  8
0
 10
280.815
 20
281.823
 11
280.803
 21
281.981
  0
LINE
  8
0
 10
280.803
 20
281.981
 11
280.8
 21
282.14
  0
LINE
  8
0
 10
280.8
 20
282.14
 11
280.808
 21
282.298
  0
LINE
  8
0
 10
280.808
 20
282.298
 11
280.825
 21
282.456
  0
LINE
  8
0
 10
280.825
 20
282.456
 11
280.853
 21
282.612
  0
LINE
  8
0
 10
280.853
 20
282.612
 11
280.89
 21
282.766
  0
LINE
  8
0
 10
280.89
 20
282.766
 11
280.938
 21
282.918
  0
LINE
  8
0
 10
280.938
 20
282.918
 11
280.994
 21
283.066
  0
LINE
  8
0
 10
280.994
 20
283.066
 11
281.06
 21
283.21
  0
LINE
  8
0
 10
281.06
 20
283.21
 11
281.135
 21
283.35
  0
LINE
  8
0
 10
281.135
 20
283.35
 11
281.219
 21
283.485
  0
LINE
  8
0
 10
281.219
 20
283.485
 11
281.311
 21
283.614
  0
LINE
  8
0
 10
281.311
 20
283.614
 11
281.411
 21
283.737
  0
LINE
  8
0
 10
281.411
 20
283.737
 11
281.518
 21
283.854
  0
LINE
  8
0
 10
281.518
 20
283.854
 11
281.633
 21
283.963
  0
LINE
  8
0
 10
281.633
 20
283.963
 11
281.755
 21
284.065
  0
LINE
  8
0
 10
281.755
 20
284.065
 11
281.882
 21
284.159
  0
LINE
  8
0
 10
281.882
 20
284.159
 11
282.016
 21
284.245
  0
LINE
  8
0
 10
282.016
 20
284.245
 11
282.154
 21
284.322
  0
LINE
  8
0
 10
282.154
 20
284.322
 11
282.298
 21
284.39
  0
LINE
  8
0
 10
282.298
 20
284.39
 11
282.445
 21
284.449
  0
LINE
  8
0
 10
282.445
 20
284.449
 11
282.596
 21
284.499
  0
LINE
  8
0
 10
282.596
 20
284.499
 11
282.749
 21
284.539
  0
LINE
  8
0
 10
282.749
 20
284.539
 11
282.905
 21
284.569
  0
LINE
  8
0
 10
282.905
 20
284.569
 11
283.062
 21
284.589
  0
LINE
  8
0
 10
283.062
 20
284.589
 11
283.221
 21
284.599
  0
LINE
  8
0
 10
283.221
 20
284.599
 11
283.379
 21
284.599
  0
LINE
  8
0
 10
283.379
 20
284.599
 11
283.538
 21
284.589
  0
LINE
  8
0
 10
283.538
 20
284.589
 11
283.695
 21
284.569
  0
LINE
  8
0
 10
283.695
 20
284.569
 11
283.851
 21
284.539
  0
LINE
  8
0
 10
283.851
 20
284.539
 11
284.004
 21
284.499
  0
LINE
  8
0
 10
284.004
 20
284.499
 11
284.155
 21
284.449
  0
LINE
  8
0
 10
284.155
 20
284.449
 11
284.302
 21
284.39
  0
LINE
  8
0
 10
284.302
 20
284.39
 11
284.446
 21
284.322
  0
LINE
  8
0
 10
284.446
 20
284.322
 11
284.584
 21
284.245
  0
LINE
  8
0
 10
284.584
 20
284.245
 11
284.718
 21
284.159
  0
LINE
  8
0
 10
284.718
 20
284.159
 11
284.845
 21
284.065
  0
LINE
  8
0
 10
284.845
 20
284.065
 11
284.967
 21
283.963
  0
LINE
  8
0
 10
284.967
 20
283.963
 11
285.082
 21
283.854
  0
LINE
  8
0
 10
285.082
 20
283.854
 11
285.189
 21
283.737
  0
LINE
  8
0
 10
285.189
 20
283.737
 11
285.289
 21
283.614
  0
LINE
  8
0
 10
285.289
 20
283.614
 11
285.381
 21
283.485
  0
LINE
  8
0
 10
285.381
 20
283.485
 11
285.465
 21
283.35
  0
LINE
  8
0
 10
285.465
 20
283.35
 11
285.54
 21
283.21
  0
LINE
  8
0
 10
285.54
 20
283.21
 11
285.606
 21
283.066
  0
LINE
  8
0
 10
285.606
 20
283.066
 11
285.663
 21
282.918
  0
LINE
  8
0
 10
285.663
 20
282.918
 11
285.71
 21
282.766
  0
LINE
  8
0
 10
285.71
 20
282.766
 11
285.747
 21
282.612
  0
LINE
  8
0
 10
285.747
 20
282.612
 11
285.775
 21
282.456
  0
LINE
  8
0
 10
285.775
 20
282.456
 11
285.792
 21
282.298
  0
LINE
  8
0
 10
285.792
 20
282.298
 11
285.8
 21
282.14
  0
LINE
  8
0
 10
285.8
 20
282.14
 11
285.797
 21
281.981
  0
LINE
  8
0
 10
285.797
 20
281.981
 11
285.785
 21
281.823
  0
LINE
  8
0
 10
285.785
 20
281.823
 11
285.762
 21
281.666
  0
LINE
  8
0
 10
285.762
 20
281.666
 11
285.73
 21
281.511
  0
LINE
  8
0
 10
285.73
 20
281.511
 11
285.687
 21
281.358
  0
LINE
  8
0
 10
285.687
 20
281.358
 11
285.635
 21
281.208
  0
LINE
  8
0
 10
285.635
 20
281.208
 11
285.574
 21
281.061
  0
LINE
  8
0
 10
285.574
 20
281.061
 11
285.504
 21
280.919
  0
LINE
  8
0
 10
285.504
 20
280.919
 11
285.424
 21
280.782
  0
LINE
  8
0
 10
285.424
 20
280.782
 11
285.336
 21
280.65
  0
LINE
  8
0
 10
285.336
 20
280.65
 11
285.24
 21
280.524
  0
LINE
  8
0
 10
285.24
 20
280.524
 11
285.136
 21
280.404
  0
LINE
  8
0
 10
285.136
 20
280.404
 11
285.025
 21
280.291
  0
LINE
  8
0
 10
285.025
 20
280.291
 11
284.907
 21
280.185
  0
LINE
  8
0
 10
284.907
 20
280.185
 11
284.782
 21
280.087
  0
LINE
  8
0
 10
284.782
 20
280.087
 11
284.652
 21
279.997
  0
LINE
  8
0
 10
284.652
 20
279.997
 11
284.516
 21
279.915
  0
LINE
  8
0
 10
284.516
 20
279.915
 11
284.374
 21
279.843
  0
LINE
  8
0
 10
284.374
 20
279.843
 11
284.229
 21
279.779
  0
LINE
  8
0
 10
284.229
 20
279.779
 11
284.08
 21
279.725
  0
LINE
  8
0
 10
284.08
 20
279.725
 11
283.928
 21
279.68
  0
LINE
  8
0
 10
283.928
 20
279.68
 11
283.773
 21
279.645
  0
LINE
  8
0
 10
283.773
 20
279.645
 11
283.616
 21
279.62
  0
LINE
  8
0
 10
283.616
 20
279.62
 11
283.459
 21
279.605
  0
LINE
  8
0
 10
283.459
 20
279.605
 11
283.3
 21
279.6
  0
LINE
  8
0
 10
283.3
 20
279.6
 11
283.141
 21
279.605
  0
LINE
  8
0
 10
203.525
 20
134.419
 11
203.146
 21
134.461
  0
LINE
  8
0
 10
203.146
 20
134.461
 11
202.771
 21
134.527
  0
LINE
  8
0
 10
202.771
 20
134.527
 11
202.401
 21
134.617
  0
LINE
  8
0
 10
202.401
 20
134.617
 11
202.038
 21
134.73
  0
LINE
  8
0
 10
202.038
 20
134.73
 11
201.682
 21
134.866
  0
LINE
  8
0
 10
201.682
 20
134.866
 11
201.336
 21
135.024
  0
LINE
  8
0
 10
201.336
 20
135.024
 11
201
 21
135.204
  0
LINE
  8
0
 10
201
 20
135.204
 11
200.676
 21
135.405
  0
LINE
  8
0
 10
200.676
 20
135.405
 11
200.366
 21
135.625
  0
LINE
  8
0
 10
200.366
 20
135.625
 11
200.071
 21
135.866
  0
LINE
  8
0
 10
200.071
 20
135.866
 11
199.791
 21
136.124
  0
LINE
  8
0
 10
199.791
 20
136.124
 11
199.528
 21
136.399
  0
LINE
  8
0
 10
199.528
 20
136.399
 11
199.284
 21
136.691
  0
LINE
  8
0
 10
199.284
 20
136.691
 11
199.058
 21
136.998
  0
LINE
  8
0
 10
199.058
 20
136.998
 11
198.852
 21
137.318
  0
LINE
  8
0
 10
198.852
 20
137.318
 11
198.667
 21
137.651
  0
LINE
  8
0
 10
198.667
 20
137.651
 11
198.503
 21
137.994
  0
LINE
  8
0
 10
198.503
 20
137.994
 11
198.362
 21
138.348
  0
LINE
  8
0
 10
198.362
 20
138.348
 11
198.243
 21
138.71
  0
LINE
  8
0
 10
198.243
 20
138.71
 11
198.147
 21
139.078
  0
LINE
  8
0
 10
198.147
 20
139.078
 11
198.075
 21
139.452
  0
LINE
  8
0
 10
198.075
 20
139.452
 11
198.027
 21
139.83
  0
LINE
  8
0
 10
198.027
 20
139.83
 11
198.003
 21
140.21
  0
LINE
  8
0
 10
198.003
 20
140.21
 11
198.003
 21
166.59
  0
LINE
  8
0
 10
198.003
 20
166.59
 11
198.027
 21
166.97
  0
LINE
  8
0
 10
198.027
 20
166.97
 11
198.075
 21
167.348
  0
LINE
  8
0
 10
198.075
 20
167.348
 11
198.147
 21
167.722
  0
LINE
  8
0
 10
198.147
 20
167.722
 11
198.243
 21
168.09
  0
LINE
  8
0
 10
198.243
 20
168.09
 11
198.362
 21
168.452
  0
LINE
  8
0
 10
198.362
 20
168.452
 11
198.503
 21
168.806
  0
LINE
  8
0
 10
198.503
 20
168.806
 11
198.667
 21
169.149
  0
LINE
  8
0
 10
198.667
 20
169.149
 11
198.852
 21
169.482
  0
LINE
  8
0
 10
198.852
 20
169.482
 11
199.058
 21
169.802
  0
LINE
  8
0
 10
199.058
 20
169.802
 11
199.284
 21
170.109
  0
LINE
  8
0
 10
199.284
 20
170.109
 11
199.528
 21
170.401
  0
LINE
  8
0
 10
199.528
 20
170.401
 11
199.791
 21
170.676
  0
LINE
  8
0
 10
199.791
 20
170.676
 11
200.071
 21
170.934
  0
LINE
  8
0
 10
200.071
 20
170.934
 11
200.366
 21
171.175
  0
LINE
  8
0
 10
200.366
 20
171.175
 11
200.676
 21
171.395
  0
LINE
  8
0
 10
200.676
 20
171.395
 11
201
 21
171.596
  0
LINE
  8
0
 10
201
 20
171.596
 11
201.336
 21
171.776
  0
LINE
  8
0
 10
201.336
 20
171.776
 11
201.682
 21
171.934
  0
LINE
  8
0
 10
201.682
 20
171.934
 11
202.038
 21
172.07
  0
LINE
  8
0
 10
202.038
 20
172.07
 11
202.401
 21
172.183
  0
LINE
  8
0
 10
202.401
 20
172.183
 11
202.771
 21
172.273
  0
LINE
  8
0
 10
202.771
 20
172.273
 11
203.146
 21
172.339
  0
LINE
  8
0
 10
203.146
 20
172.339
 11
203.525
 21
172.381
  0
LINE
  8
0
 10
203.525
 20
172.381
 11
203.905
 21
172.399
  0
LINE
  8
0
 10
203.905
 20
172.399
 11
204.285
 21
172.393
  0
LINE
  8
0
 10
204.285
 20
172.393
 11
204.665
 21
172.363
  0
LINE
  8
0
 10
204.665
 20
172.363
 11
205.042
 21
172.309
  0
LINE
  8
0
 10
205.042
 20
172.309
 11
205.415
 21
172.231
  0
LINE
  8
0
 10
205.415
 20
172.231
 11
205.782
 21
172.129
  0
LINE
  8
0
 10
205.782
 20
172.129
 11
206.141
 21
172.005
  0
LINE
  8
0
 10
206.141
 20
172.005
 11
206.492
 21
171.858
  0
LINE
  8
0
 10
206.492
 20
171.858
 11
206.834
 21
171.689
  0
LINE
  8
0
 10
206.834
 20
171.689
 11
207.163
 21
171.498
  0
LINE
  8
0
 10
207.163
 20
171.498
 11
207.48
 21
171.287
  0
LINE
  8
0
 10
207.48
 20
171.287
 11
207.783
 21
171.057
  0
LINE
  8
0
 10
207.783
 20
171.057
 11
208.071
 21
170.808
  0
LINE
  8
0
 10
208.071
 20
170.808
 11
208.342
 21
170.54
  0
LINE
  8
0
 10
208.342
 20
170.54
 11
208.596
 21
170.257
  0
LINE
  8
0
 10
208.596
 20
170.257
 11
208.832
 21
169.957
  0
LINE
  8
0
 10
208.832
 20
169.957
 11
209.048
 21
169.644
  0
LINE
  8
0
 10
209.048
 20
169.644
 11
209.243
 21
169.317
  0
LINE
  8
0
 10
209.243
 20
169.317
 11
209.418
 21
168.979
  0
LINE
  8
0
 10
209.418
 20
168.979
 11
209.57
 21
168.63
  0
LINE
  8
0
 10
209.57
 20
168.63
 11
209.7
 21
168.272
  0
LINE
  8
0
 10
209.7
 20
168.272
 11
209.808
 21
167.907
  0
LINE
  8
0
 10
209.808
 20
167.907
 11
209.892
 21
167.536
  0
LINE
  8
0
 10
209.892
 20
167.536
 11
209.952
 21
167.16
  0
LINE
  8
0
 10
209.952
 20
167.16
 11
209.988
 21
166.781
  0
LINE
  8
0
 10
209.988
 20
166.781
 11
210
 21
166.4
  0
LINE
  8
0
 10
210
 20
166.4
 11
210
 21
140.4
  0
LINE
  8
0
 10
210
 20
140.4
 11
209.988
 21
140.019
  0
LINE
  8
0
 10
209.988
 20
140.019
 11
209.952
 21
139.64
  0
LINE
  8
0
 10
209.952
 20
139.64
 11
209.892
 21
139.264
  0
LINE
  8
0
 10
209.892
 20
139.264
 11
209.808
 21
138.893
  0
LINE
  8
0
 10
209.808
 20
138.893
 11
209.7
 21
138.528
  0
LINE
  8
0
 10
209.7
 20
138.528
 11
209.57
 21
138.17
  0
LINE
  8
0
 10
209.57
 20
138.17
 11
209.418
 21
137.821
  0
LINE
  8
0
 10
209.418
 20
137.821
 11
209.243
 21
137.483
  0
LINE
  8
0
 10
209.243
 20
137.483
 11
209.048
 21
137.156
  0
LINE
  8
0
 10
209.048
 20
137.156
 11
208.832
 21
136.843
  0
LINE
  8
0
 10
208.832
 20
136.843
 11
208.596
 21
136.543
  0
LINE
  8
0
 10
208.596
 20
136.543
 11
208.342
 21
136.26
  0
LINE
  8
0
 10
208.342
 20
136.26
 11
208.071
 21
135.992
  0
LINE
  8
0
 10
208.071
 20
135.992
 11
207.783
 21
135.743
  0
LINE
  8
0
 10
207.783
 20
135.743
 11
207.48
 21
135.513
  0
LINE
  8
0
 10
207.48
 20
135.513
 11
207.163
 21
135.302
  0
LINE
  8
0
 10
207.163
 20
135.302
 11
206.834
 21
135.111
  0
LINE
  8
0
 10
206.834
 20
135.111
 11
206.492
 21
134.942
  0
LINE
  8
0
 10
206.492
 20
134.942
 11
206.141
 21
134.795
  0
LINE
  8
0
 10
206.141
 20
134.795
 11
205.782
 21
134.671
  0
LINE
  8
0
 10
205.782
 20
134.671
 11
205.415
 21
134.569
  0
LINE
  8
0
 10
205.415
 20
134.569
 11
205.042
 21
134.491
  0
LINE
  8
0
 10
205.042
 20
134.491
 11
204.665
 21
134.437
  0
LINE
  8
0
 10
204.665
 20
134.437
 11
204.285
 21
134.407
  0
LINE
  8
0
 10
204.285
 20
134.407
 11
203.905
 21
134.401
  0
LINE
  8
0
 10
203.905
 20
134.401
 11
203.525
 21
134.419
  0
LINE
  8
0
 10
19.6037
 20
154.416
 11
19.2884
 21
154.451
  0
LINE
  8
0
 10
19.2884
 20
154.451
 11
18.976
 21
154.506
  0
LINE
  8
0
 10
18.976
 20
154.506
 11
18.6676
 21
154.581
  0
LINE
  8
0
 10
18.6676
 20
154.581
 11
18.3647
 21
154.675
  0
LINE
  8
0
 10
18.3647
 20
154.675
 11
18.0683
 21
154.788
  0
LINE
  8
0
 10
18.0683
 20
154.788
 11
17.7797
 21
154.92
  0
LINE
  8
0
 10
17.7797
 20
154.92
 11
17.5
 21
155.07
  0
LINE
  8
0
 10
17.5
 20
155.07
 11
17.2304
 21
155.237
  0
LINE
  8
0
 10
17.2304
 20
155.237
 11
16.9719
 21
155.421
  0
LINE
  8
0
 10
16.9719
 20
155.421
 11
16.7257
 21
155.621
  0
LINE
  8
0
 10
16.7257
 20
155.621
 11
16.4926
 21
155.837
  0
LINE
  8
0
 10
16.4926
 20
155.837
 11
16.2737
 21
156.066
  0
LINE
  8
0
 10
16.2737
 20
156.066
 11
16.0697
 21
156.309
  0
LINE
  8
0
 10
16.0697
 20
156.309
 11
15.8816
 21
156.565
  0
LINE
  8
0
 10
15.8816
 20
156.565
 11
15.7101
 21
156.832
  0
LINE
  8
0
 10
15.7101
 20
156.832
 11
15.5558
 21
157.109
  0
LINE
  8
0
 10
15.5558
 20
157.109
 11
15.4194
 21
157.395
  0
LINE
  8
0
 10
15.4194
 20
157.395
 11
15.3015
 21
157.69
  0
LINE
  8
0
 10
15.3015
 20
157.69
 11
15.2025
 21
157.991
  0
LINE
  8
0
 10
15.2025
 20
157.991
 11
15.1228
 21
158.298
  0
LINE
  8
0
 10
15.1228
 20
158.298
 11
15.0628
 21
158.61
  0
LINE
  8
0
 10
15.0628
 20
158.61
 11
15.0226
 21
158.925
  0
LINE
  8
0
 10
15.0226
 20
158.925
 11
15.0025
 21
159.241
  0
LINE
  8
0
 10
15.0025
 20
159.241
 11
15.0025
 21
159.559
  0
LINE
  8
0
 10
15.0025
 20
159.559
 11
15.0226
 21
159.875
  0
LINE
  8
0
 10
15.0226
 20
159.875
 11
15.0628
 21
160.19
  0
LINE
  8
0
 10
15.0628
 20
160.19
 11
15.1228
 21
160.502
  0
LINE
  8
0
 10
15.1228
 20
160.502
 11
15.2025
 21
160.809
  0
LINE
  8
0
 10
15.2025
 20
160.809
 11
15.3015
 21
161.11
  0
LINE
  8
0
 10
15.3015
 20
161.11
 11
15.4194
 21
161.405
  0
LINE
  8
0
 10
15.4194
 20
161.405
 11
15.5558
 21
161.691
  0
LINE
  8
0
 10
15.5558
 20
161.691
 11
15.7101
 21
161.968
  0
LINE
  8
0
 10
15.7101
 20
161.968
 11
15.8816
 21
162.235
  0
LINE
  8
0
 10
15.8816
 20
162.235
 11
16.0697
 21
162.491
  0
LINE
  8
0
 10
16.0697
 20
162.491
 11
16.2737
 21
162.734
  0
LINE
  8
0
 10
16.2737
 20
162.734
 11
16.4926
 21
162.963
  0
LINE
  8
0
 10
16.4926
 20
162.963
 11
16.7257
 21
163.179
  0
LINE
  8
0
 10
16.7257
 20
163.179
 11
16.9719
 21
163.379
  0
LINE
  8
0
 10
16.9719
 20
163.379
 11
17.2304
 21
163.563
  0
LINE
  8
0
 10
17.2304
 20
163.563
 11
17.5
 21
163.73
  0
LINE
  8
0
 10
17.5
 20
163.73
 11
17.7797
 21
163.88
  0
LINE
  8
0
 10
17.7797
 20
163.88
 11
18.0683
 21
164.012
  0
LINE
  8
0
 10
18.0683
 20
164.012
 11
18.3647
 21
164.125
  0
LINE
  8
0
 10
18.3647
 20
164.125
 11
18.6676
 21
164.219
  0
LINE
  8
0
 10
18.6676
 20
164.219
 11
18.976
 21
164.294
  0
LINE
  8
0
 10
18.976
 20
164.294
 11
19.2884
 21
164.349
  0
LINE
  8
0
 10
19.2884
 20
164.349
 11
19.6037
 21
164.384
  0
LINE
  8
0
 10
19.6037
 20
164.384
 11
19.9207
 21
164.399
  0
LINE
  8
0
 10
19.9207
 20
164.399
 11
20.2379
 21
164.394
  0
LINE
  8
0
 10
20.2379
 20
164.394
 11
20.5542
 21
164.369
  0
LINE
  8
0
 10
20.5542
 20
164.369
 11
20.8682
 21
164.324
  0
LINE
  8
0
 10
20.8682
 20
164.324
 11
21.1788
 21
164.259
  0
LINE
  8
0
 10
21.1788
 20
164.259
 11
21.4846
 21
164.175
  0
LINE
  8
0
 10
21.4846
 20
164.175
 11
21.7844
 21
164.071
  0
LINE
  8
0
 10
21.7844
 20
164.071
 11
22.0771
 21
163.948
  0
LINE
  8
0
 10
22.0771
 20
163.948
 11
22.3613
 21
163.807
  0
LINE
  8
0
 10
22.3613
 20
163.807
 11
22.6361
 21
163.649
  0
LINE
  8
0
 10
22.6361
 20
163.649
 11
22.9003
 21
163.473
  0
LINE
  8
0
 10
22.9003
 20
163.473
 11
23.1528
 21
163.281
  0
LINE
  8
0
 10
23.1528
 20
163.281
 11
23.3925
 21
163.073
  0
LINE
  8
0
 10
23.3925
 20
163.073
 11
23.6187
 21
162.85
  0
LINE
  8
0
 10
23.6187
 20
162.85
 11
23.8302
 21
162.614
  0
LINE
  8
0
 10
23.8302
 20
162.614
 11
24.0264
 21
162.365
  0
LINE
  8
0
 10
24.0264
 20
162.365
 11
24.2063
 21
162.103
  0
LINE
  8
0
 10
24.2063
 20
162.103
 11
24.3692
 21
161.831
  0
LINE
  8
0
 10
24.3692
 20
161.831
 11
24.5146
 21
161.549
  0
LINE
  8
0
 10
24.5146
 20
161.549
 11
24.6418
 21
161.258
  0
LINE
  8
0
 10
24.6418
 20
161.258
 11
24.7504
 21
160.96
  0
LINE
  8
0
 10
24.7504
 20
160.96
 11
24.8397
 21
160.656
  0
LINE
  8
0
 10
24.8397
 20
160.656
 11
24.9096
 21
160.346
  0
LINE
  8
0
 10
24.9096
 20
160.346
 11
24.9598
 21
160.033
  0
LINE
  8
0
 10
24.9598
 20
160.033
 11
24.9899
 21
159.717
  0
LINE
  8
0
 10
24.9899
 20
159.717
 11
25
 21
159.4
  0
LINE
  8
0
 10
25
 20
159.4
 11
24.9899
 21
159.083
  0
LINE
  8
0
 10
24.9899
 20
159.083
 11
24.9598
 21
158.767
  0
LINE
  8
0
 10
24.9598
 20
158.767
 11
24.9096
 21
158.454
  0
LINE
  8
0
 10
24.9096
 20
158.454
 11
24.8397
 21
158.144
  0
LINE
  8
0
 10
24.8397
 20
158.144
 11
24.7504
 21
157.84
  0
LINE
  8
0
 10
24.7504
 20
157.84
 11
24.6418
 21
157.542
  0
LINE
  8
0
 10
24.6418
 20
157.542
 11
24.5146
 21
157.251
  0
LINE
  8
0
 10
24.5146
 20
157.251
 11
24.3692
 21
156.969
  0
LINE
  8
0
 10
24.3692
 20
156.969
 11
24.2063
 21
156.697
  0
LINE
  8
0
 10
24.2063
 20
156.697
 11
24.0264
 21
156.435
  0
LINE
  8
0
 10
24.0264
 20
156.435
 11
23.8302
 21
156.186
  0
LINE
  8
0
 10
23.8302
 20
156.186
 11
23.6187
 21
155.95
  0
LINE
  8
0
 10
23.6187
 20
155.95
 11
23.3925
 21
155.727
  0
LINE
  8
0
 10
23.3925
 20
155.727
 11
23.1528
 21
155.519
  0
LINE
  8
0
 10
23.1528
 20
155.519
 11
22.9003
 21
155.327
  0
LINE
  8
0
 10
22.9003
 20
155.327
 11
22.6361
 21
155.151
  0
LINE
  8
0
 10
22.6361
 20
155.151
 11
22.3613
 21
154.993
  0
LINE
  8
0
 10
22.3613
 20
154.993
 11
22.0771
 21
154.852
  0
LINE
  8
0
 10
22.0771
 20
154.852
 11
21.7844
 21
154.729
  0
LINE
  8
0
 10
21.7844
 20
154.729
 11
21.4846
 21
154.625
  0
LINE
  8
0
 10
21.4846
 20
154.625
 11
21.1788
 21
154.541
  0
LINE
  8
0
 10
21.1788
 20
154.541
 11
20.8682
 21
154.476
  0
LINE
  8
0
 10
20.8682
 20
154.476
 11
20.5542
 21
154.431
  0
LINE
  8
0
 10
20.5542
 20
154.431
 11
20.2379
 21
154.406
  0
LINE
  8
0
 10
20.2379
 20
154.406
 11
19.9207
 21
154.401
  0
LINE
  8
0
 10
19.9207
 20
154.401
 11
19.6037
 21
154.416
  0
ENDSEC
  0
SECTION
  2
OBJECTS
  0
DICTIONARY
  0
ENDSEC
  0
EOF
