  0
SECTION
  2
BLOCKS
  0
ENDSEC
  0
SECTION
  2
ENTITIES
  0
LINE
  8
0
 10
230
 20
6
 11
252.9
 21
6
  0
LINE
  8
0
 10
252.9
 20
6
 11
252.9
 21
8.39999
  0
LINE
  8
0
 10
252.9
 20
8.39999
 11
275.8
 21
8.39999
  0
LINE
  8
0
 10
275.8
 20
8.39999
 11
275.8
 21
6
  0
LINE
  8
0
 10
275.8
 20
6
 11
298.7
 21
6
  0
LINE
  8
0
 10
298.7
 20
6
 11
298.7
 21
8.39999
  0
LINE
  8
0
 10
298.7
 20
8.39999
 11
321.6
 21
8.39999
  0
LINE
  8
0
 10
321.6
 20
8.39999
 11
321.6
 21
6
  0
LINE
  8
0
 10
321.6
 20
6
 11
344.5
 21
6
  0
LINE
  8
0
 10
344.5
 20
6
 11
344.5
 21
8.39999
  0
LINE
  8
0
 10
344.5
 20
8.39999
 11
367.4
 21
8.39999
  0
LINE
  8
0
 10
367.4
 20
8.39999
 11
367.4
 21
6
  0
LINE
  8
0
 10
367.4
 20
6
 11
390.3
 21
6
  0
LINE
  8
0
 10
390.3
 20
6
 11
390.3
 21
8.39999
  0
LINE
  8
0
 10
390.3
 20
8.39999
 11
413.2
 21
8.39999
  0
LINE
  8
0
 10
413.2
 20
8.39999
 11
413.2
 21
6
  0
LINE
  8
0
 10
413.2
 20
6
 11
436.1
 21
6
  0
LINE
  8
0
 10
436.1
 20
6
 11
436.1
 21
8.39999
  0
LINE
  8
0
 10
436.1
 20
8.39999
 11
459
 21
8.39999
  0
LINE
  8
0
 10
459
 20
8.39999
 11
459
 21
628.4
  0
LINE
  8
0
 10
459
 20
628.4
 11
436.1
 21
628.4
  0
LINE
  8
0
 10
436.1
 20
628.4
 11
436.1
 21
630.8
  0
LINE
  8
0
 10
436.1
 20
630.8
 11
413.2
 21
630.8
  0
LINE
  8
0
 10
413.2
 20
630.8
 11
413.2
 21
628.4
  0
LINE
  8
0
 10
413.2
 20
628.4
 11
390.3
 21
628.4
  0
LINE
  8
0
 10
390.3
 20
628.4
 11
390.3
 21
630.8
  0
LINE
  8
0
 10
390.3
 20
630.8
 11
367.4
 21
630.8
  0
LINE
  8
0
 10
367.4
 20
630.8
 11
367.4
 21
628.4
  0
LINE
  8
0
 10
367.4
 20
628.4
 11
344.5
 21
628.4
  0
LINE
  8
0
 10
344.5
 20
628.4
 11
344.5
 21
630.8
  0
LINE
  8
0
 10
344.5
 20
630.8
 11
321.6
 21
630.8
  0
LINE
  8
0
 10
321.6
 20
630.8
 11
321.6
 21
628.4
  0
LINE
  8
0
 10
321.6
 20
628.4
 11
298.7
 21
628.4
  0
LINE
  8
0
 10
298.7
 20
628.4
 11
298.7
 21
630.8
  0
LINE
  8
0
 10
298.7
 20
630.8
 11
275.8
 21
630.8
  0
LINE
  8
0
 10
275.8
 20
630.8
 11
275.8
 21
628.4
  0
LINE
  8
0
 10
275.8
 20
628.4
 11
252.9
 21
628.4
  0
LINE
  8
0
 10
252.9
 20
628.4
 11
252.9
 21
630.8
  0
LINE
  8
0
 10
252.9
 20
630.8
 11
230
 21
630.8
  0
LINE
  8
0
 10
230
 20
630.8
 11
230
 21
628.4
  0
LINE
  8
0
 10
230
 20
628.4
 11
207.1
 21
628.4
  0
LINE
  8
0
 10
207.1
 20
628.4
 11
207.1
 21
630.8
  0
LINE
  8
0
 10
207.1
 20
630.8
 11
184.2
 21
630.8
  0
LINE
  8
0
 10
184.2
 20
630.8
 11
184.2
 21
628.4
  0
LINE
  8
0
 10
184.2
 20
628.4
 11
161.3
 21
628.4
  0
LINE
  8
0
 10
161.3
 20
628.4
 11
161.3
 21
630.8
  0
LINE
  8
0
 10
161.3
 20
630.8
 11
138.4
 21
630.8
  0
LINE
  8
0
 10
138.4
 20
630.8
 11
138.4
 21
628.4
  0
LINE
  8
0
 10
138.4
 20
628.4
 11
115.5
 21
628.4
  0
LINE
  8
0
 10
115.5
 20
628.4
 11
115.5
 21
630.8
  0
LINE
  8
0
 10
115.5
 20
630.8
 11
92.6
 21
630.8
  0
LINE
  8
0
 10
92.6
 20
630.8
 11
92.6
 21
628.4
  0
LINE
  8
0
 10
92.6
 20
628.4
 11
69.7
 21
628.4
  0
LINE
  8
0
 10
69.7
 20
628.4
 11
69.7
 21
630.8
  0
LINE
  8
0
 10
69.7
 20
630.8
 11
46.8
 21
630.8
  0
LINE
  8
0
 10
46.8
 20
630.8
 11
46.8
 21
628.4
  0
LINE
  8
0
 10
46.8
 20
628.4
 11
23.9
 21
628.4
  0
LINE
  8
0
 10
23.9
 20
628.4
 11
23.9
 21
630.8
  0
LINE
  8
0
 10
23.9
 20
630.8
 11
1
 21
630.8
  0
LINE
  8
0
 10
1
 20
630.8
 11
1
 21
420.4
  0
LINE
  8
0
 10
1
 20
420.4
 11
77.3333
 21
420.4
  0
LINE
  8
0
 10
77.3333
 20
420.4
 11
77.3333
 21
418
  0
LINE
  8
0
 10
77.3333
 20
418
 11
1
 21
418
  0
LINE
  8
0
 10
1
 20
418
 11
1
 21
213.4
  0
LINE
  8
0
 10
1
 20
213.4
 11
77.3333
 21
213.4
  0
LINE
  8
0
 10
77.3333
 20
213.4
 11
77.3333
 21
211
  0
LINE
  8
0
 10
77.3333
 20
211
 11
1
 21
211
  0
LINE
  8
0
 10
1
 20
211
 11
1
 21
6
  0
LINE
  8
0
 10
1
 20
6
 11
23.9
 21
6
  0
LINE
  8
0
 10
23.9
 20
6
 11
23.9
 21
8.39999
  0
LINE
  8
0
 10
23.9
 20
8.39999
 11
46.8
 21
8.39999
  0
LINE
  8
0
 10
46.8
 20
8.39999
 11
46.8
 21
6
  0
LINE
  8
0
 10
46.8
 20
6
 11
69.7
 21
6
  0
LINE
  8
0
 10
69.7
 20
6
 11
69.7
 21
8.39999
  0
LINE
  8
0
 10
69.7
 20
8.39999
 11
92.6
 21
8.39999
  0
LINE
  8
0
 10
92.6
 20
8.39999
 11
92.6
 21
6
  0
LINE
  8
0
 10
92.6
 20
6
 11
115.5
 21
6
  0
LINE
  8
0
 10
115.5
 20
6
 11
115.5
 21
8.39999
  0
LINE
  8
0
 10
115.5
 20
8.39999
 11
138.4
 21
8.39999
  0
LINE
  8
0
 10
138.4
 20
8.39999
 11
138.4
 21
6
  0
LINE
  8
0
 10
138.4
 20
6
 11
161.3
 21
6
  0
LINE
  8
0
 10
161.3
 20
6
 11
161.3
 21
8.39999
  0
LINE
  8
0
 10
161.3
 20
8.39999
 11
184.2
 21
8.39999
  0
LINE
  8
0
 10
184.2
 20
8.39999
 11
184.2
 21
6
  0
LINE
  8
0
 10
184.2
 20
6
 11
207.1
 21
6
  0
LINE
  8
0
 10
207.1
 20
6
 11
207.1
 21
8.39999
  0
LINE
  8
0
 10
207.1
 20
8.39999
 11
230
 21
8.39999
  0
LINE
  8
0
 10
230
 20
8.39999
 11
230
 21
6
  0
LINE
  8
0
 10
230
 20
420.4
 11
230
 21
418
  0
LINE
  8
0
 10
230
 20
418
 11
153.667
 21
418
  0
LINE
  8
0
 10
153.667
 20
418
 11
153.667
 21
420.4
  0
LINE
  8
0
 10
153.667
 20
420.4
 11
230
 21
420.4
  0
LINE
  8
0
 10
306.333
 20
418
 11
306.333
 21
420.4
  0
LINE
  8
0
 10
306.333
 20
420.4
 11
382.667
 21
420.4
  0
LINE
  8
0
 10
382.667
 20
420.4
 11
382.667
 21
418
  0
LINE
  8
0
 10
382.667
 20
418
 11
306.333
 21
418
  0
LINE
  8
0
 10
153.667
 20
211
 11
153.667
 21
213.4
  0
LINE
  8
0
 10
153.667
 20
213.4
 11
230
 21
213.4
  0
LINE
  8
0
 10
230
 20
213.4
 11
230
 21
211
  0
LINE
  8
0
 10
230
 20
211
 11
153.667
 21
211
  0
LINE
  8
0
 10
382.667
 20
211
 11
306.333
 21
211
  0
LINE
  8
0
 10
306.333
 20
211
 11
306.333
 21
213.4
  0
LINE
  8
0
 10
306.333
 20
213.4
 11
382.667
 21
213.4
  0
LINE
  8
0
 10
382.667
 20
213.4
 11
382.667
 21
211
  0
LINE
  8
0
 10
482.9
 20
8.39999
 11
505.8
 21
8.39999
  0
LINE
  8
0
 10
505.8
 20
8.39999
 11
505.8
 21
6
  0
LINE
  8
0
 10
505.8
 20
6
 11
528.7
 21
6
  0
LINE
  8
0
 10
528.7
 20
6
 11
528.7
 21
8.39999
  0
LINE
  8
0
 10
528.7
 20
8.39999
 11
551.6
 21
8.39999
  0
LINE
  8
0
 10
551.6
 20
8.39999
 11
551.6
 21
6
  0
LINE
  8
0
 10
551.6
 20
6
 11
574.5
 21
6
  0
LINE
  8
0
 10
574.5
 20
6
 11
574.5
 21
8.39999
  0
LINE
  8
0
 10
574.5
 20
8.39999
 11
597.4
 21
8.39999
  0
LINE
  8
0
 10
597.4
 20
8.39999
 11
597.4
 21
6
  0
LINE
  8
0
 10
597.4
 20
6
 11
620.3
 21
6
  0
LINE
  8
0
 10
620.3
 20
6
 11
620.3
 21
8.39999
  0
LINE
  8
0
 10
620.3
 20
8.39999
 11
643.2
 21
8.39999
  0
LINE
  8
0
 10
643.2
 20
8.39999
 11
643.2
 21
6
  0
LINE
  8
0
 10
643.2
 20
6
 11
666.1
 21
6
  0
LINE
  8
0
 10
666.1
 20
6
 11
666.1
 21
8.39999
  0
LINE
  8
0
 10
666.1
 20
8.39999
 11
689
 21
8.39999
  0
LINE
  8
0
 10
689
 20
8.39999
 11
689
 21
6
  0
LINE
  8
0
 10
689
 20
6
 11
711.9
 21
6
  0
LINE
  8
0
 10
711.9
 20
6
 11
711.9
 21
8.39999
  0
LINE
  8
0
 10
711.9
 20
8.39999
 11
734.8
 21
8.39999
  0
LINE
  8
0
 10
734.8
 20
8.39999
 11
734.8
 21
6
  0
LINE
  8
0
 10
734.8
 20
6
 11
757.7
 21
6
  0
LINE
  8
0
 10
757.7
 20
6
 11
757.7
 21
8.39999
  0
LINE
  8
0
 10
757.7
 20
8.39999
 11
780.6
 21
8.39999
  0
LINE
  8
0
 10
780.6
 20
8.39999
 11
780.6
 21
6
  0
LINE
  8
0
 10
780.6
 20
6
 11
803.5
 21
6
  0
LINE
  8
0
 10
803.5
 20
6
 11
803.5
 21
8.39999
  0
LINE
  8
0
 10
803.5
 20
8.39999
 11
826.4
 21
8.39999
  0
LINE
  8
0
 10
826.4
 20
8.39999
 11
826.4
 21
6
  0
LINE
  8
0
 10
826.4
 20
6
 11
849.3
 21
6
  0
LINE
  8
0
 10
849.3
 20
6
 11
849.3
 21
8.39999
  0
LINE
  8
0
 10
849.3
 20
8.39999
 11
872.2
 21
8.39999
  0
LINE
  8
0
 10
872.2
 20
8.39999
 11
872.2
 21
6
  0
LINE
  8
0
 10
872.2
 20
6
 11
895.1
 21
6
  0
LINE
  8
0
 10
895.1
 20
6
 11
895.1
 21
8.39999
  0
LINE
  8
0
 10
895.1
 20
8.39999
 11
918
 21
8.39999
  0
LINE
  8
0
 10
918
 20
8.39999
 11
918
 21
628.4
  0
LINE
  8
0
 10
918
 20
628.4
 11
895.1
 21
628.4
  0
LINE
  8
0
 10
895.1
 20
628.4
 11
895.1
 21
630.8
  0
LINE
  8
0
 10
895.1
 20
630.8
 11
872.2
 21
630.8
  0
LINE
  8
0
 10
872.2
 20
630.8
 11
872.2
 21
628.4
  0
LINE
  8
0
 10
872.2
 20
628.4
 11
849.3
 21
628.4
  0
LINE
  8
0
 10
849.3
 20
628.4
 11
849.3
 21
630.8
  0
LINE
  8
0
 10
849.3
 20
630.8
 11
826.4
 21
630.8
  0
LINE
  8
0
 10
826.4
 20
630.8
 11
826.4
 21
628.4
  0
LINE
  8
0
 10
826.4
 20
628.4
 11
803.5
 21
628.4
  0
LINE
  8
0
 10
803.5
 20
628.4
 11
803.5
 21
630.8
  0
LINE
  8
0
 10
803.5
 20
630.8
 11
780.6
 21
630.8
  0
LINE
  8
0
 10
780.6
 20
630.8
 11
780.6
 21
628.4
  0
LINE
  8
0
 10
780.6
 20
628.4
 11
757.7
 21
628.4
  0
LINE
  8
0
 10
757.7
 20
628.4
 11
757.7
 21
630.8
  0
LINE
  8
0
 10
757.7
 20
630.8
 11
734.8
 21
630.8
  0
LINE
  8
0
 10
734.8
 20
630.8
 11
734.8
 21
628.4
  0
LINE
  8
0
 10
734.8
 20
628.4
 11
711.9
 21
628.4
  0
LINE
  8
0
 10
711.9
 20
628.4
 11
711.9
 21
630.8
  0
LINE
  8
0
 10
711.9
 20
630.8
 11
689
 21
630.8
  0
LINE
  8
0
 10
689
 20
630.8
 11
689
 21
628.4
  0
LINE
  8
0
 10
689
 20
628.4
 11
666.1
 21
628.4
  0
LINE
  8
0
 10
666.1
 20
628.4
 11
666.1
 21
630.8
  0
LINE
  8
0
 10
666.1
 20
630.8
 11
643.2
 21
630.8
  0
LINE
  8
0
 10
643.2
 20
630.8
 11
643.2
 21
628.4
  0
LINE
  8
0
 10
643.2
 20
628.4
 11
620.3
 21
628.4
  0
LINE
  8
0
 10
620.3
 20
628.4
 11
620.3
 21
630.8
  0
LINE
  8
0
 10
620.3
 20
630.8
 11
597.4
 21
630.8
  0
LINE
  8
0
 10
597.4
 20
630.8
 11
597.4
 21
628.4
  0
LINE
  8
0
 10
597.4
 20
628.4
 11
574.5
 21
628.4
  0
LINE
  8
0
 10
574.5
 20
628.4
 11
574.5
 21
630.8
  0
LINE
  8
0
 10
574.5
 20
630.8
 11
551.6
 21
630.8
  0
LINE
  8
0
 10
551.6
 20
630.8
 11
551.6
 21
628.4
  0
LINE
  8
0
 10
551.6
 20
628.4
 11
528.7
 21
628.4
  0
LINE
  8
0
 10
528.7
 20
628.4
 11
528.7
 21
630.8
  0
LINE
  8
0
 10
528.7
 20
630.8
 11
505.8
 21
630.8
  0
LINE
  8
0
 10
505.8
 20
630.8
 11
505.8
 21
628.4
  0
LINE
  8
0
 10
505.8
 20
628.4
 11
482.9
 21
628.4
  0
LINE
  8
0
 10
482.9
 20
628.4
 11
482.9
 21
630.8
  0
LINE
  8
0
 10
482.9
 20
630.8
 11
460
 21
630.8
  0
LINE
  8
0
 10
460
 20
630.8
 11
460
 21
420.4
  0
LINE
  8
0
 10
460
 20
420.4
 11
536.333
 21
420.4
  0
LINE
  8
0
 10
536.333
 20
420.4
 11
536.333
 21
418
  0
LINE
  8
0
 10
536.333
 20
418
 11
460
 21
418
  0
LINE
  8
0
 10
460
 20
418
 11
460
 21
213.4
  0
LINE
  8
0
 10
460
 20
213.4
 11
536.333
 21
213.4
  0
LINE
  8
0
 10
536.333
 20
213.4
 11
536.333
 21
211
  0
LINE
  8
0
 10
536.333
 20
211
 11
460
 21
211
  0
LINE
  8
0
 10
460
 20
211
 11
460
 21
6
  0
LINE
  8
0
 10
460
 20
6
 11
482.9
 21
6
  0
LINE
  8
0
 10
482.9
 20
6
 11
482.9
 21
8.39999
  0
LINE
  8
0
 10
765.333
 20
418
 11
765.333
 21
420.4
  0
LINE
  8
0
 10
765.333
 20
420.4
 11
841.667
 21
420.4
  0
LINE
  8
0
 10
841.667
 20
420.4
 11
841.667
 21
418
  0
LINE
  8
0
 10
841.667
 20
418
 11
765.333
 21
418
  0
LINE
  8
0
 10
612.667
 20
418
 11
612.667
 21
420.4
  0
LINE
  8
0
 10
612.667
 20
420.4
 11
689
 21
420.4
  0
LINE
  8
0
 10
689
 20
420.4
 11
689
 21
418
  0
LINE
  8
0
 10
689
 20
418
 11
612.667
 21
418
  0
LINE
  8
0
 10
765.333
 20
211
 11
765.333
 21
213.4
  0
LINE
  8
0
 10
765.333
 20
213.4
 11
841.667
 21
213.4
  0
LINE
  8
0
 10
841.667
 20
213.4
 11
841.667
 21
211
  0
LINE
  8
0
 10
841.667
 20
211
 11
765.333
 21
211
  0
LINE
  8
0
 10
612.667
 20
211
 11
612.667
 21
213.4
  0
LINE
  8
0
 10
612.667
 20
213.4
 11
689
 21
213.4
  0
LINE
  8
0
 10
689
 20
213.4
 11
689
 21
211
  0
LINE
  8
0
 10
689
 20
211
 11
612.667
 21
211
  0
ENDSEC
  0
SECTION
  2
OBJECTS
  0
DICTIONARY
  0
ENDSEC
  0
EOF
