  0
SECTION
  2
BLOCKS
  0
ENDSEC
  0
SECTION
  2
ENTITIES
  0
LINE
  8
0
 10
77.3333
 20
8.39999
 11
153.667
 21
8.39999
  0
LINE
  8
0
 10
153.667
 20
8.39999
 11
153.667
 21
6
  0
LINE
  8
0
 10
153.667
 20
6
 11
230
 21
6
  0
LINE
  8
0
 10
230
 20
6
 11
230
 21
8.39999
  0
LINE
  8
0
 10
230
 20
8.39999
 11
306.333
 21
8.39999
  0
LINE
  8
0
 10
306.333
 20
8.39999
 11
306.333
 21
6
  0
LINE
  8
0
 10
306.333
 20
6
 11
382.667
 21
6
  0
LINE
  8
0
 10
382.667
 20
6
 11
382.667
 21
8.39999
  0
LINE
  8
0
 10
382.667
 20
8.39999
 11
459
 21
8.39999
  0
LINE
  8
0
 10
459
 20
8.39999
 11
459
 21
508.4
  0
LINE
  8
0
 10
459
 20
508.4
 11
382.667
 21
508.4
  0
LINE
  8
0
 10
382.667
 20
508.4
 11
382.667
 21
510.8
  0
LINE
  8
0
 10
382.667
 20
510.8
 11
306.333
 21
510.8
  0
LINE
  8
0
 10
306.333
 20
510.8
 11
306.333
 21
508.4
  0
LINE
  8
0
 10
306.333
 20
508.4
 11
230
 21
508.4
  0
LINE
  8
0
 10
230
 20
508.4
 11
230
 21
510.8
  0
LINE
  8
0
 10
230
 20
510.8
 11
153.667
 21
510.8
  0
LINE
  8
0
 10
153.667
 20
510.8
 11
153.667
 21
508.4
  0
LINE
  8
0
 10
153.667
 20
508.4
 11
77.3333
 21
508.4
  0
LINE
  8
0
 10
77.3333
 20
508.4
 11
77.3333
 21
510.8
  0
LINE
  8
0
 10
77.3333
 20
510.8
 11
1
 21
510.8
  0
LINE
  8
0
 10
1
 20
510.8
 11
1
 21
6
  0
LINE
  8
0
 10
1
 20
6
 11
77.3333
 21
6
  0
LINE
  8
0
 10
77.3333
 20
6
 11
77.3333
 21
8.39999
  0
LINE
  8
0
 10
536.333
 20
8.39999
 11
612.667
 21
8.39999
  0
LINE
  8
0
 10
612.667
 20
8.39999
 11
612.667
 21
6
  0
LINE
  8
0
 10
612.667
 20
6
 11
689
 21
6
  0
LINE
  8
0
 10
689
 20
6
 11
689
 21
8.39999
  0
LINE
  8
0
 10
689
 20
8.39999
 11
765.333
 21
8.39999
  0
LINE
  8
0
 10
765.333
 20
8.39999
 11
765.333
 21
6
  0
LINE
  8
0
 10
765.333
 20
6
 11
841.667
 21
6
  0
LINE
  8
0
 10
841.667
 20
6
 11
841.667
 21
8.39999
  0
LINE
  8
0
 10
841.667
 20
8.39999
 11
918
 21
8.39999
  0
LINE
  8
0
 10
918
 20
8.39999
 11
918
 21
508.4
  0
LINE
  8
0
 10
918
 20
508.4
 11
841.667
 21
508.4
  0
LINE
  8
0
 10
841.667
 20
508.4
 11
841.667
 21
510.8
  0
LINE
  8
0
 10
841.667
 20
510.8
 11
765.333
 21
510.8
  0
LINE
  8
0
 10
765.333
 20
510.8
 11
765.333
 21
508.4
  0
LINE
  8
0
 10
765.333
 20
508.4
 11
689
 21
508.4
  0
LINE
  8
0
 10
689
 20
508.4
 11
689
 21
510.8
  0
LINE
  8
0
 10
689
 20
510.8
 11
612.667
 21
510.8
  0
LINE
  8
0
 10
612.667
 20
510.8
 11
612.667
 21
508.4
  0
LINE
  8
0
 10
612.667
 20
508.4
 11
536.333
 21
508.4
  0
LINE
  8
0
 10
536.333
 20
508.4
 11
536.333
 21
510.8
  0
LINE
  8
0
 10
536.333
 20
510.8
 11
460
 21
510.8
  0
LINE
  8
0
 10
460
 20
510.8
 11
460
 21
6
  0
LINE
  8
0
 10
460
 20
6
 11
536.333
 21
6
  0
LINE
  8
0
 10
536.333
 20
6
 11
536.333
 21
8.39999
  0
ENDSEC
  0
SECTION
  2
OBJECTS
  0
DICTIONARY
  0
ENDSEC
  0
EOF
