  0
SECTION
  2
BLOCKS
  0
ENDSEC
  0
SECTION
  2
ENTITIES
  0
LINE
  8
0
 10
448
 20
624.8
 11
0
 21
624.8
  0
LINE
  8
0
 10
0
 20
624.8
 11
0
 21
0
  0
LINE
  8
0
 10
0
 20
0
 11
448
 21
0
  0
LINE
  8
0
 10
448
 20
0
 11
448
 21
624.8
  0
LINE
  8
0
 10
51.0741
 20
548.9
 11
51.0741
 21
555.9
  0
LINE
  8
0
 10
51.0741
 20
555.9
 11
65.0741
 21
555.9
  0
LINE
  8
0
 10
65.0741
 20
555.9
 11
65.0741
 21
548.9
  0
LINE
  8
0
 10
65.0741
 20
548.9
 11
51.0741
 21
548.9
  0
LINE
  8
0
 10
283.181
 20
550.203
 11
283.023
 21
550.215
  0
LINE
  8
0
 10
283.023
 20
550.215
 11
282.866
 21
550.238
  0
LINE
  8
0
 10
282.866
 20
550.238
 11
282.711
 21
550.27
  0
LINE
  8
0
 10
282.711
 20
550.27
 11
282.558
 21
550.313
  0
LINE
  8
0
 10
282.558
 20
550.313
 11
282.408
 21
550.365
  0
LINE
  8
0
 10
282.408
 20
550.365
 11
282.261
 21
550.426
  0
LINE
  8
0
 10
282.261
 20
550.426
 11
282.119
 21
550.496
  0
LINE
  8
0
 10
282.119
 20
550.496
 11
281.982
 21
550.576
  0
LINE
  8
0
 10
281.982
 20
550.576
 11
281.85
 21
550.664
  0
LINE
  8
0
 10
281.85
 20
550.664
 11
281.724
 21
550.76
  0
LINE
  8
0
 10
281.724
 20
550.76
 11
281.604
 21
550.864
  0
LINE
  8
0
 10
281.604
 20
550.864
 11
281.491
 21
550.975
  0
LINE
  8
0
 10
281.491
 20
550.975
 11
281.385
 21
551.093
  0
LINE
  8
0
 10
281.385
 20
551.093
 11
281.287
 21
551.218
  0
LINE
  8
0
 10
281.287
 20
551.218
 11
281.197
 21
551.348
  0
LINE
  8
0
 10
281.197
 20
551.348
 11
281.115
 21
551.484
  0
LINE
  8
0
 10
281.115
 20
551.484
 11
281.043
 21
551.625
  0
LINE
  8
0
 10
281.043
 20
551.625
 11
280.979
 21
551.771
  0
LINE
  8
0
 10
280.979
 20
551.771
 11
280.925
 21
551.92
  0
LINE
  8
0
 10
280.925
 20
551.92
 11
280.88
 21
552.072
  0
LINE
  8
0
 10
280.88
 20
552.072
 11
280.845
 21
552.227
  0
LINE
  8
0
 10
280.845
 20
552.227
 11
280.82
 21
552.384
  0
LINE
  8
0
 10
280.82
 20
552.384
 11
280.805
 21
552.541
  0
LINE
  8
0
 10
280.805
 20
552.541
 11
280.8
 21
552.7
  0
LINE
  8
0
 10
280.8
 20
552.7
 11
280.805
 21
552.859
  0
LINE
  8
0
 10
280.805
 20
552.859
 11
280.82
 21
553.016
  0
LINE
  8
0
 10
280.82
 20
553.016
 11
280.845
 21
553.173
  0
LINE
  8
0
 10
280.845
 20
553.173
 11
280.88
 21
553.328
  0
LINE
  8
0
 10
280.88
 20
553.328
 11
280.925
 21
553.48
  0
LINE
  8
0
 10
280.925
 20
553.48
 11
280.979
 21
553.629
  0
LINE
  8
0
 10
280.979
 20
553.629
 11
281.043
 21
553.774
  0
LINE
  8
0
 10
281.043
 20
553.774
 11
281.115
 21
553.915
  0
LINE
  8
0
 10
281.115
 20
553.915
 11
281.197
 21
554.052
  0
LINE
  8
0
 10
281.197
 20
554.052
 11
281.287
 21
554.182
  0
LINE
  8
0
 10
281.287
 20
554.182
 11
281.385
 21
554.307
  0
LINE
  8
0
 10
281.385
 20
554.307
 11
281.491
 21
554.425
  0
LINE
  8
0
 10
281.491
 20
554.425
 11
281.604
 21
554.536
  0
LINE
  8
0
 10
281.604
 20
554.536
 11
281.724
 21
554.64
  0
LINE
  8
0
 10
281.724
 20
554.64
 11
281.85
 21
554.736
  0
LINE
  8
0
 10
281.85
 20
554.736
 11
281.982
 21
554.824
  0
LINE
  8
0
 10
281.982
 20
554.824
 11
282.119
 21
554.904
  0
LINE
  8
0
 10
282.119
 20
554.904
 11
282.261
 21
554.974
  0
LINE
  8
0
 10
282.261
 20
554.974
 11
282.408
 21
555.035
  0
LINE
  8
0
 10
282.408
 20
555.035
 11
282.558
 21
555.087
  0
LINE
  8
0
 10
282.558
 20
555.087
 11
282.711
 21
555.13
  0
LINE
  8
0
 10
282.711
 20
555.13
 11
282.866
 21
555.162
  0
LINE
  8
0
 10
282.866
 20
555.162
 11
283.023
 21
555.185
  0
LINE
  8
0
 10
283.023
 20
555.185
 11
283.181
 21
555.197
  0
LINE
  8
0
 10
283.181
 20
555.197
 11
283.34
 21
555.2
  0
LINE
  8
0
 10
283.34
 20
555.2
 11
283.498
 21
555.192
  0
LINE
  8
0
 10
283.498
 20
555.192
 11
283.656
 21
555.175
  0
LINE
  8
0
 10
283.656
 20
555.175
 11
283.812
 21
555.147
  0
LINE
  8
0
 10
283.812
 20
555.147
 11
283.966
 21
555.11
  0
LINE
  8
0
 10
283.966
 20
555.11
 11
284.118
 21
555.062
  0
LINE
  8
0
 10
284.118
 20
555.062
 11
284.266
 21
555.006
  0
LINE
  8
0
 10
284.266
 20
555.006
 11
284.41
 21
554.94
  0
LINE
  8
0
 10
284.41
 20
554.94
 11
284.55
 21
554.865
  0
LINE
  8
0
 10
284.55
 20
554.865
 11
284.685
 21
554.781
  0
LINE
  8
0
 10
284.685
 20
554.781
 11
284.814
 21
554.689
  0
LINE
  8
0
 10
284.814
 20
554.689
 11
284.937
 21
554.589
  0
LINE
  8
0
 10
284.937
 20
554.589
 11
285.054
 21
554.482
  0
LINE
  8
0
 10
285.054
 20
554.482
 11
285.163
 21
554.367
  0
LINE
  8
0
 10
285.163
 20
554.367
 11
285.265
 21
554.245
  0
LINE
  8
0
 10
285.265
 20
554.245
 11
285.359
 21
554.118
  0
LINE
  8
0
 10
285.359
 20
554.118
 11
285.445
 21
553.984
  0
LINE
  8
0
 10
285.445
 20
553.984
 11
285.522
 21
553.846
  0
LINE
  8
0
 10
285.522
 20
553.846
 11
285.59
 21
553.702
  0
LINE
  8
0
 10
285.59
 20
553.702
 11
285.649
 21
553.555
  0
LINE
  8
0
 10
285.649
 20
553.555
 11
285.699
 21
553.404
  0
LINE
  8
0
 10
285.699
 20
553.404
 11
285.739
 21
553.251
  0
LINE
  8
0
 10
285.739
 20
553.251
 11
285.769
 21
553.095
  0
LINE
  8
0
 10
285.769
 20
553.095
 11
285.789
 21
552.938
  0
LINE
  8
0
 10
285.789
 20
552.938
 11
285.799
 21
552.779
  0
LINE
  8
0
 10
285.799
 20
552.779
 11
285.799
 21
552.621
  0
LINE
  8
0
 10
285.799
 20
552.621
 11
285.789
 21
552.462
  0
LINE
  8
0
 10
285.789
 20
552.462
 11
285.769
 21
552.305
  0
LINE
  8
0
 10
285.769
 20
552.305
 11
285.739
 21
552.149
  0
LINE
  8
0
 10
285.739
 20
552.149
 11
285.699
 21
551.996
  0
LINE
  8
0
 10
285.699
 20
551.996
 11
285.649
 21
551.845
  0
LINE
  8
0
 10
285.649
 20
551.845
 11
285.59
 21
551.698
  0
LINE
  8
0
 10
285.59
 20
551.698
 11
285.522
 21
551.554
  0
LINE
  8
0
 10
285.522
 20
551.554
 11
285.445
 21
551.416
  0
LINE
  8
0
 10
285.445
 20
551.416
 11
285.359
 21
551.282
  0
LINE
  8
0
 10
285.359
 20
551.282
 11
285.265
 21
551.155
  0
LINE
  8
0
 10
285.265
 20
551.155
 11
285.163
 21
551.033
  0
LINE
  8
0
 10
285.163
 20
551.033
 11
285.054
 21
550.918
  0
LINE
  8
0
 10
285.054
 20
550.918
 11
284.937
 21
550.811
  0
LINE
  8
0
 10
284.937
 20
550.811
 11
284.814
 21
550.711
  0
LINE
  8
0
 10
284.814
 20
550.711
 11
284.685
 21
550.619
  0
LINE
  8
0
 10
284.685
 20
550.619
 11
284.55
 21
550.535
  0
LINE
  8
0
 10
284.55
 20
550.535
 11
284.41
 21
550.46
  0
LINE
  8
0
 10
284.41
 20
550.46
 11
284.266
 21
550.394
  0
LINE
  8
0
 10
284.266
 20
550.394
 11
284.118
 21
550.338
  0
LINE
  8
0
 10
284.118
 20
550.338
 11
283.966
 21
550.29
  0
LINE
  8
0
 10
283.966
 20
550.29
 11
283.812
 21
550.253
  0
LINE
  8
0
 10
283.812
 20
550.253
 11
283.656
 21
550.225
  0
LINE
  8
0
 10
283.656
 20
550.225
 11
283.498
 21
550.208
  0
LINE
  8
0
 10
283.498
 20
550.208
 11
283.34
 21
550.2
  0
LINE
  8
0
 10
283.34
 20
550.2
 11
283.181
 21
550.203
  0
LINE
  8
0
 10
343.702
 20
550.208
 11
343.544
 21
550.225
  0
LINE
  8
0
 10
343.544
 20
550.225
 11
343.388
 21
550.253
  0
LINE
  8
0
 10
343.388
 20
550.253
 11
343.234
 21
550.29
  0
LINE
  8
0
 10
343.234
 20
550.29
 11
343.082
 21
550.338
  0
LINE
  8
0
 10
343.082
 20
550.338
 11
342.934
 21
550.394
  0
LINE
  8
0
 10
342.934
 20
550.394
 11
342.79
 21
550.46
  0
LINE
  8
0
 10
342.79
 20
550.46
 11
342.65
 21
550.535
  0
LINE
  8
0
 10
342.65
 20
550.535
 11
342.515
 21
550.619
  0
LINE
  8
0
 10
342.515
 20
550.619
 11
342.386
 21
550.711
  0
LINE
  8
0
 10
342.386
 20
550.711
 11
342.263
 21
550.811
  0
LINE
  8
0
 10
342.263
 20
550.811
 11
342.146
 21
550.918
  0
LINE
  8
0
 10
342.146
 20
550.918
 11
342.037
 21
551.033
  0
LINE
  8
0
 10
342.037
 20
551.033
 11
341.935
 21
551.155
  0
LINE
  8
0
 10
341.935
 20
551.155
 11
341.841
 21
551.282
  0
LINE
  8
0
 10
341.841
 20
551.282
 11
341.755
 21
551.416
  0
LINE
  8
0
 10
341.755
 20
551.416
 11
341.678
 21
551.554
  0
LINE
  8
0
 10
341.678
 20
551.554
 11
341.61
 21
551.698
  0
LINE
  8
0
 10
341.61
 20
551.698
 11
341.551
 21
551.845
  0
LINE
  8
0
 10
341.551
 20
551.845
 11
341.501
 21
551.996
  0
LINE
  8
0
 10
341.501
 20
551.996
 11
341.461
 21
552.149
  0
LINE
  8
0
 10
341.461
 20
552.149
 11
341.431
 21
552.305
  0
LINE
  8
0
 10
341.431
 20
552.305
 11
341.411
 21
552.462
  0
LINE
  8
0
 10
341.411
 20
552.462
 11
341.401
 21
552.621
  0
LINE
  8
0
 10
341.401
 20
552.621
 11
341.401
 21
552.779
  0
LINE
  8
0
 10
341.401
 20
552.779
 11
341.411
 21
552.938
  0
LINE
  8
0
 10
341.411
 20
552.938
 11
341.431
 21
553.095
  0
LINE
  8
0
 10
341.431
 20
553.095
 11
341.461
 21
553.251
  0
LINE
  8
0
 10
341.461
 20
553.251
 11
341.501
 21
553.404
  0
LINE
  8
0
 10
341.501
 20
553.404
 11
341.551
 21
553.555
  0
LINE
  8
0
 10
341.551
 20
553.555
 11
341.61
 21
553.702
  0
LINE
  8
0
 10
341.61
 20
553.702
 11
341.678
 21
553.846
  0
LINE
  8
0
 10
341.678
 20
553.846
 11
341.755
 21
553.984
  0
LINE
  8
0
 10
341.755
 20
553.984
 11
341.841
 21
554.118
  0
LINE
  8
0
 10
341.841
 20
554.118
 11
341.935
 21
554.245
  0
LINE
  8
0
 10
341.935
 20
554.245
 11
342.037
 21
554.367
  0
LINE
  8
0
 10
342.037
 20
554.367
 11
342.146
 21
554.482
  0
LINE
  8
0
 10
342.146
 20
554.482
 11
342.263
 21
554.589
  0
LINE
  8
0
 10
342.263
 20
554.589
 11
342.386
 21
554.689
  0
LINE
  8
0
 10
342.386
 20
554.689
 11
342.515
 21
554.781
  0
LINE
  8
0
 10
342.515
 20
554.781
 11
342.65
 21
554.865
  0
LINE
  8
0
 10
342.65
 20
554.865
 11
342.79
 21
554.94
  0
LINE
  8
0
 10
342.79
 20
554.94
 11
342.934
 21
555.006
  0
LINE
  8
0
 10
342.934
 20
555.006
 11
343.082
 21
555.062
  0
LINE
  8
0
 10
343.082
 20
555.062
 11
343.234
 21
555.11
  0
LINE
  8
0
 10
343.234
 20
555.11
 11
343.388
 21
555.147
  0
LINE
  8
0
 10
343.388
 20
555.147
 11
343.544
 21
555.175
  0
LINE
  8
0
 10
343.544
 20
555.175
 11
343.702
 21
555.192
  0
LINE
  8
0
 10
343.702
 20
555.192
 11
343.86
 21
555.2
  0
LINE
  8
0
 10
343.86
 20
555.2
 11
344.019
 21
555.197
  0
LINE
  8
0
 10
344.019
 20
555.197
 11
344.177
 21
555.185
  0
LINE
  8
0
 10
344.177
 20
555.185
 11
344.334
 21
555.162
  0
LINE
  8
0
 10
344.334
 20
555.162
 11
344.489
 21
555.13
  0
LINE
  8
0
 10
344.489
 20
555.13
 11
344.642
 21
555.087
  0
LINE
  8
0
 10
344.642
 20
555.087
 11
344.792
 21
555.035
  0
LINE
  8
0
 10
344.792
 20
555.035
 11
344.939
 21
554.974
  0
LINE
  8
0
 10
344.939
 20
554.974
 11
345.081
 21
554.904
  0
LINE
  8
0
 10
345.081
 20
554.904
 11
345.218
 21
554.824
  0
LINE
  8
0
 10
345.218
 20
554.824
 11
345.35
 21
554.736
  0
LINE
  8
0
 10
345.35
 20
554.736
 11
345.476
 21
554.64
  0
LINE
  8
0
 10
345.476
 20
554.64
 11
345.596
 21
554.536
  0
LINE
  8
0
 10
345.596
 20
554.536
 11
345.709
 21
554.425
  0
LINE
  8
0
 10
345.709
 20
554.425
 11
345.815
 21
554.307
  0
LINE
  8
0
 10
345.815
 20
554.307
 11
345.913
 21
554.182
  0
LINE
  8
0
 10
345.913
 20
554.182
 11
346.003
 21
554.052
  0
LINE
  8
0
 10
346.003
 20
554.052
 11
346.085
 21
553.915
  0
LINE
  8
0
 10
346.085
 20
553.915
 11
346.157
 21
553.774
  0
LINE
  8
0
 10
346.157
 20
553.774
 11
346.221
 21
553.629
  0
LINE
  8
0
 10
346.221
 20
553.629
 11
346.275
 21
553.48
  0
LINE
  8
0
 10
346.275
 20
553.48
 11
346.32
 21
553.328
  0
LINE
  8
0
 10
346.32
 20
553.328
 11
346.355
 21
553.173
  0
LINE
  8
0
 10
346.355
 20
553.173
 11
346.38
 21
553.016
  0
LINE
  8
0
 10
346.38
 20
553.016
 11
346.395
 21
552.859
  0
LINE
  8
0
 10
346.395
 20
552.859
 11
346.4
 21
552.7
  0
LINE
  8
0
 10
346.4
 20
552.7
 11
346.395
 21
552.541
  0
LINE
  8
0
 10
346.395
 20
552.541
 11
346.38
 21
552.384
  0
LINE
  8
0
 10
346.38
 20
552.384
 11
346.355
 21
552.227
  0
LINE
  8
0
 10
346.355
 20
552.227
 11
346.32
 21
552.072
  0
LINE
  8
0
 10
346.32
 20
552.072
 11
346.275
 21
551.92
  0
LINE
  8
0
 10
346.275
 20
551.92
 11
346.221
 21
551.771
  0
LINE
  8
0
 10
346.221
 20
551.771
 11
346.157
 21
551.625
  0
LINE
  8
0
 10
346.157
 20
551.625
 11
346.085
 21
551.484
  0
LINE
  8
0
 10
346.085
 20
551.484
 11
346.003
 21
551.348
  0
LINE
  8
0
 10
346.003
 20
551.348
 11
345.913
 21
551.218
  0
LINE
  8
0
 10
345.913
 20
551.218
 11
345.815
 21
551.093
  0
LINE
  8
0
 10
345.815
 20
551.093
 11
345.709
 21
550.975
  0
LINE
  8
0
 10
345.709
 20
550.975
 11
345.596
 21
550.864
  0
LINE
  8
0
 10
345.596
 20
550.864
 11
345.476
 21
550.76
  0
LINE
  8
0
 10
345.476
 20
550.76
 11
345.35
 21
550.664
  0
LINE
  8
0
 10
345.35
 20
550.664
 11
345.218
 21
550.576
  0
LINE
  8
0
 10
345.218
 20
550.576
 11
345.081
 21
550.496
  0
LINE
  8
0
 10
345.081
 20
550.496
 11
344.939
 21
550.426
  0
LINE
  8
0
 10
344.939
 20
550.426
 11
344.792
 21
550.365
  0
LINE
  8
0
 10
344.792
 20
550.365
 11
344.642
 21
550.313
  0
LINE
  8
0
 10
344.642
 20
550.313
 11
344.489
 21
550.27
  0
LINE
  8
0
 10
344.489
 20
550.27
 11
344.334
 21
550.238
  0
LINE
  8
0
 10
344.334
 20
550.238
 11
344.177
 21
550.215
  0
LINE
  8
0
 10
344.177
 20
550.215
 11
344.019
 21
550.203
  0
LINE
  8
0
 10
344.019
 20
550.203
 11
343.86
 21
550.2
  0
LINE
  8
0
 10
343.86
 20
550.2
 11
343.702
 21
550.208
  0
LINE
  8
0
 10
311.223
 20
492.494
 11
309.331
 21
492.705
  0
LINE
  8
0
 10
309.331
 20
492.705
 11
307.456
 21
493.036
  0
LINE
  8
0
 10
307.456
 20
493.036
 11
305.606
 21
493.485
  0
LINE
  8
0
 10
305.606
 20
493.485
 11
303.788
 21
494.05
  0
LINE
  8
0
 10
303.788
 20
494.05
 11
302.01
 21
494.729
  0
LINE
  8
0
 10
302.01
 20
494.729
 11
300.278
 21
495.52
  0
LINE
  8
0
 10
300.278
 20
495.52
 11
298.6
 21
496.419
  0
LINE
  8
0
 10
298.6
 20
496.419
 11
296.982
 21
497.423
  0
LINE
  8
0
 10
296.982
 20
497.423
 11
295.432
 21
498.527
  0
LINE
  8
0
 10
295.432
 20
498.527
 11
293.954
 21
499.728
  0
LINE
  8
0
 10
293.954
 20
499.728
 11
292.556
 21
501.019
  0
LINE
  8
0
 10
292.556
 20
501.019
 11
291.242
 21
502.397
  0
LINE
  8
0
 10
291.242
 20
502.397
 11
290.018
 21
503.855
  0
LINE
  8
0
 10
290.018
 20
503.855
 11
288.89
 21
505.388
  0
LINE
  8
0
 10
288.89
 20
505.388
 11
287.861
 21
506.99
  0
LINE
  8
0
 10
287.861
 20
506.99
 11
286.935
 21
508.653
  0
LINE
  8
0
 10
286.935
 20
508.653
 11
286.117
 21
510.372
  0
LINE
  8
0
 10
286.117
 20
510.372
 11
285.409
 21
512.139
  0
LINE
  8
0
 10
285.409
 20
512.139
 11
284.815
 21
513.948
  0
LINE
  8
0
 10
284.815
 20
513.948
 11
284.337
 21
515.791
  0
LINE
  8
0
 10
284.337
 20
515.791
 11
283.977
 21
517.66
  0
LINE
  8
0
 10
283.977
 20
517.66
 11
283.736
 21
519.548
  0
LINE
  8
0
 10
283.736
 20
519.548
 11
283.615
 21
521.448
  0
LINE
  8
0
 10
283.615
 20
521.448
 11
283.615
 21
523.352
  0
LINE
  8
0
 10
283.615
 20
523.352
 11
283.736
 21
525.252
  0
LINE
  8
0
 10
283.736
 20
525.252
 11
283.977
 21
527.14
  0
LINE
  8
0
 10
283.977
 20
527.14
 11
284.337
 21
529.009
  0
LINE
  8
0
 10
284.337
 20
529.009
 11
284.815
 21
530.852
  0
LINE
  8
0
 10
284.815
 20
530.852
 11
285.409
 21
532.661
  0
LINE
  8
0
 10
285.409
 20
532.661
 11
286.117
 21
534.428
  0
LINE
  8
0
 10
286.117
 20
534.428
 11
286.935
 21
536.147
  0
LINE
  8
0
 10
286.935
 20
536.147
 11
287.861
 21
537.81
  0
LINE
  8
0
 10
287.861
 20
537.81
 11
288.89
 21
539.412
  0
LINE
  8
0
 10
288.89
 20
539.412
 11
290.018
 21
540.945
  0
LINE
  8
0
 10
290.018
 20
540.945
 11
291.242
 21
542.403
  0
LINE
  8
0
 10
291.242
 20
542.403
 11
292.556
 21
543.781
  0
LINE
  8
0
 10
292.556
 20
543.781
 11
293.954
 21
545.073
  0
LINE
  8
0
 10
293.954
 20
545.073
 11
295.432
 21
546.273
  0
LINE
  8
0
 10
295.432
 20
546.273
 11
296.982
 21
547.377
  0
LINE
  8
0
 10
296.982
 20
547.377
 11
298.6
 21
548.381
  0
LINE
  8
0
 10
298.6
 20
548.381
 11
300.278
 21
549.28
  0
LINE
  8
0
 10
300.278
 20
549.28
 11
302.01
 21
550.071
  0
LINE
  8
0
 10
302.01
 20
550.071
 11
303.788
 21
550.75
  0
LINE
  8
0
 10
303.788
 20
550.75
 11
305.606
 21
551.315
  0
LINE
  8
0
 10
305.606
 20
551.315
 11
307.456
 21
551.764
  0
LINE
  8
0
 10
307.456
 20
551.764
 11
309.331
 21
552.095
  0
LINE
  8
0
 10
309.331
 20
552.095
 11
311.223
 21
552.306
  0
LINE
  8
0
 10
311.223
 20
552.306
 11
313.124
 21
552.396
  0
LINE
  8
0
 10
313.124
 20
552.396
 11
315.027
 21
552.366
  0
LINE
  8
0
 10
315.027
 20
552.366
 11
316.925
 21
552.215
  0
LINE
  8
0
 10
316.925
 20
552.215
 11
318.809
 21
551.944
  0
LINE
  8
0
 10
318.809
 20
551.944
 11
320.673
 21
551.554
  0
LINE
  8
0
 10
320.673
 20
551.554
 11
322.508
 21
551.047
  0
LINE
  8
0
 10
322.508
 20
551.047
 11
324.307
 21
550.424
  0
LINE
  8
0
 10
324.307
 20
550.424
 11
326.062
 21
549.689
  0
LINE
  8
0
 10
326.062
 20
549.689
 11
327.768
 21
548.844
  0
LINE
  8
0
 10
327.768
 20
548.844
 11
329.417
 21
547.892
  0
LINE
  8
0
 10
329.417
 20
547.892
 11
331.002
 21
546.837
  0
LINE
  8
0
 10
331.002
 20
546.837
 11
332.517
 21
545.684
  0
LINE
  8
0
 10
332.517
 20
545.684
 11
333.955
 21
544.438
  0
LINE
  8
0
 10
333.955
 20
544.438
 11
335.312
 21
543.102
  0
LINE
  8
0
 10
335.312
 20
543.102
 11
336.581
 21
541.684
  0
LINE
  8
0
 10
336.581
 20
541.684
 11
337.758
 21
540.187
  0
LINE
  8
0
 10
337.758
 20
540.187
 11
338.838
 21
538.619
  0
LINE
  8
0
 10
338.838
 20
538.619
 11
339.815
 21
536.986
  0
LINE
  8
0
 10
339.815
 20
536.986
 11
340.688
 21
535.294
  0
LINE
  8
0
 10
340.688
 20
535.294
 11
341.451
 21
533.55
  0
LINE
  8
0
 10
341.451
 20
533.55
 11
342.102
 21
531.761
  0
LINE
  8
0
 10
342.102
 20
531.761
 11
342.638
 21
529.934
  0
LINE
  8
0
 10
342.638
 20
529.934
 11
343.058
 21
528.078
  0
LINE
  8
0
 10
343.058
 20
528.078
 11
343.359
 21
526.198
  0
LINE
  8
0
 10
343.359
 20
526.198
 11
343.54
 21
524.303
  0
LINE
  8
0
 10
343.54
 20
524.303
 11
343.6
 21
522.4
  0
LINE
  8
0
 10
343.6
 20
522.4
 11
343.54
 21
520.497
  0
LINE
  8
0
 10
343.54
 20
520.497
 11
343.359
 21
518.602
  0
LINE
  8
0
 10
343.359
 20
518.602
 11
343.058
 21
516.722
  0
LINE
  8
0
 10
343.058
 20
516.722
 11
342.638
 21
514.866
  0
LINE
  8
0
 10
342.638
 20
514.866
 11
342.102
 21
513.039
  0
LINE
  8
0
 10
342.102
 20
513.039
 11
341.451
 21
511.25
  0
LINE
  8
0
 10
341.451
 20
511.25
 11
340.688
 21
509.506
  0
LINE
  8
0
 10
340.688
 20
509.506
 11
339.815
 21
507.814
  0
LINE
  8
0
 10
339.815
 20
507.814
 11
338.838
 21
506.181
  0
LINE
  8
0
 10
338.838
 20
506.181
 11
337.758
 21
504.613
  0
LINE
  8
0
 10
337.758
 20
504.613
 11
336.581
 21
503.116
  0
LINE
  8
0
 10
336.581
 20
503.116
 11
335.312
 21
501.698
  0
LINE
  8
0
 10
335.312
 20
501.698
 11
333.955
 21
500.362
  0
LINE
  8
0
 10
333.955
 20
500.362
 11
332.517
 21
499.116
  0
LINE
  8
0
 10
332.517
 20
499.116
 11
331.002
 21
497.963
  0
LINE
  8
0
 10
331.002
 20
497.963
 11
329.417
 21
496.908
  0
LINE
  8
0
 10
329.417
 20
496.908
 11
327.768
 21
495.956
  0
LINE
  8
0
 10
327.768
 20
495.956
 11
326.062
 21
495.111
  0
LINE
  8
0
 10
326.062
 20
495.111
 11
324.307
 21
494.376
  0
LINE
  8
0
 10
324.307
 20
494.376
 11
322.508
 21
493.753
  0
LINE
  8
0
 10
322.508
 20
493.753
 11
320.673
 21
493.246
  0
LINE
  8
0
 10
320.673
 20
493.246
 11
318.809
 21
492.856
  0
LINE
  8
0
 10
318.809
 20
492.856
 11
316.925
 21
492.585
  0
LINE
  8
0
 10
316.925
 20
492.585
 11
315.027
 21
492.434
  0
LINE
  8
0
 10
315.027
 20
492.434
 11
313.124
 21
492.404
  0
LINE
  8
0
 10
313.124
 20
492.404
 11
311.223
 21
492.494
  0
LINE
  8
0
 10
288.481
 20
544.903
 11
288.323
 21
544.915
  0
LINE
  8
0
 10
288.323
 20
544.915
 11
288.166
 21
544.938
  0
LINE
  8
0
 10
288.166
 20
544.938
 11
288.011
 21
544.97
  0
LINE
  8
0
 10
288.011
 20
544.97
 11
287.858
 21
545.013
  0
LINE
  8
0
 10
287.858
 20
545.013
 11
287.708
 21
545.065
  0
LINE
  8
0
 10
287.708
 20
545.065
 11
287.561
 21
545.126
  0
LINE
  8
0
 10
287.561
 20
545.126
 11
287.419
 21
545.196
  0
LINE
  8
0
 10
287.419
 20
545.196
 11
287.282
 21
545.276
  0
LINE
  8
0
 10
287.282
 20
545.276
 11
287.15
 21
545.364
  0
LINE
  8
0
 10
287.15
 20
545.364
 11
287.024
 21
545.46
  0
LINE
  8
0
 10
287.024
 20
545.46
 11
286.904
 21
545.564
  0
LINE
  8
0
 10
286.904
 20
545.564
 11
286.791
 21
545.675
  0
LINE
  8
0
 10
286.791
 20
545.675
 11
286.685
 21
545.793
  0
LINE
  8
0
 10
286.685
 20
545.793
 11
286.587
 21
545.918
  0
LINE
  8
0
 10
286.587
 20
545.918
 11
286.497
 21
546.048
  0
LINE
  8
0
 10
286.497
 20
546.048
 11
286.415
 21
546.185
  0
LINE
  8
0
 10
286.415
 20
546.185
 11
286.343
 21
546.326
  0
LINE
  8
0
 10
286.343
 20
546.326
 11
286.279
 21
546.471
  0
LINE
  8
0
 10
286.279
 20
546.471
 11
286.225
 21
546.62
  0
LINE
  8
0
 10
286.225
 20
546.62
 11
286.18
 21
546.772
  0
LINE
  8
0
 10
286.18
 20
546.772
 11
286.145
 21
546.927
  0
LINE
  8
0
 10
286.145
 20
546.927
 11
286.12
 21
547.083
  0
LINE
  8
0
 10
286.12
 20
547.083
 11
286.105
 21
547.241
  0
LINE
  8
0
 10
286.105
 20
547.241
 11
286.1
 21
547.4
  0
LINE
  8
0
 10
286.1
 20
547.4
 11
286.105
 21
547.559
  0
LINE
  8
0
 10
286.105
 20
547.559
 11
286.12
 21
547.716
  0
LINE
  8
0
 10
286.12
 20
547.716
 11
286.145
 21
547.873
  0
LINE
  8
0
 10
286.145
 20
547.873
 11
286.18
 21
548.028
  0
LINE
  8
0
 10
286.18
 20
548.028
 11
286.225
 21
548.18
  0
LINE
  8
0
 10
286.225
 20
548.18
 11
286.279
 21
548.329
  0
LINE
  8
0
 10
286.279
 20
548.329
 11
286.343
 21
548.474
  0
LINE
  8
0
 10
286.343
 20
548.474
 11
286.415
 21
548.615
  0
LINE
  8
0
 10
286.415
 20
548.615
 11
286.497
 21
548.752
  0
LINE
  8
0
 10
286.497
 20
548.752
 11
286.587
 21
548.882
  0
LINE
  8
0
 10
286.587
 20
548.882
 11
286.685
 21
549.007
  0
LINE
  8
0
 10
286.685
 20
549.007
 11
286.791
 21
549.125
  0
LINE
  8
0
 10
286.791
 20
549.125
 11
286.904
 21
549.236
  0
LINE
  8
0
 10
286.904
 20
549.236
 11
287.024
 21
549.34
  0
LINE
  8
0
 10
287.024
 20
549.34
 11
287.15
 21
549.436
  0
LINE
  8
0
 10
287.15
 20
549.436
 11
287.282
 21
549.524
  0
LINE
  8
0
 10
287.282
 20
549.524
 11
287.419
 21
549.604
  0
LINE
  8
0
 10
287.419
 20
549.604
 11
287.561
 21
549.674
  0
LINE
  8
0
 10
287.561
 20
549.674
 11
287.708
 21
549.735
  0
LINE
  8
0
 10
287.708
 20
549.735
 11
287.858
 21
549.787
  0
LINE
  8
0
 10
287.858
 20
549.787
 11
288.011
 21
549.83
  0
LINE
  8
0
 10
288.011
 20
549.83
 11
288.166
 21
549.862
  0
LINE
  8
0
 10
288.166
 20
549.862
 11
288.323
 21
549.885
  0
LINE
  8
0
 10
288.323
 20
549.885
 11
288.481
 21
549.897
  0
LINE
  8
0
 10
288.481
 20
549.897
 11
288.64
 21
549.9
  0
LINE
  8
0
 10
288.64
 20
549.9
 11
288.798
 21
549.892
  0
LINE
  8
0
 10
288.798
 20
549.892
 11
288.956
 21
549.875
  0
LINE
  8
0
 10
288.956
 20
549.875
 11
289.112
 21
549.847
  0
LINE
  8
0
 10
289.112
 20
549.847
 11
289.266
 21
549.81
  0
LINE
  8
0
 10
289.266
 20
549.81
 11
289.418
 21
549.763
  0
LINE
  8
0
 10
289.418
 20
549.763
 11
289.566
 21
549.706
  0
LINE
  8
0
 10
289.566
 20
549.706
 11
289.71
 21
549.64
  0
LINE
  8
0
 10
289.71
 20
549.64
 11
289.85
 21
549.565
  0
LINE
  8
0
 10
289.85
 20
549.565
 11
289.985
 21
549.481
  0
LINE
  8
0
 10
289.985
 20
549.481
 11
290.114
 21
549.389
  0
LINE
  8
0
 10
290.114
 20
549.389
 11
290.237
 21
549.289
  0
LINE
  8
0
 10
290.237
 20
549.289
 11
290.354
 21
549.182
  0
LINE
  8
0
 10
290.354
 20
549.182
 11
290.463
 21
549.067
  0
LINE
  8
0
 10
290.463
 20
549.067
 11
290.565
 21
548.945
  0
LINE
  8
0
 10
290.565
 20
548.945
 11
290.659
 21
548.818
  0
LINE
  8
0
 10
290.659
 20
548.818
 11
290.745
 21
548.684
  0
LINE
  8
0
 10
290.745
 20
548.684
 11
290.822
 21
548.546
  0
LINE
  8
0
 10
290.822
 20
548.546
 11
290.89
 21
548.402
  0
LINE
  8
0
 10
290.89
 20
548.402
 11
290.949
 21
548.255
  0
LINE
  8
0
 10
290.949
 20
548.255
 11
290.999
 21
548.104
  0
LINE
  8
0
 10
290.999
 20
548.104
 11
291.039
 21
547.951
  0
LINE
  8
0
 10
291.039
 20
547.951
 11
291.069
 21
547.795
  0
LINE
  8
0
 10
291.069
 20
547.795
 11
291.089
 21
547.638
  0
LINE
  8
0
 10
291.089
 20
547.638
 11
291.099
 21
547.479
  0
LINE
  8
0
 10
291.099
 20
547.479
 11
291.099
 21
547.321
  0
LINE
  8
0
 10
291.099
 20
547.321
 11
291.089
 21
547.162
  0
LINE
  8
0
 10
291.089
 20
547.162
 11
291.069
 21
547.005
  0
LINE
  8
0
 10
291.069
 20
547.005
 11
291.039
 21
546.849
  0
LINE
  8
0
 10
291.039
 20
546.849
 11
290.999
 21
546.696
  0
LINE
  8
0
 10
290.999
 20
546.696
 11
290.949
 21
546.545
  0
LINE
  8
0
 10
290.949
 20
546.545
 11
290.89
 21
546.398
  0
LINE
  8
0
 10
290.89
 20
546.398
 11
290.822
 21
546.254
  0
LINE
  8
0
 10
290.822
 20
546.254
 11
290.745
 21
546.116
  0
LINE
  8
0
 10
290.745
 20
546.116
 11
290.659
 21
545.982
  0
LINE
  8
0
 10
290.659
 20
545.982
 11
290.565
 21
545.855
  0
LINE
  8
0
 10
290.565
 20
545.855
 11
290.463
 21
545.733
  0
LINE
  8
0
 10
290.463
 20
545.733
 11
290.354
 21
545.618
  0
LINE
  8
0
 10
290.354
 20
545.618
 11
290.237
 21
545.511
  0
LINE
  8
0
 10
290.237
 20
545.511
 11
290.114
 21
545.411
  0
LINE
  8
0
 10
290.114
 20
545.411
 11
289.985
 21
545.319
  0
LINE
  8
0
 10
289.985
 20
545.319
 11
289.85
 21
545.235
  0
LINE
  8
0
 10
289.85
 20
545.235
 11
289.71
 21
545.16
  0
LINE
  8
0
 10
289.71
 20
545.16
 11
289.566
 21
545.094
  0
LINE
  8
0
 10
289.566
 20
545.094
 11
289.418
 21
545.037
  0
LINE
  8
0
 10
289.418
 20
545.037
 11
289.266
 21
544.99
  0
LINE
  8
0
 10
289.266
 20
544.99
 11
289.112
 21
544.953
  0
LINE
  8
0
 10
289.112
 20
544.953
 11
288.956
 21
544.925
  0
LINE
  8
0
 10
288.956
 20
544.925
 11
288.798
 21
544.908
  0
LINE
  8
0
 10
288.798
 20
544.908
 11
288.64
 21
544.9
  0
LINE
  8
0
 10
288.64
 20
544.9
 11
288.481
 21
544.903
  0
LINE
  8
0
 10
338.402
 20
544.908
 11
338.244
 21
544.925
  0
LINE
  8
0
 10
338.244
 20
544.925
 11
338.088
 21
544.953
  0
LINE
  8
0
 10
338.088
 20
544.953
 11
337.934
 21
544.99
  0
LINE
  8
0
 10
337.934
 20
544.99
 11
337.782
 21
545.037
  0
LINE
  8
0
 10
337.782
 20
545.037
 11
337.634
 21
545.094
  0
LINE
  8
0
 10
337.634
 20
545.094
 11
337.49
 21
545.16
  0
LINE
  8
0
 10
337.49
 20
545.16
 11
337.35
 21
545.235
  0
LINE
  8
0
 10
337.35
 20
545.235
 11
337.215
 21
545.319
  0
LINE
  8
0
 10
337.215
 20
545.319
 11
337.086
 21
545.411
  0
LINE
  8
0
 10
337.086
 20
545.411
 11
336.963
 21
545.511
  0
LINE
  8
0
 10
336.963
 20
545.511
 11
336.846
 21
545.618
  0
LINE
  8
0
 10
336.846
 20
545.618
 11
336.737
 21
545.733
  0
LINE
  8
0
 10
336.737
 20
545.733
 11
336.635
 21
545.855
  0
LINE
  8
0
 10
336.635
 20
545.855
 11
336.541
 21
545.982
  0
LINE
  8
0
 10
336.541
 20
545.982
 11
336.455
 21
546.116
  0
LINE
  8
0
 10
336.455
 20
546.116
 11
336.378
 21
546.254
  0
LINE
  8
0
 10
336.378
 20
546.254
 11
336.31
 21
546.398
  0
LINE
  8
0
 10
336.31
 20
546.398
 11
336.251
 21
546.545
  0
LINE
  8
0
 10
336.251
 20
546.545
 11
336.201
 21
546.696
  0
LINE
  8
0
 10
336.201
 20
546.696
 11
336.161
 21
546.849
  0
LINE
  8
0
 10
336.161
 20
546.849
 11
336.131
 21
547.005
  0
LINE
  8
0
 10
336.131
 20
547.005
 11
336.111
 21
547.162
  0
LINE
  8
0
 10
336.111
 20
547.162
 11
336.101
 21
547.321
  0
LINE
  8
0
 10
336.101
 20
547.321
 11
336.101
 21
547.479
  0
LINE
  8
0
 10
336.101
 20
547.479
 11
336.111
 21
547.638
  0
LINE
  8
0
 10
336.111
 20
547.638
 11
336.131
 21
547.795
  0
LINE
  8
0
 10
336.131
 20
547.795
 11
336.161
 21
547.951
  0
LINE
  8
0
 10
336.161
 20
547.951
 11
336.201
 21
548.104
  0
LINE
  8
0
 10
336.201
 20
548.104
 11
336.251
 21
548.255
  0
LINE
  8
0
 10
336.251
 20
548.255
 11
336.31
 21
548.402
  0
LINE
  8
0
 10
336.31
 20
548.402
 11
336.378
 21
548.546
  0
LINE
  8
0
 10
336.378
 20
548.546
 11
336.455
 21
548.684
  0
LINE
  8
0
 10
336.455
 20
548.684
 11
336.541
 21
548.818
  0
LINE
  8
0
 10
336.541
 20
548.818
 11
336.635
 21
548.945
  0
LINE
  8
0
 10
336.635
 20
548.945
 11
336.737
 21
549.067
  0
LINE
  8
0
 10
336.737
 20
549.067
 11
336.846
 21
549.182
  0
LINE
  8
0
 10
336.846
 20
549.182
 11
336.963
 21
549.289
  0
LINE
  8
0
 10
336.963
 20
549.289
 11
337.086
 21
549.389
  0
LINE
  8
0
 10
337.086
 20
549.389
 11
337.215
 21
549.481
  0
LINE
  8
0
 10
337.215
 20
549.481
 11
337.35
 21
549.565
  0
LINE
  8
0
 10
337.35
 20
549.565
 11
337.49
 21
549.64
  0
LINE
  8
0
 10
337.49
 20
549.64
 11
337.634
 21
549.706
  0
LINE
  8
0
 10
337.634
 20
549.706
 11
337.782
 21
549.763
  0
LINE
  8
0
 10
337.782
 20
549.763
 11
337.934
 21
549.81
  0
LINE
  8
0
 10
337.934
 20
549.81
 11
338.088
 21
549.847
  0
LINE
  8
0
 10
338.088
 20
549.847
 11
338.244
 21
549.875
  0
LINE
  8
0
 10
338.244
 20
549.875
 11
338.402
 21
549.892
  0
LINE
  8
0
 10
338.402
 20
549.892
 11
338.56
 21
549.9
  0
LINE
  8
0
 10
338.56
 20
549.9
 11
338.719
 21
549.897
  0
LINE
  8
0
 10
338.719
 20
549.897
 11
338.877
 21
549.885
  0
LINE
  8
0
 10
338.877
 20
549.885
 11
339.034
 21
549.862
  0
LINE
  8
0
 10
339.034
 20
549.862
 11
339.189
 21
549.83
  0
LINE
  8
0
 10
339.189
 20
549.83
 11
339.342
 21
549.787
  0
LINE
  8
0
 10
339.342
 20
549.787
 11
339.492
 21
549.735
  0
LINE
  8
0
 10
339.492
 20
549.735
 11
339.639
 21
549.674
  0
LINE
  8
0
 10
339.639
 20
549.674
 11
339.781
 21
549.604
  0
LINE
  8
0
 10
339.781
 20
549.604
 11
339.918
 21
549.524
  0
LINE
  8
0
 10
339.918
 20
549.524
 11
340.05
 21
549.436
  0
LINE
  8
0
 10
340.05
 20
549.436
 11
340.176
 21
549.34
  0
LINE
  8
0
 10
340.176
 20
549.34
 11
340.296
 21
549.236
  0
LINE
  8
0
 10
340.296
 20
549.236
 11
340.409
 21
549.125
  0
LINE
  8
0
 10
340.409
 20
549.125
 11
340.515
 21
549.007
  0
LINE
  8
0
 10
340.515
 20
549.007
 11
340.613
 21
548.882
  0
LINE
  8
0
 10
340.613
 20
548.882
 11
340.703
 21
548.752
  0
LINE
  8
0
 10
340.703
 20
548.752
 11
340.785
 21
548.615
  0
LINE
  8
0
 10
340.785
 20
548.615
 11
340.857
 21
548.474
  0
LINE
  8
0
 10
340.857
 20
548.474
 11
340.921
 21
548.329
  0
LINE
  8
0
 10
340.921
 20
548.329
 11
340.975
 21
548.18
  0
LINE
  8
0
 10
340.975
 20
548.18
 11
341.02
 21
548.028
  0
LINE
  8
0
 10
341.02
 20
548.028
 11
341.055
 21
547.873
  0
LINE
  8
0
 10
341.055
 20
547.873
 11
341.08
 21
547.716
  0
LINE
  8
0
 10
341.08
 20
547.716
 11
341.095
 21
547.559
  0
LINE
  8
0
 10
341.095
 20
547.559
 11
341.1
 21
547.4
  0
LINE
  8
0
 10
341.1
 20
547.4
 11
341.095
 21
547.241
  0
LINE
  8
0
 10
341.095
 20
547.241
 11
341.08
 21
547.083
  0
LINE
  8
0
 10
341.08
 20
547.083
 11
341.055
 21
546.927
  0
LINE
  8
0
 10
341.055
 20
546.927
 11
341.02
 21
546.772
  0
LINE
  8
0
 10
341.02
 20
546.772
 11
340.975
 21
546.62
  0
LINE
  8
0
 10
340.975
 20
546.62
 11
340.921
 21
546.471
  0
LINE
  8
0
 10
340.921
 20
546.471
 11
340.857
 21
546.326
  0
LINE
  8
0
 10
340.857
 20
546.326
 11
340.785
 21
546.185
  0
LINE
  8
0
 10
340.785
 20
546.185
 11
340.703
 21
546.048
  0
LINE
  8
0
 10
340.703
 20
546.048
 11
340.613
 21
545.918
  0
LINE
  8
0
 10
340.613
 20
545.918
 11
340.515
 21
545.793
  0
LINE
  8
0
 10
340.515
 20
545.793
 11
340.409
 21
545.675
  0
LINE
  8
0
 10
340.409
 20
545.675
 11
340.296
 21
545.564
  0
LINE
  8
0
 10
340.296
 20
545.564
 11
340.176
 21
545.46
  0
LINE
  8
0
 10
340.176
 20
545.46
 11
340.05
 21
545.364
  0
LINE
  8
0
 10
340.05
 20
545.364
 11
339.918
 21
545.276
  0
LINE
  8
0
 10
339.918
 20
545.276
 11
339.781
 21
545.196
  0
LINE
  8
0
 10
339.781
 20
545.196
 11
339.639
 21
545.126
  0
LINE
  8
0
 10
339.639
 20
545.126
 11
339.492
 21
545.065
  0
LINE
  8
0
 10
339.492
 20
545.065
 11
339.342
 21
545.013
  0
LINE
  8
0
 10
339.342
 20
545.013
 11
339.189
 21
544.97
  0
LINE
  8
0
 10
339.189
 20
544.97
 11
339.034
 21
544.938
  0
LINE
  8
0
 10
339.034
 20
544.938
 11
338.877
 21
544.915
  0
LINE
  8
0
 10
338.877
 20
544.915
 11
338.719
 21
544.903
  0
LINE
  8
0
 10
338.719
 20
544.903
 11
338.56
 21
544.9
  0
LINE
  8
0
 10
338.56
 20
544.9
 11
338.402
 21
544.908
  0
LINE
  8
0
 10
338.402
 20
494.908
 11
338.244
 21
494.925
  0
LINE
  8
0
 10
338.244
 20
494.925
 11
338.088
 21
494.953
  0
LINE
  8
0
 10
338.088
 20
494.953
 11
337.934
 21
494.99
  0
LINE
  8
0
 10
337.934
 20
494.99
 11
337.782
 21
495.038
  0
LINE
  8
0
 10
337.782
 20
495.038
 11
337.634
 21
495.094
  0
LINE
  8
0
 10
337.634
 20
495.094
 11
337.49
 21
495.16
  0
LINE
  8
0
 10
337.49
 20
495.16
 11
337.35
 21
495.235
  0
LINE
  8
0
 10
337.35
 20
495.235
 11
337.215
 21
495.319
  0
LINE
  8
0
 10
337.215
 20
495.319
 11
337.086
 21
495.411
  0
LINE
  8
0
 10
337.086
 20
495.411
 11
336.963
 21
495.511
  0
LINE
  8
0
 10
336.963
 20
495.511
 11
336.846
 21
495.618
  0
LINE
  8
0
 10
336.846
 20
495.618
 11
336.737
 21
495.733
  0
LINE
  8
0
 10
336.737
 20
495.733
 11
336.635
 21
495.855
  0
LINE
  8
0
 10
336.635
 20
495.855
 11
336.541
 21
495.982
  0
LINE
  8
0
 10
336.541
 20
495.982
 11
336.455
 21
496.116
  0
LINE
  8
0
 10
336.455
 20
496.116
 11
336.378
 21
496.254
  0
LINE
  8
0
 10
336.378
 20
496.254
 11
336.31
 21
496.398
  0
LINE
  8
0
 10
336.31
 20
496.398
 11
336.251
 21
496.545
  0
LINE
  8
0
 10
336.251
 20
496.545
 11
336.201
 21
496.696
  0
LINE
  8
0
 10
336.201
 20
496.696
 11
336.161
 21
496.849
  0
LINE
  8
0
 10
336.161
 20
496.849
 11
336.131
 21
497.005
  0
LINE
  8
0
 10
336.131
 20
497.005
 11
336.111
 21
497.162
  0
LINE
  8
0
 10
336.111
 20
497.162
 11
336.101
 21
497.321
  0
LINE
  8
0
 10
336.101
 20
497.321
 11
336.101
 21
497.479
  0
LINE
  8
0
 10
336.101
 20
497.479
 11
336.111
 21
497.638
  0
LINE
  8
0
 10
336.111
 20
497.638
 11
336.131
 21
497.795
  0
LINE
  8
0
 10
336.131
 20
497.795
 11
336.161
 21
497.951
  0
LINE
  8
0
 10
336.161
 20
497.951
 11
336.201
 21
498.104
  0
LINE
  8
0
 10
336.201
 20
498.104
 11
336.251
 21
498.255
  0
LINE
  8
0
 10
336.251
 20
498.255
 11
336.31
 21
498.402
  0
LINE
  8
0
 10
336.31
 20
498.402
 11
336.378
 21
498.546
  0
LINE
  8
0
 10
336.378
 20
498.546
 11
336.455
 21
498.684
  0
LINE
  8
0
 10
336.455
 20
498.684
 11
336.541
 21
498.818
  0
LINE
  8
0
 10
336.541
 20
498.818
 11
336.635
 21
498.945
  0
LINE
  8
0
 10
336.635
 20
498.945
 11
336.737
 21
499.067
  0
LINE
  8
0
 10
336.737
 20
499.067
 11
336.846
 21
499.182
  0
LINE
  8
0
 10
336.846
 20
499.182
 11
336.963
 21
499.289
  0
LINE
  8
0
 10
336.963
 20
499.289
 11
337.086
 21
499.389
  0
LINE
  8
0
 10
337.086
 20
499.389
 11
337.215
 21
499.481
  0
LINE
  8
0
 10
337.215
 20
499.481
 11
337.35
 21
499.565
  0
LINE
  8
0
 10
337.35
 20
499.565
 11
337.49
 21
499.64
  0
LINE
  8
0
 10
337.49
 20
499.64
 11
337.634
 21
499.706
  0
LINE
  8
0
 10
337.634
 20
499.706
 11
337.782
 21
499.763
  0
LINE
  8
0
 10
337.782
 20
499.763
 11
337.934
 21
499.81
  0
LINE
  8
0
 10
337.934
 20
499.81
 11
338.088
 21
499.847
  0
LINE
  8
0
 10
338.088
 20
499.847
 11
338.244
 21
499.875
  0
LINE
  8
0
 10
338.244
 20
499.875
 11
338.402
 21
499.892
  0
LINE
  8
0
 10
338.402
 20
499.892
 11
338.56
 21
499.9
  0
LINE
  8
0
 10
338.56
 20
499.9
 11
338.719
 21
499.897
  0
LINE
  8
0
 10
338.719
 20
499.897
 11
338.877
 21
499.885
  0
LINE
  8
0
 10
338.877
 20
499.885
 11
339.034
 21
499.862
  0
LINE
  8
0
 10
339.034
 20
499.862
 11
339.189
 21
499.83
  0
LINE
  8
0
 10
339.189
 20
499.83
 11
339.342
 21
499.787
  0
LINE
  8
0
 10
339.342
 20
499.787
 11
339.492
 21
499.735
  0
LINE
  8
0
 10
339.492
 20
499.735
 11
339.639
 21
499.674
  0
LINE
  8
0
 10
339.639
 20
499.674
 11
339.781
 21
499.604
  0
LINE
  8
0
 10
339.781
 20
499.604
 11
339.918
 21
499.524
  0
LINE
  8
0
 10
339.918
 20
499.524
 11
340.05
 21
499.436
  0
LINE
  8
0
 10
340.05
 20
499.436
 11
340.176
 21
499.34
  0
LINE
  8
0
 10
340.176
 20
499.34
 11
340.296
 21
499.236
  0
LINE
  8
0
 10
340.296
 20
499.236
 11
340.409
 21
499.125
  0
LINE
  8
0
 10
340.409
 20
499.125
 11
340.515
 21
499.007
  0
LINE
  8
0
 10
340.515
 20
499.007
 11
340.613
 21
498.882
  0
LINE
  8
0
 10
340.613
 20
498.882
 11
340.703
 21
498.752
  0
LINE
  8
0
 10
340.703
 20
498.752
 11
340.785
 21
498.615
  0
LINE
  8
0
 10
340.785
 20
498.615
 11
340.857
 21
498.474
  0
LINE
  8
0
 10
340.857
 20
498.474
 11
340.921
 21
498.329
  0
LINE
  8
0
 10
340.921
 20
498.329
 11
340.975
 21
498.18
  0
LINE
  8
0
 10
340.975
 20
498.18
 11
341.02
 21
498.028
  0
LINE
  8
0
 10
341.02
 20
498.028
 11
341.055
 21
497.873
  0
LINE
  8
0
 10
341.055
 20
497.873
 11
341.08
 21
497.716
  0
LINE
  8
0
 10
341.08
 20
497.716
 11
341.095
 21
497.559
  0
LINE
  8
0
 10
341.095
 20
497.559
 11
341.1
 21
497.4
  0
LINE
  8
0
 10
341.1
 20
497.4
 11
341.095
 21
497.241
  0
LINE
  8
0
 10
341.095
 20
497.241
 11
341.08
 21
497.084
  0
LINE
  8
0
 10
341.08
 20
497.084
 11
341.055
 21
496.927
  0
LINE
  8
0
 10
341.055
 20
496.927
 11
341.02
 21
496.772
  0
LINE
  8
0
 10
341.02
 20
496.772
 11
340.975
 21
496.62
  0
LINE
  8
0
 10
340.975
 20
496.62
 11
340.921
 21
496.471
  0
LINE
  8
0
 10
340.921
 20
496.471
 11
340.857
 21
496.326
  0
LINE
  8
0
 10
340.857
 20
496.326
 11
340.785
 21
496.185
  0
LINE
  8
0
 10
340.785
 20
496.185
 11
340.703
 21
496.048
  0
LINE
  8
0
 10
340.703
 20
496.048
 11
340.613
 21
495.918
  0
LINE
  8
0
 10
340.613
 20
495.918
 11
340.515
 21
495.793
  0
LINE
  8
0
 10
340.515
 20
495.793
 11
340.409
 21
495.675
  0
LINE
  8
0
 10
340.409
 20
495.675
 11
340.296
 21
495.564
  0
LINE
  8
0
 10
340.296
 20
495.564
 11
340.176
 21
495.46
  0
LINE
  8
0
 10
340.176
 20
495.46
 11
340.05
 21
495.364
  0
LINE
  8
0
 10
340.05
 20
495.364
 11
339.918
 21
495.276
  0
LINE
  8
0
 10
339.918
 20
495.276
 11
339.781
 21
495.196
  0
LINE
  8
0
 10
339.781
 20
495.196
 11
339.639
 21
495.126
  0
LINE
  8
0
 10
339.639
 20
495.126
 11
339.492
 21
495.065
  0
LINE
  8
0
 10
339.492
 20
495.065
 11
339.342
 21
495.013
  0
LINE
  8
0
 10
339.342
 20
495.013
 11
339.189
 21
494.97
  0
LINE
  8
0
 10
339.189
 20
494.97
 11
339.034
 21
494.938
  0
LINE
  8
0
 10
339.034
 20
494.938
 11
338.877
 21
494.915
  0
LINE
  8
0
 10
338.877
 20
494.915
 11
338.719
 21
494.903
  0
LINE
  8
0
 10
338.719
 20
494.903
 11
338.56
 21
494.9
  0
LINE
  8
0
 10
338.56
 20
494.9
 11
338.402
 21
494.908
  0
LINE
  8
0
 10
288.441
 20
494.905
 11
288.284
 21
494.92
  0
LINE
  8
0
 10
288.284
 20
494.92
 11
288.127
 21
494.945
  0
LINE
  8
0
 10
288.127
 20
494.945
 11
287.972
 21
494.98
  0
LINE
  8
0
 10
287.972
 20
494.98
 11
287.82
 21
495.025
  0
LINE
  8
0
 10
287.82
 20
495.025
 11
287.671
 21
495.079
  0
LINE
  8
0
 10
287.671
 20
495.079
 11
287.526
 21
495.143
  0
LINE
  8
0
 10
287.526
 20
495.143
 11
287.385
 21
495.215
  0
LINE
  8
0
 10
287.385
 20
495.215
 11
287.248
 21
495.297
  0
LINE
  8
0
 10
287.248
 20
495.297
 11
287.118
 21
495.387
  0
LINE
  8
0
 10
287.118
 20
495.387
 11
286.993
 21
495.485
  0
LINE
  8
0
 10
286.993
 20
495.485
 11
286.875
 21
495.591
  0
LINE
  8
0
 10
286.875
 20
495.591
 11
286.764
 21
495.704
  0
LINE
  8
0
 10
286.764
 20
495.704
 11
286.66
 21
495.824
  0
LINE
  8
0
 10
286.66
 20
495.824
 11
286.564
 21
495.95
  0
LINE
  8
0
 10
286.564
 20
495.95
 11
286.476
 21
496.082
  0
LINE
  8
0
 10
286.476
 20
496.082
 11
286.396
 21
496.219
  0
LINE
  8
0
 10
286.396
 20
496.219
 11
286.326
 21
496.361
  0
LINE
  8
0
 10
286.326
 20
496.361
 11
286.265
 21
496.508
  0
LINE
  8
0
 10
286.265
 20
496.508
 11
286.213
 21
496.658
  0
LINE
  8
0
 10
286.213
 20
496.658
 11
286.17
 21
496.811
  0
LINE
  8
0
 10
286.17
 20
496.811
 11
286.138
 21
496.966
  0
LINE
  8
0
 10
286.138
 20
496.966
 11
286.115
 21
497.123
  0
LINE
  8
0
 10
286.115
 20
497.123
 11
286.103
 21
497.281
  0
LINE
  8
0
 10
286.103
 20
497.281
 11
286.1
 21
497.44
  0
LINE
  8
0
 10
286.1
 20
497.44
 11
286.108
 21
497.598
  0
LINE
  8
0
 10
286.108
 20
497.598
 11
286.125
 21
497.756
  0
LINE
  8
0
 10
286.125
 20
497.756
 11
286.153
 21
497.912
  0
LINE
  8
0
 10
286.153
 20
497.912
 11
286.19
 21
498.066
  0
LINE
  8
0
 10
286.19
 20
498.066
 11
286.237
 21
498.218
  0
LINE
  8
0
 10
286.237
 20
498.218
 11
286.294
 21
498.366
  0
LINE
  8
0
 10
286.294
 20
498.366
 11
286.36
 21
498.51
  0
LINE
  8
0
 10
286.36
 20
498.51
 11
286.435
 21
498.65
  0
LINE
  8
0
 10
286.435
 20
498.65
 11
286.519
 21
498.785
  0
LINE
  8
0
 10
286.519
 20
498.785
 11
286.611
 21
498.914
  0
LINE
  8
0
 10
286.611
 20
498.914
 11
286.711
 21
499.037
  0
LINE
  8
0
 10
286.711
 20
499.037
 11
286.818
 21
499.154
  0
LINE
  8
0
 10
286.818
 20
499.154
 11
286.933
 21
499.263
  0
LINE
  8
0
 10
286.933
 20
499.263
 11
287.055
 21
499.365
  0
LINE
  8
0
 10
287.055
 20
499.365
 11
287.182
 21
499.459
  0
LINE
  8
0
 10
287.182
 20
499.459
 11
287.316
 21
499.545
  0
LINE
  8
0
 10
287.316
 20
499.545
 11
287.454
 21
499.622
  0
LINE
  8
0
 10
287.454
 20
499.622
 11
287.598
 21
499.69
  0
LINE
  8
0
 10
287.598
 20
499.69
 11
287.745
 21
499.749
  0
LINE
  8
0
 10
287.745
 20
499.749
 11
287.896
 21
499.799
  0
LINE
  8
0
 10
287.896
 20
499.799
 11
288.049
 21
499.839
  0
LINE
  8
0
 10
288.049
 20
499.839
 11
288.205
 21
499.869
  0
LINE
  8
0
 10
288.205
 20
499.869
 11
288.362
 21
499.889
  0
LINE
  8
0
 10
288.362
 20
499.889
 11
288.521
 21
499.899
  0
LINE
  8
0
 10
288.521
 20
499.899
 11
288.679
 21
499.899
  0
LINE
  8
0
 10
288.679
 20
499.899
 11
288.838
 21
499.889
  0
LINE
  8
0
 10
288.838
 20
499.889
 11
288.995
 21
499.869
  0
LINE
  8
0
 10
288.995
 20
499.869
 11
289.151
 21
499.839
  0
LINE
  8
0
 10
289.151
 20
499.839
 11
289.304
 21
499.799
  0
LINE
  8
0
 10
289.304
 20
499.799
 11
289.455
 21
499.749
  0
LINE
  8
0
 10
289.455
 20
499.749
 11
289.602
 21
499.69
  0
LINE
  8
0
 10
289.602
 20
499.69
 11
289.746
 21
499.622
  0
LINE
  8
0
 10
289.746
 20
499.622
 11
289.884
 21
499.545
  0
LINE
  8
0
 10
289.884
 20
499.545
 11
290.018
 21
499.459
  0
LINE
  8
0
 10
290.018
 20
499.459
 11
290.145
 21
499.365
  0
LINE
  8
0
 10
290.145
 20
499.365
 11
290.267
 21
499.263
  0
LINE
  8
0
 10
290.267
 20
499.263
 11
290.382
 21
499.154
  0
LINE
  8
0
 10
290.382
 20
499.154
 11
290.489
 21
499.037
  0
LINE
  8
0
 10
290.489
 20
499.037
 11
290.589
 21
498.914
  0
LINE
  8
0
 10
290.589
 20
498.914
 11
290.681
 21
498.785
  0
LINE
  8
0
 10
290.681
 20
498.785
 11
290.765
 21
498.65
  0
LINE
  8
0
 10
290.765
 20
498.65
 11
290.84
 21
498.51
  0
LINE
  8
0
 10
290.84
 20
498.51
 11
290.906
 21
498.366
  0
LINE
  8
0
 10
290.906
 20
498.366
 11
290.962
 21
498.218
  0
LINE
  8
0
 10
290.962
 20
498.218
 11
291.01
 21
498.066
  0
LINE
  8
0
 10
291.01
 20
498.066
 11
291.047
 21
497.912
  0
LINE
  8
0
 10
291.047
 20
497.912
 11
291.075
 21
497.756
  0
LINE
  8
0
 10
291.075
 20
497.756
 11
291.092
 21
497.598
  0
LINE
  8
0
 10
291.092
 20
497.598
 11
291.1
 21
497.44
  0
LINE
  8
0
 10
291.1
 20
497.44
 11
291.097
 21
497.281
  0
LINE
  8
0
 10
291.097
 20
497.281
 11
291.085
 21
497.123
  0
LINE
  8
0
 10
291.085
 20
497.123
 11
291.062
 21
496.966
  0
LINE
  8
0
 10
291.062
 20
496.966
 11
291.03
 21
496.811
  0
LINE
  8
0
 10
291.03
 20
496.811
 11
290.987
 21
496.658
  0
LINE
  8
0
 10
290.987
 20
496.658
 11
290.935
 21
496.508
  0
LINE
  8
0
 10
290.935
 20
496.508
 11
290.874
 21
496.361
  0
LINE
  8
0
 10
290.874
 20
496.361
 11
290.804
 21
496.219
  0
LINE
  8
0
 10
290.804
 20
496.219
 11
290.724
 21
496.082
  0
LINE
  8
0
 10
290.724
 20
496.082
 11
290.636
 21
495.95
  0
LINE
  8
0
 10
290.636
 20
495.95
 11
290.54
 21
495.824
  0
LINE
  8
0
 10
290.54
 20
495.824
 11
290.436
 21
495.704
  0
LINE
  8
0
 10
290.436
 20
495.704
 11
290.325
 21
495.591
  0
LINE
  8
0
 10
290.325
 20
495.591
 11
290.207
 21
495.485
  0
LINE
  8
0
 10
290.207
 20
495.485
 11
290.082
 21
495.387
  0
LINE
  8
0
 10
290.082
 20
495.387
 11
289.952
 21
495.297
  0
LINE
  8
0
 10
289.952
 20
495.297
 11
289.815
 21
495.215
  0
LINE
  8
0
 10
289.815
 20
495.215
 11
289.674
 21
495.143
  0
LINE
  8
0
 10
289.674
 20
495.143
 11
289.529
 21
495.079
  0
LINE
  8
0
 10
289.529
 20
495.079
 11
289.38
 21
495.025
  0
LINE
  8
0
 10
289.38
 20
495.025
 11
289.228
 21
494.98
  0
LINE
  8
0
 10
289.228
 20
494.98
 11
289.073
 21
494.945
  0
LINE
  8
0
 10
289.073
 20
494.945
 11
288.916
 21
494.92
  0
LINE
  8
0
 10
288.916
 20
494.92
 11
288.759
 21
494.905
  0
LINE
  8
0
 10
288.759
 20
494.905
 11
288.6
 21
494.9
  0
LINE
  8
0
 10
288.6
 20
494.9
 11
288.441
 21
494.905
  0
LINE
  8
0
 10
51.0741
 20
488.9
 11
51.0741
 21
495.9
  0
LINE
  8
0
 10
51.0741
 20
495.9
 11
65.0741
 21
495.9
  0
LINE
  8
0
 10
65.0741
 20
495.9
 11
65.0741
 21
488.9
  0
LINE
  8
0
 10
65.0741
 20
488.9
 11
51.0741
 21
488.9
  0
LINE
  8
0
 10
343.702
 20
489.608
 11
343.544
 21
489.625
  0
LINE
  8
0
 10
343.544
 20
489.625
 11
343.388
 21
489.653
  0
LINE
  8
0
 10
343.388
 20
489.653
 11
343.234
 21
489.69
  0
LINE
  8
0
 10
343.234
 20
489.69
 11
343.082
 21
489.737
  0
LINE
  8
0
 10
343.082
 20
489.737
 11
342.934
 21
489.794
  0
LINE
  8
0
 10
342.934
 20
489.794
 11
342.79
 21
489.86
  0
LINE
  8
0
 10
342.79
 20
489.86
 11
342.65
 21
489.935
  0
LINE
  8
0
 10
342.65
 20
489.935
 11
342.515
 21
490.019
  0
LINE
  8
0
 10
342.515
 20
490.019
 11
342.386
 21
490.111
  0
LINE
  8
0
 10
342.386
 20
490.111
 11
342.263
 21
490.211
  0
LINE
  8
0
 10
342.263
 20
490.211
 11
342.146
 21
490.318
  0
LINE
  8
0
 10
342.146
 20
490.318
 11
342.037
 21
490.433
  0
LINE
  8
0
 10
342.037
 20
490.433
 11
341.935
 21
490.555
  0
LINE
  8
0
 10
341.935
 20
490.555
 11
341.841
 21
490.682
  0
LINE
  8
0
 10
341.841
 20
490.682
 11
341.755
 21
490.816
  0
LINE
  8
0
 10
341.755
 20
490.816
 11
341.678
 21
490.954
  0
LINE
  8
0
 10
341.678
 20
490.954
 11
341.61
 21
491.098
  0
LINE
  8
0
 10
341.61
 20
491.098
 11
341.551
 21
491.245
  0
LINE
  8
0
 10
341.551
 20
491.245
 11
341.501
 21
491.396
  0
LINE
  8
0
 10
341.501
 20
491.396
 11
341.461
 21
491.549
  0
LINE
  8
0
 10
341.461
 20
491.549
 11
341.431
 21
491.705
  0
LINE
  8
0
 10
341.431
 20
491.705
 11
341.411
 21
491.862
  0
LINE
  8
0
 10
341.411
 20
491.862
 11
341.401
 21
492.021
  0
LINE
  8
0
 10
341.401
 20
492.021
 11
341.401
 21
492.179
  0
LINE
  8
0
 10
341.401
 20
492.179
 11
341.411
 21
492.338
  0
LINE
  8
0
 10
341.411
 20
492.338
 11
341.431
 21
492.495
  0
LINE
  8
0
 10
341.431
 20
492.495
 11
341.461
 21
492.651
  0
LINE
  8
0
 10
341.461
 20
492.651
 11
341.501
 21
492.804
  0
LINE
  8
0
 10
341.501
 20
492.804
 11
341.551
 21
492.955
  0
LINE
  8
0
 10
341.551
 20
492.955
 11
341.61
 21
493.102
  0
LINE
  8
0
 10
341.61
 20
493.102
 11
341.678
 21
493.246
  0
LINE
  8
0
 10
341.678
 20
493.246
 11
341.755
 21
493.384
  0
LINE
  8
0
 10
341.755
 20
493.384
 11
341.841
 21
493.518
  0
LINE
  8
0
 10
341.841
 20
493.518
 11
341.935
 21
493.645
  0
LINE
  8
0
 10
341.935
 20
493.645
 11
342.037
 21
493.767
  0
LINE
  8
0
 10
342.037
 20
493.767
 11
342.146
 21
493.882
  0
LINE
  8
0
 10
342.146
 20
493.882
 11
342.263
 21
493.989
  0
LINE
  8
0
 10
342.263
 20
493.989
 11
342.386
 21
494.089
  0
LINE
  8
0
 10
342.386
 20
494.089
 11
342.515
 21
494.181
  0
LINE
  8
0
 10
342.515
 20
494.181
 11
342.65
 21
494.265
  0
LINE
  8
0
 10
342.65
 20
494.265
 11
342.79
 21
494.34
  0
LINE
  8
0
 10
342.79
 20
494.34
 11
342.934
 21
494.406
  0
LINE
  8
0
 10
342.934
 20
494.406
 11
343.082
 21
494.462
  0
LINE
  8
0
 10
343.082
 20
494.462
 11
343.234
 21
494.51
  0
LINE
  8
0
 10
343.234
 20
494.51
 11
343.388
 21
494.547
  0
LINE
  8
0
 10
343.388
 20
494.547
 11
343.544
 21
494.575
  0
LINE
  8
0
 10
343.544
 20
494.575
 11
343.702
 21
494.592
  0
LINE
  8
0
 10
343.702
 20
494.592
 11
343.86
 21
494.6
  0
LINE
  8
0
 10
343.86
 20
494.6
 11
344.019
 21
494.597
  0
LINE
  8
0
 10
344.019
 20
494.597
 11
344.177
 21
494.585
  0
LINE
  8
0
 10
344.177
 20
494.585
 11
344.334
 21
494.562
  0
LINE
  8
0
 10
344.334
 20
494.562
 11
344.489
 21
494.53
  0
LINE
  8
0
 10
344.489
 20
494.53
 11
344.642
 21
494.487
  0
LINE
  8
0
 10
344.642
 20
494.487
 11
344.792
 21
494.435
  0
LINE
  8
0
 10
344.792
 20
494.435
 11
344.939
 21
494.374
  0
LINE
  8
0
 10
344.939
 20
494.374
 11
345.081
 21
494.304
  0
LINE
  8
0
 10
345.081
 20
494.304
 11
345.218
 21
494.224
  0
LINE
  8
0
 10
345.218
 20
494.224
 11
345.35
 21
494.136
  0
LINE
  8
0
 10
345.35
 20
494.136
 11
345.476
 21
494.04
  0
LINE
  8
0
 10
345.476
 20
494.04
 11
345.596
 21
493.936
  0
LINE
  8
0
 10
345.596
 20
493.936
 11
345.709
 21
493.825
  0
LINE
  8
0
 10
345.709
 20
493.825
 11
345.815
 21
493.707
  0
LINE
  8
0
 10
345.815
 20
493.707
 11
345.913
 21
493.582
  0
LINE
  8
0
 10
345.913
 20
493.582
 11
346.003
 21
493.452
  0
LINE
  8
0
 10
346.003
 20
493.452
 11
346.085
 21
493.315
  0
LINE
  8
0
 10
346.085
 20
493.315
 11
346.157
 21
493.174
  0
LINE
  8
0
 10
346.157
 20
493.174
 11
346.221
 21
493.029
  0
LINE
  8
0
 10
346.221
 20
493.029
 11
346.275
 21
492.88
  0
LINE
  8
0
 10
346.275
 20
492.88
 11
346.32
 21
492.728
  0
LINE
  8
0
 10
346.32
 20
492.728
 11
346.355
 21
492.573
  0
LINE
  8
0
 10
346.355
 20
492.573
 11
346.38
 21
492.416
  0
LINE
  8
0
 10
346.38
 20
492.416
 11
346.395
 21
492.259
  0
LINE
  8
0
 10
346.395
 20
492.259
 11
346.4
 21
492.1
  0
LINE
  8
0
 10
346.4
 20
492.1
 11
346.395
 21
491.941
  0
LINE
  8
0
 10
346.395
 20
491.941
 11
346.38
 21
491.784
  0
LINE
  8
0
 10
346.38
 20
491.784
 11
346.355
 21
491.627
  0
LINE
  8
0
 10
346.355
 20
491.627
 11
346.32
 21
491.472
  0
LINE
  8
0
 10
346.32
 20
491.472
 11
346.275
 21
491.32
  0
LINE
  8
0
 10
346.275
 20
491.32
 11
346.221
 21
491.171
  0
LINE
  8
0
 10
346.221
 20
491.171
 11
346.157
 21
491.026
  0
LINE
  8
0
 10
346.157
 20
491.026
 11
346.085
 21
490.885
  0
LINE
  8
0
 10
346.085
 20
490.885
 11
346.003
 21
490.748
  0
LINE
  8
0
 10
346.003
 20
490.748
 11
345.913
 21
490.618
  0
LINE
  8
0
 10
345.913
 20
490.618
 11
345.815
 21
490.493
  0
LINE
  8
0
 10
345.815
 20
490.493
 11
345.709
 21
490.375
  0
LINE
  8
0
 10
345.709
 20
490.375
 11
345.596
 21
490.264
  0
LINE
  8
0
 10
345.596
 20
490.264
 11
345.476
 21
490.16
  0
LINE
  8
0
 10
345.476
 20
490.16
 11
345.35
 21
490.064
  0
LINE
  8
0
 10
345.35
 20
490.064
 11
345.218
 21
489.976
  0
LINE
  8
0
 10
345.218
 20
489.976
 11
345.081
 21
489.896
  0
LINE
  8
0
 10
345.081
 20
489.896
 11
344.939
 21
489.826
  0
LINE
  8
0
 10
344.939
 20
489.826
 11
344.792
 21
489.765
  0
LINE
  8
0
 10
344.792
 20
489.765
 11
344.642
 21
489.713
  0
LINE
  8
0
 10
344.642
 20
489.713
 11
344.489
 21
489.67
  0
LINE
  8
0
 10
344.489
 20
489.67
 11
344.334
 21
489.638
  0
LINE
  8
0
 10
344.334
 20
489.638
 11
344.177
 21
489.615
  0
LINE
  8
0
 10
344.177
 20
489.615
 11
344.019
 21
489.603
  0
LINE
  8
0
 10
344.019
 20
489.603
 11
343.86
 21
489.6
  0
LINE
  8
0
 10
343.86
 20
489.6
 11
343.702
 21
489.608
  0
LINE
  8
0
 10
283.141
 20
489.605
 11
282.984
 21
489.62
  0
LINE
  8
0
 10
282.984
 20
489.62
 11
282.827
 21
489.645
  0
LINE
  8
0
 10
282.827
 20
489.645
 11
282.672
 21
489.68
  0
LINE
  8
0
 10
282.672
 20
489.68
 11
282.52
 21
489.725
  0
LINE
  8
0
 10
282.52
 20
489.725
 11
282.371
 21
489.779
  0
LINE
  8
0
 10
282.371
 20
489.779
 11
282.226
 21
489.843
  0
LINE
  8
0
 10
282.226
 20
489.843
 11
282.085
 21
489.915
  0
LINE
  8
0
 10
282.085
 20
489.915
 11
281.948
 21
489.997
  0
LINE
  8
0
 10
281.948
 20
489.997
 11
281.818
 21
490.087
  0
LINE
  8
0
 10
281.818
 20
490.087
 11
281.693
 21
490.185
  0
LINE
  8
0
 10
281.693
 20
490.185
 11
281.575
 21
490.291
  0
LINE
  8
0
 10
281.575
 20
490.291
 11
281.464
 21
490.404
  0
LINE
  8
0
 10
281.464
 20
490.404
 11
281.36
 21
490.524
  0
LINE
  8
0
 10
281.36
 20
490.524
 11
281.264
 21
490.65
  0
LINE
  8
0
 10
281.264
 20
490.65
 11
281.176
 21
490.782
  0
LINE
  8
0
 10
281.176
 20
490.782
 11
281.096
 21
490.919
  0
LINE
  8
0
 10
281.096
 20
490.919
 11
281.026
 21
491.061
  0
LINE
  8
0
 10
281.026
 20
491.061
 11
280.965
 21
491.208
  0
LINE
  8
0
 10
280.965
 20
491.208
 11
280.913
 21
491.358
  0
LINE
  8
0
 10
280.913
 20
491.358
 11
280.87
 21
491.511
  0
LINE
  8
0
 10
280.87
 20
491.511
 11
280.838
 21
491.666
  0
LINE
  8
0
 10
280.838
 20
491.666
 11
280.815
 21
491.823
  0
LINE
  8
0
 10
280.815
 20
491.823
 11
280.803
 21
491.981
  0
LINE
  8
0
 10
280.803
 20
491.981
 11
280.8
 21
492.14
  0
LINE
  8
0
 10
280.8
 20
492.14
 11
280.808
 21
492.298
  0
LINE
  8
0
 10
280.808
 20
492.298
 11
280.825
 21
492.456
  0
LINE
  8
0
 10
280.825
 20
492.456
 11
280.853
 21
492.612
  0
LINE
  8
0
 10
280.853
 20
492.612
 11
280.89
 21
492.766
  0
LINE
  8
0
 10
280.89
 20
492.766
 11
280.938
 21
492.918
  0
LINE
  8
0
 10
280.938
 20
492.918
 11
280.994
 21
493.066
  0
LINE
  8
0
 10
280.994
 20
493.066
 11
281.06
 21
493.21
  0
LINE
  8
0
 10
281.06
 20
493.21
 11
281.135
 21
493.35
  0
LINE
  8
0
 10
281.135
 20
493.35
 11
281.219
 21
493.485
  0
LINE
  8
0
 10
281.219
 20
493.485
 11
281.311
 21
493.614
  0
LINE
  8
0
 10
281.311
 20
493.614
 11
281.411
 21
493.737
  0
LINE
  8
0
 10
281.411
 20
493.737
 11
281.518
 21
493.854
  0
LINE
  8
0
 10
281.518
 20
493.854
 11
281.633
 21
493.963
  0
LINE
  8
0
 10
281.633
 20
493.963
 11
281.755
 21
494.065
  0
LINE
  8
0
 10
281.755
 20
494.065
 11
281.882
 21
494.159
  0
LINE
  8
0
 10
281.882
 20
494.159
 11
282.016
 21
494.245
  0
LINE
  8
0
 10
282.016
 20
494.245
 11
282.154
 21
494.322
  0
LINE
  8
0
 10
282.154
 20
494.322
 11
282.298
 21
494.39
  0
LINE
  8
0
 10
282.298
 20
494.39
 11
282.445
 21
494.449
  0
LINE
  8
0
 10
282.445
 20
494.449
 11
282.596
 21
494.499
  0
LINE
  8
0
 10
282.596
 20
494.499
 11
282.749
 21
494.539
  0
LINE
  8
0
 10
282.749
 20
494.539
 11
282.905
 21
494.569
  0
LINE
  8
0
 10
282.905
 20
494.569
 11
283.062
 21
494.589
  0
LINE
  8
0
 10
283.062
 20
494.589
 11
283.221
 21
494.599
  0
LINE
  8
0
 10
283.221
 20
494.599
 11
283.379
 21
494.599
  0
LINE
  8
0
 10
283.379
 20
494.599
 11
283.538
 21
494.589
  0
LINE
  8
0
 10
283.538
 20
494.589
 11
283.695
 21
494.569
  0
LINE
  8
0
 10
283.695
 20
494.569
 11
283.851
 21
494.539
  0
LINE
  8
0
 10
283.851
 20
494.539
 11
284.004
 21
494.499
  0
LINE
  8
0
 10
284.004
 20
494.499
 11
284.155
 21
494.449
  0
LINE
  8
0
 10
284.155
 20
494.449
 11
284.302
 21
494.39
  0
LINE
  8
0
 10
284.302
 20
494.39
 11
284.446
 21
494.322
  0
LINE
  8
0
 10
284.446
 20
494.322
 11
284.584
 21
494.245
  0
LINE
  8
0
 10
284.584
 20
494.245
 11
284.718
 21
494.159
  0
LINE
  8
0
 10
284.718
 20
494.159
 11
284.845
 21
494.065
  0
LINE
  8
0
 10
284.845
 20
494.065
 11
284.967
 21
493.963
  0
LINE
  8
0
 10
284.967
 20
493.963
 11
285.082
 21
493.854
  0
LINE
  8
0
 10
285.082
 20
493.854
 11
285.189
 21
493.737
  0
LINE
  8
0
 10
285.189
 20
493.737
 11
285.289
 21
493.614
  0
LINE
  8
0
 10
285.289
 20
493.614
 11
285.381
 21
493.485
  0
LINE
  8
0
 10
285.381
 20
493.485
 11
285.465
 21
493.35
  0
LINE
  8
0
 10
285.465
 20
493.35
 11
285.54
 21
493.21
  0
LINE
  8
0
 10
285.54
 20
493.21
 11
285.606
 21
493.066
  0
LINE
  8
0
 10
285.606
 20
493.066
 11
285.663
 21
492.918
  0
LINE
  8
0
 10
285.663
 20
492.918
 11
285.71
 21
492.766
  0
LINE
  8
0
 10
285.71
 20
492.766
 11
285.747
 21
492.612
  0
LINE
  8
0
 10
285.747
 20
492.612
 11
285.775
 21
492.456
  0
LINE
  8
0
 10
285.775
 20
492.456
 11
285.792
 21
492.298
  0
LINE
  8
0
 10
285.792
 20
492.298
 11
285.8
 21
492.14
  0
LINE
  8
0
 10
285.8
 20
492.14
 11
285.797
 21
491.981
  0
LINE
  8
0
 10
285.797
 20
491.981
 11
285.785
 21
491.823
  0
LINE
  8
0
 10
285.785
 20
491.823
 11
285.762
 21
491.666
  0
LINE
  8
0
 10
285.762
 20
491.666
 11
285.73
 21
491.511
  0
LINE
  8
0
 10
285.73
 20
491.511
 11
285.687
 21
491.358
  0
LINE
  8
0
 10
285.687
 20
491.358
 11
285.635
 21
491.208
  0
LINE
  8
0
 10
285.635
 20
491.208
 11
285.574
 21
491.061
  0
LINE
  8
0
 10
285.574
 20
491.061
 11
285.504
 21
490.919
  0
LINE
  8
0
 10
285.504
 20
490.919
 11
285.424
 21
490.782
  0
LINE
  8
0
 10
285.424
 20
490.782
 11
285.336
 21
490.65
  0
LINE
  8
0
 10
285.336
 20
490.65
 11
285.24
 21
490.524
  0
LINE
  8
0
 10
285.24
 20
490.524
 11
285.136
 21
490.404
  0
LINE
  8
0
 10
285.136
 20
490.404
 11
285.025
 21
490.291
  0
LINE
  8
0
 10
285.025
 20
490.291
 11
284.907
 21
490.185
  0
LINE
  8
0
 10
284.907
 20
490.185
 11
284.782
 21
490.087
  0
LINE
  8
0
 10
284.782
 20
490.087
 11
284.652
 21
489.997
  0
LINE
  8
0
 10
284.652
 20
489.997
 11
284.516
 21
489.915
  0
LINE
  8
0
 10
284.516
 20
489.915
 11
284.374
 21
489.843
  0
LINE
  8
0
 10
284.374
 20
489.843
 11
284.229
 21
489.779
  0
LINE
  8
0
 10
284.229
 20
489.779
 11
284.08
 21
489.725
  0
LINE
  8
0
 10
284.08
 20
489.725
 11
283.928
 21
489.68
  0
LINE
  8
0
 10
283.928
 20
489.68
 11
283.773
 21
489.645
  0
LINE
  8
0
 10
283.773
 20
489.645
 11
283.616
 21
489.62
  0
LINE
  8
0
 10
283.616
 20
489.62
 11
283.459
 21
489.605
  0
LINE
  8
0
 10
283.459
 20
489.605
 11
283.3
 21
489.6
  0
LINE
  8
0
 10
283.3
 20
489.6
 11
283.141
 21
489.605
  0
LINE
  8
0
 10
114.757
 20
460.41
 11
114.441
 21
460.44
  0
LINE
  8
0
 10
114.441
 20
460.44
 11
114.128
 21
460.49
  0
LINE
  8
0
 10
114.128
 20
460.49
 11
113.818
 21
460.56
  0
LINE
  8
0
 10
113.818
 20
460.56
 11
113.514
 21
460.65
  0
LINE
  8
0
 10
113.514
 20
460.65
 11
113.216
 21
460.758
  0
LINE
  8
0
 10
113.216
 20
460.758
 11
112.925
 21
460.885
  0
LINE
  8
0
 10
112.925
 20
460.885
 11
112.643
 21
461.031
  0
LINE
  8
0
 10
112.643
 20
461.031
 11
112.371
 21
461.194
  0
LINE
  8
0
 10
112.371
 20
461.194
 11
112.11
 21
461.374
  0
LINE
  8
0
 10
112.11
 20
461.374
 11
111.86
 21
461.57
  0
LINE
  8
0
 10
111.86
 20
461.57
 11
111.624
 21
461.781
  0
LINE
  8
0
 10
111.624
 20
461.781
 11
111.401
 21
462.007
  0
LINE
  8
0
 10
111.401
 20
462.007
 11
111.193
 21
462.247
  0
LINE
  8
0
 10
111.193
 20
462.247
 11
111.001
 21
462.5
  0
LINE
  8
0
 10
111.001
 20
462.5
 11
110.825
 21
462.764
  0
LINE
  8
0
 10
110.825
 20
462.764
 11
110.667
 21
463.039
  0
LINE
  8
0
 10
110.667
 20
463.039
 11
110.526
 21
463.323
  0
LINE
  8
0
 10
110.526
 20
463.323
 11
110.403
 21
463.616
  0
LINE
  8
0
 10
110.403
 20
463.616
 11
110.3
 21
463.915
  0
LINE
  8
0
 10
110.3
 20
463.915
 11
110.215
 21
464.221
  0
LINE
  8
0
 10
110.215
 20
464.221
 11
110.15
 21
464.532
  0
LINE
  8
0
 10
110.15
 20
464.532
 11
110.105
 21
464.846
  0
LINE
  8
0
 10
110.105
 20
464.846
 11
110.08
 21
465.162
  0
LINE
  8
0
 10
110.08
 20
465.162
 11
110.075
 21
465.479
  0
LINE
  8
0
 10
110.075
 20
465.479
 11
110.075
 21
480.479
  0
LINE
  8
0
 10
110.075
 20
480.479
 11
110.09
 21
480.796
  0
LINE
  8
0
 10
110.09
 20
480.796
 11
110.125
 21
481.112
  0
LINE
  8
0
 10
110.125
 20
481.112
 11
110.18
 21
481.424
  0
LINE
  8
0
 10
110.18
 20
481.424
 11
110.255
 21
481.732
  0
LINE
  8
0
 10
110.255
 20
481.732
 11
110.349
 21
482.035
  0
LINE
  8
0
 10
110.349
 20
482.035
 11
110.462
 21
482.332
  0
LINE
  8
0
 10
110.462
 20
482.332
 11
110.594
 21
482.62
  0
LINE
  8
0
 10
110.594
 20
482.62
 11
110.744
 21
482.9
  0
LINE
  8
0
 10
110.744
 20
482.9
 11
110.911
 21
483.17
  0
LINE
  8
0
 10
110.911
 20
483.17
 11
111.095
 21
483.428
  0
LINE
  8
0
 10
111.095
 20
483.428
 11
111.295
 21
483.674
  0
LINE
  8
0
 10
111.295
 20
483.674
 11
111.511
 21
483.907
  0
LINE
  8
0
 10
111.511
 20
483.907
 11
111.74
 21
484.126
  0
LINE
  8
0
 10
111.74
 20
484.126
 11
111.983
 21
484.33
  0
LINE
  8
0
 10
111.983
 20
484.33
 11
112.239
 21
484.518
  0
LINE
  8
0
 10
112.239
 20
484.518
 11
112.506
 21
484.69
  0
LINE
  8
0
 10
112.506
 20
484.69
 11
112.783
 21
484.844
  0
LINE
  8
0
 10
112.783
 20
484.844
 11
113.069
 21
484.981
  0
LINE
  8
0
 10
113.069
 20
484.981
 11
113.364
 21
485.098
  0
LINE
  8
0
 10
113.364
 20
485.098
 11
113.665
 21
485.197
  0
LINE
  8
0
 10
113.665
 20
485.197
 11
113.973
 21
485.277
  0
LINE
  8
0
 10
113.973
 20
485.277
 11
114.284
 21
485.337
  0
LINE
  8
0
 10
114.284
 20
485.337
 11
114.599
 21
485.377
  0
LINE
  8
0
 10
114.599
 20
485.377
 11
114.915
 21
485.397
  0
LINE
  8
0
 10
114.915
 20
485.397
 11
115.233
 21
485.397
  0
LINE
  8
0
 10
115.233
 20
485.397
 11
115.549
 21
485.377
  0
LINE
  8
0
 10
115.549
 20
485.377
 11
115.864
 21
485.337
  0
LINE
  8
0
 10
115.864
 20
485.337
 11
116.176
 21
485.277
  0
LINE
  8
0
 10
116.176
 20
485.277
 11
116.483
 21
485.197
  0
LINE
  8
0
 10
116.483
 20
485.197
 11
116.784
 21
485.098
  0
LINE
  8
0
 10
116.784
 20
485.098
 11
117.079
 21
484.981
  0
LINE
  8
0
 10
117.079
 20
484.981
 11
117.365
 21
484.844
  0
LINE
  8
0
 10
117.365
 20
484.844
 11
117.642
 21
484.69
  0
LINE
  8
0
 10
117.642
 20
484.69
 11
117.909
 21
484.518
  0
LINE
  8
0
 10
117.909
 20
484.518
 11
118.165
 21
484.33
  0
LINE
  8
0
 10
118.165
 20
484.33
 11
118.408
 21
484.126
  0
LINE
  8
0
 10
118.408
 20
484.126
 11
118.638
 21
483.907
  0
LINE
  8
0
 10
118.638
 20
483.907
 11
118.853
 21
483.674
  0
LINE
  8
0
 10
118.853
 20
483.674
 11
119.053
 21
483.428
  0
LINE
  8
0
 10
119.053
 20
483.428
 11
119.237
 21
483.17
  0
LINE
  8
0
 10
119.237
 20
483.17
 11
119.404
 21
482.9
  0
LINE
  8
0
 10
119.404
 20
482.9
 11
119.554
 21
482.62
  0
LINE
  8
0
 10
119.554
 20
482.62
 11
119.686
 21
482.332
  0
LINE
  8
0
 10
119.686
 20
482.332
 11
119.799
 21
482.035
  0
LINE
  8
0
 10
119.799
 20
482.035
 11
119.893
 21
481.732
  0
LINE
  8
0
 10
119.893
 20
481.732
 11
119.968
 21
481.424
  0
LINE
  8
0
 10
119.968
 20
481.424
 11
120.023
 21
481.112
  0
LINE
  8
0
 10
120.023
 20
481.112
 11
120.058
 21
480.796
  0
LINE
  8
0
 10
120.058
 20
480.796
 11
120.073
 21
480.479
  0
LINE
  8
0
 10
120.073
 20
480.479
 11
120.073
 21
465.479
  0
LINE
  8
0
 10
120.073
 20
465.479
 11
120.068
 21
465.162
  0
LINE
  8
0
 10
120.068
 20
465.162
 11
120.043
 21
464.846
  0
LINE
  8
0
 10
120.043
 20
464.846
 11
119.998
 21
464.532
  0
LINE
  8
0
 10
119.998
 20
464.532
 11
119.933
 21
464.221
  0
LINE
  8
0
 10
119.933
 20
464.221
 11
119.849
 21
463.915
  0
LINE
  8
0
 10
119.849
 20
463.915
 11
119.745
 21
463.616
  0
LINE
  8
0
 10
119.745
 20
463.616
 11
119.622
 21
463.323
  0
LINE
  8
0
 10
119.622
 20
463.323
 11
119.481
 21
463.039
  0
LINE
  8
0
 10
119.481
 20
463.039
 11
119.323
 21
462.764
  0
LINE
  8
0
 10
119.323
 20
462.764
 11
119.147
 21
462.5
  0
LINE
  8
0
 10
119.147
 20
462.5
 11
118.955
 21
462.247
  0
LINE
  8
0
 10
118.955
 20
462.247
 11
118.747
 21
462.007
  0
LINE
  8
0
 10
118.747
 20
462.007
 11
118.524
 21
461.781
  0
LINE
  8
0
 10
118.524
 20
461.781
 11
118.288
 21
461.57
  0
LINE
  8
0
 10
118.288
 20
461.57
 11
118.039
 21
461.374
  0
LINE
  8
0
 10
118.039
 20
461.374
 11
117.777
 21
461.194
  0
LINE
  8
0
 10
117.777
 20
461.194
 11
117.505
 21
461.031
  0
LINE
  8
0
 10
117.505
 20
461.031
 11
117.223
 21
460.885
  0
LINE
  8
0
 10
117.223
 20
460.885
 11
116.932
 21
460.758
  0
LINE
  8
0
 10
116.932
 20
460.758
 11
116.634
 21
460.65
  0
LINE
  8
0
 10
116.634
 20
460.65
 11
116.33
 21
460.56
  0
LINE
  8
0
 10
116.33
 20
460.56
 11
116.02
 21
460.49
  0
LINE
  8
0
 10
116.02
 20
460.49
 11
115.707
 21
460.44
  0
LINE
  8
0
 10
115.707
 20
460.44
 11
115.391
 21
460.41
  0
LINE
  8
0
 10
115.391
 20
460.41
 11
115.074
 21
460.4
  0
LINE
  8
0
 10
115.074
 20
460.4
 11
114.757
 21
460.41
  0
LINE
  8
0
 10
51.0741
 20
338.9
 11
51.0741
 21
345.9
  0
LINE
  8
0
 10
51.0741
 20
345.9
 11
65.0741
 21
345.9
  0
LINE
  8
0
 10
65.0741
 20
345.9
 11
65.0741
 21
338.9
  0
LINE
  8
0
 10
65.0741
 20
338.9
 11
51.0741
 21
338.9
  0
LINE
  8
0
 10
283.181
 20
340.203
 11
283.023
 21
340.215
  0
LINE
  8
0
 10
283.023
 20
340.215
 11
282.866
 21
340.238
  0
LINE
  8
0
 10
282.866
 20
340.238
 11
282.711
 21
340.27
  0
LINE
  8
0
 10
282.711
 20
340.27
 11
282.558
 21
340.313
  0
LINE
  8
0
 10
282.558
 20
340.313
 11
282.408
 21
340.365
  0
LINE
  8
0
 10
282.408
 20
340.365
 11
282.261
 21
340.426
  0
LINE
  8
0
 10
282.261
 20
340.426
 11
282.119
 21
340.496
  0
LINE
  8
0
 10
282.119
 20
340.496
 11
281.982
 21
340.576
  0
LINE
  8
0
 10
281.982
 20
340.576
 11
281.85
 21
340.664
  0
LINE
  8
0
 10
281.85
 20
340.664
 11
281.724
 21
340.76
  0
LINE
  8
0
 10
281.724
 20
340.76
 11
281.604
 21
340.864
  0
LINE
  8
0
 10
281.604
 20
340.864
 11
281.491
 21
340.975
  0
LINE
  8
0
 10
281.491
 20
340.975
 11
281.385
 21
341.093
  0
LINE
  8
0
 10
281.385
 20
341.093
 11
281.287
 21
341.218
  0
LINE
  8
0
 10
281.287
 20
341.218
 11
281.197
 21
341.348
  0
LINE
  8
0
 10
281.197
 20
341.348
 11
281.115
 21
341.484
  0
LINE
  8
0
 10
281.115
 20
341.484
 11
281.043
 21
341.626
  0
LINE
  8
0
 10
281.043
 20
341.626
 11
280.979
 21
341.771
  0
LINE
  8
0
 10
280.979
 20
341.771
 11
280.925
 21
341.92
  0
LINE
  8
0
 10
280.925
 20
341.92
 11
280.88
 21
342.072
  0
LINE
  8
0
 10
280.88
 20
342.072
 11
280.845
 21
342.227
  0
LINE
  8
0
 10
280.845
 20
342.227
 11
280.82
 21
342.384
  0
LINE
  8
0
 10
280.82
 20
342.384
 11
280.805
 21
342.541
  0
LINE
  8
0
 10
280.805
 20
342.541
 11
280.8
 21
342.7
  0
LINE
  8
0
 10
280.8
 20
342.7
 11
280.805
 21
342.859
  0
LINE
  8
0
 10
280.805
 20
342.859
 11
280.82
 21
343.016
  0
LINE
  8
0
 10
280.82
 20
343.016
 11
280.845
 21
343.173
  0
LINE
  8
0
 10
280.845
 20
343.173
 11
280.88
 21
343.328
  0
LINE
  8
0
 10
280.88
 20
343.328
 11
280.925
 21
343.48
  0
LINE
  8
0
 10
280.925
 20
343.48
 11
280.979
 21
343.629
  0
LINE
  8
0
 10
280.979
 20
343.629
 11
281.043
 21
343.774
  0
LINE
  8
0
 10
281.043
 20
343.774
 11
281.115
 21
343.915
  0
LINE
  8
0
 10
281.115
 20
343.915
 11
281.197
 21
344.052
  0
LINE
  8
0
 10
281.197
 20
344.052
 11
281.287
 21
344.182
  0
LINE
  8
0
 10
281.287
 20
344.182
 11
281.385
 21
344.307
  0
LINE
  8
0
 10
281.385
 20
344.307
 11
281.491
 21
344.425
  0
LINE
  8
0
 10
281.491
 20
344.425
 11
281.604
 21
344.536
  0
LINE
  8
0
 10
281.604
 20
344.536
 11
281.724
 21
344.64
  0
LINE
  8
0
 10
281.724
 20
344.64
 11
281.85
 21
344.736
  0
LINE
  8
0
 10
281.85
 20
344.736
 11
281.982
 21
344.824
  0
LINE
  8
0
 10
281.982
 20
344.824
 11
282.119
 21
344.904
  0
LINE
  8
0
 10
282.119
 20
344.904
 11
282.261
 21
344.974
  0
LINE
  8
0
 10
282.261
 20
344.974
 11
282.408
 21
345.035
  0
LINE
  8
0
 10
282.408
 20
345.035
 11
282.558
 21
345.087
  0
LINE
  8
0
 10
282.558
 20
345.087
 11
282.711
 21
345.13
  0
LINE
  8
0
 10
282.711
 20
345.13
 11
282.866
 21
345.162
  0
LINE
  8
0
 10
282.866
 20
345.162
 11
283.023
 21
345.185
  0
LINE
  8
0
 10
283.023
 20
345.185
 11
283.181
 21
345.197
  0
LINE
  8
0
 10
283.181
 20
345.197
 11
283.34
 21
345.2
  0
LINE
  8
0
 10
283.34
 20
345.2
 11
283.498
 21
345.192
  0
LINE
  8
0
 10
283.498
 20
345.192
 11
283.656
 21
345.175
  0
LINE
  8
0
 10
283.656
 20
345.175
 11
283.812
 21
345.147
  0
LINE
  8
0
 10
283.812
 20
345.147
 11
283.966
 21
345.11
  0
LINE
  8
0
 10
283.966
 20
345.11
 11
284.118
 21
345.062
  0
LINE
  8
0
 10
284.118
 20
345.062
 11
284.266
 21
345.006
  0
LINE
  8
0
 10
284.266
 20
345.006
 11
284.41
 21
344.94
  0
LINE
  8
0
 10
284.41
 20
344.94
 11
284.55
 21
344.865
  0
LINE
  8
0
 10
284.55
 20
344.865
 11
284.685
 21
344.781
  0
LINE
  8
0
 10
284.685
 20
344.781
 11
284.814
 21
344.689
  0
LINE
  8
0
 10
284.814
 20
344.689
 11
284.937
 21
344.589
  0
LINE
  8
0
 10
284.937
 20
344.589
 11
285.054
 21
344.482
  0
LINE
  8
0
 10
285.054
 20
344.482
 11
285.163
 21
344.367
  0
LINE
  8
0
 10
285.163
 20
344.367
 11
285.265
 21
344.245
  0
LINE
  8
0
 10
285.265
 20
344.245
 11
285.359
 21
344.118
  0
LINE
  8
0
 10
285.359
 20
344.118
 11
285.445
 21
343.984
  0
LINE
  8
0
 10
285.445
 20
343.984
 11
285.522
 21
343.846
  0
LINE
  8
0
 10
285.522
 20
343.846
 11
285.59
 21
343.702
  0
LINE
  8
0
 10
285.59
 20
343.702
 11
285.649
 21
343.555
  0
LINE
  8
0
 10
285.649
 20
343.555
 11
285.699
 21
343.404
  0
LINE
  8
0
 10
285.699
 20
343.404
 11
285.739
 21
343.251
  0
LINE
  8
0
 10
285.739
 20
343.251
 11
285.769
 21
343.095
  0
LINE
  8
0
 10
285.769
 20
343.095
 11
285.789
 21
342.938
  0
LINE
  8
0
 10
285.789
 20
342.938
 11
285.799
 21
342.779
  0
LINE
  8
0
 10
285.799
 20
342.779
 11
285.799
 21
342.621
  0
LINE
  8
0
 10
285.799
 20
342.621
 11
285.789
 21
342.462
  0
LINE
  8
0
 10
285.789
 20
342.462
 11
285.769
 21
342.305
  0
LINE
  8
0
 10
285.769
 20
342.305
 11
285.739
 21
342.149
  0
LINE
  8
0
 10
285.739
 20
342.149
 11
285.699
 21
341.996
  0
LINE
  8
0
 10
285.699
 20
341.996
 11
285.649
 21
341.845
  0
LINE
  8
0
 10
285.649
 20
341.845
 11
285.59
 21
341.698
  0
LINE
  8
0
 10
285.59
 20
341.698
 11
285.522
 21
341.554
  0
LINE
  8
0
 10
285.522
 20
341.554
 11
285.445
 21
341.416
  0
LINE
  8
0
 10
285.445
 20
341.416
 11
285.359
 21
341.282
  0
LINE
  8
0
 10
285.359
 20
341.282
 11
285.265
 21
341.155
  0
LINE
  8
0
 10
285.265
 20
341.155
 11
285.163
 21
341.033
  0
LINE
  8
0
 10
285.163
 20
341.033
 11
285.054
 21
340.918
  0
LINE
  8
0
 10
285.054
 20
340.918
 11
284.937
 21
340.811
  0
LINE
  8
0
 10
284.937
 20
340.811
 11
284.814
 21
340.711
  0
LINE
  8
0
 10
284.814
 20
340.711
 11
284.685
 21
340.619
  0
LINE
  8
0
 10
284.685
 20
340.619
 11
284.55
 21
340.535
  0
LINE
  8
0
 10
284.55
 20
340.535
 11
284.41
 21
340.46
  0
LINE
  8
0
 10
284.41
 20
340.46
 11
284.266
 21
340.394
  0
LINE
  8
0
 10
284.266
 20
340.394
 11
284.118
 21
340.337
  0
LINE
  8
0
 10
284.118
 20
340.337
 11
283.966
 21
340.29
  0
LINE
  8
0
 10
283.966
 20
340.29
 11
283.812
 21
340.253
  0
LINE
  8
0
 10
283.812
 20
340.253
 11
283.656
 21
340.225
  0
LINE
  8
0
 10
283.656
 20
340.225
 11
283.498
 21
340.208
  0
LINE
  8
0
 10
283.498
 20
340.208
 11
283.34
 21
340.2
  0
LINE
  8
0
 10
283.34
 20
340.2
 11
283.181
 21
340.203
  0
LINE
  8
0
 10
343.702
 20
340.208
 11
343.544
 21
340.225
  0
LINE
  8
0
 10
343.544
 20
340.225
 11
343.388
 21
340.253
  0
LINE
  8
0
 10
343.388
 20
340.253
 11
343.234
 21
340.29
  0
LINE
  8
0
 10
343.234
 20
340.29
 11
343.082
 21
340.337
  0
LINE
  8
0
 10
343.082
 20
340.337
 11
342.934
 21
340.394
  0
LINE
  8
0
 10
342.934
 20
340.394
 11
342.79
 21
340.46
  0
LINE
  8
0
 10
342.79
 20
340.46
 11
342.65
 21
340.535
  0
LINE
  8
0
 10
342.65
 20
340.535
 11
342.515
 21
340.619
  0
LINE
  8
0
 10
342.515
 20
340.619
 11
342.386
 21
340.711
  0
LINE
  8
0
 10
342.386
 20
340.711
 11
342.263
 21
340.811
  0
LINE
  8
0
 10
342.263
 20
340.811
 11
342.146
 21
340.918
  0
LINE
  8
0
 10
342.146
 20
340.918
 11
342.037
 21
341.033
  0
LINE
  8
0
 10
342.037
 20
341.033
 11
341.935
 21
341.155
  0
LINE
  8
0
 10
341.935
 20
341.155
 11
341.841
 21
341.282
  0
LINE
  8
0
 10
341.841
 20
341.282
 11
341.755
 21
341.416
  0
LINE
  8
0
 10
341.755
 20
341.416
 11
341.678
 21
341.554
  0
LINE
  8
0
 10
341.678
 20
341.554
 11
341.61
 21
341.698
  0
LINE
  8
0
 10
341.61
 20
341.698
 11
341.551
 21
341.845
  0
LINE
  8
0
 10
341.551
 20
341.845
 11
341.501
 21
341.996
  0
LINE
  8
0
 10
341.501
 20
341.996
 11
341.461
 21
342.149
  0
LINE
  8
0
 10
341.461
 20
342.149
 11
341.431
 21
342.305
  0
LINE
  8
0
 10
341.431
 20
342.305
 11
341.411
 21
342.462
  0
LINE
  8
0
 10
341.411
 20
342.462
 11
341.401
 21
342.621
  0
LINE
  8
0
 10
341.401
 20
342.621
 11
341.401
 21
342.779
  0
LINE
  8
0
 10
341.401
 20
342.779
 11
341.411
 21
342.938
  0
LINE
  8
0
 10
341.411
 20
342.938
 11
341.431
 21
343.095
  0
LINE
  8
0
 10
341.431
 20
343.095
 11
341.461
 21
343.251
  0
LINE
  8
0
 10
341.461
 20
343.251
 11
341.501
 21
343.404
  0
LINE
  8
0
 10
341.501
 20
343.404
 11
341.551
 21
343.555
  0
LINE
  8
0
 10
341.551
 20
343.555
 11
341.61
 21
343.702
  0
LINE
  8
0
 10
341.61
 20
343.702
 11
341.678
 21
343.846
  0
LINE
  8
0
 10
341.678
 20
343.846
 11
341.755
 21
343.984
  0
LINE
  8
0
 10
341.755
 20
343.984
 11
341.841
 21
344.118
  0
LINE
  8
0
 10
341.841
 20
344.118
 11
341.935
 21
344.245
  0
LINE
  8
0
 10
341.935
 20
344.245
 11
342.037
 21
344.367
  0
LINE
  8
0
 10
342.037
 20
344.367
 11
342.146
 21
344.482
  0
LINE
  8
0
 10
342.146
 20
344.482
 11
342.263
 21
344.589
  0
LINE
  8
0
 10
342.263
 20
344.589
 11
342.386
 21
344.689
  0
LINE
  8
0
 10
342.386
 20
344.689
 11
342.515
 21
344.781
  0
LINE
  8
0
 10
342.515
 20
344.781
 11
342.65
 21
344.865
  0
LINE
  8
0
 10
342.65
 20
344.865
 11
342.79
 21
344.94
  0
LINE
  8
0
 10
342.79
 20
344.94
 11
342.934
 21
345.006
  0
LINE
  8
0
 10
342.934
 20
345.006
 11
343.082
 21
345.062
  0
LINE
  8
0
 10
343.082
 20
345.062
 11
343.234
 21
345.11
  0
LINE
  8
0
 10
343.234
 20
345.11
 11
343.388
 21
345.147
  0
LINE
  8
0
 10
343.388
 20
345.147
 11
343.544
 21
345.175
  0
LINE
  8
0
 10
343.544
 20
345.175
 11
343.702
 21
345.192
  0
LINE
  8
0
 10
343.702
 20
345.192
 11
343.86
 21
345.2
  0
LINE
  8
0
 10
343.86
 20
345.2
 11
344.019
 21
345.197
  0
LINE
  8
0
 10
344.019
 20
345.197
 11
344.177
 21
345.185
  0
LINE
  8
0
 10
344.177
 20
345.185
 11
344.334
 21
345.162
  0
LINE
  8
0
 10
344.334
 20
345.162
 11
344.489
 21
345.13
  0
LINE
  8
0
 10
344.489
 20
345.13
 11
344.642
 21
345.087
  0
LINE
  8
0
 10
344.642
 20
345.087
 11
344.792
 21
345.035
  0
LINE
  8
0
 10
344.792
 20
345.035
 11
344.939
 21
344.974
  0
LINE
  8
0
 10
344.939
 20
344.974
 11
345.081
 21
344.904
  0
LINE
  8
0
 10
345.081
 20
344.904
 11
345.218
 21
344.824
  0
LINE
  8
0
 10
345.218
 20
344.824
 11
345.35
 21
344.736
  0
LINE
  8
0
 10
345.35
 20
344.736
 11
345.476
 21
344.64
  0
LINE
  8
0
 10
345.476
 20
344.64
 11
345.596
 21
344.536
  0
LINE
  8
0
 10
345.596
 20
344.536
 11
345.709
 21
344.425
  0
LINE
  8
0
 10
345.709
 20
344.425
 11
345.815
 21
344.307
  0
LINE
  8
0
 10
345.815
 20
344.307
 11
345.913
 21
344.182
  0
LINE
  8
0
 10
345.913
 20
344.182
 11
346.003
 21
344.052
  0
LINE
  8
0
 10
346.003
 20
344.052
 11
346.085
 21
343.915
  0
LINE
  8
0
 10
346.085
 20
343.915
 11
346.157
 21
343.774
  0
LINE
  8
0
 10
346.157
 20
343.774
 11
346.221
 21
343.629
  0
LINE
  8
0
 10
346.221
 20
343.629
 11
346.275
 21
343.48
  0
LINE
  8
0
 10
346.275
 20
343.48
 11
346.32
 21
343.328
  0
LINE
  8
0
 10
346.32
 20
343.328
 11
346.355
 21
343.173
  0
LINE
  8
0
 10
346.355
 20
343.173
 11
346.38
 21
343.016
  0
LINE
  8
0
 10
346.38
 20
343.016
 11
346.395
 21
342.859
  0
LINE
  8
0
 10
346.395
 20
342.859
 11
346.4
 21
342.7
  0
LINE
  8
0
 10
346.4
 20
342.7
 11
346.395
 21
342.541
  0
LINE
  8
0
 10
346.395
 20
342.541
 11
346.38
 21
342.384
  0
LINE
  8
0
 10
346.38
 20
342.384
 11
346.355
 21
342.227
  0
LINE
  8
0
 10
346.355
 20
342.227
 11
346.32
 21
342.072
  0
LINE
  8
0
 10
346.32
 20
342.072
 11
346.275
 21
341.92
  0
LINE
  8
0
 10
346.275
 20
341.92
 11
346.221
 21
341.771
  0
LINE
  8
0
 10
346.221
 20
341.771
 11
346.157
 21
341.626
  0
LINE
  8
0
 10
346.157
 20
341.626
 11
346.085
 21
341.484
  0
LINE
  8
0
 10
346.085
 20
341.484
 11
346.003
 21
341.348
  0
LINE
  8
0
 10
346.003
 20
341.348
 11
345.913
 21
341.218
  0
LINE
  8
0
 10
345.913
 20
341.218
 11
345.815
 21
341.093
  0
LINE
  8
0
 10
345.815
 20
341.093
 11
345.709
 21
340.975
  0
LINE
  8
0
 10
345.709
 20
340.975
 11
345.596
 21
340.864
  0
LINE
  8
0
 10
345.596
 20
340.864
 11
345.476
 21
340.76
  0
LINE
  8
0
 10
345.476
 20
340.76
 11
345.35
 21
340.664
  0
LINE
  8
0
 10
345.35
 20
340.664
 11
345.218
 21
340.576
  0
LINE
  8
0
 10
345.218
 20
340.576
 11
345.081
 21
340.496
  0
LINE
  8
0
 10
345.081
 20
340.496
 11
344.939
 21
340.426
  0
LINE
  8
0
 10
344.939
 20
340.426
 11
344.792
 21
340.365
  0
LINE
  8
0
 10
344.792
 20
340.365
 11
344.642
 21
340.313
  0
LINE
  8
0
 10
344.642
 20
340.313
 11
344.489
 21
340.27
  0
LINE
  8
0
 10
344.489
 20
340.27
 11
344.334
 21
340.238
  0
LINE
  8
0
 10
344.334
 20
340.238
 11
344.177
 21
340.215
  0
LINE
  8
0
 10
344.177
 20
340.215
 11
344.019
 21
340.203
  0
LINE
  8
0
 10
344.019
 20
340.203
 11
343.86
 21
340.2
  0
LINE
  8
0
 10
343.86
 20
340.2
 11
343.702
 21
340.208
  0
LINE
  8
0
 10
311.223
 20
282.494
 11
309.331
 21
282.705
  0
LINE
  8
0
 10
309.331
 20
282.705
 11
307.456
 21
283.036
  0
LINE
  8
0
 10
307.456
 20
283.036
 11
305.606
 21
283.485
  0
LINE
  8
0
 10
305.606
 20
283.485
 11
303.788
 21
284.05
  0
LINE
  8
0
 10
303.788
 20
284.05
 11
302.01
 21
284.729
  0
LINE
  8
0
 10
302.01
 20
284.729
 11
300.278
 21
285.52
  0
LINE
  8
0
 10
300.278
 20
285.52
 11
298.6
 21
286.419
  0
LINE
  8
0
 10
298.6
 20
286.419
 11
296.982
 21
287.423
  0
LINE
  8
0
 10
296.982
 20
287.423
 11
295.432
 21
288.527
  0
LINE
  8
0
 10
295.432
 20
288.527
 11
293.954
 21
289.728
  0
LINE
  8
0
 10
293.954
 20
289.728
 11
292.556
 21
291.019
  0
LINE
  8
0
 10
292.556
 20
291.019
 11
291.242
 21
292.397
  0
LINE
  8
0
 10
291.242
 20
292.397
 11
290.018
 21
293.855
  0
LINE
  8
0
 10
290.018
 20
293.855
 11
288.89
 21
295.388
  0
LINE
  8
0
 10
288.89
 20
295.388
 11
287.861
 21
296.99
  0
LINE
  8
0
 10
287.861
 20
296.99
 11
286.935
 21
298.653
  0
LINE
  8
0
 10
286.935
 20
298.653
 11
286.117
 21
300.372
  0
LINE
  8
0
 10
286.117
 20
300.372
 11
285.409
 21
302.139
  0
LINE
  8
0
 10
285.409
 20
302.139
 11
284.815
 21
303.948
  0
LINE
  8
0
 10
284.815
 20
303.948
 11
284.337
 21
305.791
  0
LINE
  8
0
 10
284.337
 20
305.791
 11
283.977
 21
307.66
  0
LINE
  8
0
 10
283.977
 20
307.66
 11
283.736
 21
309.548
  0
LINE
  8
0
 10
283.736
 20
309.548
 11
283.615
 21
311.448
  0
LINE
  8
0
 10
283.615
 20
311.448
 11
283.615
 21
313.352
  0
LINE
  8
0
 10
283.615
 20
313.352
 11
283.736
 21
315.252
  0
LINE
  8
0
 10
283.736
 20
315.252
 11
283.977
 21
317.14
  0
LINE
  8
0
 10
283.977
 20
317.14
 11
284.337
 21
319.009
  0
LINE
  8
0
 10
284.337
 20
319.009
 11
284.815
 21
320.852
  0
LINE
  8
0
 10
284.815
 20
320.852
 11
285.409
 21
322.661
  0
LINE
  8
0
 10
285.409
 20
322.661
 11
286.117
 21
324.428
  0
LINE
  8
0
 10
286.117
 20
324.428
 11
286.935
 21
326.147
  0
LINE
  8
0
 10
286.935
 20
326.147
 11
287.861
 21
327.81
  0
LINE
  8
0
 10
287.861
 20
327.81
 11
288.89
 21
329.412
  0
LINE
  8
0
 10
288.89
 20
329.412
 11
290.018
 21
330.945
  0
LINE
  8
0
 10
290.018
 20
330.945
 11
291.242
 21
332.403
  0
LINE
  8
0
 10
291.242
 20
332.403
 11
292.556
 21
333.781
  0
LINE
  8
0
 10
292.556
 20
333.781
 11
293.954
 21
335.072
  0
LINE
  8
0
 10
293.954
 20
335.072
 11
295.432
 21
336.273
  0
LINE
  8
0
 10
295.432
 20
336.273
 11
296.982
 21
337.377
  0
LINE
  8
0
 10
296.982
 20
337.377
 11
298.6
 21
338.381
  0
LINE
  8
0
 10
298.6
 20
338.381
 11
300.278
 21
339.28
  0
LINE
  8
0
 10
300.278
 20
339.28
 11
302.01
 21
340.071
  0
LINE
  8
0
 10
302.01
 20
340.071
 11
303.788
 21
340.75
  0
LINE
  8
0
 10
303.788
 20
340.75
 11
305.606
 21
341.315
  0
LINE
  8
0
 10
305.606
 20
341.315
 11
307.456
 21
341.764
  0
LINE
  8
0
 10
307.456
 20
341.764
 11
309.331
 21
342.095
  0
LINE
  8
0
 10
309.331
 20
342.095
 11
311.223
 21
342.306
  0
LINE
  8
0
 10
311.223
 20
342.306
 11
313.124
 21
342.396
  0
LINE
  8
0
 10
313.124
 20
342.396
 11
315.027
 21
342.366
  0
LINE
  8
0
 10
315.027
 20
342.366
 11
316.925
 21
342.215
  0
LINE
  8
0
 10
316.925
 20
342.215
 11
318.809
 21
341.944
  0
LINE
  8
0
 10
318.809
 20
341.944
 11
320.673
 21
341.554
  0
LINE
  8
0
 10
320.673
 20
341.554
 11
322.508
 21
341.047
  0
LINE
  8
0
 10
322.508
 20
341.047
 11
324.307
 21
340.424
  0
LINE
  8
0
 10
324.307
 20
340.424
 11
326.062
 21
339.689
  0
LINE
  8
0
 10
326.062
 20
339.689
 11
327.768
 21
338.844
  0
LINE
  8
0
 10
327.768
 20
338.844
 11
329.417
 21
337.892
  0
LINE
  8
0
 10
329.417
 20
337.892
 11
331.002
 21
336.837
  0
LINE
  8
0
 10
331.002
 20
336.837
 11
332.517
 21
335.684
  0
LINE
  8
0
 10
332.517
 20
335.684
 11
333.955
 21
334.438
  0
LINE
  8
0
 10
333.955
 20
334.438
 11
335.312
 21
333.102
  0
LINE
  8
0
 10
335.312
 20
333.102
 11
336.581
 21
331.684
  0
LINE
  8
0
 10
336.581
 20
331.684
 11
337.758
 21
330.187
  0
LINE
  8
0
 10
337.758
 20
330.187
 11
338.838
 21
328.619
  0
LINE
  8
0
 10
338.838
 20
328.619
 11
339.815
 21
326.986
  0
LINE
  8
0
 10
339.815
 20
326.986
 11
340.688
 21
325.294
  0
LINE
  8
0
 10
340.688
 20
325.294
 11
341.451
 21
323.55
  0
LINE
  8
0
 10
341.451
 20
323.55
 11
342.102
 21
321.761
  0
LINE
  8
0
 10
342.102
 20
321.761
 11
342.638
 21
319.934
  0
LINE
  8
0
 10
342.638
 20
319.934
 11
343.058
 21
318.078
  0
LINE
  8
0
 10
343.058
 20
318.078
 11
343.359
 21
316.198
  0
LINE
  8
0
 10
343.359
 20
316.198
 11
343.54
 21
314.303
  0
LINE
  8
0
 10
343.54
 20
314.303
 11
343.6
 21
312.4
  0
LINE
  8
0
 10
343.6
 20
312.4
 11
343.54
 21
310.497
  0
LINE
  8
0
 10
343.54
 20
310.497
 11
343.359
 21
308.602
  0
LINE
  8
0
 10
343.359
 20
308.602
 11
343.058
 21
306.722
  0
LINE
  8
0
 10
343.058
 20
306.722
 11
342.638
 21
304.866
  0
LINE
  8
0
 10
342.638
 20
304.866
 11
342.102
 21
303.039
  0
LINE
  8
0
 10
342.102
 20
303.039
 11
341.451
 21
301.25
  0
LINE
  8
0
 10
341.451
 20
301.25
 11
340.688
 21
299.506
  0
LINE
  8
0
 10
340.688
 20
299.506
 11
339.815
 21
297.814
  0
LINE
  8
0
 10
339.815
 20
297.814
 11
338.838
 21
296.181
  0
LINE
  8
0
 10
338.838
 20
296.181
 11
337.758
 21
294.613
  0
LINE
  8
0
 10
337.758
 20
294.613
 11
336.581
 21
293.116
  0
LINE
  8
0
 10
336.581
 20
293.116
 11
335.312
 21
291.698
  0
LINE
  8
0
 10
335.312
 20
291.698
 11
333.955
 21
290.362
  0
LINE
  8
0
 10
333.955
 20
290.362
 11
332.517
 21
289.116
  0
LINE
  8
0
 10
332.517
 20
289.116
 11
331.002
 21
287.963
  0
LINE
  8
0
 10
331.002
 20
287.963
 11
329.417
 21
286.908
  0
LINE
  8
0
 10
329.417
 20
286.908
 11
327.768
 21
285.956
  0
LINE
  8
0
 10
327.768
 20
285.956
 11
326.062
 21
285.111
  0
LINE
  8
0
 10
326.062
 20
285.111
 11
324.307
 21
284.376
  0
LINE
  8
0
 10
324.307
 20
284.376
 11
322.508
 21
283.753
  0
LINE
  8
0
 10
322.508
 20
283.753
 11
320.673
 21
283.246
  0
LINE
  8
0
 10
320.673
 20
283.246
 11
318.809
 21
282.856
  0
LINE
  8
0
 10
318.809
 20
282.856
 11
316.925
 21
282.585
  0
LINE
  8
0
 10
316.925
 20
282.585
 11
315.027
 21
282.434
  0
LINE
  8
0
 10
315.027
 20
282.434
 11
313.124
 21
282.404
  0
LINE
  8
0
 10
313.124
 20
282.404
 11
311.223
 21
282.494
  0
LINE
  8
0
 10
338.402
 20
334.908
 11
338.244
 21
334.925
  0
LINE
  8
0
 10
338.244
 20
334.925
 11
338.088
 21
334.953
  0
LINE
  8
0
 10
338.088
 20
334.953
 11
337.934
 21
334.99
  0
LINE
  8
0
 10
337.934
 20
334.99
 11
337.782
 21
335.038
  0
LINE
  8
0
 10
337.782
 20
335.038
 11
337.634
 21
335.094
  0
LINE
  8
0
 10
337.634
 20
335.094
 11
337.49
 21
335.16
  0
LINE
  8
0
 10
337.49
 20
335.16
 11
337.35
 21
335.235
  0
LINE
  8
0
 10
337.35
 20
335.235
 11
337.215
 21
335.319
  0
LINE
  8
0
 10
337.215
 20
335.319
 11
337.086
 21
335.411
  0
LINE
  8
0
 10
337.086
 20
335.411
 11
336.963
 21
335.511
  0
LINE
  8
0
 10
336.963
 20
335.511
 11
336.846
 21
335.618
  0
LINE
  8
0
 10
336.846
 20
335.618
 11
336.737
 21
335.733
  0
LINE
  8
0
 10
336.737
 20
335.733
 11
336.635
 21
335.855
  0
LINE
  8
0
 10
336.635
 20
335.855
 11
336.541
 21
335.982
  0
LINE
  8
0
 10
336.541
 20
335.982
 11
336.455
 21
336.116
  0
LINE
  8
0
 10
336.455
 20
336.116
 11
336.378
 21
336.254
  0
LINE
  8
0
 10
336.378
 20
336.254
 11
336.31
 21
336.398
  0
LINE
  8
0
 10
336.31
 20
336.398
 11
336.251
 21
336.545
  0
LINE
  8
0
 10
336.251
 20
336.545
 11
336.201
 21
336.696
  0
LINE
  8
0
 10
336.201
 20
336.696
 11
336.161
 21
336.849
  0
LINE
  8
0
 10
336.161
 20
336.849
 11
336.131
 21
337.005
  0
LINE
  8
0
 10
336.131
 20
337.005
 11
336.111
 21
337.162
  0
LINE
  8
0
 10
336.111
 20
337.162
 11
336.101
 21
337.321
  0
LINE
  8
0
 10
336.101
 20
337.321
 11
336.101
 21
337.479
  0
LINE
  8
0
 10
336.101
 20
337.479
 11
336.111
 21
337.638
  0
LINE
  8
0
 10
336.111
 20
337.638
 11
336.131
 21
337.795
  0
LINE
  8
0
 10
336.131
 20
337.795
 11
336.161
 21
337.951
  0
LINE
  8
0
 10
336.161
 20
337.951
 11
336.201
 21
338.104
  0
LINE
  8
0
 10
336.201
 20
338.104
 11
336.251
 21
338.255
  0
LINE
  8
0
 10
336.251
 20
338.255
 11
336.31
 21
338.402
  0
LINE
  8
0
 10
336.31
 20
338.402
 11
336.378
 21
338.546
  0
LINE
  8
0
 10
336.378
 20
338.546
 11
336.455
 21
338.684
  0
LINE
  8
0
 10
336.455
 20
338.684
 11
336.541
 21
338.818
  0
LINE
  8
0
 10
336.541
 20
338.818
 11
336.635
 21
338.945
  0
LINE
  8
0
 10
336.635
 20
338.945
 11
336.737
 21
339.067
  0
LINE
  8
0
 10
336.737
 20
339.067
 11
336.846
 21
339.182
  0
LINE
  8
0
 10
336.846
 20
339.182
 11
336.963
 21
339.289
  0
LINE
  8
0
 10
336.963
 20
339.289
 11
337.086
 21
339.389
  0
LINE
  8
0
 10
337.086
 20
339.389
 11
337.215
 21
339.481
  0
LINE
  8
0
 10
337.215
 20
339.481
 11
337.35
 21
339.565
  0
LINE
  8
0
 10
337.35
 20
339.565
 11
337.49
 21
339.64
  0
LINE
  8
0
 10
337.49
 20
339.64
 11
337.634
 21
339.706
  0
LINE
  8
0
 10
337.634
 20
339.706
 11
337.782
 21
339.763
  0
LINE
  8
0
 10
337.782
 20
339.763
 11
337.934
 21
339.81
  0
LINE
  8
0
 10
337.934
 20
339.81
 11
338.088
 21
339.847
  0
LINE
  8
0
 10
338.088
 20
339.847
 11
338.244
 21
339.875
  0
LINE
  8
0
 10
338.244
 20
339.875
 11
338.402
 21
339.892
  0
LINE
  8
0
 10
338.402
 20
339.892
 11
338.56
 21
339.9
  0
LINE
  8
0
 10
338.56
 20
339.9
 11
338.719
 21
339.897
  0
LINE
  8
0
 10
338.719
 20
339.897
 11
338.877
 21
339.885
  0
LINE
  8
0
 10
338.877
 20
339.885
 11
339.034
 21
339.862
  0
LINE
  8
0
 10
339.034
 20
339.862
 11
339.189
 21
339.83
  0
LINE
  8
0
 10
339.189
 20
339.83
 11
339.342
 21
339.787
  0
LINE
  8
0
 10
339.342
 20
339.787
 11
339.492
 21
339.735
  0
LINE
  8
0
 10
339.492
 20
339.735
 11
339.639
 21
339.674
  0
LINE
  8
0
 10
339.639
 20
339.674
 11
339.781
 21
339.604
  0
LINE
  8
0
 10
339.781
 20
339.604
 11
339.918
 21
339.524
  0
LINE
  8
0
 10
339.918
 20
339.524
 11
340.05
 21
339.436
  0
LINE
  8
0
 10
340.05
 20
339.436
 11
340.176
 21
339.34
  0
LINE
  8
0
 10
340.176
 20
339.34
 11
340.296
 21
339.236
  0
LINE
  8
0
 10
340.296
 20
339.236
 11
340.409
 21
339.125
  0
LINE
  8
0
 10
340.409
 20
339.125
 11
340.515
 21
339.007
  0
LINE
  8
0
 10
340.515
 20
339.007
 11
340.613
 21
338.882
  0
LINE
  8
0
 10
340.613
 20
338.882
 11
340.703
 21
338.752
  0
LINE
  8
0
 10
340.703
 20
338.752
 11
340.785
 21
338.615
  0
LINE
  8
0
 10
340.785
 20
338.615
 11
340.857
 21
338.474
  0
LINE
  8
0
 10
340.857
 20
338.474
 11
340.921
 21
338.329
  0
LINE
  8
0
 10
340.921
 20
338.329
 11
340.975
 21
338.18
  0
LINE
  8
0
 10
340.975
 20
338.18
 11
341.02
 21
338.028
  0
LINE
  8
0
 10
341.02
 20
338.028
 11
341.055
 21
337.873
  0
LINE
  8
0
 10
341.055
 20
337.873
 11
341.08
 21
337.716
  0
LINE
  8
0
 10
341.08
 20
337.716
 11
341.095
 21
337.559
  0
LINE
  8
0
 10
341.095
 20
337.559
 11
341.1
 21
337.4
  0
LINE
  8
0
 10
341.1
 20
337.4
 11
341.095
 21
337.241
  0
LINE
  8
0
 10
341.095
 20
337.241
 11
341.08
 21
337.084
  0
LINE
  8
0
 10
341.08
 20
337.084
 11
341.055
 21
336.927
  0
LINE
  8
0
 10
341.055
 20
336.927
 11
341.02
 21
336.772
  0
LINE
  8
0
 10
341.02
 20
336.772
 11
340.975
 21
336.62
  0
LINE
  8
0
 10
340.975
 20
336.62
 11
340.921
 21
336.471
  0
LINE
  8
0
 10
340.921
 20
336.471
 11
340.857
 21
336.326
  0
LINE
  8
0
 10
340.857
 20
336.326
 11
340.785
 21
336.185
  0
LINE
  8
0
 10
340.785
 20
336.185
 11
340.703
 21
336.048
  0
LINE
  8
0
 10
340.703
 20
336.048
 11
340.613
 21
335.918
  0
LINE
  8
0
 10
340.613
 20
335.918
 11
340.515
 21
335.793
  0
LINE
  8
0
 10
340.515
 20
335.793
 11
340.409
 21
335.675
  0
LINE
  8
0
 10
340.409
 20
335.675
 11
340.296
 21
335.564
  0
LINE
  8
0
 10
340.296
 20
335.564
 11
340.176
 21
335.46
  0
LINE
  8
0
 10
340.176
 20
335.46
 11
340.05
 21
335.364
  0
LINE
  8
0
 10
340.05
 20
335.364
 11
339.918
 21
335.276
  0
LINE
  8
0
 10
339.918
 20
335.276
 11
339.781
 21
335.196
  0
LINE
  8
0
 10
339.781
 20
335.196
 11
339.639
 21
335.126
  0
LINE
  8
0
 10
339.639
 20
335.126
 11
339.492
 21
335.065
  0
LINE
  8
0
 10
339.492
 20
335.065
 11
339.342
 21
335.013
  0
LINE
  8
0
 10
339.342
 20
335.013
 11
339.189
 21
334.97
  0
LINE
  8
0
 10
339.189
 20
334.97
 11
339.034
 21
334.938
  0
LINE
  8
0
 10
339.034
 20
334.938
 11
338.877
 21
334.915
  0
LINE
  8
0
 10
338.877
 20
334.915
 11
338.719
 21
334.903
  0
LINE
  8
0
 10
338.719
 20
334.903
 11
338.56
 21
334.9
  0
LINE
  8
0
 10
338.56
 20
334.9
 11
338.402
 21
334.908
  0
LINE
  8
0
 10
288.481
 20
334.903
 11
288.323
 21
334.915
  0
LINE
  8
0
 10
288.323
 20
334.915
 11
288.166
 21
334.938
  0
LINE
  8
0
 10
288.166
 20
334.938
 11
288.011
 21
334.97
  0
LINE
  8
0
 10
288.011
 20
334.97
 11
287.858
 21
335.013
  0
LINE
  8
0
 10
287.858
 20
335.013
 11
287.708
 21
335.065
  0
LINE
  8
0
 10
287.708
 20
335.065
 11
287.561
 21
335.126
  0
LINE
  8
0
 10
287.561
 20
335.126
 11
287.419
 21
335.196
  0
LINE
  8
0
 10
287.419
 20
335.196
 11
287.282
 21
335.276
  0
LINE
  8
0
 10
287.282
 20
335.276
 11
287.15
 21
335.364
  0
LINE
  8
0
 10
287.15
 20
335.364
 11
287.024
 21
335.46
  0
LINE
  8
0
 10
287.024
 20
335.46
 11
286.904
 21
335.564
  0
LINE
  8
0
 10
286.904
 20
335.564
 11
286.791
 21
335.675
  0
LINE
  8
0
 10
286.791
 20
335.675
 11
286.685
 21
335.793
  0
LINE
  8
0
 10
286.685
 20
335.793
 11
286.587
 21
335.918
  0
LINE
  8
0
 10
286.587
 20
335.918
 11
286.497
 21
336.048
  0
LINE
  8
0
 10
286.497
 20
336.048
 11
286.415
 21
336.185
  0
LINE
  8
0
 10
286.415
 20
336.185
 11
286.343
 21
336.326
  0
LINE
  8
0
 10
286.343
 20
336.326
 11
286.279
 21
336.471
  0
LINE
  8
0
 10
286.279
 20
336.471
 11
286.225
 21
336.62
  0
LINE
  8
0
 10
286.225
 20
336.62
 11
286.18
 21
336.772
  0
LINE
  8
0
 10
286.18
 20
336.772
 11
286.145
 21
336.927
  0
LINE
  8
0
 10
286.145
 20
336.927
 11
286.12
 21
337.084
  0
LINE
  8
0
 10
286.12
 20
337.084
 11
286.105
 21
337.241
  0
LINE
  8
0
 10
286.105
 20
337.241
 11
286.1
 21
337.4
  0
LINE
  8
0
 10
286.1
 20
337.4
 11
286.105
 21
337.559
  0
LINE
  8
0
 10
286.105
 20
337.559
 11
286.12
 21
337.716
  0
LINE
  8
0
 10
286.12
 20
337.716
 11
286.145
 21
337.873
  0
LINE
  8
0
 10
286.145
 20
337.873
 11
286.18
 21
338.028
  0
LINE
  8
0
 10
286.18
 20
338.028
 11
286.225
 21
338.18
  0
LINE
  8
0
 10
286.225
 20
338.18
 11
286.279
 21
338.329
  0
LINE
  8
0
 10
286.279
 20
338.329
 11
286.343
 21
338.474
  0
LINE
  8
0
 10
286.343
 20
338.474
 11
286.415
 21
338.615
  0
LINE
  8
0
 10
286.415
 20
338.615
 11
286.497
 21
338.752
  0
LINE
  8
0
 10
286.497
 20
338.752
 11
286.587
 21
338.882
  0
LINE
  8
0
 10
286.587
 20
338.882
 11
286.685
 21
339.007
  0
LINE
  8
0
 10
286.685
 20
339.007
 11
286.791
 21
339.125
  0
LINE
  8
0
 10
286.791
 20
339.125
 11
286.904
 21
339.236
  0
LINE
  8
0
 10
286.904
 20
339.236
 11
287.024
 21
339.34
  0
LINE
  8
0
 10
287.024
 20
339.34
 11
287.15
 21
339.436
  0
LINE
  8
0
 10
287.15
 20
339.436
 11
287.282
 21
339.524
  0
LINE
  8
0
 10
287.282
 20
339.524
 11
287.419
 21
339.604
  0
LINE
  8
0
 10
287.419
 20
339.604
 11
287.561
 21
339.674
  0
LINE
  8
0
 10
287.561
 20
339.674
 11
287.708
 21
339.735
  0
LINE
  8
0
 10
287.708
 20
339.735
 11
287.858
 21
339.787
  0
LINE
  8
0
 10
287.858
 20
339.787
 11
288.011
 21
339.83
  0
LINE
  8
0
 10
288.011
 20
339.83
 11
288.166
 21
339.862
  0
LINE
  8
0
 10
288.166
 20
339.862
 11
288.323
 21
339.885
  0
LINE
  8
0
 10
288.323
 20
339.885
 11
288.481
 21
339.897
  0
LINE
  8
0
 10
288.481
 20
339.897
 11
288.64
 21
339.9
  0
LINE
  8
0
 10
288.64
 20
339.9
 11
288.798
 21
339.892
  0
LINE
  8
0
 10
288.798
 20
339.892
 11
288.956
 21
339.875
  0
LINE
  8
0
 10
288.956
 20
339.875
 11
289.112
 21
339.847
  0
LINE
  8
0
 10
289.112
 20
339.847
 11
289.266
 21
339.81
  0
LINE
  8
0
 10
289.266
 20
339.81
 11
289.418
 21
339.763
  0
LINE
  8
0
 10
289.418
 20
339.763
 11
289.566
 21
339.706
  0
LINE
  8
0
 10
289.566
 20
339.706
 11
289.71
 21
339.64
  0
LINE
  8
0
 10
289.71
 20
339.64
 11
289.85
 21
339.565
  0
LINE
  8
0
 10
289.85
 20
339.565
 11
289.985
 21
339.481
  0
LINE
  8
0
 10
289.985
 20
339.481
 11
290.114
 21
339.389
  0
LINE
  8
0
 10
290.114
 20
339.389
 11
290.237
 21
339.289
  0
LINE
  8
0
 10
290.237
 20
339.289
 11
290.354
 21
339.182
  0
LINE
  8
0
 10
290.354
 20
339.182
 11
290.463
 21
339.067
  0
LINE
  8
0
 10
290.463
 20
339.067
 11
290.565
 21
338.945
  0
LINE
  8
0
 10
290.565
 20
338.945
 11
290.659
 21
338.818
  0
LINE
  8
0
 10
290.659
 20
338.818
 11
290.745
 21
338.684
  0
LINE
  8
0
 10
290.745
 20
338.684
 11
290.822
 21
338.546
  0
LINE
  8
0
 10
290.822
 20
338.546
 11
290.89
 21
338.402
  0
LINE
  8
0
 10
290.89
 20
338.402
 11
290.949
 21
338.255
  0
LINE
  8
0
 10
290.949
 20
338.255
 11
290.999
 21
338.104
  0
LINE
  8
0
 10
290.999
 20
338.104
 11
291.039
 21
337.951
  0
LINE
  8
0
 10
291.039
 20
337.951
 11
291.069
 21
337.795
  0
LINE
  8
0
 10
291.069
 20
337.795
 11
291.089
 21
337.638
  0
LINE
  8
0
 10
291.089
 20
337.638
 11
291.099
 21
337.479
  0
LINE
  8
0
 10
291.099
 20
337.479
 11
291.099
 21
337.321
  0
LINE
  8
0
 10
291.099
 20
337.321
 11
291.089
 21
337.162
  0
LINE
  8
0
 10
291.089
 20
337.162
 11
291.069
 21
337.005
  0
LINE
  8
0
 10
291.069
 20
337.005
 11
291.039
 21
336.849
  0
LINE
  8
0
 10
291.039
 20
336.849
 11
290.999
 21
336.696
  0
LINE
  8
0
 10
290.999
 20
336.696
 11
290.949
 21
336.545
  0
LINE
  8
0
 10
290.949
 20
336.545
 11
290.89
 21
336.398
  0
LINE
  8
0
 10
290.89
 20
336.398
 11
290.822
 21
336.254
  0
LINE
  8
0
 10
290.822
 20
336.254
 11
290.745
 21
336.116
  0
LINE
  8
0
 10
290.745
 20
336.116
 11
290.659
 21
335.982
  0
LINE
  8
0
 10
290.659
 20
335.982
 11
290.565
 21
335.855
  0
LINE
  8
0
 10
290.565
 20
335.855
 11
290.463
 21
335.733
  0
LINE
  8
0
 10
290.463
 20
335.733
 11
290.354
 21
335.618
  0
LINE
  8
0
 10
290.354
 20
335.618
 11
290.237
 21
335.511
  0
LINE
  8
0
 10
290.237
 20
335.511
 11
290.114
 21
335.411
  0
LINE
  8
0
 10
290.114
 20
335.411
 11
289.985
 21
335.319
  0
LINE
  8
0
 10
289.985
 20
335.319
 11
289.85
 21
335.235
  0
LINE
  8
0
 10
289.85
 20
335.235
 11
289.71
 21
335.16
  0
LINE
  8
0
 10
289.71
 20
335.16
 11
289.566
 21
335.094
  0
LINE
  8
0
 10
289.566
 20
335.094
 11
289.418
 21
335.038
  0
LINE
  8
0
 10
289.418
 20
335.038
 11
289.266
 21
334.99
  0
LINE
  8
0
 10
289.266
 20
334.99
 11
289.112
 21
334.953
  0
LINE
  8
0
 10
289.112
 20
334.953
 11
288.956
 21
334.925
  0
LINE
  8
0
 10
288.956
 20
334.925
 11
288.798
 21
334.908
  0
LINE
  8
0
 10
288.798
 20
334.908
 11
288.64
 21
334.9
  0
LINE
  8
0
 10
288.64
 20
334.9
 11
288.481
 21
334.903
  0
LINE
  8
0
 10
338.402
 20
284.908
 11
338.244
 21
284.925
  0
LINE
  8
0
 10
338.244
 20
284.925
 11
338.088
 21
284.953
  0
LINE
  8
0
 10
338.088
 20
284.953
 11
337.934
 21
284.99
  0
LINE
  8
0
 10
337.934
 20
284.99
 11
337.782
 21
285.038
  0
LINE
  8
0
 10
337.782
 20
285.038
 11
337.634
 21
285.094
  0
LINE
  8
0
 10
337.634
 20
285.094
 11
337.49
 21
285.16
  0
LINE
  8
0
 10
337.49
 20
285.16
 11
337.35
 21
285.235
  0
LINE
  8
0
 10
337.35
 20
285.235
 11
337.215
 21
285.319
  0
LINE
  8
0
 10
337.215
 20
285.319
 11
337.086
 21
285.411
  0
LINE
  8
0
 10
337.086
 20
285.411
 11
336.963
 21
285.511
  0
LINE
  8
0
 10
336.963
 20
285.511
 11
336.846
 21
285.618
  0
LINE
  8
0
 10
336.846
 20
285.618
 11
336.737
 21
285.733
  0
LINE
  8
0
 10
336.737
 20
285.733
 11
336.635
 21
285.855
  0
LINE
  8
0
 10
336.635
 20
285.855
 11
336.541
 21
285.982
  0
LINE
  8
0
 10
336.541
 20
285.982
 11
336.455
 21
286.116
  0
LINE
  8
0
 10
336.455
 20
286.116
 11
336.378
 21
286.254
  0
LINE
  8
0
 10
336.378
 20
286.254
 11
336.31
 21
286.398
  0
LINE
  8
0
 10
336.31
 20
286.398
 11
336.251
 21
286.545
  0
LINE
  8
0
 10
336.251
 20
286.545
 11
336.201
 21
286.696
  0
LINE
  8
0
 10
336.201
 20
286.696
 11
336.161
 21
286.849
  0
LINE
  8
0
 10
336.161
 20
286.849
 11
336.131
 21
287.005
  0
LINE
  8
0
 10
336.131
 20
287.005
 11
336.111
 21
287.162
  0
LINE
  8
0
 10
336.111
 20
287.162
 11
336.101
 21
287.321
  0
LINE
  8
0
 10
336.101
 20
287.321
 11
336.101
 21
287.479
  0
LINE
  8
0
 10
336.101
 20
287.479
 11
336.111
 21
287.638
  0
LINE
  8
0
 10
336.111
 20
287.638
 11
336.131
 21
287.795
  0
LINE
  8
0
 10
336.131
 20
287.795
 11
336.161
 21
287.951
  0
LINE
  8
0
 10
336.161
 20
287.951
 11
336.201
 21
288.104
  0
LINE
  8
0
 10
336.201
 20
288.104
 11
336.251
 21
288.255
  0
LINE
  8
0
 10
336.251
 20
288.255
 11
336.31
 21
288.402
  0
LINE
  8
0
 10
336.31
 20
288.402
 11
336.378
 21
288.546
  0
LINE
  8
0
 10
336.378
 20
288.546
 11
336.455
 21
288.684
  0
LINE
  8
0
 10
336.455
 20
288.684
 11
336.541
 21
288.818
  0
LINE
  8
0
 10
336.541
 20
288.818
 11
336.635
 21
288.945
  0
LINE
  8
0
 10
336.635
 20
288.945
 11
336.737
 21
289.067
  0
LINE
  8
0
 10
336.737
 20
289.067
 11
336.846
 21
289.182
  0
LINE
  8
0
 10
336.846
 20
289.182
 11
336.963
 21
289.289
  0
LINE
  8
0
 10
336.963
 20
289.289
 11
337.086
 21
289.389
  0
LINE
  8
0
 10
337.086
 20
289.389
 11
337.215
 21
289.481
  0
LINE
  8
0
 10
337.215
 20
289.481
 11
337.35
 21
289.565
  0
LINE
  8
0
 10
337.35
 20
289.565
 11
337.49
 21
289.64
  0
LINE
  8
0
 10
337.49
 20
289.64
 11
337.634
 21
289.706
  0
LINE
  8
0
 10
337.634
 20
289.706
 11
337.782
 21
289.763
  0
LINE
  8
0
 10
337.782
 20
289.763
 11
337.934
 21
289.81
  0
LINE
  8
0
 10
337.934
 20
289.81
 11
338.088
 21
289.847
  0
LINE
  8
0
 10
338.088
 20
289.847
 11
338.244
 21
289.875
  0
LINE
  8
0
 10
338.244
 20
289.875
 11
338.402
 21
289.892
  0
LINE
  8
0
 10
338.402
 20
289.892
 11
338.56
 21
289.9
  0
LINE
  8
0
 10
338.56
 20
289.9
 11
338.719
 21
289.897
  0
LINE
  8
0
 10
338.719
 20
289.897
 11
338.877
 21
289.885
  0
LINE
  8
0
 10
338.877
 20
289.885
 11
339.034
 21
289.862
  0
LINE
  8
0
 10
339.034
 20
289.862
 11
339.189
 21
289.83
  0
LINE
  8
0
 10
339.189
 20
289.83
 11
339.342
 21
289.787
  0
LINE
  8
0
 10
339.342
 20
289.787
 11
339.492
 21
289.735
  0
LINE
  8
0
 10
339.492
 20
289.735
 11
339.639
 21
289.674
  0
LINE
  8
0
 10
339.639
 20
289.674
 11
339.781
 21
289.604
  0
LINE
  8
0
 10
339.781
 20
289.604
 11
339.918
 21
289.524
  0
LINE
  8
0
 10
339.918
 20
289.524
 11
340.05
 21
289.436
  0
LINE
  8
0
 10
340.05
 20
289.436
 11
340.176
 21
289.34
  0
LINE
  8
0
 10
340.176
 20
289.34
 11
340.296
 21
289.236
  0
LINE
  8
0
 10
340.296
 20
289.236
 11
340.409
 21
289.125
  0
LINE
  8
0
 10
340.409
 20
289.125
 11
340.515
 21
289.007
  0
LINE
  8
0
 10
340.515
 20
289.007
 11
340.613
 21
288.882
  0
LINE
  8
0
 10
340.613
 20
288.882
 11
340.703
 21
288.752
  0
LINE
  8
0
 10
340.703
 20
288.752
 11
340.785
 21
288.615
  0
LINE
  8
0
 10
340.785
 20
288.615
 11
340.857
 21
288.474
  0
LINE
  8
0
 10
340.857
 20
288.474
 11
340.921
 21
288.329
  0
LINE
  8
0
 10
340.921
 20
288.329
 11
340.975
 21
288.18
  0
LINE
  8
0
 10
340.975
 20
288.18
 11
341.02
 21
288.028
  0
LINE
  8
0
 10
341.02
 20
288.028
 11
341.055
 21
287.873
  0
LINE
  8
0
 10
341.055
 20
287.873
 11
341.08
 21
287.716
  0
LINE
  8
0
 10
341.08
 20
287.716
 11
341.095
 21
287.559
  0
LINE
  8
0
 10
341.095
 20
287.559
 11
341.1
 21
287.4
  0
LINE
  8
0
 10
341.1
 20
287.4
 11
341.095
 21
287.241
  0
LINE
  8
0
 10
341.095
 20
287.241
 11
341.08
 21
287.084
  0
LINE
  8
0
 10
341.08
 20
287.084
 11
341.055
 21
286.927
  0
LINE
  8
0
 10
341.055
 20
286.927
 11
341.02
 21
286.772
  0
LINE
  8
0
 10
341.02
 20
286.772
 11
340.975
 21
286.62
  0
LINE
  8
0
 10
340.975
 20
286.62
 11
340.921
 21
286.471
  0
LINE
  8
0
 10
340.921
 20
286.471
 11
340.857
 21
286.326
  0
LINE
  8
0
 10
340.857
 20
286.326
 11
340.785
 21
286.185
  0
LINE
  8
0
 10
340.785
 20
286.185
 11
340.703
 21
286.048
  0
LINE
  8
0
 10
340.703
 20
286.048
 11
340.613
 21
285.918
  0
LINE
  8
0
 10
340.613
 20
285.918
 11
340.515
 21
285.793
  0
LINE
  8
0
 10
340.515
 20
285.793
 11
340.409
 21
285.675
  0
LINE
  8
0
 10
340.409
 20
285.675
 11
340.296
 21
285.564
  0
LINE
  8
0
 10
340.296
 20
285.564
 11
340.176
 21
285.46
  0
LINE
  8
0
 10
340.176
 20
285.46
 11
340.05
 21
285.364
  0
LINE
  8
0
 10
340.05
 20
285.364
 11
339.918
 21
285.276
  0
LINE
  8
0
 10
339.918
 20
285.276
 11
339.781
 21
285.196
  0
LINE
  8
0
 10
339.781
 20
285.196
 11
339.639
 21
285.126
  0
LINE
  8
0
 10
339.639
 20
285.126
 11
339.492
 21
285.065
  0
LINE
  8
0
 10
339.492
 20
285.065
 11
339.342
 21
285.013
  0
LINE
  8
0
 10
339.342
 20
285.013
 11
339.189
 21
284.97
  0
LINE
  8
0
 10
339.189
 20
284.97
 11
339.034
 21
284.938
  0
LINE
  8
0
 10
339.034
 20
284.938
 11
338.877
 21
284.915
  0
LINE
  8
0
 10
338.877
 20
284.915
 11
338.719
 21
284.903
  0
LINE
  8
0
 10
338.719
 20
284.903
 11
338.56
 21
284.9
  0
LINE
  8
0
 10
338.56
 20
284.9
 11
338.402
 21
284.908
  0
LINE
  8
0
 10
288.441
 20
284.905
 11
288.284
 21
284.92
  0
LINE
  8
0
 10
288.284
 20
284.92
 11
288.127
 21
284.945
  0
LINE
  8
0
 10
288.127
 20
284.945
 11
287.972
 21
284.98
  0
LINE
  8
0
 10
287.972
 20
284.98
 11
287.82
 21
285.025
  0
LINE
  8
0
 10
287.82
 20
285.025
 11
287.671
 21
285.079
  0
LINE
  8
0
 10
287.671
 20
285.079
 11
287.526
 21
285.143
  0
LINE
  8
0
 10
287.526
 20
285.143
 11
287.385
 21
285.215
  0
LINE
  8
0
 10
287.385
 20
285.215
 11
287.248
 21
285.297
  0
LINE
  8
0
 10
287.248
 20
285.297
 11
287.118
 21
285.387
  0
LINE
  8
0
 10
287.118
 20
285.387
 11
286.993
 21
285.485
  0
LINE
  8
0
 10
286.993
 20
285.485
 11
286.875
 21
285.591
  0
LINE
  8
0
 10
286.875
 20
285.591
 11
286.764
 21
285.704
  0
LINE
  8
0
 10
286.764
 20
285.704
 11
286.66
 21
285.824
  0
LINE
  8
0
 10
286.66
 20
285.824
 11
286.564
 21
285.95
  0
LINE
  8
0
 10
286.564
 20
285.95
 11
286.476
 21
286.082
  0
LINE
  8
0
 10
286.476
 20
286.082
 11
286.396
 21
286.219
  0
LINE
  8
0
 10
286.396
 20
286.219
 11
286.326
 21
286.361
  0
LINE
  8
0
 10
286.326
 20
286.361
 11
286.265
 21
286.508
  0
LINE
  8
0
 10
286.265
 20
286.508
 11
286.213
 21
286.658
  0
LINE
  8
0
 10
286.213
 20
286.658
 11
286.17
 21
286.811
  0
LINE
  8
0
 10
286.17
 20
286.811
 11
286.138
 21
286.966
  0
LINE
  8
0
 10
286.138
 20
286.966
 11
286.115
 21
287.123
  0
LINE
  8
0
 10
286.115
 20
287.123
 11
286.103
 21
287.281
  0
LINE
  8
0
 10
286.103
 20
287.281
 11
286.1
 21
287.44
  0
LINE
  8
0
 10
286.1
 20
287.44
 11
286.108
 21
287.598
  0
LINE
  8
0
 10
286.108
 20
287.598
 11
286.125
 21
287.756
  0
LINE
  8
0
 10
286.125
 20
287.756
 11
286.153
 21
287.912
  0
LINE
  8
0
 10
286.153
 20
287.912
 11
286.19
 21
288.066
  0
LINE
  8
0
 10
286.19
 20
288.066
 11
286.237
 21
288.218
  0
LINE
  8
0
 10
286.237
 20
288.218
 11
286.294
 21
288.366
  0
LINE
  8
0
 10
286.294
 20
288.366
 11
286.36
 21
288.51
  0
LINE
  8
0
 10
286.36
 20
288.51
 11
286.435
 21
288.65
  0
LINE
  8
0
 10
286.435
 20
288.65
 11
286.519
 21
288.785
  0
LINE
  8
0
 10
286.519
 20
288.785
 11
286.611
 21
288.914
  0
LINE
  8
0
 10
286.611
 20
288.914
 11
286.711
 21
289.037
  0
LINE
  8
0
 10
286.711
 20
289.037
 11
286.818
 21
289.154
  0
LINE
  8
0
 10
286.818
 20
289.154
 11
286.933
 21
289.263
  0
LINE
  8
0
 10
286.933
 20
289.263
 11
287.055
 21
289.365
  0
LINE
  8
0
 10
287.055
 20
289.365
 11
287.182
 21
289.459
  0
LINE
  8
0
 10
287.182
 20
289.459
 11
287.316
 21
289.545
  0
LINE
  8
0
 10
287.316
 20
289.545
 11
287.454
 21
289.622
  0
LINE
  8
0
 10
287.454
 20
289.622
 11
287.598
 21
289.69
  0
LINE
  8
0
 10
287.598
 20
289.69
 11
287.745
 21
289.749
  0
LINE
  8
0
 10
287.745
 20
289.749
 11
287.896
 21
289.799
  0
LINE
  8
0
 10
287.896
 20
289.799
 11
288.049
 21
289.839
  0
LINE
  8
0
 10
288.049
 20
289.839
 11
288.205
 21
289.869
  0
LINE
  8
0
 10
288.205
 20
289.869
 11
288.362
 21
289.889
  0
LINE
  8
0
 10
288.362
 20
289.889
 11
288.521
 21
289.899
  0
LINE
  8
0
 10
288.521
 20
289.899
 11
288.679
 21
289.899
  0
LINE
  8
0
 10
288.679
 20
289.899
 11
288.838
 21
289.889
  0
LINE
  8
0
 10
288.838
 20
289.889
 11
288.995
 21
289.869
  0
LINE
  8
0
 10
288.995
 20
289.869
 11
289.151
 21
289.839
  0
LINE
  8
0
 10
289.151
 20
289.839
 11
289.304
 21
289.799
  0
LINE
  8
0
 10
289.304
 20
289.799
 11
289.455
 21
289.749
  0
LINE
  8
0
 10
289.455
 20
289.749
 11
289.602
 21
289.69
  0
LINE
  8
0
 10
289.602
 20
289.69
 11
289.746
 21
289.622
  0
LINE
  8
0
 10
289.746
 20
289.622
 11
289.884
 21
289.545
  0
LINE
  8
0
 10
289.884
 20
289.545
 11
290.018
 21
289.459
  0
LINE
  8
0
 10
290.018
 20
289.459
 11
290.145
 21
289.365
  0
LINE
  8
0
 10
290.145
 20
289.365
 11
290.267
 21
289.263
  0
LINE
  8
0
 10
290.267
 20
289.263
 11
290.382
 21
289.154
  0
LINE
  8
0
 10
290.382
 20
289.154
 11
290.489
 21
289.037
  0
LINE
  8
0
 10
290.489
 20
289.037
 11
290.589
 21
288.914
  0
LINE
  8
0
 10
290.589
 20
288.914
 11
290.681
 21
288.785
  0
LINE
  8
0
 10
290.681
 20
288.785
 11
290.765
 21
288.65
  0
LINE
  8
0
 10
290.765
 20
288.65
 11
290.84
 21
288.51
  0
LINE
  8
0
 10
290.84
 20
288.51
 11
290.906
 21
288.366
  0
LINE
  8
0
 10
290.906
 20
288.366
 11
290.962
 21
288.218
  0
LINE
  8
0
 10
290.962
 20
288.218
 11
291.01
 21
288.066
  0
LINE
  8
0
 10
291.01
 20
288.066
 11
291.047
 21
287.912
  0
LINE
  8
0
 10
291.047
 20
287.912
 11
291.075
 21
287.756
  0
LINE
  8
0
 10
291.075
 20
287.756
 11
291.092
 21
287.598
  0
LINE
  8
0
 10
291.092
 20
287.598
 11
291.1
 21
287.44
  0
LINE
  8
0
 10
291.1
 20
287.44
 11
291.097
 21
287.281
  0
LINE
  8
0
 10
291.097
 20
287.281
 11
291.085
 21
287.123
  0
LINE
  8
0
 10
291.085
 20
287.123
 11
291.062
 21
286.966
  0
LINE
  8
0
 10
291.062
 20
286.966
 11
291.03
 21
286.811
  0
LINE
  8
0
 10
291.03
 20
286.811
 11
290.987
 21
286.658
  0
LINE
  8
0
 10
290.987
 20
286.658
 11
290.935
 21
286.508
  0
LINE
  8
0
 10
290.935
 20
286.508
 11
290.874
 21
286.361
  0
LINE
  8
0
 10
290.874
 20
286.361
 11
290.804
 21
286.219
  0
LINE
  8
0
 10
290.804
 20
286.219
 11
290.724
 21
286.082
  0
LINE
  8
0
 10
290.724
 20
286.082
 11
290.636
 21
285.95
  0
LINE
  8
0
 10
290.636
 20
285.95
 11
290.54
 21
285.824
  0
LINE
  8
0
 10
290.54
 20
285.824
 11
290.436
 21
285.704
  0
LINE
  8
0
 10
290.436
 20
285.704
 11
290.325
 21
285.591
  0
LINE
  8
0
 10
290.325
 20
285.591
 11
290.207
 21
285.485
  0
LINE
  8
0
 10
290.207
 20
285.485
 11
290.082
 21
285.387
  0
LINE
  8
0
 10
290.082
 20
285.387
 11
289.952
 21
285.297
  0
LINE
  8
0
 10
289.952
 20
285.297
 11
289.815
 21
285.215
  0
LINE
  8
0
 10
289.815
 20
285.215
 11
289.674
 21
285.143
  0
LINE
  8
0
 10
289.674
 20
285.143
 11
289.529
 21
285.079
  0
LINE
  8
0
 10
289.529
 20
285.079
 11
289.38
 21
285.025
  0
LINE
  8
0
 10
289.38
 20
285.025
 11
289.228
 21
284.98
  0
LINE
  8
0
 10
289.228
 20
284.98
 11
289.073
 21
284.945
  0
LINE
  8
0
 10
289.073
 20
284.945
 11
288.916
 21
284.92
  0
LINE
  8
0
 10
288.916
 20
284.92
 11
288.759
 21
284.905
  0
LINE
  8
0
 10
288.759
 20
284.905
 11
288.6
 21
284.9
  0
LINE
  8
0
 10
288.6
 20
284.9
 11
288.441
 21
284.905
  0
LINE
  8
0
 10
51.0741
 20
278.9
 11
51.0741
 21
285.9
  0
LINE
  8
0
 10
51.0741
 20
285.9
 11
65.0741
 21
285.9
  0
LINE
  8
0
 10
65.0741
 20
285.9
 11
65.0741
 21
278.9
  0
LINE
  8
0
 10
65.0741
 20
278.9
 11
51.0741
 21
278.9
  0
LINE
  8
0
 10
343.702
 20
279.608
 11
343.544
 21
279.625
  0
LINE
  8
0
 10
343.544
 20
279.625
 11
343.388
 21
279.653
  0
LINE
  8
0
 10
343.388
 20
279.653
 11
343.234
 21
279.69
  0
LINE
  8
0
 10
343.234
 20
279.69
 11
343.082
 21
279.737
  0
LINE
  8
0
 10
343.082
 20
279.737
 11
342.934
 21
279.794
  0
LINE
  8
0
 10
342.934
 20
279.794
 11
342.79
 21
279.86
  0
LINE
  8
0
 10
342.79
 20
279.86
 11
342.65
 21
279.935
  0
LINE
  8
0
 10
342.65
 20
279.935
 11
342.515
 21
280.019
  0
LINE
  8
0
 10
342.515
 20
280.019
 11
342.386
 21
280.111
  0
LINE
  8
0
 10
342.386
 20
280.111
 11
342.263
 21
280.211
  0
LINE
  8
0
 10
342.263
 20
280.211
 11
342.146
 21
280.318
  0
LINE
  8
0
 10
342.146
 20
280.318
 11
342.037
 21
280.433
  0
LINE
  8
0
 10
342.037
 20
280.433
 11
341.935
 21
280.555
  0
LINE
  8
0
 10
341.935
 20
280.555
 11
341.841
 21
280.682
  0
LINE
  8
0
 10
341.841
 20
280.682
 11
341.755
 21
280.816
  0
LINE
  8
0
 10
341.755
 20
280.816
 11
341.678
 21
280.954
  0
LINE
  8
0
 10
341.678
 20
280.954
 11
341.61
 21
281.098
  0
LINE
  8
0
 10
341.61
 20
281.098
 11
341.551
 21
281.245
  0
LINE
  8
0
 10
341.551
 20
281.245
 11
341.501
 21
281.396
  0
LINE
  8
0
 10
341.501
 20
281.396
 11
341.461
 21
281.549
  0
LINE
  8
0
 10
341.461
 20
281.549
 11
341.431
 21
281.705
  0
LINE
  8
0
 10
341.431
 20
281.705
 11
341.411
 21
281.862
  0
LINE
  8
0
 10
341.411
 20
281.862
 11
341.401
 21
282.021
  0
LINE
  8
0
 10
341.401
 20
282.021
 11
341.401
 21
282.179
  0
LINE
  8
0
 10
341.401
 20
282.179
 11
341.411
 21
282.338
  0
LINE
  8
0
 10
341.411
 20
282.338
 11
341.431
 21
282.495
  0
LINE
  8
0
 10
341.431
 20
282.495
 11
341.461
 21
282.651
  0
LINE
  8
0
 10
341.461
 20
282.651
 11
341.501
 21
282.804
  0
LINE
  8
0
 10
341.501
 20
282.804
 11
341.551
 21
282.955
  0
LINE
  8
0
 10
341.551
 20
282.955
 11
341.61
 21
283.102
  0
LINE
  8
0
 10
341.61
 20
283.102
 11
341.678
 21
283.246
  0
LINE
  8
0
 10
341.678
 20
283.246
 11
341.755
 21
283.384
  0
LINE
  8
0
 10
341.755
 20
283.384
 11
341.841
 21
283.518
  0
LINE
  8
0
 10
341.841
 20
283.518
 11
341.935
 21
283.645
  0
LINE
  8
0
 10
341.935
 20
283.645
 11
342.037
 21
283.767
  0
LINE
  8
0
 10
342.037
 20
283.767
 11
342.146
 21
283.882
  0
LINE
  8
0
 10
342.146
 20
283.882
 11
342.263
 21
283.989
  0
LINE
  8
0
 10
342.263
 20
283.989
 11
342.386
 21
284.089
  0
LINE
  8
0
 10
342.386
 20
284.089
 11
342.515
 21
284.181
  0
LINE
  8
0
 10
342.515
 20
284.181
 11
342.65
 21
284.265
  0
LINE
  8
0
 10
342.65
 20
284.265
 11
342.79
 21
284.34
  0
LINE
  8
0
 10
342.79
 20
284.34
 11
342.934
 21
284.406
  0
LINE
  8
0
 10
342.934
 20
284.406
 11
343.082
 21
284.462
  0
LINE
  8
0
 10
343.082
 20
284.462
 11
343.234
 21
284.51
  0
LINE
  8
0
 10
343.234
 20
284.51
 11
343.388
 21
284.547
  0
LINE
  8
0
 10
343.388
 20
284.547
 11
343.544
 21
284.575
  0
LINE
  8
0
 10
343.544
 20
284.575
 11
343.702
 21
284.592
  0
LINE
  8
0
 10
343.702
 20
284.592
 11
343.86
 21
284.6
  0
LINE
  8
0
 10
343.86
 20
284.6
 11
344.019
 21
284.597
  0
LINE
  8
0
 10
344.019
 20
284.597
 11
344.177
 21
284.585
  0
LINE
  8
0
 10
344.177
 20
284.585
 11
344.334
 21
284.562
  0
LINE
  8
0
 10
344.334
 20
284.562
 11
344.489
 21
284.53
  0
LINE
  8
0
 10
344.489
 20
284.53
 11
344.642
 21
284.487
  0
LINE
  8
0
 10
344.642
 20
284.487
 11
344.792
 21
284.435
  0
LINE
  8
0
 10
344.792
 20
284.435
 11
344.939
 21
284.374
  0
LINE
  8
0
 10
344.939
 20
284.374
 11
345.081
 21
284.304
  0
LINE
  8
0
 10
345.081
 20
284.304
 11
345.218
 21
284.224
  0
LINE
  8
0
 10
345.218
 20
284.224
 11
345.35
 21
284.136
  0
LINE
  8
0
 10
345.35
 20
284.136
 11
345.476
 21
284.04
  0
LINE
  8
0
 10
345.476
 20
284.04
 11
345.596
 21
283.936
  0
LINE
  8
0
 10
345.596
 20
283.936
 11
345.709
 21
283.825
  0
LINE
  8
0
 10
345.709
 20
283.825
 11
345.815
 21
283.707
  0
LINE
  8
0
 10
345.815
 20
283.707
 11
345.913
 21
283.582
  0
LINE
  8
0
 10
345.913
 20
283.582
 11
346.003
 21
283.452
  0
LINE
  8
0
 10
346.003
 20
283.452
 11
346.085
 21
283.315
  0
LINE
  8
0
 10
346.085
 20
283.315
 11
346.157
 21
283.174
  0
LINE
  8
0
 10
346.157
 20
283.174
 11
346.221
 21
283.029
  0
LINE
  8
0
 10
346.221
 20
283.029
 11
346.275
 21
282.88
  0
LINE
  8
0
 10
346.275
 20
282.88
 11
346.32
 21
282.728
  0
LINE
  8
0
 10
346.32
 20
282.728
 11
346.355
 21
282.573
  0
LINE
  8
0
 10
346.355
 20
282.573
 11
346.38
 21
282.416
  0
LINE
  8
0
 10
346.38
 20
282.416
 11
346.395
 21
282.259
  0
LINE
  8
0
 10
346.395
 20
282.259
 11
346.4
 21
282.1
  0
LINE
  8
0
 10
346.4
 20
282.1
 11
346.395
 21
281.941
  0
LINE
  8
0
 10
346.395
 20
281.941
 11
346.38
 21
281.784
  0
LINE
  8
0
 10
346.38
 20
281.784
 11
346.355
 21
281.627
  0
LINE
  8
0
 10
346.355
 20
281.627
 11
346.32
 21
281.472
  0
LINE
  8
0
 10
346.32
 20
281.472
 11
346.275
 21
281.32
  0
LINE
  8
0
 10
346.275
 20
281.32
 11
346.221
 21
281.171
  0
LINE
  8
0
 10
346.221
 20
281.171
 11
346.157
 21
281.026
  0
LINE
  8
0
 10
346.157
 20
281.026
 11
346.085
 21
280.885
  0
LINE
  8
0
 10
346.085
 20
280.885
 11
346.003
 21
280.748
  0
LINE
  8
0
 10
346.003
 20
280.748
 11
345.913
 21
280.618
  0
LINE
  8
0
 10
345.913
 20
280.618
 11
345.815
 21
280.493
  0
LINE
  8
0
 10
345.815
 20
280.493
 11
345.709
 21
280.375
  0
LINE
  8
0
 10
345.709
 20
280.375
 11
345.596
 21
280.264
  0
LINE
  8
0
 10
345.596
 20
280.264
 11
345.476
 21
280.16
  0
LINE
  8
0
 10
345.476
 20
280.16
 11
345.35
 21
280.064
  0
LINE
  8
0
 10
345.35
 20
280.064
 11
345.218
 21
279.976
  0
LINE
  8
0
 10
345.218
 20
279.976
 11
345.081
 21
279.896
  0
LINE
  8
0
 10
345.081
 20
279.896
 11
344.939
 21
279.826
  0
LINE
  8
0
 10
344.939
 20
279.826
 11
344.792
 21
279.765
  0
LINE
  8
0
 10
344.792
 20
279.765
 11
344.642
 21
279.713
  0
LINE
  8
0
 10
344.642
 20
279.713
 11
344.489
 21
279.67
  0
LINE
  8
0
 10
344.489
 20
279.67
 11
344.334
 21
279.638
  0
LINE
  8
0
 10
344.334
 20
279.638
 11
344.177
 21
279.615
  0
LINE
  8
0
 10
344.177
 20
279.615
 11
344.019
 21
279.603
  0
LINE
  8
0
 10
344.019
 20
279.603
 11
343.86
 21
279.6
  0
LINE
  8
0
 10
343.86
 20
279.6
 11
343.702
 21
279.608
  0
LINE
  8
0
 10
283.141
 20
279.605
 11
282.984
 21
279.62
  0
LINE
  8
0
 10
282.984
 20
279.62
 11
282.827
 21
279.645
  0
LINE
  8
0
 10
282.827
 20
279.645
 11
282.672
 21
279.68
  0
LINE
  8
0
 10
282.672
 20
279.68
 11
282.52
 21
279.725
  0
LINE
  8
0
 10
282.52
 20
279.725
 11
282.371
 21
279.779
  0
LINE
  8
0
 10
282.371
 20
279.779
 11
282.226
 21
279.843
  0
LINE
  8
0
 10
282.226
 20
279.843
 11
282.085
 21
279.915
  0
LINE
  8
0
 10
282.085
 20
279.915
 11
281.948
 21
279.997
  0
LINE
  8
0
 10
281.948
 20
279.997
 11
281.818
 21
280.087
  0
LINE
  8
0
 10
281.818
 20
280.087
 11
281.693
 21
280.185
  0
LINE
  8
0
 10
281.693
 20
280.185
 11
281.575
 21
280.291
  0
LINE
  8
0
 10
281.575
 20
280.291
 11
281.464
 21
280.404
  0
LINE
  8
0
 10
281.464
 20
280.404
 11
281.36
 21
280.524
  0
LINE
  8
0
 10
281.36
 20
280.524
 11
281.264
 21
280.65
  0
LINE
  8
0
 10
281.264
 20
280.65
 11
281.176
 21
280.782
  0
LINE
  8
0
 10
281.176
 20
280.782
 11
281.096
 21
280.919
  0
LINE
  8
0
 10
281.096
 20
280.919
 11
281.026
 21
281.061
  0
LINE
  8
0
 10
281.026
 20
281.061
 11
280.965
 21
281.208
  0
LINE
  8
0
 10
280.965
 20
281.208
 11
280.913
 21
281.358
  0
LINE
  8
0
 10
280.913
 20
281.358
 11
280.87
 21
281.511
  0
LINE
  8
0
 10
280.87
 20
281.511
 11
280.838
 21
281.666
  0
LINE
  8
0
 10
280.838
 20
281.666
 11
280.815
 21
281.823
  0
LINE
  8
0
 10
280.815
 20
281.823
 11
280.803
 21
281.981
  0
LINE
  8
0
 10
280.803
 20
281.981
 11
280.8
 21
282.14
  0
LINE
  8
0
 10
280.8
 20
282.14
 11
280.808
 21
282.298
  0
LINE
  8
0
 10
280.808
 20
282.298
 11
280.825
 21
282.456
  0
LINE
  8
0
 10
280.825
 20
282.456
 11
280.853
 21
282.612
  0
LINE
  8
0
 10
280.853
 20
282.612
 11
280.89
 21
282.766
  0
LINE
  8
0
 10
280.89
 20
282.766
 11
280.938
 21
282.918
  0
LINE
  8
0
 10
280.938
 20
282.918
 11
280.994
 21
283.066
  0
LINE
  8
0
 10
280.994
 20
283.066
 11
281.06
 21
283.21
  0
LINE
  8
0
 10
281.06
 20
283.21
 11
281.135
 21
283.35
  0
LINE
  8
0
 10
281.135
 20
283.35
 11
281.219
 21
283.485
  0
LINE
  8
0
 10
281.219
 20
283.485
 11
281.311
 21
283.614
  0
LINE
  8
0
 10
281.311
 20
283.614
 11
281.411
 21
283.737
  0
LINE
  8
0
 10
281.411
 20
283.737
 11
281.518
 21
283.854
  0
LINE
  8
0
 10
281.518
 20
283.854
 11
281.633
 21
283.963
  0
LINE
  8
0
 10
281.633
 20
283.963
 11
281.755
 21
284.065
  0
LINE
  8
0
 10
281.755
 20
284.065
 11
281.882
 21
284.159
  0
LINE
  8
0
 10
281.882
 20
284.159
 11
282.016
 21
284.245
  0
LINE
  8
0
 10
282.016
 20
284.245
 11
282.154
 21
284.322
  0
LINE
  8
0
 10
282.154
 20
284.322
 11
282.298
 21
284.39
  0
LINE
  8
0
 10
282.298
 20
284.39
 11
282.445
 21
284.449
  0
LINE
  8
0
 10
282.445
 20
284.449
 11
282.596
 21
284.499
  0
LINE
  8
0
 10
282.596
 20
284.499
 11
282.749
 21
284.539
  0
LINE
  8
0
 10
282.749
 20
284.539
 11
282.905
 21
284.569
  0
LINE
  8
0
 10
282.905
 20
284.569
 11
283.062
 21
284.589
  0
LINE
  8
0
 10
283.062
 20
284.589
 11
283.221
 21
284.599
  0
LINE
  8
0
 10
283.221
 20
284.599
 11
283.379
 21
284.599
  0
LINE
  8
0
 10
283.379
 20
284.599
 11
283.538
 21
284.589
  0
LINE
  8
0
 10
283.538
 20
284.589
 11
283.695
 21
284.569
  0
LINE
  8
0
 10
283.695
 20
284.569
 11
283.851
 21
284.539
  0
LINE
  8
0
 10
283.851
 20
284.539
 11
284.004
 21
284.499
  0
LINE
  8
0
 10
284.004
 20
284.499
 11
284.155
 21
284.449
  0
LINE
  8
0
 10
284.155
 20
284.449
 11
284.302
 21
284.39
  0
LINE
  8
0
 10
284.302
 20
284.39
 11
284.446
 21
284.322
  0
LINE
  8
0
 10
284.446
 20
284.322
 11
284.584
 21
284.245
  0
LINE
  8
0
 10
284.584
 20
284.245
 11
284.718
 21
284.159
  0
LINE
  8
0
 10
284.718
 20
284.159
 11
284.845
 21
284.065
  0
LINE
  8
0
 10
284.845
 20
284.065
 11
284.967
 21
283.963
  0
LINE
  8
0
 10
284.967
 20
283.963
 11
285.082
 21
283.854
  0
LINE
  8
0
 10
285.082
 20
283.854
 11
285.189
 21
283.737
  0
LINE
  8
0
 10
285.189
 20
283.737
 11
285.289
 21
283.614
  0
LINE
  8
0
 10
285.289
 20
283.614
 11
285.381
 21
283.485
  0
LINE
  8
0
 10
285.381
 20
283.485
 11
285.465
 21
283.35
  0
LINE
  8
0
 10
285.465
 20
283.35
 11
285.54
 21
283.21
  0
LINE
  8
0
 10
285.54
 20
283.21
 11
285.606
 21
283.066
  0
LINE
  8
0
 10
285.606
 20
283.066
 11
285.663
 21
282.918
  0
LINE
  8
0
 10
285.663
 20
282.918
 11
285.71
 21
282.766
  0
LINE
  8
0
 10
285.71
 20
282.766
 11
285.747
 21
282.612
  0
LINE
  8
0
 10
285.747
 20
282.612
 11
285.775
 21
282.456
  0
LINE
  8
0
 10
285.775
 20
282.456
 11
285.792
 21
282.298
  0
LINE
  8
0
 10
285.792
 20
282.298
 11
285.8
 21
282.14
  0
LINE
  8
0
 10
285.8
 20
282.14
 11
285.797
 21
281.981
  0
LINE
  8
0
 10
285.797
 20
281.981
 11
285.785
 21
281.823
  0
LINE
  8
0
 10
285.785
 20
281.823
 11
285.762
 21
281.666
  0
LINE
  8
0
 10
285.762
 20
281.666
 11
285.73
 21
281.511
  0
LINE
  8
0
 10
285.73
 20
281.511
 11
285.687
 21
281.358
  0
LINE
  8
0
 10
285.687
 20
281.358
 11
285.635
 21
281.208
  0
LINE
  8
0
 10
285.635
 20
281.208
 11
285.574
 21
281.061
  0
LINE
  8
0
 10
285.574
 20
281.061
 11
285.504
 21
280.919
  0
LINE
  8
0
 10
285.504
 20
280.919
 11
285.424
 21
280.782
  0
LINE
  8
0
 10
285.424
 20
280.782
 11
285.336
 21
280.65
  0
LINE
  8
0
 10
285.336
 20
280.65
 11
285.24
 21
280.524
  0
LINE
  8
0
 10
285.24
 20
280.524
 11
285.136
 21
280.404
  0
LINE
  8
0
 10
285.136
 20
280.404
 11
285.025
 21
280.291
  0
LINE
  8
0
 10
285.025
 20
280.291
 11
284.907
 21
280.185
  0
LINE
  8
0
 10
284.907
 20
280.185
 11
284.782
 21
280.087
  0
LINE
  8
0
 10
284.782
 20
280.087
 11
284.652
 21
279.997
  0
LINE
  8
0
 10
284.652
 20
279.997
 11
284.516
 21
279.915
  0
LINE
  8
0
 10
284.516
 20
279.915
 11
284.374
 21
279.843
  0
LINE
  8
0
 10
284.374
 20
279.843
 11
284.229
 21
279.779
  0
LINE
  8
0
 10
284.229
 20
279.779
 11
284.08
 21
279.725
  0
LINE
  8
0
 10
284.08
 20
279.725
 11
283.928
 21
279.68
  0
LINE
  8
0
 10
283.928
 20
279.68
 11
283.773
 21
279.645
  0
LINE
  8
0
 10
283.773
 20
279.645
 11
283.616
 21
279.62
  0
LINE
  8
0
 10
283.616
 20
279.62
 11
283.459
 21
279.605
  0
LINE
  8
0
 10
283.459
 20
279.605
 11
283.3
 21
279.6
  0
LINE
  8
0
 10
283.3
 20
279.6
 11
283.141
 21
279.605
  0
LINE
  8
0
 10
114.757
 20
250.41
 11
114.441
 21
250.44
  0
LINE
  8
0
 10
114.441
 20
250.44
 11
114.128
 21
250.49
  0
LINE
  8
0
 10
114.128
 20
250.49
 11
113.818
 21
250.56
  0
LINE
  8
0
 10
113.818
 20
250.56
 11
113.514
 21
250.65
  0
LINE
  8
0
 10
113.514
 20
250.65
 11
113.216
 21
250.758
  0
LINE
  8
0
 10
113.216
 20
250.758
 11
112.925
 21
250.885
  0
LINE
  8
0
 10
112.925
 20
250.885
 11
112.643
 21
251.031
  0
LINE
  8
0
 10
112.643
 20
251.031
 11
112.371
 21
251.194
  0
LINE
  8
0
 10
112.371
 20
251.194
 11
112.11
 21
251.374
  0
LINE
  8
0
 10
112.11
 20
251.374
 11
111.86
 21
251.57
  0
LINE
  8
0
 10
111.86
 20
251.57
 11
111.624
 21
251.781
  0
LINE
  8
0
 10
111.624
 20
251.781
 11
111.401
 21
252.007
  0
LINE
  8
0
 10
111.401
 20
252.007
 11
111.193
 21
252.247
  0
LINE
  8
0
 10
111.193
 20
252.247
 11
111.001
 21
252.5
  0
LINE
  8
0
 10
111.001
 20
252.5
 11
110.825
 21
252.764
  0
LINE
  8
0
 10
110.825
 20
252.764
 11
110.667
 21
253.039
  0
LINE
  8
0
 10
110.667
 20
253.039
 11
110.526
 21
253.323
  0
LINE
  8
0
 10
110.526
 20
253.323
 11
110.403
 21
253.616
  0
LINE
  8
0
 10
110.403
 20
253.616
 11
110.3
 21
253.915
  0
LINE
  8
0
 10
110.3
 20
253.915
 11
110.215
 21
254.221
  0
LINE
  8
0
 10
110.215
 20
254.221
 11
110.15
 21
254.532
  0
LINE
  8
0
 10
110.15
 20
254.532
 11
110.105
 21
254.846
  0
LINE
  8
0
 10
110.105
 20
254.846
 11
110.08
 21
255.162
  0
LINE
  8
0
 10
110.08
 20
255.162
 11
110.075
 21
255.479
  0
LINE
  8
0
 10
110.075
 20
255.479
 11
110.075
 21
270.479
  0
LINE
  8
0
 10
110.075
 20
270.479
 11
110.09
 21
270.796
  0
LINE
  8
0
 10
110.09
 20
270.796
 11
110.125
 21
271.112
  0
LINE
  8
0
 10
110.125
 20
271.112
 11
110.18
 21
271.424
  0
LINE
  8
0
 10
110.18
 20
271.424
 11
110.255
 21
271.732
  0
LINE
  8
0
 10
110.255
 20
271.732
 11
110.349
 21
272.035
  0
LINE
  8
0
 10
110.349
 20
272.035
 11
110.462
 21
272.332
  0
LINE
  8
0
 10
110.462
 20
272.332
 11
110.594
 21
272.62
  0
LINE
  8
0
 10
110.594
 20
272.62
 11
110.744
 21
272.9
  0
LINE
  8
0
 10
110.744
 20
272.9
 11
110.911
 21
273.17
  0
LINE
  8
0
 10
110.911
 20
273.17
 11
111.095
 21
273.428
  0
LINE
  8
0
 10
111.095
 20
273.428
 11
111.295
 21
273.674
  0
LINE
  8
0
 10
111.295
 20
273.674
 11
111.511
 21
273.907
  0
LINE
  8
0
 10
111.511
 20
273.907
 11
111.74
 21
274.126
  0
LINE
  8
0
 10
111.74
 20
274.126
 11
111.983
 21
274.33
  0
LINE
  8
0
 10
111.983
 20
274.33
 11
112.239
 21
274.518
  0
LINE
  8
0
 10
112.239
 20
274.518
 11
112.506
 21
274.69
  0
LINE
  8
0
 10
112.506
 20
274.69
 11
112.783
 21
274.844
  0
LINE
  8
0
 10
112.783
 20
274.844
 11
113.069
 21
274.981
  0
LINE
  8
0
 10
113.069
 20
274.981
 11
113.364
 21
275.098
  0
LINE
  8
0
 10
113.364
 20
275.098
 11
113.665
 21
275.197
  0
LINE
  8
0
 10
113.665
 20
275.197
 11
113.973
 21
275.277
  0
LINE
  8
0
 10
113.973
 20
275.277
 11
114.284
 21
275.337
  0
LINE
  8
0
 10
114.284
 20
275.337
 11
114.599
 21
275.377
  0
LINE
  8
0
 10
114.599
 20
275.377
 11
114.915
 21
275.397
  0
LINE
  8
0
 10
114.915
 20
275.397
 11
115.233
 21
275.397
  0
LINE
  8
0
 10
115.233
 20
275.397
 11
115.549
 21
275.377
  0
LINE
  8
0
 10
115.549
 20
275.377
 11
115.864
 21
275.337
  0
LINE
  8
0
 10
115.864
 20
275.337
 11
116.176
 21
275.277
  0
LINE
  8
0
 10
116.176
 20
275.277
 11
116.483
 21
275.197
  0
LINE
  8
0
 10
116.483
 20
275.197
 11
116.784
 21
275.098
  0
LINE
  8
0
 10
116.784
 20
275.098
 11
117.079
 21
274.981
  0
LINE
  8
0
 10
117.079
 20
274.981
 11
117.365
 21
274.844
  0
LINE
  8
0
 10
117.365
 20
274.844
 11
117.642
 21
274.69
  0
LINE
  8
0
 10
117.642
 20
274.69
 11
117.909
 21
274.518
  0
LINE
  8
0
 10
117.909
 20
274.518
 11
118.165
 21
274.33
  0
LINE
  8
0
 10
118.165
 20
274.33
 11
118.408
 21
274.126
  0
LINE
  8
0
 10
118.408
 20
274.126
 11
118.638
 21
273.907
  0
LINE
  8
0
 10
118.638
 20
273.907
 11
118.853
 21
273.674
  0
LINE
  8
0
 10
118.853
 20
273.674
 11
119.053
 21
273.428
  0
LINE
  8
0
 10
119.053
 20
273.428
 11
119.237
 21
273.17
  0
LINE
  8
0
 10
119.237
 20
273.17
 11
119.404
 21
272.9
  0
LINE
  8
0
 10
119.404
 20
272.9
 11
119.554
 21
272.62
  0
LINE
  8
0
 10
119.554
 20
272.62
 11
119.686
 21
272.332
  0
LINE
  8
0
 10
119.686
 20
272.332
 11
119.799
 21
272.035
  0
LINE
  8
0
 10
119.799
 20
272.035
 11
119.893
 21
271.732
  0
LINE
  8
0
 10
119.893
 20
271.732
 11
119.968
 21
271.424
  0
LINE
  8
0
 10
119.968
 20
271.424
 11
120.023
 21
271.112
  0
LINE
  8
0
 10
120.023
 20
271.112
 11
120.058
 21
270.796
  0
LINE
  8
0
 10
120.058
 20
270.796
 11
120.073
 21
270.479
  0
LINE
  8
0
 10
120.073
 20
270.479
 11
120.073
 21
255.479
  0
LINE
  8
0
 10
120.073
 20
255.479
 11
120.068
 21
255.162
  0
LINE
  8
0
 10
120.068
 20
255.162
 11
120.043
 21
254.846
  0
LINE
  8
0
 10
120.043
 20
254.846
 11
119.998
 21
254.532
  0
LINE
  8
0
 10
119.998
 20
254.532
 11
119.933
 21
254.221
  0
LINE
  8
0
 10
119.933
 20
254.221
 11
119.849
 21
253.915
  0
LINE
  8
0
 10
119.849
 20
253.915
 11
119.745
 21
253.616
  0
LINE
  8
0
 10
119.745
 20
253.616
 11
119.622
 21
253.323
  0
LINE
  8
0
 10
119.622
 20
253.323
 11
119.481
 21
253.039
  0
LINE
  8
0
 10
119.481
 20
253.039
 11
119.323
 21
252.764
  0
LINE
  8
0
 10
119.323
 20
252.764
 11
119.147
 21
252.5
  0
LINE
  8
0
 10
119.147
 20
252.5
 11
118.955
 21
252.247
  0
LINE
  8
0
 10
118.955
 20
252.247
 11
118.747
 21
252.007
  0
LINE
  8
0
 10
118.747
 20
252.007
 11
118.524
 21
251.781
  0
LINE
  8
0
 10
118.524
 20
251.781
 11
118.288
 21
251.57
  0
LINE
  8
0
 10
118.288
 20
251.57
 11
118.039
 21
251.374
  0
LINE
  8
0
 10
118.039
 20
251.374
 11
117.777
 21
251.194
  0
LINE
  8
0
 10
117.777
 20
251.194
 11
117.505
 21
251.031
  0
LINE
  8
0
 10
117.505
 20
251.031
 11
117.223
 21
250.885
  0
LINE
  8
0
 10
117.223
 20
250.885
 11
116.932
 21
250.758
  0
LINE
  8
0
 10
116.932
 20
250.758
 11
116.634
 21
250.65
  0
LINE
  8
0
 10
116.634
 20
250.65
 11
116.33
 21
250.56
  0
LINE
  8
0
 10
116.33
 20
250.56
 11
116.02
 21
250.49
  0
LINE
  8
0
 10
116.02
 20
250.49
 11
115.707
 21
250.44
  0
LINE
  8
0
 10
115.707
 20
250.44
 11
115.391
 21
250.41
  0
LINE
  8
0
 10
115.391
 20
250.41
 11
115.074
 21
250.4
  0
LINE
  8
0
 10
115.074
 20
250.4
 11
114.757
 21
250.41
  0
LINE
  8
0
 10
51.0741
 20
134.9
 11
51.0741
 21
141.9
  0
LINE
  8
0
 10
51.0741
 20
141.9
 11
65.0741
 21
141.9
  0
LINE
  8
0
 10
65.0741
 20
141.9
 11
65.0741
 21
134.9
  0
LINE
  8
0
 10
65.0741
 20
134.9
 11
51.0741
 21
134.9
  0
LINE
  8
0
 10
51.0741
 20
74.9
 11
51.0741
 21
81.9
  0
LINE
  8
0
 10
51.0741
 20
81.9
 11
65.0741
 21
81.9
  0
LINE
  8
0
 10
65.0741
 20
81.9
 11
65.0741
 21
74.9
  0
LINE
  8
0
 10
65.0741
 20
74.9
 11
51.0741
 21
74.9
  0
LINE
  8
0
 10
114.757
 20
46.4101
 11
114.441
 21
46.4402
  0
LINE
  8
0
 10
114.441
 20
46.4402
 11
114.128
 21
46.4904
  0
LINE
  8
0
 10
114.128
 20
46.4904
 11
113.818
 21
46.5603
  0
LINE
  8
0
 10
113.818
 20
46.5603
 11
113.514
 21
46.6496
  0
LINE
  8
0
 10
113.514
 20
46.6496
 11
113.216
 21
46.7581
  0
LINE
  8
0
 10
113.216
 20
46.7581
 11
112.925
 21
46.8854
  0
LINE
  8
0
 10
112.925
 20
46.8854
 11
112.643
 21
47.0307
  0
LINE
  8
0
 10
112.643
 20
47.0307
 11
112.371
 21
47.1937
  0
LINE
  8
0
 10
112.371
 20
47.1937
 11
112.11
 21
47.3736
  0
LINE
  8
0
 10
112.11
 20
47.3736
 11
111.86
 21
47.5698
  0
LINE
  8
0
 10
111.86
 20
47.5698
 11
111.624
 21
47.7813
  0
LINE
  8
0
 10
111.624
 20
47.7813
 11
111.401
 21
48.0074
  0
LINE
  8
0
 10
111.401
 20
48.0074
 11
111.193
 21
48.2472
  0
LINE
  8
0
 10
111.193
 20
48.2472
 11
111.001
 21
48.4997
  0
LINE
  8
0
 10
111.001
 20
48.4997
 11
110.825
 21
48.7639
  0
LINE
  8
0
 10
110.825
 20
48.7639
 11
110.667
 21
49.0386
  0
LINE
  8
0
 10
110.667
 20
49.0386
 11
110.526
 21
49.3229
  0
LINE
  8
0
 10
110.526
 20
49.3229
 11
110.403
 21
49.6156
  0
LINE
  8
0
 10
110.403
 20
49.6156
 11
110.3
 21
49.9154
  0
LINE
  8
0
 10
110.3
 20
49.9154
 11
110.215
 21
50.2212
  0
LINE
  8
0
 10
110.215
 20
50.2212
 11
110.15
 21
50.5318
  0
LINE
  8
0
 10
110.15
 20
50.5318
 11
110.105
 21
50.8458
  0
LINE
  8
0
 10
110.105
 20
50.8458
 11
110.08
 21
51.1621
  0
LINE
  8
0
 10
110.08
 20
51.1621
 11
110.075
 21
51.4793
  0
LINE
  8
0
 10
110.075
 20
51.4793
 11
110.075
 21
66.4793
  0
LINE
  8
0
 10
110.075
 20
66.4793
 11
110.09
 21
66.7962
  0
LINE
  8
0
 10
110.09
 20
66.7962
 11
110.125
 21
67.1116
  0
LINE
  8
0
 10
110.125
 20
67.1116
 11
110.18
 21
67.424
  0
LINE
  8
0
 10
110.18
 20
67.424
 11
110.255
 21
67.7324
  0
LINE
  8
0
 10
110.255
 20
67.7324
 11
110.349
 21
68.0353
  0
LINE
  8
0
 10
110.349
 20
68.0353
 11
110.462
 21
68.3317
  0
LINE
  8
0
 10
110.462
 20
68.3317
 11
110.594
 21
68.6203
  0
LINE
  8
0
 10
110.594
 20
68.6203
 11
110.744
 21
68.9
  0
LINE
  8
0
 10
110.744
 20
68.9
 11
110.911
 21
69.1696
  0
LINE
  8
0
 10
110.911
 20
69.1696
 11
111.095
 21
69.428
  0
LINE
  8
0
 10
111.095
 20
69.428
 11
111.295
 21
69.6743
  0
LINE
  8
0
 10
111.295
 20
69.6743
 11
111.511
 21
69.9074
  0
LINE
  8
0
 10
111.511
 20
69.9074
 11
111.74
 21
70.1263
  0
LINE
  8
0
 10
111.74
 20
70.1263
 11
111.983
 21
70.3303
  0
LINE
  8
0
 10
111.983
 20
70.3303
 11
112.239
 21
70.5184
  0
LINE
  8
0
 10
112.239
 20
70.5184
 11
112.506
 21
70.6899
  0
LINE
  8
0
 10
112.506
 20
70.6899
 11
112.783
 21
70.8442
  0
LINE
  8
0
 10
112.783
 20
70.8442
 11
113.069
 21
70.9805
  0
LINE
  8
0
 10
113.069
 20
70.9805
 11
113.364
 21
71.0985
  0
LINE
  8
0
 10
113.364
 20
71.0985
 11
113.665
 21
71.1975
  0
LINE
  8
0
 10
113.665
 20
71.1975
 11
113.973
 21
71.2771
  0
LINE
  8
0
 10
113.973
 20
71.2771
 11
114.284
 21
71.3372
  0
LINE
  8
0
 10
114.284
 20
71.3372
 11
114.599
 21
71.3773
  0
LINE
  8
0
 10
114.599
 20
71.3773
 11
114.915
 21
71.3975
  0
LINE
  8
0
 10
114.915
 20
71.3975
 11
115.233
 21
71.3975
  0
LINE
  8
0
 10
115.233
 20
71.3975
 11
115.549
 21
71.3773
  0
LINE
  8
0
 10
115.549
 20
71.3773
 11
115.864
 21
71.3372
  0
LINE
  8
0
 10
115.864
 20
71.3372
 11
116.176
 21
71.2771
  0
LINE
  8
0
 10
116.176
 20
71.2771
 11
116.483
 21
71.1975
  0
LINE
  8
0
 10
116.483
 20
71.1975
 11
116.784
 21
71.0985
  0
LINE
  8
0
 10
116.784
 20
71.0985
 11
117.079
 21
70.9805
  0
LINE
  8
0
 10
117.079
 20
70.9805
 11
117.365
 21
70.8442
  0
LINE
  8
0
 10
117.365
 20
70.8442
 11
117.642
 21
70.6899
  0
LINE
  8
0
 10
117.642
 20
70.6899
 11
117.909
 21
70.5184
  0
LINE
  8
0
 10
117.909
 20
70.5184
 11
118.165
 21
70.3303
  0
LINE
  8
0
 10
118.165
 20
70.3303
 11
118.408
 21
70.1263
  0
LINE
  8
0
 10
118.408
 20
70.1263
 11
118.638
 21
69.9074
  0
LINE
  8
0
 10
118.638
 20
69.9074
 11
118.853
 21
69.6743
  0
LINE
  8
0
 10
118.853
 20
69.6743
 11
119.053
 21
69.428
  0
LINE
  8
0
 10
119.053
 20
69.428
 11
119.237
 21
69.1696
  0
LINE
  8
0
 10
119.237
 20
69.1696
 11
119.404
 21
68.9
  0
LINE
  8
0
 10
119.404
 20
68.9
 11
119.554
 21
68.6203
  0
LINE
  8
0
 10
119.554
 20
68.6203
 11
119.686
 21
68.3317
  0
LINE
  8
0
 10
119.686
 20
68.3317
 11
119.799
 21
68.0353
  0
LINE
  8
0
 10
119.799
 20
68.0353
 11
119.893
 21
67.7324
  0
LINE
  8
0
 10
119.893
 20
67.7324
 11
119.968
 21
67.424
  0
LINE
  8
0
 10
119.968
 20
67.424
 11
120.023
 21
67.1116
  0
LINE
  8
0
 10
120.023
 20
67.1116
 11
120.058
 21
66.7962
  0
LINE
  8
0
 10
120.058
 20
66.7962
 11
120.073
 21
66.4793
  0
LINE
  8
0
 10
120.073
 20
66.4793
 11
120.073
 21
51.4793
  0
LINE
  8
0
 10
120.073
 20
51.4793
 11
120.068
 21
51.1621
  0
LINE
  8
0
 10
120.068
 20
51.1621
 11
120.043
 21
50.8458
  0
LINE
  8
0
 10
120.043
 20
50.8458
 11
119.998
 21
50.5318
  0
LINE
  8
0
 10
119.998
 20
50.5318
 11
119.933
 21
50.2212
  0
LINE
  8
0
 10
119.933
 20
50.2212
 11
119.849
 21
49.9154
  0
LINE
  8
0
 10
119.849
 20
49.9154
 11
119.745
 21
49.6156
  0
LINE
  8
0
 10
119.745
 20
49.6156
 11
119.622
 21
49.3229
  0
LINE
  8
0
 10
119.622
 20
49.3229
 11
119.481
 21
49.0386
  0
LINE
  8
0
 10
119.481
 20
49.0386
 11
119.323
 21
48.7639
  0
LINE
  8
0
 10
119.323
 20
48.7639
 11
119.147
 21
48.4997
  0
LINE
  8
0
 10
119.147
 20
48.4997
 11
118.955
 21
48.2472
  0
LINE
  8
0
 10
118.955
 20
48.2472
 11
118.747
 21
48.0074
  0
LINE
  8
0
 10
118.747
 20
48.0074
 11
118.524
 21
47.7813
  0
LINE
  8
0
 10
118.524
 20
47.7813
 11
118.288
 21
47.5698
  0
LINE
  8
0
 10
118.288
 20
47.5698
 11
118.039
 21
47.3736
  0
LINE
  8
0
 10
118.039
 20
47.3736
 11
117.777
 21
47.1937
  0
LINE
  8
0
 10
117.777
 20
47.1937
 11
117.505
 21
47.0307
  0
LINE
  8
0
 10
117.505
 20
47.0307
 11
117.223
 21
46.8854
  0
LINE
  8
0
 10
117.223
 20
46.8854
 11
116.932
 21
46.7581
  0
LINE
  8
0
 10
116.932
 20
46.7581
 11
116.634
 21
46.6496
  0
LINE
  8
0
 10
116.634
 20
46.6496
 11
116.33
 21
46.5603
  0
LINE
  8
0
 10
116.33
 20
46.5603
 11
116.02
 21
46.4904
  0
LINE
  8
0
 10
116.02
 20
46.4904
 11
115.707
 21
46.4402
  0
LINE
  8
0
 10
115.707
 20
46.4402
 11
115.391
 21
46.4101
  0
LINE
  8
0
 10
115.391
 20
46.4101
 11
115.074
 21
46.4
  0
LINE
  8
0
 10
115.074
 20
46.4
 11
114.757
 21
46.4101
  0
ENDSEC
  0
SECTION
  2
OBJECTS
  0
DICTIONARY
  0
ENDSEC
  0
EOF
