  0
SECTION
  2
BLOCKS
  0
ENDSEC
  0
SECTION
  2
ENTITIES
  0
LINE
  8
0
 10
448
 20
624.8
 11
0
 21
624.8
  0
LINE
  8
0
 10
0
 20
624.8
 11
0
 21
0
  0
LINE
  8
0
 10
0
 20
0
 11
448
 21
0
  0
LINE
  8
0
 10
448
 20
0
 11
448
 21
624.8
  0
LINE
  8
0
 10
51.0741
 20
548.9
 11
51.0741
 21
555.9
  0
LINE
  8
0
 10
51.0741
 20
555.9
 11
65.0741
 21
555.9
  0
LINE
  8
0
 10
65.0741
 20
555.9
 11
65.0741
 21
548.9
  0
LINE
  8
0
 10
65.0741
 20
548.9
 11
51.0741
 21
548.9
  0
LINE
  8
0
 10
283.143
 20
550.205
 11
282.987
 21
550.22
  0
LINE
  8
0
 10
282.987
 20
550.22
 11
282.832
 21
550.244
  0
LINE
  8
0
 10
282.832
 20
550.244
 11
282.678
 21
550.279
  0
LINE
  8
0
 10
282.678
 20
550.279
 11
282.527
 21
550.322
  0
LINE
  8
0
 10
282.527
 20
550.322
 11
282.38
 21
550.376
  0
LINE
  8
0
 10
282.38
 20
550.376
 11
282.236
 21
550.438
  0
LINE
  8
0
 10
282.236
 20
550.438
 11
282.096
 21
550.509
  0
LINE
  8
0
 10
282.096
 20
550.509
 11
281.96
 21
550.589
  0
LINE
  8
0
 10
281.96
 20
550.589
 11
281.831
 21
550.677
  0
LINE
  8
0
 10
281.831
 20
550.677
 11
281.706
 21
550.774
  0
LINE
  8
0
 10
281.706
 20
550.774
 11
281.589
 21
550.878
  0
LINE
  8
0
 10
281.589
 20
550.878
 11
281.478
 21
550.989
  0
LINE
  8
0
 10
281.478
 20
550.989
 11
281.374
 21
551.106
  0
LINE
  8
0
 10
281.374
 20
551.106
 11
281.277
 21
551.231
  0
LINE
  8
0
 10
281.277
 20
551.231
 11
281.189
 21
551.36
  0
LINE
  8
0
 10
281.189
 20
551.36
 11
281.109
 21
551.496
  0
LINE
  8
0
 10
281.109
 20
551.496
 11
281.038
 21
551.636
  0
LINE
  8
0
 10
281.038
 20
551.636
 11
280.976
 21
551.78
  0
LINE
  8
0
 10
280.976
 20
551.78
 11
280.922
 21
551.927
  0
LINE
  8
0
 10
280.922
 20
551.927
 11
280.879
 21
552.078
  0
LINE
  8
0
 10
280.879
 20
552.078
 11
280.844
 21
552.232
  0
LINE
  8
0
 10
280.844
 20
552.232
 11
280.82
 21
552.387
  0
LINE
  8
0
 10
280.82
 20
552.387
 11
280.805
 21
552.543
  0
LINE
  8
0
 10
280.805
 20
552.543
 11
280.8
 21
552.7
  0
LINE
  8
0
 10
280.8
 20
552.7
 11
280.805
 21
552.857
  0
LINE
  8
0
 10
280.805
 20
552.857
 11
280.82
 21
553.013
  0
LINE
  8
0
 10
280.82
 20
553.013
 11
280.844
 21
553.168
  0
LINE
  8
0
 10
280.844
 20
553.168
 11
280.879
 21
553.322
  0
LINE
  8
0
 10
280.879
 20
553.322
 11
280.922
 21
553.473
  0
LINE
  8
0
 10
280.922
 20
553.473
 11
280.976
 21
553.62
  0
LINE
  8
0
 10
280.976
 20
553.62
 11
281.038
 21
553.764
  0
LINE
  8
0
 10
281.038
 20
553.764
 11
281.109
 21
553.904
  0
LINE
  8
0
 10
281.109
 20
553.904
 11
281.189
 21
554.04
  0
LINE
  8
0
 10
281.189
 20
554.04
 11
281.277
 21
554.169
  0
LINE
  8
0
 10
281.277
 20
554.169
 11
281.374
 21
554.294
  0
LINE
  8
0
 10
281.374
 20
554.294
 11
281.478
 21
554.411
  0
LINE
  8
0
 10
281.478
 20
554.411
 11
281.589
 21
554.522
  0
LINE
  8
0
 10
281.589
 20
554.522
 11
281.706
 21
554.626
  0
LINE
  8
0
 10
281.706
 20
554.626
 11
281.831
 21
554.723
  0
LINE
  8
0
 10
281.831
 20
554.723
 11
281.96
 21
554.811
  0
LINE
  8
0
 10
281.96
 20
554.811
 11
282.096
 21
554.891
  0
LINE
  8
0
 10
282.096
 20
554.891
 11
282.236
 21
554.962
  0
LINE
  8
0
 10
282.236
 20
554.962
 11
282.38
 21
555.024
  0
LINE
  8
0
 10
282.38
 20
555.024
 11
282.527
 21
555.078
  0
LINE
  8
0
 10
282.527
 20
555.078
 11
282.678
 21
555.121
  0
LINE
  8
0
 10
282.678
 20
555.121
 11
282.832
 21
555.156
  0
LINE
  8
0
 10
282.832
 20
555.156
 11
282.987
 21
555.18
  0
LINE
  8
0
 10
282.987
 20
555.18
 11
283.143
 21
555.195
  0
LINE
  8
0
 10
283.143
 20
555.195
 11
283.3
 21
555.2
  0
LINE
  8
0
 10
283.3
 20
555.2
 11
283.457
 21
555.195
  0
LINE
  8
0
 10
283.457
 20
555.195
 11
283.613
 21
555.18
  0
LINE
  8
0
 10
283.613
 20
555.18
 11
283.768
 21
555.156
  0
LINE
  8
0
 10
283.768
 20
555.156
 11
283.922
 21
555.121
  0
LINE
  8
0
 10
283.922
 20
555.121
 11
284.073
 21
555.078
  0
LINE
  8
0
 10
284.073
 20
555.078
 11
284.22
 21
555.024
  0
LINE
  8
0
 10
284.22
 20
555.024
 11
284.364
 21
554.962
  0
LINE
  8
0
 10
284.364
 20
554.962
 11
284.504
 21
554.891
  0
LINE
  8
0
 10
284.504
 20
554.891
 11
284.64
 21
554.811
  0
LINE
  8
0
 10
284.64
 20
554.811
 11
284.769
 21
554.723
  0
LINE
  8
0
 10
284.769
 20
554.723
 11
284.894
 21
554.626
  0
LINE
  8
0
 10
284.894
 20
554.626
 11
285.011
 21
554.522
  0
LINE
  8
0
 10
285.011
 20
554.522
 11
285.122
 21
554.411
  0
LINE
  8
0
 10
285.122
 20
554.411
 11
285.226
 21
554.294
  0
LINE
  8
0
 10
285.226
 20
554.294
 11
285.323
 21
554.169
  0
LINE
  8
0
 10
285.323
 20
554.169
 11
285.411
 21
554.04
  0
LINE
  8
0
 10
285.411
 20
554.04
 11
285.491
 21
553.904
  0
LINE
  8
0
 10
285.491
 20
553.904
 11
285.562
 21
553.764
  0
LINE
  8
0
 10
285.562
 20
553.764
 11
285.624
 21
553.62
  0
LINE
  8
0
 10
285.624
 20
553.62
 11
285.678
 21
553.473
  0
LINE
  8
0
 10
285.678
 20
553.473
 11
285.721
 21
553.322
  0
LINE
  8
0
 10
285.721
 20
553.322
 11
285.756
 21
553.168
  0
LINE
  8
0
 10
285.756
 20
553.168
 11
285.78
 21
553.013
  0
LINE
  8
0
 10
285.78
 20
553.013
 11
285.795
 21
552.857
  0
LINE
  8
0
 10
285.795
 20
552.857
 11
285.8
 21
552.7
  0
LINE
  8
0
 10
285.8
 20
552.7
 11
285.795
 21
552.543
  0
LINE
  8
0
 10
285.795
 20
552.543
 11
285.78
 21
552.387
  0
LINE
  8
0
 10
285.78
 20
552.387
 11
285.756
 21
552.232
  0
LINE
  8
0
 10
285.756
 20
552.232
 11
285.721
 21
552.078
  0
LINE
  8
0
 10
285.721
 20
552.078
 11
285.678
 21
551.927
  0
LINE
  8
0
 10
285.678
 20
551.927
 11
285.624
 21
551.78
  0
LINE
  8
0
 10
285.624
 20
551.78
 11
285.562
 21
551.636
  0
LINE
  8
0
 10
285.562
 20
551.636
 11
285.491
 21
551.496
  0
LINE
  8
0
 10
285.491
 20
551.496
 11
285.411
 21
551.36
  0
LINE
  8
0
 10
285.411
 20
551.36
 11
285.323
 21
551.231
  0
LINE
  8
0
 10
285.323
 20
551.231
 11
285.226
 21
551.106
  0
LINE
  8
0
 10
285.226
 20
551.106
 11
285.122
 21
550.989
  0
LINE
  8
0
 10
285.122
 20
550.989
 11
285.011
 21
550.878
  0
LINE
  8
0
 10
285.011
 20
550.878
 11
284.894
 21
550.774
  0
LINE
  8
0
 10
284.894
 20
550.774
 11
284.769
 21
550.677
  0
LINE
  8
0
 10
284.769
 20
550.677
 11
284.64
 21
550.589
  0
LINE
  8
0
 10
284.64
 20
550.589
 11
284.504
 21
550.509
  0
LINE
  8
0
 10
284.504
 20
550.509
 11
284.364
 21
550.438
  0
LINE
  8
0
 10
284.364
 20
550.438
 11
284.22
 21
550.376
  0
LINE
  8
0
 10
284.22
 20
550.376
 11
284.073
 21
550.322
  0
LINE
  8
0
 10
284.073
 20
550.322
 11
283.922
 21
550.279
  0
LINE
  8
0
 10
283.922
 20
550.279
 11
283.768
 21
550.244
  0
LINE
  8
0
 10
283.768
 20
550.244
 11
283.613
 21
550.22
  0
LINE
  8
0
 10
283.613
 20
550.22
 11
283.457
 21
550.205
  0
LINE
  8
0
 10
283.457
 20
550.205
 11
283.3
 21
550.2
  0
LINE
  8
0
 10
283.3
 20
550.2
 11
283.143
 21
550.205
  0
LINE
  8
0
 10
343.743
 20
550.205
 11
343.587
 21
550.22
  0
LINE
  8
0
 10
343.587
 20
550.22
 11
343.432
 21
550.244
  0
LINE
  8
0
 10
343.432
 20
550.244
 11
343.278
 21
550.279
  0
LINE
  8
0
 10
343.278
 20
550.279
 11
343.127
 21
550.322
  0
LINE
  8
0
 10
343.127
 20
550.322
 11
342.98
 21
550.376
  0
LINE
  8
0
 10
342.98
 20
550.376
 11
342.836
 21
550.438
  0
LINE
  8
0
 10
342.836
 20
550.438
 11
342.696
 21
550.509
  0
LINE
  8
0
 10
342.696
 20
550.509
 11
342.56
 21
550.589
  0
LINE
  8
0
 10
342.56
 20
550.589
 11
342.431
 21
550.677
  0
LINE
  8
0
 10
342.431
 20
550.677
 11
342.306
 21
550.774
  0
LINE
  8
0
 10
342.306
 20
550.774
 11
342.189
 21
550.878
  0
LINE
  8
0
 10
342.189
 20
550.878
 11
342.078
 21
550.989
  0
LINE
  8
0
 10
342.078
 20
550.989
 11
341.974
 21
551.106
  0
LINE
  8
0
 10
341.974
 20
551.106
 11
341.877
 21
551.231
  0
LINE
  8
0
 10
341.877
 20
551.231
 11
341.789
 21
551.36
  0
LINE
  8
0
 10
341.789
 20
551.36
 11
341.709
 21
551.496
  0
LINE
  8
0
 10
341.709
 20
551.496
 11
341.638
 21
551.636
  0
LINE
  8
0
 10
341.638
 20
551.636
 11
341.576
 21
551.78
  0
LINE
  8
0
 10
341.576
 20
551.78
 11
341.522
 21
551.927
  0
LINE
  8
0
 10
341.522
 20
551.927
 11
341.479
 21
552.078
  0
LINE
  8
0
 10
341.479
 20
552.078
 11
341.444
 21
552.232
  0
LINE
  8
0
 10
341.444
 20
552.232
 11
341.42
 21
552.387
  0
LINE
  8
0
 10
341.42
 20
552.387
 11
341.405
 21
552.543
  0
LINE
  8
0
 10
341.405
 20
552.543
 11
341.4
 21
552.7
  0
LINE
  8
0
 10
341.4
 20
552.7
 11
341.405
 21
552.857
  0
LINE
  8
0
 10
341.405
 20
552.857
 11
341.42
 21
553.013
  0
LINE
  8
0
 10
341.42
 20
553.013
 11
341.444
 21
553.168
  0
LINE
  8
0
 10
341.444
 20
553.168
 11
341.479
 21
553.322
  0
LINE
  8
0
 10
341.479
 20
553.322
 11
341.522
 21
553.473
  0
LINE
  8
0
 10
341.522
 20
553.473
 11
341.576
 21
553.62
  0
LINE
  8
0
 10
341.576
 20
553.62
 11
341.638
 21
553.764
  0
LINE
  8
0
 10
341.638
 20
553.764
 11
341.709
 21
553.904
  0
LINE
  8
0
 10
341.709
 20
553.904
 11
341.789
 21
554.04
  0
LINE
  8
0
 10
341.789
 20
554.04
 11
341.877
 21
554.169
  0
LINE
  8
0
 10
341.877
 20
554.169
 11
341.974
 21
554.294
  0
LINE
  8
0
 10
341.974
 20
554.294
 11
342.078
 21
554.411
  0
LINE
  8
0
 10
342.078
 20
554.411
 11
342.189
 21
554.522
  0
LINE
  8
0
 10
342.189
 20
554.522
 11
342.306
 21
554.626
  0
LINE
  8
0
 10
342.306
 20
554.626
 11
342.431
 21
554.723
  0
LINE
  8
0
 10
342.431
 20
554.723
 11
342.56
 21
554.811
  0
LINE
  8
0
 10
342.56
 20
554.811
 11
342.696
 21
554.891
  0
LINE
  8
0
 10
342.696
 20
554.891
 11
342.836
 21
554.962
  0
LINE
  8
0
 10
342.836
 20
554.962
 11
342.98
 21
555.024
  0
LINE
  8
0
 10
342.98
 20
555.024
 11
343.127
 21
555.078
  0
LINE
  8
0
 10
343.127
 20
555.078
 11
343.278
 21
555.121
  0
LINE
  8
0
 10
343.278
 20
555.121
 11
343.432
 21
555.156
  0
LINE
  8
0
 10
343.432
 20
555.156
 11
343.587
 21
555.18
  0
LINE
  8
0
 10
343.587
 20
555.18
 11
343.743
 21
555.195
  0
LINE
  8
0
 10
343.743
 20
555.195
 11
343.9
 21
555.2
  0
LINE
  8
0
 10
343.9
 20
555.2
 11
344.057
 21
555.195
  0
LINE
  8
0
 10
344.057
 20
555.195
 11
344.213
 21
555.18
  0
LINE
  8
0
 10
344.213
 20
555.18
 11
344.368
 21
555.156
  0
LINE
  8
0
 10
344.368
 20
555.156
 11
344.522
 21
555.121
  0
LINE
  8
0
 10
344.522
 20
555.121
 11
344.673
 21
555.078
  0
LINE
  8
0
 10
344.673
 20
555.078
 11
344.82
 21
555.024
  0
LINE
  8
0
 10
344.82
 20
555.024
 11
344.964
 21
554.962
  0
LINE
  8
0
 10
344.964
 20
554.962
 11
345.104
 21
554.891
  0
LINE
  8
0
 10
345.104
 20
554.891
 11
345.24
 21
554.811
  0
LINE
  8
0
 10
345.24
 20
554.811
 11
345.369
 21
554.723
  0
LINE
  8
0
 10
345.369
 20
554.723
 11
345.494
 21
554.626
  0
LINE
  8
0
 10
345.494
 20
554.626
 11
345.611
 21
554.522
  0
LINE
  8
0
 10
345.611
 20
554.522
 11
345.722
 21
554.411
  0
LINE
  8
0
 10
345.722
 20
554.411
 11
345.826
 21
554.294
  0
LINE
  8
0
 10
345.826
 20
554.294
 11
345.923
 21
554.169
  0
LINE
  8
0
 10
345.923
 20
554.169
 11
346.011
 21
554.04
  0
LINE
  8
0
 10
346.011
 20
554.04
 11
346.091
 21
553.904
  0
LINE
  8
0
 10
346.091
 20
553.904
 11
346.162
 21
553.764
  0
LINE
  8
0
 10
346.162
 20
553.764
 11
346.224
 21
553.62
  0
LINE
  8
0
 10
346.224
 20
553.62
 11
346.278
 21
553.473
  0
LINE
  8
0
 10
346.278
 20
553.473
 11
346.321
 21
553.322
  0
LINE
  8
0
 10
346.321
 20
553.322
 11
346.356
 21
553.168
  0
LINE
  8
0
 10
346.356
 20
553.168
 11
346.38
 21
553.013
  0
LINE
  8
0
 10
346.38
 20
553.013
 11
346.395
 21
552.857
  0
LINE
  8
0
 10
346.395
 20
552.857
 11
346.4
 21
552.7
  0
LINE
  8
0
 10
346.4
 20
552.7
 11
346.395
 21
552.543
  0
LINE
  8
0
 10
346.395
 20
552.543
 11
346.38
 21
552.387
  0
LINE
  8
0
 10
346.38
 20
552.387
 11
346.356
 21
552.232
  0
LINE
  8
0
 10
346.356
 20
552.232
 11
346.321
 21
552.078
  0
LINE
  8
0
 10
346.321
 20
552.078
 11
346.278
 21
551.927
  0
LINE
  8
0
 10
346.278
 20
551.927
 11
346.224
 21
551.78
  0
LINE
  8
0
 10
346.224
 20
551.78
 11
346.162
 21
551.636
  0
LINE
  8
0
 10
346.162
 20
551.636
 11
346.091
 21
551.496
  0
LINE
  8
0
 10
346.091
 20
551.496
 11
346.011
 21
551.36
  0
LINE
  8
0
 10
346.011
 20
551.36
 11
345.923
 21
551.231
  0
LINE
  8
0
 10
345.923
 20
551.231
 11
345.826
 21
551.106
  0
LINE
  8
0
 10
345.826
 20
551.106
 11
345.722
 21
550.989
  0
LINE
  8
0
 10
345.722
 20
550.989
 11
345.611
 21
550.878
  0
LINE
  8
0
 10
345.611
 20
550.878
 11
345.494
 21
550.774
  0
LINE
  8
0
 10
345.494
 20
550.774
 11
345.369
 21
550.677
  0
LINE
  8
0
 10
345.369
 20
550.677
 11
345.24
 21
550.589
  0
LINE
  8
0
 10
345.24
 20
550.589
 11
345.104
 21
550.509
  0
LINE
  8
0
 10
345.104
 20
550.509
 11
344.964
 21
550.438
  0
LINE
  8
0
 10
344.964
 20
550.438
 11
344.82
 21
550.376
  0
LINE
  8
0
 10
344.82
 20
550.376
 11
344.673
 21
550.322
  0
LINE
  8
0
 10
344.673
 20
550.322
 11
344.522
 21
550.279
  0
LINE
  8
0
 10
344.522
 20
550.279
 11
344.368
 21
550.244
  0
LINE
  8
0
 10
344.368
 20
550.244
 11
344.213
 21
550.22
  0
LINE
  8
0
 10
344.213
 20
550.22
 11
344.057
 21
550.205
  0
LINE
  8
0
 10
344.057
 20
550.205
 11
343.9
 21
550.2
  0
LINE
  8
0
 10
343.9
 20
550.2
 11
343.743
 21
550.205
  0
LINE
  8
0
 10
311.716
 20
492.459
 11
309.84
 21
492.637
  0
LINE
  8
0
 10
309.84
 20
492.637
 11
307.979
 21
492.931
  0
LINE
  8
0
 10
307.979
 20
492.931
 11
306.139
 21
493.342
  0
LINE
  8
0
 10
306.139
 20
493.342
 11
304.329
 21
493.868
  0
LINE
  8
0
 10
304.329
 20
493.868
 11
302.556
 21
494.507
  0
LINE
  8
0
 10
302.556
 20
494.507
 11
300.827
 21
495.255
  0
LINE
  8
0
 10
300.827
 20
495.255
 11
299.147
 21
496.111
  0
LINE
  8
0
 10
299.147
 20
496.111
 11
297.525
 21
497.07
  0
LINE
  8
0
 10
297.525
 20
497.07
 11
295.966
 21
498.129
  0
LINE
  8
0
 10
295.966
 20
498.129
 11
294.477
 21
499.285
  0
LINE
  8
0
 10
294.477
 20
499.285
 11
293.064
 21
500.531
  0
LINE
  8
0
 10
293.064
 20
500.531
 11
291.731
 21
501.864
  0
LINE
  8
0
 10
291.731
 20
501.864
 11
290.485
 21
503.277
  0
LINE
  8
0
 10
290.485
 20
503.277
 11
289.329
 21
504.766
  0
LINE
  8
0
 10
289.329
 20
504.766
 11
288.27
 21
506.325
  0
LINE
  8
0
 10
288.27
 20
506.325
 11
287.311
 21
507.947
  0
LINE
  8
0
 10
287.311
 20
507.947
 11
286.455
 21
509.627
  0
LINE
  8
0
 10
286.455
 20
509.627
 11
285.707
 21
511.356
  0
LINE
  8
0
 10
285.707
 20
511.356
 11
285.068
 21
513.13
  0
LINE
  8
0
 10
285.068
 20
513.13
 11
284.543
 21
514.939
  0
LINE
  8
0
 10
284.543
 20
514.939
 11
284.131
 21
516.779
  0
LINE
  8
0
 10
284.131
 20
516.779
 11
283.837
 21
518.64
  0
LINE
  8
0
 10
283.837
 20
518.64
 11
283.659
 21
520.516
  0
LINE
  8
0
 10
283.659
 20
520.516
 11
283.6
 21
522.4
  0
LINE
  8
0
 10
283.6
 20
522.4
 11
283.659
 21
524.284
  0
LINE
  8
0
 10
283.659
 20
524.284
 11
283.837
 21
526.16
  0
LINE
  8
0
 10
283.837
 20
526.16
 11
284.131
 21
528.021
  0
LINE
  8
0
 10
284.131
 20
528.021
 11
284.543
 21
529.861
  0
LINE
  8
0
 10
284.543
 20
529.861
 11
285.068
 21
531.671
  0
LINE
  8
0
 10
285.068
 20
531.671
 11
285.707
 21
533.444
  0
LINE
  8
0
 10
285.707
 20
533.444
 11
286.455
 21
535.173
  0
LINE
  8
0
 10
286.455
 20
535.173
 11
287.311
 21
536.853
  0
LINE
  8
0
 10
287.311
 20
536.853
 11
288.27
 21
538.475
  0
LINE
  8
0
 10
288.27
 20
538.475
 11
289.329
 21
540.034
  0
LINE
  8
0
 10
289.329
 20
540.034
 11
290.485
 21
541.523
  0
LINE
  8
0
 10
290.485
 20
541.523
 11
291.731
 21
542.936
  0
LINE
  8
0
 10
291.731
 20
542.936
 11
293.064
 21
544.269
  0
LINE
  8
0
 10
293.064
 20
544.269
 11
294.477
 21
545.515
  0
LINE
  8
0
 10
294.477
 20
545.515
 11
295.966
 21
546.671
  0
LINE
  8
0
 10
295.966
 20
546.671
 11
297.525
 21
547.73
  0
LINE
  8
0
 10
297.525
 20
547.73
 11
299.147
 21
548.689
  0
LINE
  8
0
 10
299.147
 20
548.689
 11
300.827
 21
549.545
  0
LINE
  8
0
 10
300.827
 20
549.545
 11
302.556
 21
550.293
  0
LINE
  8
0
 10
302.556
 20
550.293
 11
304.329
 21
550.932
  0
LINE
  8
0
 10
304.329
 20
550.932
 11
306.139
 21
551.458
  0
LINE
  8
0
 10
306.139
 20
551.458
 11
307.979
 21
551.869
  0
LINE
  8
0
 10
307.979
 20
551.869
 11
309.84
 21
552.163
  0
LINE
  8
0
 10
309.84
 20
552.163
 11
311.716
 21
552.341
  0
LINE
  8
0
 10
311.716
 20
552.341
 11
313.6
 21
552.4
  0
LINE
  8
0
 10
313.6
 20
552.4
 11
315.484
 21
552.341
  0
LINE
  8
0
 10
315.484
 20
552.341
 11
317.36
 21
552.163
  0
LINE
  8
0
 10
317.36
 20
552.163
 11
319.221
 21
551.869
  0
LINE
  8
0
 10
319.221
 20
551.869
 11
321.061
 21
551.458
  0
LINE
  8
0
 10
321.061
 20
551.458
 11
322.871
 21
550.932
  0
LINE
  8
0
 10
322.871
 20
550.932
 11
324.644
 21
550.293
  0
LINE
  8
0
 10
324.644
 20
550.293
 11
326.373
 21
549.545
  0
LINE
  8
0
 10
326.373
 20
549.545
 11
328.053
 21
548.689
  0
LINE
  8
0
 10
328.053
 20
548.689
 11
329.675
 21
547.73
  0
LINE
  8
0
 10
329.675
 20
547.73
 11
331.234
 21
546.671
  0
LINE
  8
0
 10
331.234
 20
546.671
 11
332.723
 21
545.515
  0
LINE
  8
0
 10
332.723
 20
545.515
 11
334.136
 21
544.269
  0
LINE
  8
0
 10
334.136
 20
544.269
 11
335.469
 21
542.936
  0
LINE
  8
0
 10
335.469
 20
542.936
 11
336.715
 21
541.523
  0
LINE
  8
0
 10
336.715
 20
541.523
 11
337.871
 21
540.034
  0
LINE
  8
0
 10
337.871
 20
540.034
 11
338.93
 21
538.475
  0
LINE
  8
0
 10
338.93
 20
538.475
 11
339.889
 21
536.853
  0
LINE
  8
0
 10
339.889
 20
536.853
 11
340.745
 21
535.173
  0
LINE
  8
0
 10
340.745
 20
535.173
 11
341.493
 21
533.444
  0
LINE
  8
0
 10
341.493
 20
533.444
 11
342.132
 21
531.671
  0
LINE
  8
0
 10
342.132
 20
531.671
 11
342.658
 21
529.861
  0
LINE
  8
0
 10
342.658
 20
529.861
 11
343.069
 21
528.021
  0
LINE
  8
0
 10
343.069
 20
528.021
 11
343.363
 21
526.16
  0
LINE
  8
0
 10
343.363
 20
526.16
 11
343.541
 21
524.284
  0
LINE
  8
0
 10
343.541
 20
524.284
 11
343.6
 21
522.4
  0
LINE
  8
0
 10
343.6
 20
522.4
 11
343.541
 21
520.516
  0
LINE
  8
0
 10
343.541
 20
520.516
 11
343.363
 21
518.64
  0
LINE
  8
0
 10
343.363
 20
518.64
 11
343.069
 21
516.779
  0
LINE
  8
0
 10
343.069
 20
516.779
 11
342.658
 21
514.939
  0
LINE
  8
0
 10
342.658
 20
514.939
 11
342.132
 21
513.13
  0
LINE
  8
0
 10
342.132
 20
513.13
 11
341.493
 21
511.356
  0
LINE
  8
0
 10
341.493
 20
511.356
 11
340.745
 21
509.627
  0
LINE
  8
0
 10
340.745
 20
509.627
 11
339.889
 21
507.947
  0
LINE
  8
0
 10
339.889
 20
507.947
 11
338.93
 21
506.325
  0
LINE
  8
0
 10
338.93
 20
506.325
 11
337.871
 21
504.766
  0
LINE
  8
0
 10
337.871
 20
504.766
 11
336.715
 21
503.277
  0
LINE
  8
0
 10
336.715
 20
503.277
 11
335.469
 21
501.864
  0
LINE
  8
0
 10
335.469
 20
501.864
 11
334.136
 21
500.531
  0
LINE
  8
0
 10
334.136
 20
500.531
 11
332.723
 21
499.285
  0
LINE
  8
0
 10
332.723
 20
499.285
 11
331.234
 21
498.129
  0
LINE
  8
0
 10
331.234
 20
498.129
 11
329.675
 21
497.07
  0
LINE
  8
0
 10
329.675
 20
497.07
 11
328.053
 21
496.111
  0
LINE
  8
0
 10
328.053
 20
496.111
 11
326.373
 21
495.255
  0
LINE
  8
0
 10
326.373
 20
495.255
 11
324.644
 21
494.507
  0
LINE
  8
0
 10
324.644
 20
494.507
 11
322.871
 21
493.868
  0
LINE
  8
0
 10
322.871
 20
493.868
 11
321.061
 21
493.342
  0
LINE
  8
0
 10
321.061
 20
493.342
 11
319.221
 21
492.931
  0
LINE
  8
0
 10
319.221
 20
492.931
 11
317.36
 21
492.637
  0
LINE
  8
0
 10
317.36
 20
492.637
 11
315.484
 21
492.459
  0
LINE
  8
0
 10
315.484
 20
492.459
 11
313.6
 21
492.4
  0
LINE
  8
0
 10
313.6
 20
492.4
 11
311.716
 21
492.459
  0
LINE
  8
0
 10
288.443
 20
544.905
 11
288.287
 21
544.92
  0
LINE
  8
0
 10
288.287
 20
544.92
 11
288.132
 21
544.944
  0
LINE
  8
0
 10
288.132
 20
544.944
 11
287.978
 21
544.979
  0
LINE
  8
0
 10
287.978
 20
544.979
 11
287.827
 21
545.022
  0
LINE
  8
0
 10
287.827
 20
545.022
 11
287.68
 21
545.076
  0
LINE
  8
0
 10
287.68
 20
545.076
 11
287.536
 21
545.138
  0
LINE
  8
0
 10
287.536
 20
545.138
 11
287.396
 21
545.209
  0
LINE
  8
0
 10
287.396
 20
545.209
 11
287.26
 21
545.289
  0
LINE
  8
0
 10
287.26
 20
545.289
 11
287.131
 21
545.377
  0
LINE
  8
0
 10
287.131
 20
545.377
 11
287.006
 21
545.474
  0
LINE
  8
0
 10
287.006
 20
545.474
 11
286.889
 21
545.578
  0
LINE
  8
0
 10
286.889
 20
545.578
 11
286.778
 21
545.689
  0
LINE
  8
0
 10
286.778
 20
545.689
 11
286.674
 21
545.806
  0
LINE
  8
0
 10
286.674
 20
545.806
 11
286.577
 21
545.931
  0
LINE
  8
0
 10
286.577
 20
545.931
 11
286.489
 21
546.06
  0
LINE
  8
0
 10
286.489
 20
546.06
 11
286.409
 21
546.196
  0
LINE
  8
0
 10
286.409
 20
546.196
 11
286.338
 21
546.336
  0
LINE
  8
0
 10
286.338
 20
546.336
 11
286.276
 21
546.48
  0
LINE
  8
0
 10
286.276
 20
546.48
 11
286.222
 21
546.627
  0
LINE
  8
0
 10
286.222
 20
546.627
 11
286.179
 21
546.778
  0
LINE
  8
0
 10
286.179
 20
546.778
 11
286.144
 21
546.932
  0
LINE
  8
0
 10
286.144
 20
546.932
 11
286.12
 21
547.087
  0
LINE
  8
0
 10
286.12
 20
547.087
 11
286.105
 21
547.243
  0
LINE
  8
0
 10
286.105
 20
547.243
 11
286.1
 21
547.4
  0
LINE
  8
0
 10
286.1
 20
547.4
 11
286.105
 21
547.557
  0
LINE
  8
0
 10
286.105
 20
547.557
 11
286.12
 21
547.713
  0
LINE
  8
0
 10
286.12
 20
547.713
 11
286.144
 21
547.868
  0
LINE
  8
0
 10
286.144
 20
547.868
 11
286.179
 21
548.022
  0
LINE
  8
0
 10
286.179
 20
548.022
 11
286.222
 21
548.173
  0
LINE
  8
0
 10
286.222
 20
548.173
 11
286.276
 21
548.32
  0
LINE
  8
0
 10
286.276
 20
548.32
 11
286.338
 21
548.464
  0
LINE
  8
0
 10
286.338
 20
548.464
 11
286.409
 21
548.604
  0
LINE
  8
0
 10
286.409
 20
548.604
 11
286.489
 21
548.74
  0
LINE
  8
0
 10
286.489
 20
548.74
 11
286.577
 21
548.869
  0
LINE
  8
0
 10
286.577
 20
548.869
 11
286.674
 21
548.994
  0
LINE
  8
0
 10
286.674
 20
548.994
 11
286.778
 21
549.111
  0
LINE
  8
0
 10
286.778
 20
549.111
 11
286.889
 21
549.222
  0
LINE
  8
0
 10
286.889
 20
549.222
 11
287.006
 21
549.326
  0
LINE
  8
0
 10
287.006
 20
549.326
 11
287.131
 21
549.423
  0
LINE
  8
0
 10
287.131
 20
549.423
 11
287.26
 21
549.511
  0
LINE
  8
0
 10
287.26
 20
549.511
 11
287.396
 21
549.591
  0
LINE
  8
0
 10
287.396
 20
549.591
 11
287.536
 21
549.662
  0
LINE
  8
0
 10
287.536
 20
549.662
 11
287.68
 21
549.724
  0
LINE
  8
0
 10
287.68
 20
549.724
 11
287.827
 21
549.778
  0
LINE
  8
0
 10
287.827
 20
549.778
 11
287.978
 21
549.821
  0
LINE
  8
0
 10
287.978
 20
549.821
 11
288.132
 21
549.856
  0
LINE
  8
0
 10
288.132
 20
549.856
 11
288.287
 21
549.88
  0
LINE
  8
0
 10
288.287
 20
549.88
 11
288.443
 21
549.895
  0
LINE
  8
0
 10
288.443
 20
549.895
 11
288.6
 21
549.9
  0
LINE
  8
0
 10
288.6
 20
549.9
 11
288.757
 21
549.895
  0
LINE
  8
0
 10
288.757
 20
549.895
 11
288.913
 21
549.88
  0
LINE
  8
0
 10
288.913
 20
549.88
 11
289.068
 21
549.856
  0
LINE
  8
0
 10
289.068
 20
549.856
 11
289.222
 21
549.821
  0
LINE
  8
0
 10
289.222
 20
549.821
 11
289.373
 21
549.778
  0
LINE
  8
0
 10
289.373
 20
549.778
 11
289.52
 21
549.724
  0
LINE
  8
0
 10
289.52
 20
549.724
 11
289.664
 21
549.662
  0
LINE
  8
0
 10
289.664
 20
549.662
 11
289.804
 21
549.591
  0
LINE
  8
0
 10
289.804
 20
549.591
 11
289.94
 21
549.511
  0
LINE
  8
0
 10
289.94
 20
549.511
 11
290.069
 21
549.423
  0
LINE
  8
0
 10
290.069
 20
549.423
 11
290.194
 21
549.326
  0
LINE
  8
0
 10
290.194
 20
549.326
 11
290.311
 21
549.222
  0
LINE
  8
0
 10
290.311
 20
549.222
 11
290.422
 21
549.111
  0
LINE
  8
0
 10
290.422
 20
549.111
 11
290.526
 21
548.994
  0
LINE
  8
0
 10
290.526
 20
548.994
 11
290.623
 21
548.869
  0
LINE
  8
0
 10
290.623
 20
548.869
 11
290.711
 21
548.74
  0
LINE
  8
0
 10
290.711
 20
548.74
 11
290.791
 21
548.604
  0
LINE
  8
0
 10
290.791
 20
548.604
 11
290.862
 21
548.464
  0
LINE
  8
0
 10
290.862
 20
548.464
 11
290.924
 21
548.32
  0
LINE
  8
0
 10
290.924
 20
548.32
 11
290.978
 21
548.173
  0
LINE
  8
0
 10
290.978
 20
548.173
 11
291.021
 21
548.022
  0
LINE
  8
0
 10
291.021
 20
548.022
 11
291.056
 21
547.868
  0
LINE
  8
0
 10
291.056
 20
547.868
 11
291.08
 21
547.713
  0
LINE
  8
0
 10
291.08
 20
547.713
 11
291.095
 21
547.557
  0
LINE
  8
0
 10
291.095
 20
547.557
 11
291.1
 21
547.4
  0
LINE
  8
0
 10
291.1
 20
547.4
 11
291.095
 21
547.243
  0
LINE
  8
0
 10
291.095
 20
547.243
 11
291.08
 21
547.087
  0
LINE
  8
0
 10
291.08
 20
547.087
 11
291.056
 21
546.932
  0
LINE
  8
0
 10
291.056
 20
546.932
 11
291.021
 21
546.778
  0
LINE
  8
0
 10
291.021
 20
546.778
 11
290.978
 21
546.627
  0
LINE
  8
0
 10
290.978
 20
546.627
 11
290.924
 21
546.48
  0
LINE
  8
0
 10
290.924
 20
546.48
 11
290.862
 21
546.336
  0
LINE
  8
0
 10
290.862
 20
546.336
 11
290.791
 21
546.196
  0
LINE
  8
0
 10
290.791
 20
546.196
 11
290.711
 21
546.06
  0
LINE
  8
0
 10
290.711
 20
546.06
 11
290.623
 21
545.931
  0
LINE
  8
0
 10
290.623
 20
545.931
 11
290.526
 21
545.806
  0
LINE
  8
0
 10
290.526
 20
545.806
 11
290.422
 21
545.689
  0
LINE
  8
0
 10
290.422
 20
545.689
 11
290.311
 21
545.578
  0
LINE
  8
0
 10
290.311
 20
545.578
 11
290.194
 21
545.474
  0
LINE
  8
0
 10
290.194
 20
545.474
 11
290.069
 21
545.377
  0
LINE
  8
0
 10
290.069
 20
545.377
 11
289.94
 21
545.289
  0
LINE
  8
0
 10
289.94
 20
545.289
 11
289.804
 21
545.209
  0
LINE
  8
0
 10
289.804
 20
545.209
 11
289.664
 21
545.138
  0
LINE
  8
0
 10
289.664
 20
545.138
 11
289.52
 21
545.076
  0
LINE
  8
0
 10
289.52
 20
545.076
 11
289.373
 21
545.022
  0
LINE
  8
0
 10
289.373
 20
545.022
 11
289.222
 21
544.979
  0
LINE
  8
0
 10
289.222
 20
544.979
 11
289.068
 21
544.944
  0
LINE
  8
0
 10
289.068
 20
544.944
 11
288.913
 21
544.92
  0
LINE
  8
0
 10
288.913
 20
544.92
 11
288.757
 21
544.905
  0
LINE
  8
0
 10
288.757
 20
544.905
 11
288.6
 21
544.9
  0
LINE
  8
0
 10
288.6
 20
544.9
 11
288.443
 21
544.905
  0
LINE
  8
0
 10
338.443
 20
544.905
 11
338.287
 21
544.92
  0
LINE
  8
0
 10
338.287
 20
544.92
 11
338.132
 21
544.944
  0
LINE
  8
0
 10
338.132
 20
544.944
 11
337.978
 21
544.979
  0
LINE
  8
0
 10
337.978
 20
544.979
 11
337.827
 21
545.022
  0
LINE
  8
0
 10
337.827
 20
545.022
 11
337.68
 21
545.076
  0
LINE
  8
0
 10
337.68
 20
545.076
 11
337.536
 21
545.138
  0
LINE
  8
0
 10
337.536
 20
545.138
 11
337.396
 21
545.209
  0
LINE
  8
0
 10
337.396
 20
545.209
 11
337.26
 21
545.289
  0
LINE
  8
0
 10
337.26
 20
545.289
 11
337.131
 21
545.377
  0
LINE
  8
0
 10
337.131
 20
545.377
 11
337.006
 21
545.474
  0
LINE
  8
0
 10
337.006
 20
545.474
 11
336.889
 21
545.578
  0
LINE
  8
0
 10
336.889
 20
545.578
 11
336.778
 21
545.689
  0
LINE
  8
0
 10
336.778
 20
545.689
 11
336.674
 21
545.806
  0
LINE
  8
0
 10
336.674
 20
545.806
 11
336.577
 21
545.931
  0
LINE
  8
0
 10
336.577
 20
545.931
 11
336.489
 21
546.06
  0
LINE
  8
0
 10
336.489
 20
546.06
 11
336.409
 21
546.196
  0
LINE
  8
0
 10
336.409
 20
546.196
 11
336.338
 21
546.336
  0
LINE
  8
0
 10
336.338
 20
546.336
 11
336.276
 21
546.48
  0
LINE
  8
0
 10
336.276
 20
546.48
 11
336.222
 21
546.627
  0
LINE
  8
0
 10
336.222
 20
546.627
 11
336.179
 21
546.778
  0
LINE
  8
0
 10
336.179
 20
546.778
 11
336.144
 21
546.932
  0
LINE
  8
0
 10
336.144
 20
546.932
 11
336.12
 21
547.087
  0
LINE
  8
0
 10
336.12
 20
547.087
 11
336.105
 21
547.243
  0
LINE
  8
0
 10
336.105
 20
547.243
 11
336.1
 21
547.4
  0
LINE
  8
0
 10
336.1
 20
547.4
 11
336.105
 21
547.557
  0
LINE
  8
0
 10
336.105
 20
547.557
 11
336.12
 21
547.713
  0
LINE
  8
0
 10
336.12
 20
547.713
 11
336.144
 21
547.868
  0
LINE
  8
0
 10
336.144
 20
547.868
 11
336.179
 21
548.022
  0
LINE
  8
0
 10
336.179
 20
548.022
 11
336.222
 21
548.173
  0
LINE
  8
0
 10
336.222
 20
548.173
 11
336.276
 21
548.32
  0
LINE
  8
0
 10
336.276
 20
548.32
 11
336.338
 21
548.464
  0
LINE
  8
0
 10
336.338
 20
548.464
 11
336.409
 21
548.604
  0
LINE
  8
0
 10
336.409
 20
548.604
 11
336.489
 21
548.74
  0
LINE
  8
0
 10
336.489
 20
548.74
 11
336.577
 21
548.869
  0
LINE
  8
0
 10
336.577
 20
548.869
 11
336.674
 21
548.994
  0
LINE
  8
0
 10
336.674
 20
548.994
 11
336.778
 21
549.111
  0
LINE
  8
0
 10
336.778
 20
549.111
 11
336.889
 21
549.222
  0
LINE
  8
0
 10
336.889
 20
549.222
 11
337.006
 21
549.326
  0
LINE
  8
0
 10
337.006
 20
549.326
 11
337.131
 21
549.423
  0
LINE
  8
0
 10
337.131
 20
549.423
 11
337.26
 21
549.511
  0
LINE
  8
0
 10
337.26
 20
549.511
 11
337.396
 21
549.591
  0
LINE
  8
0
 10
337.396
 20
549.591
 11
337.536
 21
549.662
  0
LINE
  8
0
 10
337.536
 20
549.662
 11
337.68
 21
549.724
  0
LINE
  8
0
 10
337.68
 20
549.724
 11
337.827
 21
549.778
  0
LINE
  8
0
 10
337.827
 20
549.778
 11
337.978
 21
549.821
  0
LINE
  8
0
 10
337.978
 20
549.821
 11
338.132
 21
549.856
  0
LINE
  8
0
 10
338.132
 20
549.856
 11
338.287
 21
549.88
  0
LINE
  8
0
 10
338.287
 20
549.88
 11
338.443
 21
549.895
  0
LINE
  8
0
 10
338.443
 20
549.895
 11
338.6
 21
549.9
  0
LINE
  8
0
 10
338.6
 20
549.9
 11
338.757
 21
549.895
  0
LINE
  8
0
 10
338.757
 20
549.895
 11
338.913
 21
549.88
  0
LINE
  8
0
 10
338.913
 20
549.88
 11
339.068
 21
549.856
  0
LINE
  8
0
 10
339.068
 20
549.856
 11
339.222
 21
549.821
  0
LINE
  8
0
 10
339.222
 20
549.821
 11
339.373
 21
549.778
  0
LINE
  8
0
 10
339.373
 20
549.778
 11
339.52
 21
549.724
  0
LINE
  8
0
 10
339.52
 20
549.724
 11
339.664
 21
549.662
  0
LINE
  8
0
 10
339.664
 20
549.662
 11
339.804
 21
549.591
  0
LINE
  8
0
 10
339.804
 20
549.591
 11
339.94
 21
549.511
  0
LINE
  8
0
 10
339.94
 20
549.511
 11
340.069
 21
549.423
  0
LINE
  8
0
 10
340.069
 20
549.423
 11
340.194
 21
549.326
  0
LINE
  8
0
 10
340.194
 20
549.326
 11
340.311
 21
549.222
  0
LINE
  8
0
 10
340.311
 20
549.222
 11
340.422
 21
549.111
  0
LINE
  8
0
 10
340.422
 20
549.111
 11
340.526
 21
548.994
  0
LINE
  8
0
 10
340.526
 20
548.994
 11
340.623
 21
548.869
  0
LINE
  8
0
 10
340.623
 20
548.869
 11
340.711
 21
548.74
  0
LINE
  8
0
 10
340.711
 20
548.74
 11
340.791
 21
548.604
  0
LINE
  8
0
 10
340.791
 20
548.604
 11
340.862
 21
548.464
  0
LINE
  8
0
 10
340.862
 20
548.464
 11
340.924
 21
548.32
  0
LINE
  8
0
 10
340.924
 20
548.32
 11
340.978
 21
548.173
  0
LINE
  8
0
 10
340.978
 20
548.173
 11
341.021
 21
548.022
  0
LINE
  8
0
 10
341.021
 20
548.022
 11
341.056
 21
547.868
  0
LINE
  8
0
 10
341.056
 20
547.868
 11
341.08
 21
547.713
  0
LINE
  8
0
 10
341.08
 20
547.713
 11
341.095
 21
547.557
  0
LINE
  8
0
 10
341.095
 20
547.557
 11
341.1
 21
547.4
  0
LINE
  8
0
 10
341.1
 20
547.4
 11
341.095
 21
547.243
  0
LINE
  8
0
 10
341.095
 20
547.243
 11
341.08
 21
547.087
  0
LINE
  8
0
 10
341.08
 20
547.087
 11
341.056
 21
546.932
  0
LINE
  8
0
 10
341.056
 20
546.932
 11
341.021
 21
546.778
  0
LINE
  8
0
 10
341.021
 20
546.778
 11
340.978
 21
546.627
  0
LINE
  8
0
 10
340.978
 20
546.627
 11
340.924
 21
546.48
  0
LINE
  8
0
 10
340.924
 20
546.48
 11
340.862
 21
546.336
  0
LINE
  8
0
 10
340.862
 20
546.336
 11
340.791
 21
546.196
  0
LINE
  8
0
 10
340.791
 20
546.196
 11
340.711
 21
546.06
  0
LINE
  8
0
 10
340.711
 20
546.06
 11
340.623
 21
545.931
  0
LINE
  8
0
 10
340.623
 20
545.931
 11
340.526
 21
545.806
  0
LINE
  8
0
 10
340.526
 20
545.806
 11
340.422
 21
545.689
  0
LINE
  8
0
 10
340.422
 20
545.689
 11
340.311
 21
545.578
  0
LINE
  8
0
 10
340.311
 20
545.578
 11
340.194
 21
545.474
  0
LINE
  8
0
 10
340.194
 20
545.474
 11
340.069
 21
545.377
  0
LINE
  8
0
 10
340.069
 20
545.377
 11
339.94
 21
545.289
  0
LINE
  8
0
 10
339.94
 20
545.289
 11
339.804
 21
545.209
  0
LINE
  8
0
 10
339.804
 20
545.209
 11
339.664
 21
545.138
  0
LINE
  8
0
 10
339.664
 20
545.138
 11
339.52
 21
545.076
  0
LINE
  8
0
 10
339.52
 20
545.076
 11
339.373
 21
545.022
  0
LINE
  8
0
 10
339.373
 20
545.022
 11
339.222
 21
544.979
  0
LINE
  8
0
 10
339.222
 20
544.979
 11
339.068
 21
544.944
  0
LINE
  8
0
 10
339.068
 20
544.944
 11
338.913
 21
544.92
  0
LINE
  8
0
 10
338.913
 20
544.92
 11
338.757
 21
544.905
  0
LINE
  8
0
 10
338.757
 20
544.905
 11
338.6
 21
544.9
  0
LINE
  8
0
 10
338.6
 20
544.9
 11
338.443
 21
544.905
  0
LINE
  8
0
 10
338.443
 20
494.905
 11
338.287
 21
494.92
  0
LINE
  8
0
 10
338.287
 20
494.92
 11
338.132
 21
494.944
  0
LINE
  8
0
 10
338.132
 20
494.944
 11
337.978
 21
494.979
  0
LINE
  8
0
 10
337.978
 20
494.979
 11
337.827
 21
495.022
  0
LINE
  8
0
 10
337.827
 20
495.022
 11
337.68
 21
495.076
  0
LINE
  8
0
 10
337.68
 20
495.076
 11
337.536
 21
495.138
  0
LINE
  8
0
 10
337.536
 20
495.138
 11
337.396
 21
495.209
  0
LINE
  8
0
 10
337.396
 20
495.209
 11
337.26
 21
495.289
  0
LINE
  8
0
 10
337.26
 20
495.289
 11
337.131
 21
495.377
  0
LINE
  8
0
 10
337.131
 20
495.377
 11
337.006
 21
495.474
  0
LINE
  8
0
 10
337.006
 20
495.474
 11
336.889
 21
495.578
  0
LINE
  8
0
 10
336.889
 20
495.578
 11
336.778
 21
495.689
  0
LINE
  8
0
 10
336.778
 20
495.689
 11
336.674
 21
495.806
  0
LINE
  8
0
 10
336.674
 20
495.806
 11
336.577
 21
495.931
  0
LINE
  8
0
 10
336.577
 20
495.931
 11
336.489
 21
496.06
  0
LINE
  8
0
 10
336.489
 20
496.06
 11
336.409
 21
496.196
  0
LINE
  8
0
 10
336.409
 20
496.196
 11
336.338
 21
496.336
  0
LINE
  8
0
 10
336.338
 20
496.336
 11
336.276
 21
496.48
  0
LINE
  8
0
 10
336.276
 20
496.48
 11
336.222
 21
496.627
  0
LINE
  8
0
 10
336.222
 20
496.627
 11
336.179
 21
496.778
  0
LINE
  8
0
 10
336.179
 20
496.778
 11
336.144
 21
496.932
  0
LINE
  8
0
 10
336.144
 20
496.932
 11
336.12
 21
497.087
  0
LINE
  8
0
 10
336.12
 20
497.087
 11
336.105
 21
497.243
  0
LINE
  8
0
 10
336.105
 20
497.243
 11
336.1
 21
497.4
  0
LINE
  8
0
 10
336.1
 20
497.4
 11
336.105
 21
497.557
  0
LINE
  8
0
 10
336.105
 20
497.557
 11
336.12
 21
497.713
  0
LINE
  8
0
 10
336.12
 20
497.713
 11
336.144
 21
497.868
  0
LINE
  8
0
 10
336.144
 20
497.868
 11
336.179
 21
498.022
  0
LINE
  8
0
 10
336.179
 20
498.022
 11
336.222
 21
498.173
  0
LINE
  8
0
 10
336.222
 20
498.173
 11
336.276
 21
498.32
  0
LINE
  8
0
 10
336.276
 20
498.32
 11
336.338
 21
498.464
  0
LINE
  8
0
 10
336.338
 20
498.464
 11
336.409
 21
498.604
  0
LINE
  8
0
 10
336.409
 20
498.604
 11
336.489
 21
498.74
  0
LINE
  8
0
 10
336.489
 20
498.74
 11
336.577
 21
498.869
  0
LINE
  8
0
 10
336.577
 20
498.869
 11
336.674
 21
498.994
  0
LINE
  8
0
 10
336.674
 20
498.994
 11
336.778
 21
499.111
  0
LINE
  8
0
 10
336.778
 20
499.111
 11
336.889
 21
499.222
  0
LINE
  8
0
 10
336.889
 20
499.222
 11
337.006
 21
499.326
  0
LINE
  8
0
 10
337.006
 20
499.326
 11
337.131
 21
499.423
  0
LINE
  8
0
 10
337.131
 20
499.423
 11
337.26
 21
499.511
  0
LINE
  8
0
 10
337.26
 20
499.511
 11
337.396
 21
499.591
  0
LINE
  8
0
 10
337.396
 20
499.591
 11
337.536
 21
499.662
  0
LINE
  8
0
 10
337.536
 20
499.662
 11
337.68
 21
499.724
  0
LINE
  8
0
 10
337.68
 20
499.724
 11
337.827
 21
499.778
  0
LINE
  8
0
 10
337.827
 20
499.778
 11
337.978
 21
499.821
  0
LINE
  8
0
 10
337.978
 20
499.821
 11
338.132
 21
499.856
  0
LINE
  8
0
 10
338.132
 20
499.856
 11
338.287
 21
499.88
  0
LINE
  8
0
 10
338.287
 20
499.88
 11
338.443
 21
499.895
  0
LINE
  8
0
 10
338.443
 20
499.895
 11
338.6
 21
499.9
  0
LINE
  8
0
 10
338.6
 20
499.9
 11
338.757
 21
499.895
  0
LINE
  8
0
 10
338.757
 20
499.895
 11
338.913
 21
499.88
  0
LINE
  8
0
 10
338.913
 20
499.88
 11
339.068
 21
499.856
  0
LINE
  8
0
 10
339.068
 20
499.856
 11
339.222
 21
499.821
  0
LINE
  8
0
 10
339.222
 20
499.821
 11
339.373
 21
499.778
  0
LINE
  8
0
 10
339.373
 20
499.778
 11
339.52
 21
499.724
  0
LINE
  8
0
 10
339.52
 20
499.724
 11
339.664
 21
499.662
  0
LINE
  8
0
 10
339.664
 20
499.662
 11
339.804
 21
499.591
  0
LINE
  8
0
 10
339.804
 20
499.591
 11
339.94
 21
499.511
  0
LINE
  8
0
 10
339.94
 20
499.511
 11
340.069
 21
499.423
  0
LINE
  8
0
 10
340.069
 20
499.423
 11
340.194
 21
499.326
  0
LINE
  8
0
 10
340.194
 20
499.326
 11
340.311
 21
499.222
  0
LINE
  8
0
 10
340.311
 20
499.222
 11
340.422
 21
499.111
  0
LINE
  8
0
 10
340.422
 20
499.111
 11
340.526
 21
498.994
  0
LINE
  8
0
 10
340.526
 20
498.994
 11
340.623
 21
498.869
  0
LINE
  8
0
 10
340.623
 20
498.869
 11
340.711
 21
498.74
  0
LINE
  8
0
 10
340.711
 20
498.74
 11
340.791
 21
498.604
  0
LINE
  8
0
 10
340.791
 20
498.604
 11
340.862
 21
498.464
  0
LINE
  8
0
 10
340.862
 20
498.464
 11
340.924
 21
498.32
  0
LINE
  8
0
 10
340.924
 20
498.32
 11
340.978
 21
498.173
  0
LINE
  8
0
 10
340.978
 20
498.173
 11
341.021
 21
498.022
  0
LINE
  8
0
 10
341.021
 20
498.022
 11
341.056
 21
497.868
  0
LINE
  8
0
 10
341.056
 20
497.868
 11
341.08
 21
497.713
  0
LINE
  8
0
 10
341.08
 20
497.713
 11
341.095
 21
497.557
  0
LINE
  8
0
 10
341.095
 20
497.557
 11
341.1
 21
497.4
  0
LINE
  8
0
 10
341.1
 20
497.4
 11
341.095
 21
497.243
  0
LINE
  8
0
 10
341.095
 20
497.243
 11
341.08
 21
497.087
  0
LINE
  8
0
 10
341.08
 20
497.087
 11
341.056
 21
496.932
  0
LINE
  8
0
 10
341.056
 20
496.932
 11
341.021
 21
496.778
  0
LINE
  8
0
 10
341.021
 20
496.778
 11
340.978
 21
496.627
  0
LINE
  8
0
 10
340.978
 20
496.627
 11
340.924
 21
496.48
  0
LINE
  8
0
 10
340.924
 20
496.48
 11
340.862
 21
496.336
  0
LINE
  8
0
 10
340.862
 20
496.336
 11
340.791
 21
496.196
  0
LINE
  8
0
 10
340.791
 20
496.196
 11
340.711
 21
496.06
  0
LINE
  8
0
 10
340.711
 20
496.06
 11
340.623
 21
495.931
  0
LINE
  8
0
 10
340.623
 20
495.931
 11
340.526
 21
495.806
  0
LINE
  8
0
 10
340.526
 20
495.806
 11
340.422
 21
495.689
  0
LINE
  8
0
 10
340.422
 20
495.689
 11
340.311
 21
495.578
  0
LINE
  8
0
 10
340.311
 20
495.578
 11
340.194
 21
495.474
  0
LINE
  8
0
 10
340.194
 20
495.474
 11
340.069
 21
495.377
  0
LINE
  8
0
 10
340.069
 20
495.377
 11
339.94
 21
495.289
  0
LINE
  8
0
 10
339.94
 20
495.289
 11
339.804
 21
495.209
  0
LINE
  8
0
 10
339.804
 20
495.209
 11
339.664
 21
495.138
  0
LINE
  8
0
 10
339.664
 20
495.138
 11
339.52
 21
495.076
  0
LINE
  8
0
 10
339.52
 20
495.076
 11
339.373
 21
495.022
  0
LINE
  8
0
 10
339.373
 20
495.022
 11
339.222
 21
494.979
  0
LINE
  8
0
 10
339.222
 20
494.979
 11
339.068
 21
494.944
  0
LINE
  8
0
 10
339.068
 20
494.944
 11
338.913
 21
494.92
  0
LINE
  8
0
 10
338.913
 20
494.92
 11
338.757
 21
494.905
  0
LINE
  8
0
 10
338.757
 20
494.905
 11
338.6
 21
494.9
  0
LINE
  8
0
 10
338.6
 20
494.9
 11
338.443
 21
494.905
  0
LINE
  8
0
 10
288.443
 20
494.905
 11
288.287
 21
494.92
  0
LINE
  8
0
 10
288.287
 20
494.92
 11
288.132
 21
494.944
  0
LINE
  8
0
 10
288.132
 20
494.944
 11
287.978
 21
494.979
  0
LINE
  8
0
 10
287.978
 20
494.979
 11
287.827
 21
495.022
  0
LINE
  8
0
 10
287.827
 20
495.022
 11
287.68
 21
495.076
  0
LINE
  8
0
 10
287.68
 20
495.076
 11
287.536
 21
495.138
  0
LINE
  8
0
 10
287.536
 20
495.138
 11
287.396
 21
495.209
  0
LINE
  8
0
 10
287.396
 20
495.209
 11
287.26
 21
495.289
  0
LINE
  8
0
 10
287.26
 20
495.289
 11
287.131
 21
495.377
  0
LINE
  8
0
 10
287.131
 20
495.377
 11
287.006
 21
495.474
  0
LINE
  8
0
 10
287.006
 20
495.474
 11
286.889
 21
495.578
  0
LINE
  8
0
 10
286.889
 20
495.578
 11
286.778
 21
495.689
  0
LINE
  8
0
 10
286.778
 20
495.689
 11
286.674
 21
495.806
  0
LINE
  8
0
 10
286.674
 20
495.806
 11
286.577
 21
495.931
  0
LINE
  8
0
 10
286.577
 20
495.931
 11
286.489
 21
496.06
  0
LINE
  8
0
 10
286.489
 20
496.06
 11
286.409
 21
496.196
  0
LINE
  8
0
 10
286.409
 20
496.196
 11
286.338
 21
496.336
  0
LINE
  8
0
 10
286.338
 20
496.336
 11
286.276
 21
496.48
  0
LINE
  8
0
 10
286.276
 20
496.48
 11
286.222
 21
496.627
  0
LINE
  8
0
 10
286.222
 20
496.627
 11
286.179
 21
496.778
  0
LINE
  8
0
 10
286.179
 20
496.778
 11
286.144
 21
496.932
  0
LINE
  8
0
 10
286.144
 20
496.932
 11
286.12
 21
497.087
  0
LINE
  8
0
 10
286.12
 20
497.087
 11
286.105
 21
497.243
  0
LINE
  8
0
 10
286.105
 20
497.243
 11
286.1
 21
497.4
  0
LINE
  8
0
 10
286.1
 20
497.4
 11
286.105
 21
497.557
  0
LINE
  8
0
 10
286.105
 20
497.557
 11
286.12
 21
497.713
  0
LINE
  8
0
 10
286.12
 20
497.713
 11
286.144
 21
497.868
  0
LINE
  8
0
 10
286.144
 20
497.868
 11
286.179
 21
498.022
  0
LINE
  8
0
 10
286.179
 20
498.022
 11
286.222
 21
498.173
  0
LINE
  8
0
 10
286.222
 20
498.173
 11
286.276
 21
498.32
  0
LINE
  8
0
 10
286.276
 20
498.32
 11
286.338
 21
498.464
  0
LINE
  8
0
 10
286.338
 20
498.464
 11
286.409
 21
498.604
  0
LINE
  8
0
 10
286.409
 20
498.604
 11
286.489
 21
498.74
  0
LINE
  8
0
 10
286.489
 20
498.74
 11
286.577
 21
498.869
  0
LINE
  8
0
 10
286.577
 20
498.869
 11
286.674
 21
498.994
  0
LINE
  8
0
 10
286.674
 20
498.994
 11
286.778
 21
499.111
  0
LINE
  8
0
 10
286.778
 20
499.111
 11
286.889
 21
499.222
  0
LINE
  8
0
 10
286.889
 20
499.222
 11
287.006
 21
499.326
  0
LINE
  8
0
 10
287.006
 20
499.326
 11
287.131
 21
499.423
  0
LINE
  8
0
 10
287.131
 20
499.423
 11
287.26
 21
499.511
  0
LINE
  8
0
 10
287.26
 20
499.511
 11
287.396
 21
499.591
  0
LINE
  8
0
 10
287.396
 20
499.591
 11
287.536
 21
499.662
  0
LINE
  8
0
 10
287.536
 20
499.662
 11
287.68
 21
499.724
  0
LINE
  8
0
 10
287.68
 20
499.724
 11
287.827
 21
499.778
  0
LINE
  8
0
 10
287.827
 20
499.778
 11
287.978
 21
499.821
  0
LINE
  8
0
 10
287.978
 20
499.821
 11
288.132
 21
499.856
  0
LINE
  8
0
 10
288.132
 20
499.856
 11
288.287
 21
499.88
  0
LINE
  8
0
 10
288.287
 20
499.88
 11
288.443
 21
499.895
  0
LINE
  8
0
 10
288.443
 20
499.895
 11
288.6
 21
499.9
  0
LINE
  8
0
 10
288.6
 20
499.9
 11
288.757
 21
499.895
  0
LINE
  8
0
 10
288.757
 20
499.895
 11
288.913
 21
499.88
  0
LINE
  8
0
 10
288.913
 20
499.88
 11
289.068
 21
499.856
  0
LINE
  8
0
 10
289.068
 20
499.856
 11
289.222
 21
499.821
  0
LINE
  8
0
 10
289.222
 20
499.821
 11
289.373
 21
499.778
  0
LINE
  8
0
 10
289.373
 20
499.778
 11
289.52
 21
499.724
  0
LINE
  8
0
 10
289.52
 20
499.724
 11
289.664
 21
499.662
  0
LINE
  8
0
 10
289.664
 20
499.662
 11
289.804
 21
499.591
  0
LINE
  8
0
 10
289.804
 20
499.591
 11
289.94
 21
499.511
  0
LINE
  8
0
 10
289.94
 20
499.511
 11
290.069
 21
499.423
  0
LINE
  8
0
 10
290.069
 20
499.423
 11
290.194
 21
499.326
  0
LINE
  8
0
 10
290.194
 20
499.326
 11
290.311
 21
499.222
  0
LINE
  8
0
 10
290.311
 20
499.222
 11
290.422
 21
499.111
  0
LINE
  8
0
 10
290.422
 20
499.111
 11
290.526
 21
498.994
  0
LINE
  8
0
 10
290.526
 20
498.994
 11
290.623
 21
498.869
  0
LINE
  8
0
 10
290.623
 20
498.869
 11
290.711
 21
498.74
  0
LINE
  8
0
 10
290.711
 20
498.74
 11
290.791
 21
498.604
  0
LINE
  8
0
 10
290.791
 20
498.604
 11
290.862
 21
498.464
  0
LINE
  8
0
 10
290.862
 20
498.464
 11
290.924
 21
498.32
  0
LINE
  8
0
 10
290.924
 20
498.32
 11
290.978
 21
498.173
  0
LINE
  8
0
 10
290.978
 20
498.173
 11
291.021
 21
498.022
  0
LINE
  8
0
 10
291.021
 20
498.022
 11
291.056
 21
497.868
  0
LINE
  8
0
 10
291.056
 20
497.868
 11
291.08
 21
497.713
  0
LINE
  8
0
 10
291.08
 20
497.713
 11
291.095
 21
497.557
  0
LINE
  8
0
 10
291.095
 20
497.557
 11
291.1
 21
497.4
  0
LINE
  8
0
 10
291.1
 20
497.4
 11
291.095
 21
497.243
  0
LINE
  8
0
 10
291.095
 20
497.243
 11
291.08
 21
497.087
  0
LINE
  8
0
 10
291.08
 20
497.087
 11
291.056
 21
496.932
  0
LINE
  8
0
 10
291.056
 20
496.932
 11
291.021
 21
496.778
  0
LINE
  8
0
 10
291.021
 20
496.778
 11
290.978
 21
496.627
  0
LINE
  8
0
 10
290.978
 20
496.627
 11
290.924
 21
496.48
  0
LINE
  8
0
 10
290.924
 20
496.48
 11
290.862
 21
496.336
  0
LINE
  8
0
 10
290.862
 20
496.336
 11
290.791
 21
496.196
  0
LINE
  8
0
 10
290.791
 20
496.196
 11
290.711
 21
496.06
  0
LINE
  8
0
 10
290.711
 20
496.06
 11
290.623
 21
495.931
  0
LINE
  8
0
 10
290.623
 20
495.931
 11
290.526
 21
495.806
  0
LINE
  8
0
 10
290.526
 20
495.806
 11
290.422
 21
495.689
  0
LINE
  8
0
 10
290.422
 20
495.689
 11
290.311
 21
495.578
  0
LINE
  8
0
 10
290.311
 20
495.578
 11
290.194
 21
495.474
  0
LINE
  8
0
 10
290.194
 20
495.474
 11
290.069
 21
495.377
  0
LINE
  8
0
 10
290.069
 20
495.377
 11
289.94
 21
495.289
  0
LINE
  8
0
 10
289.94
 20
495.289
 11
289.804
 21
495.209
  0
LINE
  8
0
 10
289.804
 20
495.209
 11
289.664
 21
495.138
  0
LINE
  8
0
 10
289.664
 20
495.138
 11
289.52
 21
495.076
  0
LINE
  8
0
 10
289.52
 20
495.076
 11
289.373
 21
495.022
  0
LINE
  8
0
 10
289.373
 20
495.022
 11
289.222
 21
494.979
  0
LINE
  8
0
 10
289.222
 20
494.979
 11
289.068
 21
494.944
  0
LINE
  8
0
 10
289.068
 20
494.944
 11
288.913
 21
494.92
  0
LINE
  8
0
 10
288.913
 20
494.92
 11
288.757
 21
494.905
  0
LINE
  8
0
 10
288.757
 20
494.905
 11
288.6
 21
494.9
  0
LINE
  8
0
 10
288.6
 20
494.9
 11
288.443
 21
494.905
  0
LINE
  8
0
 10
51.0741
 20
488.9
 11
51.0741
 21
495.9
  0
LINE
  8
0
 10
51.0741
 20
495.9
 11
65.0741
 21
495.9
  0
LINE
  8
0
 10
65.0741
 20
495.9
 11
65.0741
 21
488.9
  0
LINE
  8
0
 10
65.0741
 20
488.9
 11
51.0741
 21
488.9
  0
LINE
  8
0
 10
283.143
 20
489.605
 11
282.987
 21
489.62
  0
LINE
  8
0
 10
282.987
 20
489.62
 11
282.832
 21
489.644
  0
LINE
  8
0
 10
282.832
 20
489.644
 11
282.678
 21
489.679
  0
LINE
  8
0
 10
282.678
 20
489.679
 11
282.527
 21
489.722
  0
LINE
  8
0
 10
282.527
 20
489.722
 11
282.38
 21
489.776
  0
LINE
  8
0
 10
282.38
 20
489.776
 11
282.236
 21
489.838
  0
LINE
  8
0
 10
282.236
 20
489.838
 11
282.096
 21
489.909
  0
LINE
  8
0
 10
282.096
 20
489.909
 11
281.96
 21
489.989
  0
LINE
  8
0
 10
281.96
 20
489.989
 11
281.831
 21
490.077
  0
LINE
  8
0
 10
281.831
 20
490.077
 11
281.706
 21
490.174
  0
LINE
  8
0
 10
281.706
 20
490.174
 11
281.589
 21
490.278
  0
LINE
  8
0
 10
281.589
 20
490.278
 11
281.478
 21
490.389
  0
LINE
  8
0
 10
281.478
 20
490.389
 11
281.374
 21
490.506
  0
LINE
  8
0
 10
281.374
 20
490.506
 11
281.277
 21
490.631
  0
LINE
  8
0
 10
281.277
 20
490.631
 11
281.189
 21
490.76
  0
LINE
  8
0
 10
281.189
 20
490.76
 11
281.109
 21
490.896
  0
LINE
  8
0
 10
281.109
 20
490.896
 11
281.038
 21
491.036
  0
LINE
  8
0
 10
281.038
 20
491.036
 11
280.976
 21
491.18
  0
LINE
  8
0
 10
280.976
 20
491.18
 11
280.922
 21
491.327
  0
LINE
  8
0
 10
280.922
 20
491.327
 11
280.879
 21
491.478
  0
LINE
  8
0
 10
280.879
 20
491.478
 11
280.844
 21
491.632
  0
LINE
  8
0
 10
280.844
 20
491.632
 11
280.82
 21
491.787
  0
LINE
  8
0
 10
280.82
 20
491.787
 11
280.805
 21
491.943
  0
LINE
  8
0
 10
280.805
 20
491.943
 11
280.8
 21
492.1
  0
LINE
  8
0
 10
280.8
 20
492.1
 11
280.805
 21
492.257
  0
LINE
  8
0
 10
280.805
 20
492.257
 11
280.82
 21
492.413
  0
LINE
  8
0
 10
280.82
 20
492.413
 11
280.844
 21
492.568
  0
LINE
  8
0
 10
280.844
 20
492.568
 11
280.879
 21
492.722
  0
LINE
  8
0
 10
280.879
 20
492.722
 11
280.922
 21
492.873
  0
LINE
  8
0
 10
280.922
 20
492.873
 11
280.976
 21
493.02
  0
LINE
  8
0
 10
280.976
 20
493.02
 11
281.038
 21
493.164
  0
LINE
  8
0
 10
281.038
 20
493.164
 11
281.109
 21
493.304
  0
LINE
  8
0
 10
281.109
 20
493.304
 11
281.189
 21
493.44
  0
LINE
  8
0
 10
281.189
 20
493.44
 11
281.277
 21
493.569
  0
LINE
  8
0
 10
281.277
 20
493.569
 11
281.374
 21
493.694
  0
LINE
  8
0
 10
281.374
 20
493.694
 11
281.478
 21
493.811
  0
LINE
  8
0
 10
281.478
 20
493.811
 11
281.589
 21
493.922
  0
LINE
  8
0
 10
281.589
 20
493.922
 11
281.706
 21
494.026
  0
LINE
  8
0
 10
281.706
 20
494.026
 11
281.831
 21
494.123
  0
LINE
  8
0
 10
281.831
 20
494.123
 11
281.96
 21
494.211
  0
LINE
  8
0
 10
281.96
 20
494.211
 11
282.096
 21
494.291
  0
LINE
  8
0
 10
282.096
 20
494.291
 11
282.236
 21
494.362
  0
LINE
  8
0
 10
282.236
 20
494.362
 11
282.38
 21
494.424
  0
LINE
  8
0
 10
282.38
 20
494.424
 11
282.527
 21
494.478
  0
LINE
  8
0
 10
282.527
 20
494.478
 11
282.678
 21
494.521
  0
LINE
  8
0
 10
282.678
 20
494.521
 11
282.832
 21
494.556
  0
LINE
  8
0
 10
282.832
 20
494.556
 11
282.987
 21
494.58
  0
LINE
  8
0
 10
282.987
 20
494.58
 11
283.143
 21
494.595
  0
LINE
  8
0
 10
283.143
 20
494.595
 11
283.3
 21
494.6
  0
LINE
  8
0
 10
283.3
 20
494.6
 11
283.457
 21
494.595
  0
LINE
  8
0
 10
283.457
 20
494.595
 11
283.613
 21
494.58
  0
LINE
  8
0
 10
283.613
 20
494.58
 11
283.768
 21
494.556
  0
LINE
  8
0
 10
283.768
 20
494.556
 11
283.922
 21
494.521
  0
LINE
  8
0
 10
283.922
 20
494.521
 11
284.073
 21
494.478
  0
LINE
  8
0
 10
284.073
 20
494.478
 11
284.22
 21
494.424
  0
LINE
  8
0
 10
284.22
 20
494.424
 11
284.364
 21
494.362
  0
LINE
  8
0
 10
284.364
 20
494.362
 11
284.504
 21
494.291
  0
LINE
  8
0
 10
284.504
 20
494.291
 11
284.64
 21
494.211
  0
LINE
  8
0
 10
284.64
 20
494.211
 11
284.769
 21
494.123
  0
LINE
  8
0
 10
284.769
 20
494.123
 11
284.894
 21
494.026
  0
LINE
  8
0
 10
284.894
 20
494.026
 11
285.011
 21
493.922
  0
LINE
  8
0
 10
285.011
 20
493.922
 11
285.122
 21
493.811
  0
LINE
  8
0
 10
285.122
 20
493.811
 11
285.226
 21
493.694
  0
LINE
  8
0
 10
285.226
 20
493.694
 11
285.323
 21
493.569
  0
LINE
  8
0
 10
285.323
 20
493.569
 11
285.411
 21
493.44
  0
LINE
  8
0
 10
285.411
 20
493.44
 11
285.491
 21
493.304
  0
LINE
  8
0
 10
285.491
 20
493.304
 11
285.562
 21
493.164
  0
LINE
  8
0
 10
285.562
 20
493.164
 11
285.624
 21
493.02
  0
LINE
  8
0
 10
285.624
 20
493.02
 11
285.678
 21
492.873
  0
LINE
  8
0
 10
285.678
 20
492.873
 11
285.721
 21
492.722
  0
LINE
  8
0
 10
285.721
 20
492.722
 11
285.756
 21
492.568
  0
LINE
  8
0
 10
285.756
 20
492.568
 11
285.78
 21
492.413
  0
LINE
  8
0
 10
285.78
 20
492.413
 11
285.795
 21
492.257
  0
LINE
  8
0
 10
285.795
 20
492.257
 11
285.8
 21
492.1
  0
LINE
  8
0
 10
285.8
 20
492.1
 11
285.795
 21
491.943
  0
LINE
  8
0
 10
285.795
 20
491.943
 11
285.78
 21
491.787
  0
LINE
  8
0
 10
285.78
 20
491.787
 11
285.756
 21
491.632
  0
LINE
  8
0
 10
285.756
 20
491.632
 11
285.721
 21
491.478
  0
LINE
  8
0
 10
285.721
 20
491.478
 11
285.678
 21
491.327
  0
LINE
  8
0
 10
285.678
 20
491.327
 11
285.624
 21
491.18
  0
LINE
  8
0
 10
285.624
 20
491.18
 11
285.562
 21
491.036
  0
LINE
  8
0
 10
285.562
 20
491.036
 11
285.491
 21
490.896
  0
LINE
  8
0
 10
285.491
 20
490.896
 11
285.411
 21
490.76
  0
LINE
  8
0
 10
285.411
 20
490.76
 11
285.323
 21
490.631
  0
LINE
  8
0
 10
285.323
 20
490.631
 11
285.226
 21
490.506
  0
LINE
  8
0
 10
285.226
 20
490.506
 11
285.122
 21
490.389
  0
LINE
  8
0
 10
285.122
 20
490.389
 11
285.011
 21
490.278
  0
LINE
  8
0
 10
285.011
 20
490.278
 11
284.894
 21
490.174
  0
LINE
  8
0
 10
284.894
 20
490.174
 11
284.769
 21
490.077
  0
LINE
  8
0
 10
284.769
 20
490.077
 11
284.64
 21
489.989
  0
LINE
  8
0
 10
284.64
 20
489.989
 11
284.504
 21
489.909
  0
LINE
  8
0
 10
284.504
 20
489.909
 11
284.364
 21
489.838
  0
LINE
  8
0
 10
284.364
 20
489.838
 11
284.22
 21
489.776
  0
LINE
  8
0
 10
284.22
 20
489.776
 11
284.073
 21
489.722
  0
LINE
  8
0
 10
284.073
 20
489.722
 11
283.922
 21
489.679
  0
LINE
  8
0
 10
283.922
 20
489.679
 11
283.768
 21
489.644
  0
LINE
  8
0
 10
283.768
 20
489.644
 11
283.613
 21
489.62
  0
LINE
  8
0
 10
283.613
 20
489.62
 11
283.457
 21
489.605
  0
LINE
  8
0
 10
283.457
 20
489.605
 11
283.3
 21
489.6
  0
LINE
  8
0
 10
283.3
 20
489.6
 11
283.143
 21
489.605
  0
LINE
  8
0
 10
343.743
 20
489.605
 11
343.587
 21
489.62
  0
LINE
  8
0
 10
343.587
 20
489.62
 11
343.432
 21
489.644
  0
LINE
  8
0
 10
343.432
 20
489.644
 11
343.278
 21
489.679
  0
LINE
  8
0
 10
343.278
 20
489.679
 11
343.127
 21
489.722
  0
LINE
  8
0
 10
343.127
 20
489.722
 11
342.98
 21
489.776
  0
LINE
  8
0
 10
342.98
 20
489.776
 11
342.836
 21
489.838
  0
LINE
  8
0
 10
342.836
 20
489.838
 11
342.696
 21
489.909
  0
LINE
  8
0
 10
342.696
 20
489.909
 11
342.56
 21
489.989
  0
LINE
  8
0
 10
342.56
 20
489.989
 11
342.431
 21
490.077
  0
LINE
  8
0
 10
342.431
 20
490.077
 11
342.306
 21
490.174
  0
LINE
  8
0
 10
342.306
 20
490.174
 11
342.189
 21
490.278
  0
LINE
  8
0
 10
342.189
 20
490.278
 11
342.078
 21
490.389
  0
LINE
  8
0
 10
342.078
 20
490.389
 11
341.974
 21
490.506
  0
LINE
  8
0
 10
341.974
 20
490.506
 11
341.877
 21
490.631
  0
LINE
  8
0
 10
341.877
 20
490.631
 11
341.789
 21
490.76
  0
LINE
  8
0
 10
341.789
 20
490.76
 11
341.709
 21
490.896
  0
LINE
  8
0
 10
341.709
 20
490.896
 11
341.638
 21
491.036
  0
LINE
  8
0
 10
341.638
 20
491.036
 11
341.576
 21
491.18
  0
LINE
  8
0
 10
341.576
 20
491.18
 11
341.522
 21
491.327
  0
LINE
  8
0
 10
341.522
 20
491.327
 11
341.479
 21
491.478
  0
LINE
  8
0
 10
341.479
 20
491.478
 11
341.444
 21
491.632
  0
LINE
  8
0
 10
341.444
 20
491.632
 11
341.42
 21
491.787
  0
LINE
  8
0
 10
341.42
 20
491.787
 11
341.405
 21
491.943
  0
LINE
  8
0
 10
341.405
 20
491.943
 11
341.4
 21
492.1
  0
LINE
  8
0
 10
341.4
 20
492.1
 11
341.405
 21
492.257
  0
LINE
  8
0
 10
341.405
 20
492.257
 11
341.42
 21
492.413
  0
LINE
  8
0
 10
341.42
 20
492.413
 11
341.444
 21
492.568
  0
LINE
  8
0
 10
341.444
 20
492.568
 11
341.479
 21
492.722
  0
LINE
  8
0
 10
341.479
 20
492.722
 11
341.522
 21
492.873
  0
LINE
  8
0
 10
341.522
 20
492.873
 11
341.576
 21
493.02
  0
LINE
  8
0
 10
341.576
 20
493.02
 11
341.638
 21
493.164
  0
LINE
  8
0
 10
341.638
 20
493.164
 11
341.709
 21
493.304
  0
LINE
  8
0
 10
341.709
 20
493.304
 11
341.789
 21
493.44
  0
LINE
  8
0
 10
341.789
 20
493.44
 11
341.877
 21
493.569
  0
LINE
  8
0
 10
341.877
 20
493.569
 11
341.974
 21
493.694
  0
LINE
  8
0
 10
341.974
 20
493.694
 11
342.078
 21
493.811
  0
LINE
  8
0
 10
342.078
 20
493.811
 11
342.189
 21
493.922
  0
LINE
  8
0
 10
342.189
 20
493.922
 11
342.306
 21
494.026
  0
LINE
  8
0
 10
342.306
 20
494.026
 11
342.431
 21
494.123
  0
LINE
  8
0
 10
342.431
 20
494.123
 11
342.56
 21
494.211
  0
LINE
  8
0
 10
342.56
 20
494.211
 11
342.696
 21
494.291
  0
LINE
  8
0
 10
342.696
 20
494.291
 11
342.836
 21
494.362
  0
LINE
  8
0
 10
342.836
 20
494.362
 11
342.98
 21
494.424
  0
LINE
  8
0
 10
342.98
 20
494.424
 11
343.127
 21
494.478
  0
LINE
  8
0
 10
343.127
 20
494.478
 11
343.278
 21
494.521
  0
LINE
  8
0
 10
343.278
 20
494.521
 11
343.432
 21
494.556
  0
LINE
  8
0
 10
343.432
 20
494.556
 11
343.587
 21
494.58
  0
LINE
  8
0
 10
343.587
 20
494.58
 11
343.743
 21
494.595
  0
LINE
  8
0
 10
343.743
 20
494.595
 11
343.9
 21
494.6
  0
LINE
  8
0
 10
343.9
 20
494.6
 11
344.057
 21
494.595
  0
LINE
  8
0
 10
344.057
 20
494.595
 11
344.213
 21
494.58
  0
LINE
  8
0
 10
344.213
 20
494.58
 11
344.368
 21
494.556
  0
LINE
  8
0
 10
344.368
 20
494.556
 11
344.522
 21
494.521
  0
LINE
  8
0
 10
344.522
 20
494.521
 11
344.673
 21
494.478
  0
LINE
  8
0
 10
344.673
 20
494.478
 11
344.82
 21
494.424
  0
LINE
  8
0
 10
344.82
 20
494.424
 11
344.964
 21
494.362
  0
LINE
  8
0
 10
344.964
 20
494.362
 11
345.104
 21
494.291
  0
LINE
  8
0
 10
345.104
 20
494.291
 11
345.24
 21
494.211
  0
LINE
  8
0
 10
345.24
 20
494.211
 11
345.369
 21
494.123
  0
LINE
  8
0
 10
345.369
 20
494.123
 11
345.494
 21
494.026
  0
LINE
  8
0
 10
345.494
 20
494.026
 11
345.611
 21
493.922
  0
LINE
  8
0
 10
345.611
 20
493.922
 11
345.722
 21
493.811
  0
LINE
  8
0
 10
345.722
 20
493.811
 11
345.826
 21
493.694
  0
LINE
  8
0
 10
345.826
 20
493.694
 11
345.923
 21
493.569
  0
LINE
  8
0
 10
345.923
 20
493.569
 11
346.011
 21
493.44
  0
LINE
  8
0
 10
346.011
 20
493.44
 11
346.091
 21
493.304
  0
LINE
  8
0
 10
346.091
 20
493.304
 11
346.162
 21
493.164
  0
LINE
  8
0
 10
346.162
 20
493.164
 11
346.224
 21
493.02
  0
LINE
  8
0
 10
346.224
 20
493.02
 11
346.278
 21
492.873
  0
LINE
  8
0
 10
346.278
 20
492.873
 11
346.321
 21
492.722
  0
LINE
  8
0
 10
346.321
 20
492.722
 11
346.356
 21
492.568
  0
LINE
  8
0
 10
346.356
 20
492.568
 11
346.38
 21
492.413
  0
LINE
  8
0
 10
346.38
 20
492.413
 11
346.395
 21
492.257
  0
LINE
  8
0
 10
346.395
 20
492.257
 11
346.4
 21
492.1
  0
LINE
  8
0
 10
346.4
 20
492.1
 11
346.395
 21
491.943
  0
LINE
  8
0
 10
346.395
 20
491.943
 11
346.38
 21
491.787
  0
LINE
  8
0
 10
346.38
 20
491.787
 11
346.356
 21
491.632
  0
LINE
  8
0
 10
346.356
 20
491.632
 11
346.321
 21
491.478
  0
LINE
  8
0
 10
346.321
 20
491.478
 11
346.278
 21
491.327
  0
LINE
  8
0
 10
346.278
 20
491.327
 11
346.224
 21
491.18
  0
LINE
  8
0
 10
346.224
 20
491.18
 11
346.162
 21
491.036
  0
LINE
  8
0
 10
346.162
 20
491.036
 11
346.091
 21
490.896
  0
LINE
  8
0
 10
346.091
 20
490.896
 11
346.011
 21
490.76
  0
LINE
  8
0
 10
346.011
 20
490.76
 11
345.923
 21
490.631
  0
LINE
  8
0
 10
345.923
 20
490.631
 11
345.826
 21
490.506
  0
LINE
  8
0
 10
345.826
 20
490.506
 11
345.722
 21
490.389
  0
LINE
  8
0
 10
345.722
 20
490.389
 11
345.611
 21
490.278
  0
LINE
  8
0
 10
345.611
 20
490.278
 11
345.494
 21
490.174
  0
LINE
  8
0
 10
345.494
 20
490.174
 11
345.369
 21
490.077
  0
LINE
  8
0
 10
345.369
 20
490.077
 11
345.24
 21
489.989
  0
LINE
  8
0
 10
345.24
 20
489.989
 11
345.104
 21
489.909
  0
LINE
  8
0
 10
345.104
 20
489.909
 11
344.964
 21
489.838
  0
LINE
  8
0
 10
344.964
 20
489.838
 11
344.82
 21
489.776
  0
LINE
  8
0
 10
344.82
 20
489.776
 11
344.673
 21
489.722
  0
LINE
  8
0
 10
344.673
 20
489.722
 11
344.522
 21
489.679
  0
LINE
  8
0
 10
344.522
 20
489.679
 11
344.368
 21
489.644
  0
LINE
  8
0
 10
344.368
 20
489.644
 11
344.213
 21
489.62
  0
LINE
  8
0
 10
344.213
 20
489.62
 11
344.057
 21
489.605
  0
LINE
  8
0
 10
344.057
 20
489.605
 11
343.9
 21
489.6
  0
LINE
  8
0
 10
343.9
 20
489.6
 11
343.743
 21
489.605
  0
LINE
  8
0
 10
104.76
 20
460.41
 11
104.447
 21
460.439
  0
LINE
  8
0
 10
104.447
 20
460.439
 11
104.137
 21
460.489
  0
LINE
  8
0
 10
104.137
 20
460.489
 11
103.831
 21
460.557
  0
LINE
  8
0
 10
103.831
 20
460.557
 11
103.529
 21
460.645
  0
LINE
  8
0
 10
103.529
 20
460.645
 11
103.233
 21
460.751
  0
LINE
  8
0
 10
103.233
 20
460.751
 11
102.945
 21
460.876
  0
LINE
  8
0
 10
102.945
 20
460.876
 11
102.665
 21
461.018
  0
LINE
  8
0
 10
102.665
 20
461.018
 11
102.395
 21
461.178
  0
LINE
  8
0
 10
102.395
 20
461.178
 11
102.135
 21
461.355
  0
LINE
  8
0
 10
102.135
 20
461.355
 11
101.887
 21
461.547
  0
LINE
  8
0
 10
101.887
 20
461.547
 11
101.651
 21
461.755
  0
LINE
  8
0
 10
101.651
 20
461.755
 11
101.429
 21
461.977
  0
LINE
  8
0
 10
101.429
 20
461.977
 11
101.221
 21
462.213
  0
LINE
  8
0
 10
101.221
 20
462.213
 11
101.029
 21
462.461
  0
LINE
  8
0
 10
101.029
 20
462.461
 11
100.852
 21
462.721
  0
LINE
  8
0
 10
100.852
 20
462.721
 11
100.693
 21
462.991
  0
LINE
  8
0
 10
100.693
 20
462.991
 11
100.55
 21
463.271
  0
LINE
  8
0
 10
100.55
 20
463.271
 11
100.425
 21
463.559
  0
LINE
  8
0
 10
100.425
 20
463.559
 11
100.319
 21
463.855
  0
LINE
  8
0
 10
100.319
 20
463.855
 11
100.231
 21
464.157
  0
LINE
  8
0
 10
100.231
 20
464.157
 11
100.163
 21
464.463
  0
LINE
  8
0
 10
100.163
 20
464.463
 11
100.113
 21
464.773
  0
LINE
  8
0
 10
100.113
 20
464.773
 11
100.084
 21
465.086
  0
LINE
  8
0
 10
100.084
 20
465.086
 11
100.074
 21
465.4
  0
LINE
  8
0
 10
100.074
 20
465.4
 11
100.074
 21
480.4
  0
LINE
  8
0
 10
100.074
 20
480.4
 11
100.084
 21
480.714
  0
LINE
  8
0
 10
100.084
 20
480.714
 11
100.113
 21
481.027
  0
LINE
  8
0
 10
100.113
 20
481.027
 11
100.163
 21
481.337
  0
LINE
  8
0
 10
100.163
 20
481.337
 11
100.231
 21
481.643
  0
LINE
  8
0
 10
100.231
 20
481.643
 11
100.319
 21
481.945
  0
LINE
  8
0
 10
100.319
 20
481.945
 11
100.425
 21
482.241
  0
LINE
  8
0
 10
100.425
 20
482.241
 11
100.55
 21
482.529
  0
LINE
  8
0
 10
100.55
 20
482.529
 11
100.693
 21
482.809
  0
LINE
  8
0
 10
100.693
 20
482.809
 11
100.852
 21
483.079
  0
LINE
  8
0
 10
100.852
 20
483.079
 11
101.029
 21
483.339
  0
LINE
  8
0
 10
101.029
 20
483.339
 11
101.221
 21
483.587
  0
LINE
  8
0
 10
101.221
 20
483.587
 11
101.429
 21
483.823
  0
LINE
  8
0
 10
101.429
 20
483.823
 11
101.651
 21
484.045
  0
LINE
  8
0
 10
101.651
 20
484.045
 11
101.887
 21
484.253
  0
LINE
  8
0
 10
101.887
 20
484.253
 11
102.135
 21
484.445
  0
LINE
  8
0
 10
102.135
 20
484.445
 11
102.395
 21
484.622
  0
LINE
  8
0
 10
102.395
 20
484.622
 11
102.665
 21
484.782
  0
LINE
  8
0
 10
102.665
 20
484.782
 11
102.945
 21
484.924
  0
LINE
  8
0
 10
102.945
 20
484.924
 11
103.233
 21
485.049
  0
LINE
  8
0
 10
103.233
 20
485.049
 11
103.529
 21
485.155
  0
LINE
  8
0
 10
103.529
 20
485.155
 11
103.831
 21
485.243
  0
LINE
  8
0
 10
103.831
 20
485.243
 11
104.137
 21
485.311
  0
LINE
  8
0
 10
104.137
 20
485.311
 11
104.447
 21
485.361
  0
LINE
  8
0
 10
104.447
 20
485.361
 11
104.76
 21
485.39
  0
LINE
  8
0
 10
104.76
 20
485.39
 11
105.074
 21
485.4
  0
LINE
  8
0
 10
105.074
 20
485.4
 11
105.388
 21
485.39
  0
LINE
  8
0
 10
105.388
 20
485.39
 11
105.701
 21
485.361
  0
LINE
  8
0
 10
105.701
 20
485.361
 11
106.011
 21
485.311
  0
LINE
  8
0
 10
106.011
 20
485.311
 11
106.318
 21
485.243
  0
LINE
  8
0
 10
106.318
 20
485.243
 11
106.619
 21
485.155
  0
LINE
  8
0
 10
106.619
 20
485.155
 11
106.915
 21
485.049
  0
LINE
  8
0
 10
106.915
 20
485.049
 11
107.203
 21
484.924
  0
LINE
  8
0
 10
107.203
 20
484.924
 11
107.483
 21
484.782
  0
LINE
  8
0
 10
107.483
 20
484.782
 11
107.753
 21
484.622
  0
LINE
  8
0
 10
107.753
 20
484.622
 11
108.013
 21
484.445
  0
LINE
  8
0
 10
108.013
 20
484.445
 11
108.261
 21
484.253
  0
LINE
  8
0
 10
108.261
 20
484.253
 11
108.497
 21
484.045
  0
LINE
  8
0
 10
108.497
 20
484.045
 11
108.719
 21
483.823
  0
LINE
  8
0
 10
108.719
 20
483.823
 11
108.927
 21
483.587
  0
LINE
  8
0
 10
108.927
 20
483.587
 11
109.119
 21
483.339
  0
LINE
  8
0
 10
109.119
 20
483.339
 11
109.296
 21
483.079
  0
LINE
  8
0
 10
109.296
 20
483.079
 11
109.456
 21
482.809
  0
LINE
  8
0
 10
109.456
 20
482.809
 11
109.598
 21
482.529
  0
LINE
  8
0
 10
109.598
 20
482.529
 11
109.723
 21
482.241
  0
LINE
  8
0
 10
109.723
 20
482.241
 11
109.829
 21
481.945
  0
LINE
  8
0
 10
109.829
 20
481.945
 11
109.917
 21
481.643
  0
LINE
  8
0
 10
109.917
 20
481.643
 11
109.986
 21
481.337
  0
LINE
  8
0
 10
109.986
 20
481.337
 11
110.035
 21
481.027
  0
LINE
  8
0
 10
110.035
 20
481.027
 11
110.064
 21
480.714
  0
LINE
  8
0
 10
110.064
 20
480.714
 11
110.074
 21
480.4
  0
LINE
  8
0
 10
110.074
 20
480.4
 11
110.074
 21
465.4
  0
LINE
  8
0
 10
110.074
 20
465.4
 11
110.064
 21
465.086
  0
LINE
  8
0
 10
110.064
 20
465.086
 11
110.035
 21
464.773
  0
LINE
  8
0
 10
110.035
 20
464.773
 11
109.986
 21
464.463
  0
LINE
  8
0
 10
109.986
 20
464.463
 11
109.917
 21
464.157
  0
LINE
  8
0
 10
109.917
 20
464.157
 11
109.829
 21
463.855
  0
LINE
  8
0
 10
109.829
 20
463.855
 11
109.723
 21
463.559
  0
LINE
  8
0
 10
109.723
 20
463.559
 11
109.598
 21
463.271
  0
LINE
  8
0
 10
109.598
 20
463.271
 11
109.456
 21
462.991
  0
LINE
  8
0
 10
109.456
 20
462.991
 11
109.296
 21
462.721
  0
LINE
  8
0
 10
109.296
 20
462.721
 11
109.119
 21
462.461
  0
LINE
  8
0
 10
109.119
 20
462.461
 11
108.927
 21
462.213
  0
LINE
  8
0
 10
108.927
 20
462.213
 11
108.719
 21
461.977
  0
LINE
  8
0
 10
108.719
 20
461.977
 11
108.497
 21
461.755
  0
LINE
  8
0
 10
108.497
 20
461.755
 11
108.261
 21
461.547
  0
LINE
  8
0
 10
108.261
 20
461.547
 11
108.013
 21
461.355
  0
LINE
  8
0
 10
108.013
 20
461.355
 11
107.753
 21
461.178
  0
LINE
  8
0
 10
107.753
 20
461.178
 11
107.483
 21
461.018
  0
LINE
  8
0
 10
107.483
 20
461.018
 11
107.203
 21
460.876
  0
LINE
  8
0
 10
107.203
 20
460.876
 11
106.915
 21
460.751
  0
LINE
  8
0
 10
106.915
 20
460.751
 11
106.619
 21
460.645
  0
LINE
  8
0
 10
106.619
 20
460.645
 11
106.318
 21
460.557
  0
LINE
  8
0
 10
106.318
 20
460.557
 11
106.011
 21
460.489
  0
LINE
  8
0
 10
106.011
 20
460.489
 11
105.701
 21
460.439
  0
LINE
  8
0
 10
105.701
 20
460.439
 11
105.388
 21
460.41
  0
LINE
  8
0
 10
105.388
 20
460.41
 11
105.074
 21
460.4
  0
LINE
  8
0
 10
105.074
 20
460.4
 11
104.76
 21
460.41
  0
LINE
  8
0
 10
51.0741
 20
338.9
 11
51.0741
 21
345.9
  0
LINE
  8
0
 10
51.0741
 20
345.9
 11
65.0741
 21
345.9
  0
LINE
  8
0
 10
65.0741
 20
345.9
 11
65.0741
 21
338.9
  0
LINE
  8
0
 10
65.0741
 20
338.9
 11
51.0741
 21
338.9
  0
LINE
  8
0
 10
343.743
 20
340.205
 11
343.587
 21
340.22
  0
LINE
  8
0
 10
343.587
 20
340.22
 11
343.432
 21
340.244
  0
LINE
  8
0
 10
343.432
 20
340.244
 11
343.278
 21
340.279
  0
LINE
  8
0
 10
343.278
 20
340.279
 11
343.127
 21
340.322
  0
LINE
  8
0
 10
343.127
 20
340.322
 11
342.98
 21
340.376
  0
LINE
  8
0
 10
342.98
 20
340.376
 11
342.836
 21
340.438
  0
LINE
  8
0
 10
342.836
 20
340.438
 11
342.696
 21
340.509
  0
LINE
  8
0
 10
342.696
 20
340.509
 11
342.56
 21
340.589
  0
LINE
  8
0
 10
342.56
 20
340.589
 11
342.431
 21
340.677
  0
LINE
  8
0
 10
342.431
 20
340.677
 11
342.306
 21
340.774
  0
LINE
  8
0
 10
342.306
 20
340.774
 11
342.189
 21
340.878
  0
LINE
  8
0
 10
342.189
 20
340.878
 11
342.078
 21
340.989
  0
LINE
  8
0
 10
342.078
 20
340.989
 11
341.974
 21
341.106
  0
LINE
  8
0
 10
341.974
 20
341.106
 11
341.877
 21
341.231
  0
LINE
  8
0
 10
341.877
 20
341.231
 11
341.789
 21
341.36
  0
LINE
  8
0
 10
341.789
 20
341.36
 11
341.709
 21
341.496
  0
LINE
  8
0
 10
341.709
 20
341.496
 11
341.638
 21
341.636
  0
LINE
  8
0
 10
341.638
 20
341.636
 11
341.576
 21
341.78
  0
LINE
  8
0
 10
341.576
 20
341.78
 11
341.522
 21
341.927
  0
LINE
  8
0
 10
341.522
 20
341.927
 11
341.479
 21
342.078
  0
LINE
  8
0
 10
341.479
 20
342.078
 11
341.444
 21
342.232
  0
LINE
  8
0
 10
341.444
 20
342.232
 11
341.42
 21
342.387
  0
LINE
  8
0
 10
341.42
 20
342.387
 11
341.405
 21
342.543
  0
LINE
  8
0
 10
341.405
 20
342.543
 11
341.4
 21
342.7
  0
LINE
  8
0
 10
341.4
 20
342.7
 11
341.405
 21
342.857
  0
LINE
  8
0
 10
341.405
 20
342.857
 11
341.42
 21
343.013
  0
LINE
  8
0
 10
341.42
 20
343.013
 11
341.444
 21
343.168
  0
LINE
  8
0
 10
341.444
 20
343.168
 11
341.479
 21
343.322
  0
LINE
  8
0
 10
341.479
 20
343.322
 11
341.522
 21
343.473
  0
LINE
  8
0
 10
341.522
 20
343.473
 11
341.576
 21
343.62
  0
LINE
  8
0
 10
341.576
 20
343.62
 11
341.638
 21
343.764
  0
LINE
  8
0
 10
341.638
 20
343.764
 11
341.709
 21
343.904
  0
LINE
  8
0
 10
341.709
 20
343.904
 11
341.789
 21
344.04
  0
LINE
  8
0
 10
341.789
 20
344.04
 11
341.877
 21
344.169
  0
LINE
  8
0
 10
341.877
 20
344.169
 11
341.974
 21
344.294
  0
LINE
  8
0
 10
341.974
 20
344.294
 11
342.078
 21
344.411
  0
LINE
  8
0
 10
342.078
 20
344.411
 11
342.189
 21
344.522
  0
LINE
  8
0
 10
342.189
 20
344.522
 11
342.306
 21
344.626
  0
LINE
  8
0
 10
342.306
 20
344.626
 11
342.431
 21
344.723
  0
LINE
  8
0
 10
342.431
 20
344.723
 11
342.56
 21
344.811
  0
LINE
  8
0
 10
342.56
 20
344.811
 11
342.696
 21
344.891
  0
LINE
  8
0
 10
342.696
 20
344.891
 11
342.836
 21
344.962
  0
LINE
  8
0
 10
342.836
 20
344.962
 11
342.98
 21
345.024
  0
LINE
  8
0
 10
342.98
 20
345.024
 11
343.127
 21
345.078
  0
LINE
  8
0
 10
343.127
 20
345.078
 11
343.278
 21
345.121
  0
LINE
  8
0
 10
343.278
 20
345.121
 11
343.432
 21
345.156
  0
LINE
  8
0
 10
343.432
 20
345.156
 11
343.587
 21
345.18
  0
LINE
  8
0
 10
343.587
 20
345.18
 11
343.743
 21
345.195
  0
LINE
  8
0
 10
343.743
 20
345.195
 11
343.9
 21
345.2
  0
LINE
  8
0
 10
343.9
 20
345.2
 11
344.057
 21
345.195
  0
LINE
  8
0
 10
344.057
 20
345.195
 11
344.213
 21
345.18
  0
LINE
  8
0
 10
344.213
 20
345.18
 11
344.368
 21
345.156
  0
LINE
  8
0
 10
344.368
 20
345.156
 11
344.522
 21
345.121
  0
LINE
  8
0
 10
344.522
 20
345.121
 11
344.673
 21
345.078
  0
LINE
  8
0
 10
344.673
 20
345.078
 11
344.82
 21
345.024
  0
LINE
  8
0
 10
344.82
 20
345.024
 11
344.964
 21
344.962
  0
LINE
  8
0
 10
344.964
 20
344.962
 11
345.104
 21
344.891
  0
LINE
  8
0
 10
345.104
 20
344.891
 11
345.24
 21
344.811
  0
LINE
  8
0
 10
345.24
 20
344.811
 11
345.369
 21
344.723
  0
LINE
  8
0
 10
345.369
 20
344.723
 11
345.494
 21
344.626
  0
LINE
  8
0
 10
345.494
 20
344.626
 11
345.611
 21
344.522
  0
LINE
  8
0
 10
345.611
 20
344.522
 11
345.722
 21
344.411
  0
LINE
  8
0
 10
345.722
 20
344.411
 11
345.826
 21
344.294
  0
LINE
  8
0
 10
345.826
 20
344.294
 11
345.923
 21
344.169
  0
LINE
  8
0
 10
345.923
 20
344.169
 11
346.011
 21
344.04
  0
LINE
  8
0
 10
346.011
 20
344.04
 11
346.091
 21
343.904
  0
LINE
  8
0
 10
346.091
 20
343.904
 11
346.162
 21
343.764
  0
LINE
  8
0
 10
346.162
 20
343.764
 11
346.224
 21
343.62
  0
LINE
  8
0
 10
346.224
 20
343.62
 11
346.278
 21
343.473
  0
LINE
  8
0
 10
346.278
 20
343.473
 11
346.321
 21
343.322
  0
LINE
  8
0
 10
346.321
 20
343.322
 11
346.356
 21
343.168
  0
LINE
  8
0
 10
346.356
 20
343.168
 11
346.38
 21
343.013
  0
LINE
  8
0
 10
346.38
 20
343.013
 11
346.395
 21
342.857
  0
LINE
  8
0
 10
346.395
 20
342.857
 11
346.4
 21
342.7
  0
LINE
  8
0
 10
346.4
 20
342.7
 11
346.395
 21
342.543
  0
LINE
  8
0
 10
346.395
 20
342.543
 11
346.38
 21
342.387
  0
LINE
  8
0
 10
346.38
 20
342.387
 11
346.356
 21
342.232
  0
LINE
  8
0
 10
346.356
 20
342.232
 11
346.321
 21
342.078
  0
LINE
  8
0
 10
346.321
 20
342.078
 11
346.278
 21
341.927
  0
LINE
  8
0
 10
346.278
 20
341.927
 11
346.224
 21
341.78
  0
LINE
  8
0
 10
346.224
 20
341.78
 11
346.162
 21
341.636
  0
LINE
  8
0
 10
346.162
 20
341.636
 11
346.091
 21
341.496
  0
LINE
  8
0
 10
346.091
 20
341.496
 11
346.011
 21
341.36
  0
LINE
  8
0
 10
346.011
 20
341.36
 11
345.923
 21
341.231
  0
LINE
  8
0
 10
345.923
 20
341.231
 11
345.826
 21
341.106
  0
LINE
  8
0
 10
345.826
 20
341.106
 11
345.722
 21
340.989
  0
LINE
  8
0
 10
345.722
 20
340.989
 11
345.611
 21
340.878
  0
LINE
  8
0
 10
345.611
 20
340.878
 11
345.494
 21
340.774
  0
LINE
  8
0
 10
345.494
 20
340.774
 11
345.369
 21
340.677
  0
LINE
  8
0
 10
345.369
 20
340.677
 11
345.24
 21
340.589
  0
LINE
  8
0
 10
345.24
 20
340.589
 11
345.104
 21
340.509
  0
LINE
  8
0
 10
345.104
 20
340.509
 11
344.964
 21
340.438
  0
LINE
  8
0
 10
344.964
 20
340.438
 11
344.82
 21
340.376
  0
LINE
  8
0
 10
344.82
 20
340.376
 11
344.673
 21
340.322
  0
LINE
  8
0
 10
344.673
 20
340.322
 11
344.522
 21
340.279
  0
LINE
  8
0
 10
344.522
 20
340.279
 11
344.368
 21
340.244
  0
LINE
  8
0
 10
344.368
 20
340.244
 11
344.213
 21
340.22
  0
LINE
  8
0
 10
344.213
 20
340.22
 11
344.057
 21
340.205
  0
LINE
  8
0
 10
344.057
 20
340.205
 11
343.9
 21
340.2
  0
LINE
  8
0
 10
343.9
 20
340.2
 11
343.743
 21
340.205
  0
LINE
  8
0
 10
283.143
 20
340.205
 11
282.987
 21
340.22
  0
LINE
  8
0
 10
282.987
 20
340.22
 11
282.832
 21
340.244
  0
LINE
  8
0
 10
282.832
 20
340.244
 11
282.678
 21
340.279
  0
LINE
  8
0
 10
282.678
 20
340.279
 11
282.527
 21
340.322
  0
LINE
  8
0
 10
282.527
 20
340.322
 11
282.38
 21
340.376
  0
LINE
  8
0
 10
282.38
 20
340.376
 11
282.236
 21
340.438
  0
LINE
  8
0
 10
282.236
 20
340.438
 11
282.096
 21
340.509
  0
LINE
  8
0
 10
282.096
 20
340.509
 11
281.96
 21
340.589
  0
LINE
  8
0
 10
281.96
 20
340.589
 11
281.831
 21
340.677
  0
LINE
  8
0
 10
281.831
 20
340.677
 11
281.706
 21
340.774
  0
LINE
  8
0
 10
281.706
 20
340.774
 11
281.589
 21
340.878
  0
LINE
  8
0
 10
281.589
 20
340.878
 11
281.478
 21
340.989
  0
LINE
  8
0
 10
281.478
 20
340.989
 11
281.374
 21
341.106
  0
LINE
  8
0
 10
281.374
 20
341.106
 11
281.277
 21
341.231
  0
LINE
  8
0
 10
281.277
 20
341.231
 11
281.189
 21
341.36
  0
LINE
  8
0
 10
281.189
 20
341.36
 11
281.109
 21
341.496
  0
LINE
  8
0
 10
281.109
 20
341.496
 11
281.038
 21
341.636
  0
LINE
  8
0
 10
281.038
 20
341.636
 11
280.976
 21
341.78
  0
LINE
  8
0
 10
280.976
 20
341.78
 11
280.922
 21
341.927
  0
LINE
  8
0
 10
280.922
 20
341.927
 11
280.879
 21
342.078
  0
LINE
  8
0
 10
280.879
 20
342.078
 11
280.844
 21
342.232
  0
LINE
  8
0
 10
280.844
 20
342.232
 11
280.82
 21
342.387
  0
LINE
  8
0
 10
280.82
 20
342.387
 11
280.805
 21
342.543
  0
LINE
  8
0
 10
280.805
 20
342.543
 11
280.8
 21
342.7
  0
LINE
  8
0
 10
280.8
 20
342.7
 11
280.805
 21
342.857
  0
LINE
  8
0
 10
280.805
 20
342.857
 11
280.82
 21
343.013
  0
LINE
  8
0
 10
280.82
 20
343.013
 11
280.844
 21
343.168
  0
LINE
  8
0
 10
280.844
 20
343.168
 11
280.879
 21
343.322
  0
LINE
  8
0
 10
280.879
 20
343.322
 11
280.922
 21
343.473
  0
LINE
  8
0
 10
280.922
 20
343.473
 11
280.976
 21
343.62
  0
LINE
  8
0
 10
280.976
 20
343.62
 11
281.038
 21
343.764
  0
LINE
  8
0
 10
281.038
 20
343.764
 11
281.109
 21
343.904
  0
LINE
  8
0
 10
281.109
 20
343.904
 11
281.189
 21
344.04
  0
LINE
  8
0
 10
281.189
 20
344.04
 11
281.277
 21
344.169
  0
LINE
  8
0
 10
281.277
 20
344.169
 11
281.374
 21
344.294
  0
LINE
  8
0
 10
281.374
 20
344.294
 11
281.478
 21
344.411
  0
LINE
  8
0
 10
281.478
 20
344.411
 11
281.589
 21
344.522
  0
LINE
  8
0
 10
281.589
 20
344.522
 11
281.706
 21
344.626
  0
LINE
  8
0
 10
281.706
 20
344.626
 11
281.831
 21
344.723
  0
LINE
  8
0
 10
281.831
 20
344.723
 11
281.96
 21
344.811
  0
LINE
  8
0
 10
281.96
 20
344.811
 11
282.096
 21
344.891
  0
LINE
  8
0
 10
282.096
 20
344.891
 11
282.236
 21
344.962
  0
LINE
  8
0
 10
282.236
 20
344.962
 11
282.38
 21
345.024
  0
LINE
  8
0
 10
282.38
 20
345.024
 11
282.527
 21
345.078
  0
LINE
  8
0
 10
282.527
 20
345.078
 11
282.678
 21
345.121
  0
LINE
  8
0
 10
282.678
 20
345.121
 11
282.832
 21
345.156
  0
LINE
  8
0
 10
282.832
 20
345.156
 11
282.987
 21
345.18
  0
LINE
  8
0
 10
282.987
 20
345.18
 11
283.143
 21
345.195
  0
LINE
  8
0
 10
283.143
 20
345.195
 11
283.3
 21
345.2
  0
LINE
  8
0
 10
283.3
 20
345.2
 11
283.457
 21
345.195
  0
LINE
  8
0
 10
283.457
 20
345.195
 11
283.613
 21
345.18
  0
LINE
  8
0
 10
283.613
 20
345.18
 11
283.768
 21
345.156
  0
LINE
  8
0
 10
283.768
 20
345.156
 11
283.922
 21
345.121
  0
LINE
  8
0
 10
283.922
 20
345.121
 11
284.073
 21
345.078
  0
LINE
  8
0
 10
284.073
 20
345.078
 11
284.22
 21
345.024
  0
LINE
  8
0
 10
284.22
 20
345.024
 11
284.364
 21
344.962
  0
LINE
  8
0
 10
284.364
 20
344.962
 11
284.504
 21
344.891
  0
LINE
  8
0
 10
284.504
 20
344.891
 11
284.64
 21
344.811
  0
LINE
  8
0
 10
284.64
 20
344.811
 11
284.769
 21
344.723
  0
LINE
  8
0
 10
284.769
 20
344.723
 11
284.894
 21
344.626
  0
LINE
  8
0
 10
284.894
 20
344.626
 11
285.011
 21
344.522
  0
LINE
  8
0
 10
285.011
 20
344.522
 11
285.122
 21
344.411
  0
LINE
  8
0
 10
285.122
 20
344.411
 11
285.226
 21
344.294
  0
LINE
  8
0
 10
285.226
 20
344.294
 11
285.323
 21
344.169
  0
LINE
  8
0
 10
285.323
 20
344.169
 11
285.411
 21
344.04
  0
LINE
  8
0
 10
285.411
 20
344.04
 11
285.491
 21
343.904
  0
LINE
  8
0
 10
285.491
 20
343.904
 11
285.562
 21
343.764
  0
LINE
  8
0
 10
285.562
 20
343.764
 11
285.624
 21
343.62
  0
LINE
  8
0
 10
285.624
 20
343.62
 11
285.678
 21
343.473
  0
LINE
  8
0
 10
285.678
 20
343.473
 11
285.721
 21
343.322
  0
LINE
  8
0
 10
285.721
 20
343.322
 11
285.756
 21
343.168
  0
LINE
  8
0
 10
285.756
 20
343.168
 11
285.78
 21
343.013
  0
LINE
  8
0
 10
285.78
 20
343.013
 11
285.795
 21
342.857
  0
LINE
  8
0
 10
285.795
 20
342.857
 11
285.8
 21
342.7
  0
LINE
  8
0
 10
285.8
 20
342.7
 11
285.795
 21
342.543
  0
LINE
  8
0
 10
285.795
 20
342.543
 11
285.78
 21
342.387
  0
LINE
  8
0
 10
285.78
 20
342.387
 11
285.756
 21
342.232
  0
LINE
  8
0
 10
285.756
 20
342.232
 11
285.721
 21
342.078
  0
LINE
  8
0
 10
285.721
 20
342.078
 11
285.678
 21
341.927
  0
LINE
  8
0
 10
285.678
 20
341.927
 11
285.624
 21
341.78
  0
LINE
  8
0
 10
285.624
 20
341.78
 11
285.562
 21
341.636
  0
LINE
  8
0
 10
285.562
 20
341.636
 11
285.491
 21
341.496
  0
LINE
  8
0
 10
285.491
 20
341.496
 11
285.411
 21
341.36
  0
LINE
  8
0
 10
285.411
 20
341.36
 11
285.323
 21
341.231
  0
LINE
  8
0
 10
285.323
 20
341.231
 11
285.226
 21
341.106
  0
LINE
  8
0
 10
285.226
 20
341.106
 11
285.122
 21
340.989
  0
LINE
  8
0
 10
285.122
 20
340.989
 11
285.011
 21
340.878
  0
LINE
  8
0
 10
285.011
 20
340.878
 11
284.894
 21
340.774
  0
LINE
  8
0
 10
284.894
 20
340.774
 11
284.769
 21
340.677
  0
LINE
  8
0
 10
284.769
 20
340.677
 11
284.64
 21
340.589
  0
LINE
  8
0
 10
284.64
 20
340.589
 11
284.504
 21
340.509
  0
LINE
  8
0
 10
284.504
 20
340.509
 11
284.364
 21
340.438
  0
LINE
  8
0
 10
284.364
 20
340.438
 11
284.22
 21
340.376
  0
LINE
  8
0
 10
284.22
 20
340.376
 11
284.073
 21
340.322
  0
LINE
  8
0
 10
284.073
 20
340.322
 11
283.922
 21
340.279
  0
LINE
  8
0
 10
283.922
 20
340.279
 11
283.768
 21
340.244
  0
LINE
  8
0
 10
283.768
 20
340.244
 11
283.613
 21
340.22
  0
LINE
  8
0
 10
283.613
 20
340.22
 11
283.457
 21
340.205
  0
LINE
  8
0
 10
283.457
 20
340.205
 11
283.3
 21
340.2
  0
LINE
  8
0
 10
283.3
 20
340.2
 11
283.143
 21
340.205
  0
LINE
  8
0
 10
311.716
 20
282.459
 11
309.84
 21
282.637
  0
LINE
  8
0
 10
309.84
 20
282.637
 11
307.979
 21
282.931
  0
LINE
  8
0
 10
307.979
 20
282.931
 11
306.139
 21
283.342
  0
LINE
  8
0
 10
306.139
 20
283.342
 11
304.329
 21
283.868
  0
LINE
  8
0
 10
304.329
 20
283.868
 11
302.556
 21
284.507
  0
LINE
  8
0
 10
302.556
 20
284.507
 11
300.827
 21
285.255
  0
LINE
  8
0
 10
300.827
 20
285.255
 11
299.147
 21
286.111
  0
LINE
  8
0
 10
299.147
 20
286.111
 11
297.525
 21
287.07
  0
LINE
  8
0
 10
297.525
 20
287.07
 11
295.966
 21
288.129
  0
LINE
  8
0
 10
295.966
 20
288.129
 11
294.477
 21
289.285
  0
LINE
  8
0
 10
294.477
 20
289.285
 11
293.064
 21
290.531
  0
LINE
  8
0
 10
293.064
 20
290.531
 11
291.731
 21
291.864
  0
LINE
  8
0
 10
291.731
 20
291.864
 11
290.485
 21
293.277
  0
LINE
  8
0
 10
290.485
 20
293.277
 11
289.329
 21
294.766
  0
LINE
  8
0
 10
289.329
 20
294.766
 11
288.27
 21
296.325
  0
LINE
  8
0
 10
288.27
 20
296.325
 11
287.311
 21
297.947
  0
LINE
  8
0
 10
287.311
 20
297.947
 11
286.455
 21
299.627
  0
LINE
  8
0
 10
286.455
 20
299.627
 11
285.707
 21
301.356
  0
LINE
  8
0
 10
285.707
 20
301.356
 11
285.068
 21
303.129
  0
LINE
  8
0
 10
285.068
 20
303.129
 11
284.543
 21
304.939
  0
LINE
  8
0
 10
284.543
 20
304.939
 11
284.131
 21
306.779
  0
LINE
  8
0
 10
284.131
 20
306.779
 11
283.837
 21
308.64
  0
LINE
  8
0
 10
283.837
 20
308.64
 11
283.659
 21
310.516
  0
LINE
  8
0
 10
283.659
 20
310.516
 11
283.6
 21
312.4
  0
LINE
  8
0
 10
283.6
 20
312.4
 11
283.659
 21
314.284
  0
LINE
  8
0
 10
283.659
 20
314.284
 11
283.837
 21
316.16
  0
LINE
  8
0
 10
283.837
 20
316.16
 11
284.131
 21
318.021
  0
LINE
  8
0
 10
284.131
 20
318.021
 11
284.543
 21
319.861
  0
LINE
  8
0
 10
284.543
 20
319.861
 11
285.068
 21
321.671
  0
LINE
  8
0
 10
285.068
 20
321.671
 11
285.707
 21
323.444
  0
LINE
  8
0
 10
285.707
 20
323.444
 11
286.455
 21
325.173
  0
LINE
  8
0
 10
286.455
 20
325.173
 11
287.311
 21
326.853
  0
LINE
  8
0
 10
287.311
 20
326.853
 11
288.27
 21
328.475
  0
LINE
  8
0
 10
288.27
 20
328.475
 11
289.329
 21
330.034
  0
LINE
  8
0
 10
289.329
 20
330.034
 11
290.485
 21
331.523
  0
LINE
  8
0
 10
290.485
 20
331.523
 11
291.731
 21
332.936
  0
LINE
  8
0
 10
291.731
 20
332.936
 11
293.064
 21
334.269
  0
LINE
  8
0
 10
293.064
 20
334.269
 11
294.477
 21
335.515
  0
LINE
  8
0
 10
294.477
 20
335.515
 11
295.966
 21
336.671
  0
LINE
  8
0
 10
295.966
 20
336.671
 11
297.525
 21
337.73
  0
LINE
  8
0
 10
297.525
 20
337.73
 11
299.147
 21
338.689
  0
LINE
  8
0
 10
299.147
 20
338.689
 11
300.827
 21
339.545
  0
LINE
  8
0
 10
300.827
 20
339.545
 11
302.556
 21
340.293
  0
LINE
  8
0
 10
302.556
 20
340.293
 11
304.329
 21
340.932
  0
LINE
  8
0
 10
304.329
 20
340.932
 11
306.139
 21
341.457
  0
LINE
  8
0
 10
306.139
 20
341.457
 11
307.979
 21
341.869
  0
LINE
  8
0
 10
307.979
 20
341.869
 11
309.84
 21
342.163
  0
LINE
  8
0
 10
309.84
 20
342.163
 11
311.716
 21
342.341
  0
LINE
  8
0
 10
311.716
 20
342.341
 11
313.6
 21
342.4
  0
LINE
  8
0
 10
313.6
 20
342.4
 11
315.484
 21
342.341
  0
LINE
  8
0
 10
315.484
 20
342.341
 11
317.36
 21
342.163
  0
LINE
  8
0
 10
317.36
 20
342.163
 11
319.221
 21
341.869
  0
LINE
  8
0
 10
319.221
 20
341.869
 11
321.061
 21
341.457
  0
LINE
  8
0
 10
321.061
 20
341.457
 11
322.871
 21
340.932
  0
LINE
  8
0
 10
322.871
 20
340.932
 11
324.644
 21
340.293
  0
LINE
  8
0
 10
324.644
 20
340.293
 11
326.373
 21
339.545
  0
LINE
  8
0
 10
326.373
 20
339.545
 11
328.053
 21
338.689
  0
LINE
  8
0
 10
328.053
 20
338.689
 11
329.675
 21
337.73
  0
LINE
  8
0
 10
329.675
 20
337.73
 11
331.234
 21
336.671
  0
LINE
  8
0
 10
331.234
 20
336.671
 11
332.723
 21
335.515
  0
LINE
  8
0
 10
332.723
 20
335.515
 11
334.136
 21
334.269
  0
LINE
  8
0
 10
334.136
 20
334.269
 11
335.469
 21
332.936
  0
LINE
  8
0
 10
335.469
 20
332.936
 11
336.715
 21
331.523
  0
LINE
  8
0
 10
336.715
 20
331.523
 11
337.871
 21
330.034
  0
LINE
  8
0
 10
337.871
 20
330.034
 11
338.93
 21
328.475
  0
LINE
  8
0
 10
338.93
 20
328.475
 11
339.889
 21
326.853
  0
LINE
  8
0
 10
339.889
 20
326.853
 11
340.745
 21
325.173
  0
LINE
  8
0
 10
340.745
 20
325.173
 11
341.493
 21
323.444
  0
LINE
  8
0
 10
341.493
 20
323.444
 11
342.132
 21
321.671
  0
LINE
  8
0
 10
342.132
 20
321.671
 11
342.658
 21
319.861
  0
LINE
  8
0
 10
342.658
 20
319.861
 11
343.069
 21
318.021
  0
LINE
  8
0
 10
343.069
 20
318.021
 11
343.363
 21
316.16
  0
LINE
  8
0
 10
343.363
 20
316.16
 11
343.541
 21
314.284
  0
LINE
  8
0
 10
343.541
 20
314.284
 11
343.6
 21
312.4
  0
LINE
  8
0
 10
343.6
 20
312.4
 11
343.541
 21
310.516
  0
LINE
  8
0
 10
343.541
 20
310.516
 11
343.363
 21
308.64
  0
LINE
  8
0
 10
343.363
 20
308.64
 11
343.069
 21
306.779
  0
LINE
  8
0
 10
343.069
 20
306.779
 11
342.658
 21
304.939
  0
LINE
  8
0
 10
342.658
 20
304.939
 11
342.132
 21
303.129
  0
LINE
  8
0
 10
342.132
 20
303.129
 11
341.493
 21
301.356
  0
LINE
  8
0
 10
341.493
 20
301.356
 11
340.745
 21
299.627
  0
LINE
  8
0
 10
340.745
 20
299.627
 11
339.889
 21
297.947
  0
LINE
  8
0
 10
339.889
 20
297.947
 11
338.93
 21
296.325
  0
LINE
  8
0
 10
338.93
 20
296.325
 11
337.871
 21
294.766
  0
LINE
  8
0
 10
337.871
 20
294.766
 11
336.715
 21
293.277
  0
LINE
  8
0
 10
336.715
 20
293.277
 11
335.469
 21
291.864
  0
LINE
  8
0
 10
335.469
 20
291.864
 11
334.136
 21
290.531
  0
LINE
  8
0
 10
334.136
 20
290.531
 11
332.723
 21
289.285
  0
LINE
  8
0
 10
332.723
 20
289.285
 11
331.234
 21
288.129
  0
LINE
  8
0
 10
331.234
 20
288.129
 11
329.675
 21
287.07
  0
LINE
  8
0
 10
329.675
 20
287.07
 11
328.053
 21
286.111
  0
LINE
  8
0
 10
328.053
 20
286.111
 11
326.373
 21
285.255
  0
LINE
  8
0
 10
326.373
 20
285.255
 11
324.644
 21
284.507
  0
LINE
  8
0
 10
324.644
 20
284.507
 11
322.871
 21
283.868
  0
LINE
  8
0
 10
322.871
 20
283.868
 11
321.061
 21
283.342
  0
LINE
  8
0
 10
321.061
 20
283.342
 11
319.221
 21
282.931
  0
LINE
  8
0
 10
319.221
 20
282.931
 11
317.36
 21
282.637
  0
LINE
  8
0
 10
317.36
 20
282.637
 11
315.484
 21
282.459
  0
LINE
  8
0
 10
315.484
 20
282.459
 11
313.6
 21
282.4
  0
LINE
  8
0
 10
313.6
 20
282.4
 11
311.716
 21
282.459
  0
LINE
  8
0
 10
288.443
 20
334.905
 11
288.287
 21
334.92
  0
LINE
  8
0
 10
288.287
 20
334.92
 11
288.132
 21
334.944
  0
LINE
  8
0
 10
288.132
 20
334.944
 11
287.978
 21
334.979
  0
LINE
  8
0
 10
287.978
 20
334.979
 11
287.827
 21
335.022
  0
LINE
  8
0
 10
287.827
 20
335.022
 11
287.68
 21
335.076
  0
LINE
  8
0
 10
287.68
 20
335.076
 11
287.536
 21
335.138
  0
LINE
  8
0
 10
287.536
 20
335.138
 11
287.396
 21
335.209
  0
LINE
  8
0
 10
287.396
 20
335.209
 11
287.26
 21
335.289
  0
LINE
  8
0
 10
287.26
 20
335.289
 11
287.131
 21
335.377
  0
LINE
  8
0
 10
287.131
 20
335.377
 11
287.006
 21
335.474
  0
LINE
  8
0
 10
287.006
 20
335.474
 11
286.889
 21
335.578
  0
LINE
  8
0
 10
286.889
 20
335.578
 11
286.778
 21
335.689
  0
LINE
  8
0
 10
286.778
 20
335.689
 11
286.674
 21
335.806
  0
LINE
  8
0
 10
286.674
 20
335.806
 11
286.577
 21
335.931
  0
LINE
  8
0
 10
286.577
 20
335.931
 11
286.489
 21
336.06
  0
LINE
  8
0
 10
286.489
 20
336.06
 11
286.409
 21
336.196
  0
LINE
  8
0
 10
286.409
 20
336.196
 11
286.338
 21
336.336
  0
LINE
  8
0
 10
286.338
 20
336.336
 11
286.276
 21
336.48
  0
LINE
  8
0
 10
286.276
 20
336.48
 11
286.222
 21
336.627
  0
LINE
  8
0
 10
286.222
 20
336.627
 11
286.179
 21
336.778
  0
LINE
  8
0
 10
286.179
 20
336.778
 11
286.144
 21
336.932
  0
LINE
  8
0
 10
286.144
 20
336.932
 11
286.12
 21
337.087
  0
LINE
  8
0
 10
286.12
 20
337.087
 11
286.105
 21
337.243
  0
LINE
  8
0
 10
286.105
 20
337.243
 11
286.1
 21
337.4
  0
LINE
  8
0
 10
286.1
 20
337.4
 11
286.105
 21
337.557
  0
LINE
  8
0
 10
286.105
 20
337.557
 11
286.12
 21
337.713
  0
LINE
  8
0
 10
286.12
 20
337.713
 11
286.144
 21
337.868
  0
LINE
  8
0
 10
286.144
 20
337.868
 11
286.179
 21
338.022
  0
LINE
  8
0
 10
286.179
 20
338.022
 11
286.222
 21
338.173
  0
LINE
  8
0
 10
286.222
 20
338.173
 11
286.276
 21
338.32
  0
LINE
  8
0
 10
286.276
 20
338.32
 11
286.338
 21
338.464
  0
LINE
  8
0
 10
286.338
 20
338.464
 11
286.409
 21
338.604
  0
LINE
  8
0
 10
286.409
 20
338.604
 11
286.489
 21
338.74
  0
LINE
  8
0
 10
286.489
 20
338.74
 11
286.577
 21
338.869
  0
LINE
  8
0
 10
286.577
 20
338.869
 11
286.674
 21
338.994
  0
LINE
  8
0
 10
286.674
 20
338.994
 11
286.778
 21
339.111
  0
LINE
  8
0
 10
286.778
 20
339.111
 11
286.889
 21
339.222
  0
LINE
  8
0
 10
286.889
 20
339.222
 11
287.006
 21
339.326
  0
LINE
  8
0
 10
287.006
 20
339.326
 11
287.131
 21
339.423
  0
LINE
  8
0
 10
287.131
 20
339.423
 11
287.26
 21
339.511
  0
LINE
  8
0
 10
287.26
 20
339.511
 11
287.396
 21
339.591
  0
LINE
  8
0
 10
287.396
 20
339.591
 11
287.536
 21
339.662
  0
LINE
  8
0
 10
287.536
 20
339.662
 11
287.68
 21
339.724
  0
LINE
  8
0
 10
287.68
 20
339.724
 11
287.827
 21
339.778
  0
LINE
  8
0
 10
287.827
 20
339.778
 11
287.978
 21
339.821
  0
LINE
  8
0
 10
287.978
 20
339.821
 11
288.132
 21
339.856
  0
LINE
  8
0
 10
288.132
 20
339.856
 11
288.287
 21
339.88
  0
LINE
  8
0
 10
288.287
 20
339.88
 11
288.443
 21
339.895
  0
LINE
  8
0
 10
288.443
 20
339.895
 11
288.6
 21
339.9
  0
LINE
  8
0
 10
288.6
 20
339.9
 11
288.757
 21
339.895
  0
LINE
  8
0
 10
288.757
 20
339.895
 11
288.913
 21
339.88
  0
LINE
  8
0
 10
288.913
 20
339.88
 11
289.068
 21
339.856
  0
LINE
  8
0
 10
289.068
 20
339.856
 11
289.222
 21
339.821
  0
LINE
  8
0
 10
289.222
 20
339.821
 11
289.373
 21
339.778
  0
LINE
  8
0
 10
289.373
 20
339.778
 11
289.52
 21
339.724
  0
LINE
  8
0
 10
289.52
 20
339.724
 11
289.664
 21
339.662
  0
LINE
  8
0
 10
289.664
 20
339.662
 11
289.804
 21
339.591
  0
LINE
  8
0
 10
289.804
 20
339.591
 11
289.94
 21
339.511
  0
LINE
  8
0
 10
289.94
 20
339.511
 11
290.069
 21
339.423
  0
LINE
  8
0
 10
290.069
 20
339.423
 11
290.194
 21
339.326
  0
LINE
  8
0
 10
290.194
 20
339.326
 11
290.311
 21
339.222
  0
LINE
  8
0
 10
290.311
 20
339.222
 11
290.422
 21
339.111
  0
LINE
  8
0
 10
290.422
 20
339.111
 11
290.526
 21
338.994
  0
LINE
  8
0
 10
290.526
 20
338.994
 11
290.623
 21
338.869
  0
LINE
  8
0
 10
290.623
 20
338.869
 11
290.711
 21
338.74
  0
LINE
  8
0
 10
290.711
 20
338.74
 11
290.791
 21
338.604
  0
LINE
  8
0
 10
290.791
 20
338.604
 11
290.862
 21
338.464
  0
LINE
  8
0
 10
290.862
 20
338.464
 11
290.924
 21
338.32
  0
LINE
  8
0
 10
290.924
 20
338.32
 11
290.978
 21
338.173
  0
LINE
  8
0
 10
290.978
 20
338.173
 11
291.021
 21
338.022
  0
LINE
  8
0
 10
291.021
 20
338.022
 11
291.056
 21
337.868
  0
LINE
  8
0
 10
291.056
 20
337.868
 11
291.08
 21
337.713
  0
LINE
  8
0
 10
291.08
 20
337.713
 11
291.095
 21
337.557
  0
LINE
  8
0
 10
291.095
 20
337.557
 11
291.1
 21
337.4
  0
LINE
  8
0
 10
291.1
 20
337.4
 11
291.095
 21
337.243
  0
LINE
  8
0
 10
291.095
 20
337.243
 11
291.08
 21
337.087
  0
LINE
  8
0
 10
291.08
 20
337.087
 11
291.056
 21
336.932
  0
LINE
  8
0
 10
291.056
 20
336.932
 11
291.021
 21
336.778
  0
LINE
  8
0
 10
291.021
 20
336.778
 11
290.978
 21
336.627
  0
LINE
  8
0
 10
290.978
 20
336.627
 11
290.924
 21
336.48
  0
LINE
  8
0
 10
290.924
 20
336.48
 11
290.862
 21
336.336
  0
LINE
  8
0
 10
290.862
 20
336.336
 11
290.791
 21
336.196
  0
LINE
  8
0
 10
290.791
 20
336.196
 11
290.711
 21
336.06
  0
LINE
  8
0
 10
290.711
 20
336.06
 11
290.623
 21
335.931
  0
LINE
  8
0
 10
290.623
 20
335.931
 11
290.526
 21
335.806
  0
LINE
  8
0
 10
290.526
 20
335.806
 11
290.422
 21
335.689
  0
LINE
  8
0
 10
290.422
 20
335.689
 11
290.311
 21
335.578
  0
LINE
  8
0
 10
290.311
 20
335.578
 11
290.194
 21
335.474
  0
LINE
  8
0
 10
290.194
 20
335.474
 11
290.069
 21
335.377
  0
LINE
  8
0
 10
290.069
 20
335.377
 11
289.94
 21
335.289
  0
LINE
  8
0
 10
289.94
 20
335.289
 11
289.804
 21
335.209
  0
LINE
  8
0
 10
289.804
 20
335.209
 11
289.664
 21
335.138
  0
LINE
  8
0
 10
289.664
 20
335.138
 11
289.52
 21
335.076
  0
LINE
  8
0
 10
289.52
 20
335.076
 11
289.373
 21
335.022
  0
LINE
  8
0
 10
289.373
 20
335.022
 11
289.222
 21
334.979
  0
LINE
  8
0
 10
289.222
 20
334.979
 11
289.068
 21
334.944
  0
LINE
  8
0
 10
289.068
 20
334.944
 11
288.913
 21
334.92
  0
LINE
  8
0
 10
288.913
 20
334.92
 11
288.757
 21
334.905
  0
LINE
  8
0
 10
288.757
 20
334.905
 11
288.6
 21
334.9
  0
LINE
  8
0
 10
288.6
 20
334.9
 11
288.443
 21
334.905
  0
LINE
  8
0
 10
338.443
 20
334.905
 11
338.287
 21
334.92
  0
LINE
  8
0
 10
338.287
 20
334.92
 11
338.132
 21
334.944
  0
LINE
  8
0
 10
338.132
 20
334.944
 11
337.978
 21
334.979
  0
LINE
  8
0
 10
337.978
 20
334.979
 11
337.827
 21
335.022
  0
LINE
  8
0
 10
337.827
 20
335.022
 11
337.68
 21
335.076
  0
LINE
  8
0
 10
337.68
 20
335.076
 11
337.536
 21
335.138
  0
LINE
  8
0
 10
337.536
 20
335.138
 11
337.396
 21
335.209
  0
LINE
  8
0
 10
337.396
 20
335.209
 11
337.26
 21
335.289
  0
LINE
  8
0
 10
337.26
 20
335.289
 11
337.131
 21
335.377
  0
LINE
  8
0
 10
337.131
 20
335.377
 11
337.006
 21
335.474
  0
LINE
  8
0
 10
337.006
 20
335.474
 11
336.889
 21
335.578
  0
LINE
  8
0
 10
336.889
 20
335.578
 11
336.778
 21
335.689
  0
LINE
  8
0
 10
336.778
 20
335.689
 11
336.674
 21
335.806
  0
LINE
  8
0
 10
336.674
 20
335.806
 11
336.577
 21
335.931
  0
LINE
  8
0
 10
336.577
 20
335.931
 11
336.489
 21
336.06
  0
LINE
  8
0
 10
336.489
 20
336.06
 11
336.409
 21
336.196
  0
LINE
  8
0
 10
336.409
 20
336.196
 11
336.338
 21
336.336
  0
LINE
  8
0
 10
336.338
 20
336.336
 11
336.276
 21
336.48
  0
LINE
  8
0
 10
336.276
 20
336.48
 11
336.222
 21
336.627
  0
LINE
  8
0
 10
336.222
 20
336.627
 11
336.179
 21
336.778
  0
LINE
  8
0
 10
336.179
 20
336.778
 11
336.144
 21
336.932
  0
LINE
  8
0
 10
336.144
 20
336.932
 11
336.12
 21
337.087
  0
LINE
  8
0
 10
336.12
 20
337.087
 11
336.105
 21
337.243
  0
LINE
  8
0
 10
336.105
 20
337.243
 11
336.1
 21
337.4
  0
LINE
  8
0
 10
336.1
 20
337.4
 11
336.105
 21
337.557
  0
LINE
  8
0
 10
336.105
 20
337.557
 11
336.12
 21
337.713
  0
LINE
  8
0
 10
336.12
 20
337.713
 11
336.144
 21
337.868
  0
LINE
  8
0
 10
336.144
 20
337.868
 11
336.179
 21
338.022
  0
LINE
  8
0
 10
336.179
 20
338.022
 11
336.222
 21
338.173
  0
LINE
  8
0
 10
336.222
 20
338.173
 11
336.276
 21
338.32
  0
LINE
  8
0
 10
336.276
 20
338.32
 11
336.338
 21
338.464
  0
LINE
  8
0
 10
336.338
 20
338.464
 11
336.409
 21
338.604
  0
LINE
  8
0
 10
336.409
 20
338.604
 11
336.489
 21
338.74
  0
LINE
  8
0
 10
336.489
 20
338.74
 11
336.577
 21
338.869
  0
LINE
  8
0
 10
336.577
 20
338.869
 11
336.674
 21
338.994
  0
LINE
  8
0
 10
336.674
 20
338.994
 11
336.778
 21
339.111
  0
LINE
  8
0
 10
336.778
 20
339.111
 11
336.889
 21
339.222
  0
LINE
  8
0
 10
336.889
 20
339.222
 11
337.006
 21
339.326
  0
LINE
  8
0
 10
337.006
 20
339.326
 11
337.131
 21
339.423
  0
LINE
  8
0
 10
337.131
 20
339.423
 11
337.26
 21
339.511
  0
LINE
  8
0
 10
337.26
 20
339.511
 11
337.396
 21
339.591
  0
LINE
  8
0
 10
337.396
 20
339.591
 11
337.536
 21
339.662
  0
LINE
  8
0
 10
337.536
 20
339.662
 11
337.68
 21
339.724
  0
LINE
  8
0
 10
337.68
 20
339.724
 11
337.827
 21
339.778
  0
LINE
  8
0
 10
337.827
 20
339.778
 11
337.978
 21
339.821
  0
LINE
  8
0
 10
337.978
 20
339.821
 11
338.132
 21
339.856
  0
LINE
  8
0
 10
338.132
 20
339.856
 11
338.287
 21
339.88
  0
LINE
  8
0
 10
338.287
 20
339.88
 11
338.443
 21
339.895
  0
LINE
  8
0
 10
338.443
 20
339.895
 11
338.6
 21
339.9
  0
LINE
  8
0
 10
338.6
 20
339.9
 11
338.757
 21
339.895
  0
LINE
  8
0
 10
338.757
 20
339.895
 11
338.913
 21
339.88
  0
LINE
  8
0
 10
338.913
 20
339.88
 11
339.068
 21
339.856
  0
LINE
  8
0
 10
339.068
 20
339.856
 11
339.222
 21
339.821
  0
LINE
  8
0
 10
339.222
 20
339.821
 11
339.373
 21
339.778
  0
LINE
  8
0
 10
339.373
 20
339.778
 11
339.52
 21
339.724
  0
LINE
  8
0
 10
339.52
 20
339.724
 11
339.664
 21
339.662
  0
LINE
  8
0
 10
339.664
 20
339.662
 11
339.804
 21
339.591
  0
LINE
  8
0
 10
339.804
 20
339.591
 11
339.94
 21
339.511
  0
LINE
  8
0
 10
339.94
 20
339.511
 11
340.069
 21
339.423
  0
LINE
  8
0
 10
340.069
 20
339.423
 11
340.194
 21
339.326
  0
LINE
  8
0
 10
340.194
 20
339.326
 11
340.311
 21
339.222
  0
LINE
  8
0
 10
340.311
 20
339.222
 11
340.422
 21
339.111
  0
LINE
  8
0
 10
340.422
 20
339.111
 11
340.526
 21
338.994
  0
LINE
  8
0
 10
340.526
 20
338.994
 11
340.623
 21
338.869
  0
LINE
  8
0
 10
340.623
 20
338.869
 11
340.711
 21
338.74
  0
LINE
  8
0
 10
340.711
 20
338.74
 11
340.791
 21
338.604
  0
LINE
  8
0
 10
340.791
 20
338.604
 11
340.862
 21
338.464
  0
LINE
  8
0
 10
340.862
 20
338.464
 11
340.924
 21
338.32
  0
LINE
  8
0
 10
340.924
 20
338.32
 11
340.978
 21
338.173
  0
LINE
  8
0
 10
340.978
 20
338.173
 11
341.021
 21
338.022
  0
LINE
  8
0
 10
341.021
 20
338.022
 11
341.056
 21
337.868
  0
LINE
  8
0
 10
341.056
 20
337.868
 11
341.08
 21
337.713
  0
LINE
  8
0
 10
341.08
 20
337.713
 11
341.095
 21
337.557
  0
LINE
  8
0
 10
341.095
 20
337.557
 11
341.1
 21
337.4
  0
LINE
  8
0
 10
341.1
 20
337.4
 11
341.095
 21
337.243
  0
LINE
  8
0
 10
341.095
 20
337.243
 11
341.08
 21
337.087
  0
LINE
  8
0
 10
341.08
 20
337.087
 11
341.056
 21
336.932
  0
LINE
  8
0
 10
341.056
 20
336.932
 11
341.021
 21
336.778
  0
LINE
  8
0
 10
341.021
 20
336.778
 11
340.978
 21
336.627
  0
LINE
  8
0
 10
340.978
 20
336.627
 11
340.924
 21
336.48
  0
LINE
  8
0
 10
340.924
 20
336.48
 11
340.862
 21
336.336
  0
LINE
  8
0
 10
340.862
 20
336.336
 11
340.791
 21
336.196
  0
LINE
  8
0
 10
340.791
 20
336.196
 11
340.711
 21
336.06
  0
LINE
  8
0
 10
340.711
 20
336.06
 11
340.623
 21
335.931
  0
LINE
  8
0
 10
340.623
 20
335.931
 11
340.526
 21
335.806
  0
LINE
  8
0
 10
340.526
 20
335.806
 11
340.422
 21
335.689
  0
LINE
  8
0
 10
340.422
 20
335.689
 11
340.311
 21
335.578
  0
LINE
  8
0
 10
340.311
 20
335.578
 11
340.194
 21
335.474
  0
LINE
  8
0
 10
340.194
 20
335.474
 11
340.069
 21
335.377
  0
LINE
  8
0
 10
340.069
 20
335.377
 11
339.94
 21
335.289
  0
LINE
  8
0
 10
339.94
 20
335.289
 11
339.804
 21
335.209
  0
LINE
  8
0
 10
339.804
 20
335.209
 11
339.664
 21
335.138
  0
LINE
  8
0
 10
339.664
 20
335.138
 11
339.52
 21
335.076
  0
LINE
  8
0
 10
339.52
 20
335.076
 11
339.373
 21
335.022
  0
LINE
  8
0
 10
339.373
 20
335.022
 11
339.222
 21
334.979
  0
LINE
  8
0
 10
339.222
 20
334.979
 11
339.068
 21
334.944
  0
LINE
  8
0
 10
339.068
 20
334.944
 11
338.913
 21
334.92
  0
LINE
  8
0
 10
338.913
 20
334.92
 11
338.757
 21
334.905
  0
LINE
  8
0
 10
338.757
 20
334.905
 11
338.6
 21
334.9
  0
LINE
  8
0
 10
338.6
 20
334.9
 11
338.443
 21
334.905
  0
LINE
  8
0
 10
338.443
 20
284.905
 11
338.287
 21
284.92
  0
LINE
  8
0
 10
338.287
 20
284.92
 11
338.132
 21
284.944
  0
LINE
  8
0
 10
338.132
 20
284.944
 11
337.978
 21
284.979
  0
LINE
  8
0
 10
337.978
 20
284.979
 11
337.827
 21
285.022
  0
LINE
  8
0
 10
337.827
 20
285.022
 11
337.68
 21
285.076
  0
LINE
  8
0
 10
337.68
 20
285.076
 11
337.536
 21
285.138
  0
LINE
  8
0
 10
337.536
 20
285.138
 11
337.396
 21
285.209
  0
LINE
  8
0
 10
337.396
 20
285.209
 11
337.26
 21
285.289
  0
LINE
  8
0
 10
337.26
 20
285.289
 11
337.131
 21
285.377
  0
LINE
  8
0
 10
337.131
 20
285.377
 11
337.006
 21
285.474
  0
LINE
  8
0
 10
337.006
 20
285.474
 11
336.889
 21
285.578
  0
LINE
  8
0
 10
336.889
 20
285.578
 11
336.778
 21
285.689
  0
LINE
  8
0
 10
336.778
 20
285.689
 11
336.674
 21
285.806
  0
LINE
  8
0
 10
336.674
 20
285.806
 11
336.577
 21
285.931
  0
LINE
  8
0
 10
336.577
 20
285.931
 11
336.489
 21
286.06
  0
LINE
  8
0
 10
336.489
 20
286.06
 11
336.409
 21
286.196
  0
LINE
  8
0
 10
336.409
 20
286.196
 11
336.338
 21
286.336
  0
LINE
  8
0
 10
336.338
 20
286.336
 11
336.276
 21
286.48
  0
LINE
  8
0
 10
336.276
 20
286.48
 11
336.222
 21
286.627
  0
LINE
  8
0
 10
336.222
 20
286.627
 11
336.179
 21
286.778
  0
LINE
  8
0
 10
336.179
 20
286.778
 11
336.144
 21
286.932
  0
LINE
  8
0
 10
336.144
 20
286.932
 11
336.12
 21
287.087
  0
LINE
  8
0
 10
336.12
 20
287.087
 11
336.105
 21
287.243
  0
LINE
  8
0
 10
336.105
 20
287.243
 11
336.1
 21
287.4
  0
LINE
  8
0
 10
336.1
 20
287.4
 11
336.105
 21
287.557
  0
LINE
  8
0
 10
336.105
 20
287.557
 11
336.12
 21
287.713
  0
LINE
  8
0
 10
336.12
 20
287.713
 11
336.144
 21
287.868
  0
LINE
  8
0
 10
336.144
 20
287.868
 11
336.179
 21
288.022
  0
LINE
  8
0
 10
336.179
 20
288.022
 11
336.222
 21
288.173
  0
LINE
  8
0
 10
336.222
 20
288.173
 11
336.276
 21
288.32
  0
LINE
  8
0
 10
336.276
 20
288.32
 11
336.338
 21
288.464
  0
LINE
  8
0
 10
336.338
 20
288.464
 11
336.409
 21
288.604
  0
LINE
  8
0
 10
336.409
 20
288.604
 11
336.489
 21
288.74
  0
LINE
  8
0
 10
336.489
 20
288.74
 11
336.577
 21
288.869
  0
LINE
  8
0
 10
336.577
 20
288.869
 11
336.674
 21
288.994
  0
LINE
  8
0
 10
336.674
 20
288.994
 11
336.778
 21
289.111
  0
LINE
  8
0
 10
336.778
 20
289.111
 11
336.889
 21
289.222
  0
LINE
  8
0
 10
336.889
 20
289.222
 11
337.006
 21
289.326
  0
LINE
  8
0
 10
337.006
 20
289.326
 11
337.131
 21
289.423
  0
LINE
  8
0
 10
337.131
 20
289.423
 11
337.26
 21
289.511
  0
LINE
  8
0
 10
337.26
 20
289.511
 11
337.396
 21
289.591
  0
LINE
  8
0
 10
337.396
 20
289.591
 11
337.536
 21
289.662
  0
LINE
  8
0
 10
337.536
 20
289.662
 11
337.68
 21
289.724
  0
LINE
  8
0
 10
337.68
 20
289.724
 11
337.827
 21
289.778
  0
LINE
  8
0
 10
337.827
 20
289.778
 11
337.978
 21
289.821
  0
LINE
  8
0
 10
337.978
 20
289.821
 11
338.132
 21
289.856
  0
LINE
  8
0
 10
338.132
 20
289.856
 11
338.287
 21
289.88
  0
LINE
  8
0
 10
338.287
 20
289.88
 11
338.443
 21
289.895
  0
LINE
  8
0
 10
338.443
 20
289.895
 11
338.6
 21
289.9
  0
LINE
  8
0
 10
338.6
 20
289.9
 11
338.757
 21
289.895
  0
LINE
  8
0
 10
338.757
 20
289.895
 11
338.913
 21
289.88
  0
LINE
  8
0
 10
338.913
 20
289.88
 11
339.068
 21
289.856
  0
LINE
  8
0
 10
339.068
 20
289.856
 11
339.222
 21
289.821
  0
LINE
  8
0
 10
339.222
 20
289.821
 11
339.373
 21
289.778
  0
LINE
  8
0
 10
339.373
 20
289.778
 11
339.52
 21
289.724
  0
LINE
  8
0
 10
339.52
 20
289.724
 11
339.664
 21
289.662
  0
LINE
  8
0
 10
339.664
 20
289.662
 11
339.804
 21
289.591
  0
LINE
  8
0
 10
339.804
 20
289.591
 11
339.94
 21
289.511
  0
LINE
  8
0
 10
339.94
 20
289.511
 11
340.069
 21
289.423
  0
LINE
  8
0
 10
340.069
 20
289.423
 11
340.194
 21
289.326
  0
LINE
  8
0
 10
340.194
 20
289.326
 11
340.311
 21
289.222
  0
LINE
  8
0
 10
340.311
 20
289.222
 11
340.422
 21
289.111
  0
LINE
  8
0
 10
340.422
 20
289.111
 11
340.526
 21
288.994
  0
LINE
  8
0
 10
340.526
 20
288.994
 11
340.623
 21
288.869
  0
LINE
  8
0
 10
340.623
 20
288.869
 11
340.711
 21
288.74
  0
LINE
  8
0
 10
340.711
 20
288.74
 11
340.791
 21
288.604
  0
LINE
  8
0
 10
340.791
 20
288.604
 11
340.862
 21
288.464
  0
LINE
  8
0
 10
340.862
 20
288.464
 11
340.924
 21
288.32
  0
LINE
  8
0
 10
340.924
 20
288.32
 11
340.978
 21
288.173
  0
LINE
  8
0
 10
340.978
 20
288.173
 11
341.021
 21
288.022
  0
LINE
  8
0
 10
341.021
 20
288.022
 11
341.056
 21
287.868
  0
LINE
  8
0
 10
341.056
 20
287.868
 11
341.08
 21
287.713
  0
LINE
  8
0
 10
341.08
 20
287.713
 11
341.095
 21
287.557
  0
LINE
  8
0
 10
341.095
 20
287.557
 11
341.1
 21
287.4
  0
LINE
  8
0
 10
341.1
 20
287.4
 11
341.095
 21
287.243
  0
LINE
  8
0
 10
341.095
 20
287.243
 11
341.08
 21
287.087
  0
LINE
  8
0
 10
341.08
 20
287.087
 11
341.056
 21
286.932
  0
LINE
  8
0
 10
341.056
 20
286.932
 11
341.021
 21
286.778
  0
LINE
  8
0
 10
341.021
 20
286.778
 11
340.978
 21
286.627
  0
LINE
  8
0
 10
340.978
 20
286.627
 11
340.924
 21
286.48
  0
LINE
  8
0
 10
340.924
 20
286.48
 11
340.862
 21
286.336
  0
LINE
  8
0
 10
340.862
 20
286.336
 11
340.791
 21
286.196
  0
LINE
  8
0
 10
340.791
 20
286.196
 11
340.711
 21
286.06
  0
LINE
  8
0
 10
340.711
 20
286.06
 11
340.623
 21
285.931
  0
LINE
  8
0
 10
340.623
 20
285.931
 11
340.526
 21
285.806
  0
LINE
  8
0
 10
340.526
 20
285.806
 11
340.422
 21
285.689
  0
LINE
  8
0
 10
340.422
 20
285.689
 11
340.311
 21
285.578
  0
LINE
  8
0
 10
340.311
 20
285.578
 11
340.194
 21
285.474
  0
LINE
  8
0
 10
340.194
 20
285.474
 11
340.069
 21
285.377
  0
LINE
  8
0
 10
340.069
 20
285.377
 11
339.94
 21
285.289
  0
LINE
  8
0
 10
339.94
 20
285.289
 11
339.804
 21
285.209
  0
LINE
  8
0
 10
339.804
 20
285.209
 11
339.664
 21
285.138
  0
LINE
  8
0
 10
339.664
 20
285.138
 11
339.52
 21
285.076
  0
LINE
  8
0
 10
339.52
 20
285.076
 11
339.373
 21
285.022
  0
LINE
  8
0
 10
339.373
 20
285.022
 11
339.222
 21
284.979
  0
LINE
  8
0
 10
339.222
 20
284.979
 11
339.068
 21
284.944
  0
LINE
  8
0
 10
339.068
 20
284.944
 11
338.913
 21
284.92
  0
LINE
  8
0
 10
338.913
 20
284.92
 11
338.757
 21
284.905
  0
LINE
  8
0
 10
338.757
 20
284.905
 11
338.6
 21
284.9
  0
LINE
  8
0
 10
338.6
 20
284.9
 11
338.443
 21
284.905
  0
LINE
  8
0
 10
288.443
 20
284.905
 11
288.287
 21
284.92
  0
LINE
  8
0
 10
288.287
 20
284.92
 11
288.132
 21
284.944
  0
LINE
  8
0
 10
288.132
 20
284.944
 11
287.978
 21
284.979
  0
LINE
  8
0
 10
287.978
 20
284.979
 11
287.827
 21
285.022
  0
LINE
  8
0
 10
287.827
 20
285.022
 11
287.68
 21
285.076
  0
LINE
  8
0
 10
287.68
 20
285.076
 11
287.536
 21
285.138
  0
LINE
  8
0
 10
287.536
 20
285.138
 11
287.396
 21
285.209
  0
LINE
  8
0
 10
287.396
 20
285.209
 11
287.26
 21
285.289
  0
LINE
  8
0
 10
287.26
 20
285.289
 11
287.131
 21
285.377
  0
LINE
  8
0
 10
287.131
 20
285.377
 11
287.006
 21
285.474
  0
LINE
  8
0
 10
287.006
 20
285.474
 11
286.889
 21
285.578
  0
LINE
  8
0
 10
286.889
 20
285.578
 11
286.778
 21
285.689
  0
LINE
  8
0
 10
286.778
 20
285.689
 11
286.674
 21
285.806
  0
LINE
  8
0
 10
286.674
 20
285.806
 11
286.577
 21
285.931
  0
LINE
  8
0
 10
286.577
 20
285.931
 11
286.489
 21
286.06
  0
LINE
  8
0
 10
286.489
 20
286.06
 11
286.409
 21
286.196
  0
LINE
  8
0
 10
286.409
 20
286.196
 11
286.338
 21
286.336
  0
LINE
  8
0
 10
286.338
 20
286.336
 11
286.276
 21
286.48
  0
LINE
  8
0
 10
286.276
 20
286.48
 11
286.222
 21
286.627
  0
LINE
  8
0
 10
286.222
 20
286.627
 11
286.179
 21
286.778
  0
LINE
  8
0
 10
286.179
 20
286.778
 11
286.144
 21
286.932
  0
LINE
  8
0
 10
286.144
 20
286.932
 11
286.12
 21
287.087
  0
LINE
  8
0
 10
286.12
 20
287.087
 11
286.105
 21
287.243
  0
LINE
  8
0
 10
286.105
 20
287.243
 11
286.1
 21
287.4
  0
LINE
  8
0
 10
286.1
 20
287.4
 11
286.105
 21
287.557
  0
LINE
  8
0
 10
286.105
 20
287.557
 11
286.12
 21
287.713
  0
LINE
  8
0
 10
286.12
 20
287.713
 11
286.144
 21
287.868
  0
LINE
  8
0
 10
286.144
 20
287.868
 11
286.179
 21
288.022
  0
LINE
  8
0
 10
286.179
 20
288.022
 11
286.222
 21
288.173
  0
LINE
  8
0
 10
286.222
 20
288.173
 11
286.276
 21
288.32
  0
LINE
  8
0
 10
286.276
 20
288.32
 11
286.338
 21
288.464
  0
LINE
  8
0
 10
286.338
 20
288.464
 11
286.409
 21
288.604
  0
LINE
  8
0
 10
286.409
 20
288.604
 11
286.489
 21
288.74
  0
LINE
  8
0
 10
286.489
 20
288.74
 11
286.577
 21
288.869
  0
LINE
  8
0
 10
286.577
 20
288.869
 11
286.674
 21
288.994
  0
LINE
  8
0
 10
286.674
 20
288.994
 11
286.778
 21
289.111
  0
LINE
  8
0
 10
286.778
 20
289.111
 11
286.889
 21
289.222
  0
LINE
  8
0
 10
286.889
 20
289.222
 11
287.006
 21
289.326
  0
LINE
  8
0
 10
287.006
 20
289.326
 11
287.131
 21
289.423
  0
LINE
  8
0
 10
287.131
 20
289.423
 11
287.26
 21
289.511
  0
LINE
  8
0
 10
287.26
 20
289.511
 11
287.396
 21
289.591
  0
LINE
  8
0
 10
287.396
 20
289.591
 11
287.536
 21
289.662
  0
LINE
  8
0
 10
287.536
 20
289.662
 11
287.68
 21
289.724
  0
LINE
  8
0
 10
287.68
 20
289.724
 11
287.827
 21
289.778
  0
LINE
  8
0
 10
287.827
 20
289.778
 11
287.978
 21
289.821
  0
LINE
  8
0
 10
287.978
 20
289.821
 11
288.132
 21
289.856
  0
LINE
  8
0
 10
288.132
 20
289.856
 11
288.287
 21
289.88
  0
LINE
  8
0
 10
288.287
 20
289.88
 11
288.443
 21
289.895
  0
LINE
  8
0
 10
288.443
 20
289.895
 11
288.6
 21
289.9
  0
LINE
  8
0
 10
288.6
 20
289.9
 11
288.757
 21
289.895
  0
LINE
  8
0
 10
288.757
 20
289.895
 11
288.913
 21
289.88
  0
LINE
  8
0
 10
288.913
 20
289.88
 11
289.068
 21
289.856
  0
LINE
  8
0
 10
289.068
 20
289.856
 11
289.222
 21
289.821
  0
LINE
  8
0
 10
289.222
 20
289.821
 11
289.373
 21
289.778
  0
LINE
  8
0
 10
289.373
 20
289.778
 11
289.52
 21
289.724
  0
LINE
  8
0
 10
289.52
 20
289.724
 11
289.664
 21
289.662
  0
LINE
  8
0
 10
289.664
 20
289.662
 11
289.804
 21
289.591
  0
LINE
  8
0
 10
289.804
 20
289.591
 11
289.94
 21
289.511
  0
LINE
  8
0
 10
289.94
 20
289.511
 11
290.069
 21
289.423
  0
LINE
  8
0
 10
290.069
 20
289.423
 11
290.194
 21
289.326
  0
LINE
  8
0
 10
290.194
 20
289.326
 11
290.311
 21
289.222
  0
LINE
  8
0
 10
290.311
 20
289.222
 11
290.422
 21
289.111
  0
LINE
  8
0
 10
290.422
 20
289.111
 11
290.526
 21
288.994
  0
LINE
  8
0
 10
290.526
 20
288.994
 11
290.623
 21
288.869
  0
LINE
  8
0
 10
290.623
 20
288.869
 11
290.711
 21
288.74
  0
LINE
  8
0
 10
290.711
 20
288.74
 11
290.791
 21
288.604
  0
LINE
  8
0
 10
290.791
 20
288.604
 11
290.862
 21
288.464
  0
LINE
  8
0
 10
290.862
 20
288.464
 11
290.924
 21
288.32
  0
LINE
  8
0
 10
290.924
 20
288.32
 11
290.978
 21
288.173
  0
LINE
  8
0
 10
290.978
 20
288.173
 11
291.021
 21
288.022
  0
LINE
  8
0
 10
291.021
 20
288.022
 11
291.056
 21
287.868
  0
LINE
  8
0
 10
291.056
 20
287.868
 11
291.08
 21
287.713
  0
LINE
  8
0
 10
291.08
 20
287.713
 11
291.095
 21
287.557
  0
LINE
  8
0
 10
291.095
 20
287.557
 11
291.1
 21
287.4
  0
LINE
  8
0
 10
291.1
 20
287.4
 11
291.095
 21
287.243
  0
LINE
  8
0
 10
291.095
 20
287.243
 11
291.08
 21
287.087
  0
LINE
  8
0
 10
291.08
 20
287.087
 11
291.056
 21
286.932
  0
LINE
  8
0
 10
291.056
 20
286.932
 11
291.021
 21
286.778
  0
LINE
  8
0
 10
291.021
 20
286.778
 11
290.978
 21
286.627
  0
LINE
  8
0
 10
290.978
 20
286.627
 11
290.924
 21
286.48
  0
LINE
  8
0
 10
290.924
 20
286.48
 11
290.862
 21
286.336
  0
LINE
  8
0
 10
290.862
 20
286.336
 11
290.791
 21
286.196
  0
LINE
  8
0
 10
290.791
 20
286.196
 11
290.711
 21
286.06
  0
LINE
  8
0
 10
290.711
 20
286.06
 11
290.623
 21
285.931
  0
LINE
  8
0
 10
290.623
 20
285.931
 11
290.526
 21
285.806
  0
LINE
  8
0
 10
290.526
 20
285.806
 11
290.422
 21
285.689
  0
LINE
  8
0
 10
290.422
 20
285.689
 11
290.311
 21
285.578
  0
LINE
  8
0
 10
290.311
 20
285.578
 11
290.194
 21
285.474
  0
LINE
  8
0
 10
290.194
 20
285.474
 11
290.069
 21
285.377
  0
LINE
  8
0
 10
290.069
 20
285.377
 11
289.94
 21
285.289
  0
LINE
  8
0
 10
289.94
 20
285.289
 11
289.804
 21
285.209
  0
LINE
  8
0
 10
289.804
 20
285.209
 11
289.664
 21
285.138
  0
LINE
  8
0
 10
289.664
 20
285.138
 11
289.52
 21
285.076
  0
LINE
  8
0
 10
289.52
 20
285.076
 11
289.373
 21
285.022
  0
LINE
  8
0
 10
289.373
 20
285.022
 11
289.222
 21
284.979
  0
LINE
  8
0
 10
289.222
 20
284.979
 11
289.068
 21
284.944
  0
LINE
  8
0
 10
289.068
 20
284.944
 11
288.913
 21
284.92
  0
LINE
  8
0
 10
288.913
 20
284.92
 11
288.757
 21
284.905
  0
LINE
  8
0
 10
288.757
 20
284.905
 11
288.6
 21
284.9
  0
LINE
  8
0
 10
288.6
 20
284.9
 11
288.443
 21
284.905
  0
LINE
  8
0
 10
51.0741
 20
278.9
 11
51.0741
 21
285.9
  0
LINE
  8
0
 10
51.0741
 20
285.9
 11
65.0741
 21
285.9
  0
LINE
  8
0
 10
65.0741
 20
285.9
 11
65.0741
 21
278.9
  0
LINE
  8
0
 10
65.0741
 20
278.9
 11
51.0741
 21
278.9
  0
LINE
  8
0
 10
343.743
 20
279.605
 11
343.587
 21
279.62
  0
LINE
  8
0
 10
343.587
 20
279.62
 11
343.432
 21
279.644
  0
LINE
  8
0
 10
343.432
 20
279.644
 11
343.278
 21
279.679
  0
LINE
  8
0
 10
343.278
 20
279.679
 11
343.127
 21
279.722
  0
LINE
  8
0
 10
343.127
 20
279.722
 11
342.98
 21
279.776
  0
LINE
  8
0
 10
342.98
 20
279.776
 11
342.836
 21
279.838
  0
LINE
  8
0
 10
342.836
 20
279.838
 11
342.696
 21
279.909
  0
LINE
  8
0
 10
342.696
 20
279.909
 11
342.56
 21
279.989
  0
LINE
  8
0
 10
342.56
 20
279.989
 11
342.431
 21
280.077
  0
LINE
  8
0
 10
342.431
 20
280.077
 11
342.306
 21
280.174
  0
LINE
  8
0
 10
342.306
 20
280.174
 11
342.189
 21
280.278
  0
LINE
  8
0
 10
342.189
 20
280.278
 11
342.078
 21
280.389
  0
LINE
  8
0
 10
342.078
 20
280.389
 11
341.974
 21
280.506
  0
LINE
  8
0
 10
341.974
 20
280.506
 11
341.877
 21
280.631
  0
LINE
  8
0
 10
341.877
 20
280.631
 11
341.789
 21
280.76
  0
LINE
  8
0
 10
341.789
 20
280.76
 11
341.709
 21
280.896
  0
LINE
  8
0
 10
341.709
 20
280.896
 11
341.638
 21
281.036
  0
LINE
  8
0
 10
341.638
 20
281.036
 11
341.576
 21
281.18
  0
LINE
  8
0
 10
341.576
 20
281.18
 11
341.522
 21
281.327
  0
LINE
  8
0
 10
341.522
 20
281.327
 11
341.479
 21
281.478
  0
LINE
  8
0
 10
341.479
 20
281.478
 11
341.444
 21
281.632
  0
LINE
  8
0
 10
341.444
 20
281.632
 11
341.42
 21
281.787
  0
LINE
  8
0
 10
341.42
 20
281.787
 11
341.405
 21
281.943
  0
LINE
  8
0
 10
341.405
 20
281.943
 11
341.4
 21
282.1
  0
LINE
  8
0
 10
341.4
 20
282.1
 11
341.405
 21
282.257
  0
LINE
  8
0
 10
341.405
 20
282.257
 11
341.42
 21
282.413
  0
LINE
  8
0
 10
341.42
 20
282.413
 11
341.444
 21
282.568
  0
LINE
  8
0
 10
341.444
 20
282.568
 11
341.479
 21
282.722
  0
LINE
  8
0
 10
341.479
 20
282.722
 11
341.522
 21
282.873
  0
LINE
  8
0
 10
341.522
 20
282.873
 11
341.576
 21
283.02
  0
LINE
  8
0
 10
341.576
 20
283.02
 11
341.638
 21
283.164
  0
LINE
  8
0
 10
341.638
 20
283.164
 11
341.709
 21
283.304
  0
LINE
  8
0
 10
341.709
 20
283.304
 11
341.789
 21
283.44
  0
LINE
  8
0
 10
341.789
 20
283.44
 11
341.877
 21
283.569
  0
LINE
  8
0
 10
341.877
 20
283.569
 11
341.974
 21
283.694
  0
LINE
  8
0
 10
341.974
 20
283.694
 11
342.078
 21
283.811
  0
LINE
  8
0
 10
342.078
 20
283.811
 11
342.189
 21
283.922
  0
LINE
  8
0
 10
342.189
 20
283.922
 11
342.306
 21
284.026
  0
LINE
  8
0
 10
342.306
 20
284.026
 11
342.431
 21
284.123
  0
LINE
  8
0
 10
342.431
 20
284.123
 11
342.56
 21
284.211
  0
LINE
  8
0
 10
342.56
 20
284.211
 11
342.696
 21
284.291
  0
LINE
  8
0
 10
342.696
 20
284.291
 11
342.836
 21
284.362
  0
LINE
  8
0
 10
342.836
 20
284.362
 11
342.98
 21
284.424
  0
LINE
  8
0
 10
342.98
 20
284.424
 11
343.127
 21
284.478
  0
LINE
  8
0
 10
343.127
 20
284.478
 11
343.278
 21
284.521
  0
LINE
  8
0
 10
343.278
 20
284.521
 11
343.432
 21
284.556
  0
LINE
  8
0
 10
343.432
 20
284.556
 11
343.587
 21
284.58
  0
LINE
  8
0
 10
343.587
 20
284.58
 11
343.743
 21
284.595
  0
LINE
  8
0
 10
343.743
 20
284.595
 11
343.9
 21
284.6
  0
LINE
  8
0
 10
343.9
 20
284.6
 11
344.057
 21
284.595
  0
LINE
  8
0
 10
344.057
 20
284.595
 11
344.213
 21
284.58
  0
LINE
  8
0
 10
344.213
 20
284.58
 11
344.368
 21
284.556
  0
LINE
  8
0
 10
344.368
 20
284.556
 11
344.522
 21
284.521
  0
LINE
  8
0
 10
344.522
 20
284.521
 11
344.673
 21
284.478
  0
LINE
  8
0
 10
344.673
 20
284.478
 11
344.82
 21
284.424
  0
LINE
  8
0
 10
344.82
 20
284.424
 11
344.964
 21
284.362
  0
LINE
  8
0
 10
344.964
 20
284.362
 11
345.104
 21
284.291
  0
LINE
  8
0
 10
345.104
 20
284.291
 11
345.24
 21
284.211
  0
LINE
  8
0
 10
345.24
 20
284.211
 11
345.369
 21
284.123
  0
LINE
  8
0
 10
345.369
 20
284.123
 11
345.494
 21
284.026
  0
LINE
  8
0
 10
345.494
 20
284.026
 11
345.611
 21
283.922
  0
LINE
  8
0
 10
345.611
 20
283.922
 11
345.722
 21
283.811
  0
LINE
  8
0
 10
345.722
 20
283.811
 11
345.826
 21
283.694
  0
LINE
  8
0
 10
345.826
 20
283.694
 11
345.923
 21
283.569
  0
LINE
  8
0
 10
345.923
 20
283.569
 11
346.011
 21
283.44
  0
LINE
  8
0
 10
346.011
 20
283.44
 11
346.091
 21
283.304
  0
LINE
  8
0
 10
346.091
 20
283.304
 11
346.162
 21
283.164
  0
LINE
  8
0
 10
346.162
 20
283.164
 11
346.224
 21
283.02
  0
LINE
  8
0
 10
346.224
 20
283.02
 11
346.278
 21
282.873
  0
LINE
  8
0
 10
346.278
 20
282.873
 11
346.321
 21
282.722
  0
LINE
  8
0
 10
346.321
 20
282.722
 11
346.356
 21
282.568
  0
LINE
  8
0
 10
346.356
 20
282.568
 11
346.38
 21
282.413
  0
LINE
  8
0
 10
346.38
 20
282.413
 11
346.395
 21
282.257
  0
LINE
  8
0
 10
346.395
 20
282.257
 11
346.4
 21
282.1
  0
LINE
  8
0
 10
346.4
 20
282.1
 11
346.395
 21
281.943
  0
LINE
  8
0
 10
346.395
 20
281.943
 11
346.38
 21
281.787
  0
LINE
  8
0
 10
346.38
 20
281.787
 11
346.356
 21
281.632
  0
LINE
  8
0
 10
346.356
 20
281.632
 11
346.321
 21
281.478
  0
LINE
  8
0
 10
346.321
 20
281.478
 11
346.278
 21
281.327
  0
LINE
  8
0
 10
346.278
 20
281.327
 11
346.224
 21
281.18
  0
LINE
  8
0
 10
346.224
 20
281.18
 11
346.162
 21
281.036
  0
LINE
  8
0
 10
346.162
 20
281.036
 11
346.091
 21
280.896
  0
LINE
  8
0
 10
346.091
 20
280.896
 11
346.011
 21
280.76
  0
LINE
  8
0
 10
346.011
 20
280.76
 11
345.923
 21
280.631
  0
LINE
  8
0
 10
345.923
 20
280.631
 11
345.826
 21
280.506
  0
LINE
  8
0
 10
345.826
 20
280.506
 11
345.722
 21
280.389
  0
LINE
  8
0
 10
345.722
 20
280.389
 11
345.611
 21
280.278
  0
LINE
  8
0
 10
345.611
 20
280.278
 11
345.494
 21
280.174
  0
LINE
  8
0
 10
345.494
 20
280.174
 11
345.369
 21
280.077
  0
LINE
  8
0
 10
345.369
 20
280.077
 11
345.24
 21
279.989
  0
LINE
  8
0
 10
345.24
 20
279.989
 11
345.104
 21
279.909
  0
LINE
  8
0
 10
345.104
 20
279.909
 11
344.964
 21
279.838
  0
LINE
  8
0
 10
344.964
 20
279.838
 11
344.82
 21
279.776
  0
LINE
  8
0
 10
344.82
 20
279.776
 11
344.673
 21
279.722
  0
LINE
  8
0
 10
344.673
 20
279.722
 11
344.522
 21
279.679
  0
LINE
  8
0
 10
344.522
 20
279.679
 11
344.368
 21
279.644
  0
LINE
  8
0
 10
344.368
 20
279.644
 11
344.213
 21
279.62
  0
LINE
  8
0
 10
344.213
 20
279.62
 11
344.057
 21
279.605
  0
LINE
  8
0
 10
344.057
 20
279.605
 11
343.9
 21
279.6
  0
LINE
  8
0
 10
343.9
 20
279.6
 11
343.743
 21
279.605
  0
LINE
  8
0
 10
283.143
 20
279.605
 11
282.987
 21
279.62
  0
LINE
  8
0
 10
282.987
 20
279.62
 11
282.832
 21
279.644
  0
LINE
  8
0
 10
282.832
 20
279.644
 11
282.678
 21
279.679
  0
LINE
  8
0
 10
282.678
 20
279.679
 11
282.527
 21
279.722
  0
LINE
  8
0
 10
282.527
 20
279.722
 11
282.38
 21
279.776
  0
LINE
  8
0
 10
282.38
 20
279.776
 11
282.236
 21
279.838
  0
LINE
  8
0
 10
282.236
 20
279.838
 11
282.096
 21
279.909
  0
LINE
  8
0
 10
282.096
 20
279.909
 11
281.96
 21
279.989
  0
LINE
  8
0
 10
281.96
 20
279.989
 11
281.831
 21
280.077
  0
LINE
  8
0
 10
281.831
 20
280.077
 11
281.706
 21
280.174
  0
LINE
  8
0
 10
281.706
 20
280.174
 11
281.589
 21
280.278
  0
LINE
  8
0
 10
281.589
 20
280.278
 11
281.478
 21
280.389
  0
LINE
  8
0
 10
281.478
 20
280.389
 11
281.374
 21
280.506
  0
LINE
  8
0
 10
281.374
 20
280.506
 11
281.277
 21
280.631
  0
LINE
  8
0
 10
281.277
 20
280.631
 11
281.189
 21
280.76
  0
LINE
  8
0
 10
281.189
 20
280.76
 11
281.109
 21
280.896
  0
LINE
  8
0
 10
281.109
 20
280.896
 11
281.038
 21
281.036
  0
LINE
  8
0
 10
281.038
 20
281.036
 11
280.976
 21
281.18
  0
LINE
  8
0
 10
280.976
 20
281.18
 11
280.922
 21
281.327
  0
LINE
  8
0
 10
280.922
 20
281.327
 11
280.879
 21
281.478
  0
LINE
  8
0
 10
280.879
 20
281.478
 11
280.844
 21
281.632
  0
LINE
  8
0
 10
280.844
 20
281.632
 11
280.82
 21
281.787
  0
LINE
  8
0
 10
280.82
 20
281.787
 11
280.805
 21
281.943
  0
LINE
  8
0
 10
280.805
 20
281.943
 11
280.8
 21
282.1
  0
LINE
  8
0
 10
280.8
 20
282.1
 11
280.805
 21
282.257
  0
LINE
  8
0
 10
280.805
 20
282.257
 11
280.82
 21
282.413
  0
LINE
  8
0
 10
280.82
 20
282.413
 11
280.844
 21
282.568
  0
LINE
  8
0
 10
280.844
 20
282.568
 11
280.879
 21
282.722
  0
LINE
  8
0
 10
280.879
 20
282.722
 11
280.922
 21
282.873
  0
LINE
  8
0
 10
280.922
 20
282.873
 11
280.976
 21
283.02
  0
LINE
  8
0
 10
280.976
 20
283.02
 11
281.038
 21
283.164
  0
LINE
  8
0
 10
281.038
 20
283.164
 11
281.109
 21
283.304
  0
LINE
  8
0
 10
281.109
 20
283.304
 11
281.189
 21
283.44
  0
LINE
  8
0
 10
281.189
 20
283.44
 11
281.277
 21
283.569
  0
LINE
  8
0
 10
281.277
 20
283.569
 11
281.374
 21
283.694
  0
LINE
  8
0
 10
281.374
 20
283.694
 11
281.478
 21
283.811
  0
LINE
  8
0
 10
281.478
 20
283.811
 11
281.589
 21
283.922
  0
LINE
  8
0
 10
281.589
 20
283.922
 11
281.706
 21
284.026
  0
LINE
  8
0
 10
281.706
 20
284.026
 11
281.831
 21
284.123
  0
LINE
  8
0
 10
281.831
 20
284.123
 11
281.96
 21
284.211
  0
LINE
  8
0
 10
281.96
 20
284.211
 11
282.096
 21
284.291
  0
LINE
  8
0
 10
282.096
 20
284.291
 11
282.236
 21
284.362
  0
LINE
  8
0
 10
282.236
 20
284.362
 11
282.38
 21
284.424
  0
LINE
  8
0
 10
282.38
 20
284.424
 11
282.527
 21
284.478
  0
LINE
  8
0
 10
282.527
 20
284.478
 11
282.678
 21
284.521
  0
LINE
  8
0
 10
282.678
 20
284.521
 11
282.832
 21
284.556
  0
LINE
  8
0
 10
282.832
 20
284.556
 11
282.987
 21
284.58
  0
LINE
  8
0
 10
282.987
 20
284.58
 11
283.143
 21
284.595
  0
LINE
  8
0
 10
283.143
 20
284.595
 11
283.3
 21
284.6
  0
LINE
  8
0
 10
283.3
 20
284.6
 11
283.457
 21
284.595
  0
LINE
  8
0
 10
283.457
 20
284.595
 11
283.613
 21
284.58
  0
LINE
  8
0
 10
283.613
 20
284.58
 11
283.768
 21
284.556
  0
LINE
  8
0
 10
283.768
 20
284.556
 11
283.922
 21
284.521
  0
LINE
  8
0
 10
283.922
 20
284.521
 11
284.073
 21
284.478
  0
LINE
  8
0
 10
284.073
 20
284.478
 11
284.22
 21
284.424
  0
LINE
  8
0
 10
284.22
 20
284.424
 11
284.364
 21
284.362
  0
LINE
  8
0
 10
284.364
 20
284.362
 11
284.504
 21
284.291
  0
LINE
  8
0
 10
284.504
 20
284.291
 11
284.64
 21
284.211
  0
LINE
  8
0
 10
284.64
 20
284.211
 11
284.769
 21
284.123
  0
LINE
  8
0
 10
284.769
 20
284.123
 11
284.894
 21
284.026
  0
LINE
  8
0
 10
284.894
 20
284.026
 11
285.011
 21
283.922
  0
LINE
  8
0
 10
285.011
 20
283.922
 11
285.122
 21
283.811
  0
LINE
  8
0
 10
285.122
 20
283.811
 11
285.226
 21
283.694
  0
LINE
  8
0
 10
285.226
 20
283.694
 11
285.323
 21
283.569
  0
LINE
  8
0
 10
285.323
 20
283.569
 11
285.411
 21
283.44
  0
LINE
  8
0
 10
285.411
 20
283.44
 11
285.491
 21
283.304
  0
LINE
  8
0
 10
285.491
 20
283.304
 11
285.562
 21
283.164
  0
LINE
  8
0
 10
285.562
 20
283.164
 11
285.624
 21
283.02
  0
LINE
  8
0
 10
285.624
 20
283.02
 11
285.678
 21
282.873
  0
LINE
  8
0
 10
285.678
 20
282.873
 11
285.721
 21
282.722
  0
LINE
  8
0
 10
285.721
 20
282.722
 11
285.756
 21
282.568
  0
LINE
  8
0
 10
285.756
 20
282.568
 11
285.78
 21
282.413
  0
LINE
  8
0
 10
285.78
 20
282.413
 11
285.795
 21
282.257
  0
LINE
  8
0
 10
285.795
 20
282.257
 11
285.8
 21
282.1
  0
LINE
  8
0
 10
285.8
 20
282.1
 11
285.795
 21
281.943
  0
LINE
  8
0
 10
285.795
 20
281.943
 11
285.78
 21
281.787
  0
LINE
  8
0
 10
285.78
 20
281.787
 11
285.756
 21
281.632
  0
LINE
  8
0
 10
285.756
 20
281.632
 11
285.721
 21
281.478
  0
LINE
  8
0
 10
285.721
 20
281.478
 11
285.678
 21
281.327
  0
LINE
  8
0
 10
285.678
 20
281.327
 11
285.624
 21
281.18
  0
LINE
  8
0
 10
285.624
 20
281.18
 11
285.562
 21
281.036
  0
LINE
  8
0
 10
285.562
 20
281.036
 11
285.491
 21
280.896
  0
LINE
  8
0
 10
285.491
 20
280.896
 11
285.411
 21
280.76
  0
LINE
  8
0
 10
285.411
 20
280.76
 11
285.323
 21
280.631
  0
LINE
  8
0
 10
285.323
 20
280.631
 11
285.226
 21
280.506
  0
LINE
  8
0
 10
285.226
 20
280.506
 11
285.122
 21
280.389
  0
LINE
  8
0
 10
285.122
 20
280.389
 11
285.011
 21
280.278
  0
LINE
  8
0
 10
285.011
 20
280.278
 11
284.894
 21
280.174
  0
LINE
  8
0
 10
284.894
 20
280.174
 11
284.769
 21
280.077
  0
LINE
  8
0
 10
284.769
 20
280.077
 11
284.64
 21
279.989
  0
LINE
  8
0
 10
284.64
 20
279.989
 11
284.504
 21
279.909
  0
LINE
  8
0
 10
284.504
 20
279.909
 11
284.364
 21
279.838
  0
LINE
  8
0
 10
284.364
 20
279.838
 11
284.22
 21
279.776
  0
LINE
  8
0
 10
284.22
 20
279.776
 11
284.073
 21
279.722
  0
LINE
  8
0
 10
284.073
 20
279.722
 11
283.922
 21
279.679
  0
LINE
  8
0
 10
283.922
 20
279.679
 11
283.768
 21
279.644
  0
LINE
  8
0
 10
283.768
 20
279.644
 11
283.613
 21
279.62
  0
LINE
  8
0
 10
283.613
 20
279.62
 11
283.457
 21
279.605
  0
LINE
  8
0
 10
283.457
 20
279.605
 11
283.3
 21
279.6
  0
LINE
  8
0
 10
283.3
 20
279.6
 11
283.143
 21
279.605
  0
LINE
  8
0
 10
104.76
 20
250.41
 11
104.447
 21
250.439
  0
LINE
  8
0
 10
104.447
 20
250.439
 11
104.137
 21
250.489
  0
LINE
  8
0
 10
104.137
 20
250.489
 11
103.831
 21
250.557
  0
LINE
  8
0
 10
103.831
 20
250.557
 11
103.529
 21
250.645
  0
LINE
  8
0
 10
103.529
 20
250.645
 11
103.233
 21
250.751
  0
LINE
  8
0
 10
103.233
 20
250.751
 11
102.945
 21
250.876
  0
LINE
  8
0
 10
102.945
 20
250.876
 11
102.665
 21
251.018
  0
LINE
  8
0
 10
102.665
 20
251.018
 11
102.395
 21
251.178
  0
LINE
  8
0
 10
102.395
 20
251.178
 11
102.135
 21
251.355
  0
LINE
  8
0
 10
102.135
 20
251.355
 11
101.887
 21
251.547
  0
LINE
  8
0
 10
101.887
 20
251.547
 11
101.651
 21
251.755
  0
LINE
  8
0
 10
101.651
 20
251.755
 11
101.429
 21
251.977
  0
LINE
  8
0
 10
101.429
 20
251.977
 11
101.221
 21
252.213
  0
LINE
  8
0
 10
101.221
 20
252.213
 11
101.029
 21
252.461
  0
LINE
  8
0
 10
101.029
 20
252.461
 11
100.852
 21
252.721
  0
LINE
  8
0
 10
100.852
 20
252.721
 11
100.693
 21
252.991
  0
LINE
  8
0
 10
100.693
 20
252.991
 11
100.55
 21
253.271
  0
LINE
  8
0
 10
100.55
 20
253.271
 11
100.425
 21
253.559
  0
LINE
  8
0
 10
100.425
 20
253.559
 11
100.319
 21
253.855
  0
LINE
  8
0
 10
100.319
 20
253.855
 11
100.231
 21
254.157
  0
LINE
  8
0
 10
100.231
 20
254.157
 11
100.163
 21
254.463
  0
LINE
  8
0
 10
100.163
 20
254.463
 11
100.113
 21
254.773
  0
LINE
  8
0
 10
100.113
 20
254.773
 11
100.084
 21
255.086
  0
LINE
  8
0
 10
100.084
 20
255.086
 11
100.074
 21
255.4
  0
LINE
  8
0
 10
100.074
 20
255.4
 11
100.074
 21
270.4
  0
LINE
  8
0
 10
100.074
 20
270.4
 11
100.084
 21
270.714
  0
LINE
  8
0
 10
100.084
 20
270.714
 11
100.113
 21
271.027
  0
LINE
  8
0
 10
100.113
 20
271.027
 11
100.163
 21
271.337
  0
LINE
  8
0
 10
100.163
 20
271.337
 11
100.231
 21
271.643
  0
LINE
  8
0
 10
100.231
 20
271.643
 11
100.319
 21
271.945
  0
LINE
  8
0
 10
100.319
 20
271.945
 11
100.425
 21
272.241
  0
LINE
  8
0
 10
100.425
 20
272.241
 11
100.55
 21
272.529
  0
LINE
  8
0
 10
100.55
 20
272.529
 11
100.693
 21
272.809
  0
LINE
  8
0
 10
100.693
 20
272.809
 11
100.852
 21
273.079
  0
LINE
  8
0
 10
100.852
 20
273.079
 11
101.029
 21
273.339
  0
LINE
  8
0
 10
101.029
 20
273.339
 11
101.221
 21
273.587
  0
LINE
  8
0
 10
101.221
 20
273.587
 11
101.429
 21
273.823
  0
LINE
  8
0
 10
101.429
 20
273.823
 11
101.651
 21
274.045
  0
LINE
  8
0
 10
101.651
 20
274.045
 11
101.887
 21
274.253
  0
LINE
  8
0
 10
101.887
 20
274.253
 11
102.135
 21
274.445
  0
LINE
  8
0
 10
102.135
 20
274.445
 11
102.395
 21
274.622
  0
LINE
  8
0
 10
102.395
 20
274.622
 11
102.665
 21
274.782
  0
LINE
  8
0
 10
102.665
 20
274.782
 11
102.945
 21
274.924
  0
LINE
  8
0
 10
102.945
 20
274.924
 11
103.233
 21
275.049
  0
LINE
  8
0
 10
103.233
 20
275.049
 11
103.529
 21
275.155
  0
LINE
  8
0
 10
103.529
 20
275.155
 11
103.831
 21
275.243
  0
LINE
  8
0
 10
103.831
 20
275.243
 11
104.137
 21
275.311
  0
LINE
  8
0
 10
104.137
 20
275.311
 11
104.447
 21
275.361
  0
LINE
  8
0
 10
104.447
 20
275.361
 11
104.76
 21
275.39
  0
LINE
  8
0
 10
104.76
 20
275.39
 11
105.074
 21
275.4
  0
LINE
  8
0
 10
105.074
 20
275.4
 11
105.388
 21
275.39
  0
LINE
  8
0
 10
105.388
 20
275.39
 11
105.701
 21
275.361
  0
LINE
  8
0
 10
105.701
 20
275.361
 11
106.011
 21
275.311
  0
LINE
  8
0
 10
106.011
 20
275.311
 11
106.318
 21
275.243
  0
LINE
  8
0
 10
106.318
 20
275.243
 11
106.619
 21
275.155
  0
LINE
  8
0
 10
106.619
 20
275.155
 11
106.915
 21
275.049
  0
LINE
  8
0
 10
106.915
 20
275.049
 11
107.203
 21
274.924
  0
LINE
  8
0
 10
107.203
 20
274.924
 11
107.483
 21
274.782
  0
LINE
  8
0
 10
107.483
 20
274.782
 11
107.753
 21
274.622
  0
LINE
  8
0
 10
107.753
 20
274.622
 11
108.013
 21
274.445
  0
LINE
  8
0
 10
108.013
 20
274.445
 11
108.261
 21
274.253
  0
LINE
  8
0
 10
108.261
 20
274.253
 11
108.497
 21
274.045
  0
LINE
  8
0
 10
108.497
 20
274.045
 11
108.719
 21
273.823
  0
LINE
  8
0
 10
108.719
 20
273.823
 11
108.927
 21
273.587
  0
LINE
  8
0
 10
108.927
 20
273.587
 11
109.119
 21
273.339
  0
LINE
  8
0
 10
109.119
 20
273.339
 11
109.296
 21
273.079
  0
LINE
  8
0
 10
109.296
 20
273.079
 11
109.456
 21
272.809
  0
LINE
  8
0
 10
109.456
 20
272.809
 11
109.598
 21
272.529
  0
LINE
  8
0
 10
109.598
 20
272.529
 11
109.723
 21
272.241
  0
LINE
  8
0
 10
109.723
 20
272.241
 11
109.829
 21
271.945
  0
LINE
  8
0
 10
109.829
 20
271.945
 11
109.917
 21
271.643
  0
LINE
  8
0
 10
109.917
 20
271.643
 11
109.986
 21
271.337
  0
LINE
  8
0
 10
109.986
 20
271.337
 11
110.035
 21
271.027
  0
LINE
  8
0
 10
110.035
 20
271.027
 11
110.064
 21
270.714
  0
LINE
  8
0
 10
110.064
 20
270.714
 11
110.074
 21
270.4
  0
LINE
  8
0
 10
110.074
 20
270.4
 11
110.074
 21
255.4
  0
LINE
  8
0
 10
110.074
 20
255.4
 11
110.064
 21
255.086
  0
LINE
  8
0
 10
110.064
 20
255.086
 11
110.035
 21
254.773
  0
LINE
  8
0
 10
110.035
 20
254.773
 11
109.986
 21
254.463
  0
LINE
  8
0
 10
109.986
 20
254.463
 11
109.917
 21
254.157
  0
LINE
  8
0
 10
109.917
 20
254.157
 11
109.829
 21
253.855
  0
LINE
  8
0
 10
109.829
 20
253.855
 11
109.723
 21
253.559
  0
LINE
  8
0
 10
109.723
 20
253.559
 11
109.598
 21
253.271
  0
LINE
  8
0
 10
109.598
 20
253.271
 11
109.456
 21
252.991
  0
LINE
  8
0
 10
109.456
 20
252.991
 11
109.296
 21
252.721
  0
LINE
  8
0
 10
109.296
 20
252.721
 11
109.119
 21
252.461
  0
LINE
  8
0
 10
109.119
 20
252.461
 11
108.927
 21
252.213
  0
LINE
  8
0
 10
108.927
 20
252.213
 11
108.719
 21
251.977
  0
LINE
  8
0
 10
108.719
 20
251.977
 11
108.497
 21
251.755
  0
LINE
  8
0
 10
108.497
 20
251.755
 11
108.261
 21
251.547
  0
LINE
  8
0
 10
108.261
 20
251.547
 11
108.013
 21
251.355
  0
LINE
  8
0
 10
108.013
 20
251.355
 11
107.753
 21
251.178
  0
LINE
  8
0
 10
107.753
 20
251.178
 11
107.483
 21
251.018
  0
LINE
  8
0
 10
107.483
 20
251.018
 11
107.203
 21
250.876
  0
LINE
  8
0
 10
107.203
 20
250.876
 11
106.915
 21
250.751
  0
LINE
  8
0
 10
106.915
 20
250.751
 11
106.619
 21
250.645
  0
LINE
  8
0
 10
106.619
 20
250.645
 11
106.318
 21
250.557
  0
LINE
  8
0
 10
106.318
 20
250.557
 11
106.011
 21
250.489
  0
LINE
  8
0
 10
106.011
 20
250.489
 11
105.701
 21
250.439
  0
LINE
  8
0
 10
105.701
 20
250.439
 11
105.388
 21
250.41
  0
LINE
  8
0
 10
105.388
 20
250.41
 11
105.074
 21
250.4
  0
LINE
  8
0
 10
105.074
 20
250.4
 11
104.76
 21
250.41
  0
LINE
  8
0
 10
51.0741
 20
134.9
 11
51.0741
 21
141.9
  0
LINE
  8
0
 10
51.0741
 20
141.9
 11
65.0741
 21
141.9
  0
LINE
  8
0
 10
65.0741
 20
141.9
 11
65.0741
 21
134.9
  0
LINE
  8
0
 10
65.0741
 20
134.9
 11
51.0741
 21
134.9
  0
LINE
  8
0
 10
51.0741
 20
74.9
 11
51.0741
 21
81.9
  0
LINE
  8
0
 10
51.0741
 20
81.9
 11
65.0741
 21
81.9
  0
LINE
  8
0
 10
65.0741
 20
81.9
 11
65.0741
 21
74.9
  0
LINE
  8
0
 10
65.0741
 20
74.9
 11
51.0741
 21
74.9
  0
LINE
  8
0
 10
104.76
 20
46.4099
 11
104.447
 21
46.4394
  0
LINE
  8
0
 10
104.447
 20
46.4394
 11
104.137
 21
46.4886
  0
LINE
  8
0
 10
104.137
 20
46.4886
 11
103.831
 21
46.5571
  0
LINE
  8
0
 10
103.831
 20
46.5571
 11
103.529
 21
46.6447
  0
LINE
  8
0
 10
103.529
 20
46.6447
 11
103.233
 21
46.7511
  0
LINE
  8
0
 10
103.233
 20
46.7511
 11
102.945
 21
46.8759
  0
LINE
  8
0
 10
102.945
 20
46.8759
 11
102.665
 21
47.0185
  0
LINE
  8
0
 10
102.665
 20
47.0185
 11
102.395
 21
47.1784
  0
LINE
  8
0
 10
102.395
 20
47.1784
 11
102.135
 21
47.3549
  0
LINE
  8
0
 10
102.135
 20
47.3549
 11
101.887
 21
47.5474
  0
LINE
  8
0
 10
101.887
 20
47.5474
 11
101.651
 21
47.7552
  0
LINE
  8
0
 10
101.651
 20
47.7552
 11
101.429
 21
47.9773
  0
LINE
  8
0
 10
101.429
 20
47.9773
 11
101.221
 21
48.2129
  0
LINE
  8
0
 10
101.221
 20
48.2129
 11
101.029
 21
48.4611
  0
LINE
  8
0
 10
101.029
 20
48.4611
 11
100.852
 21
48.7209
  0
LINE
  8
0
 10
100.852
 20
48.7209
 11
100.693
 21
48.9912
  0
LINE
  8
0
 10
100.693
 20
48.9912
 11
100.55
 21
49.2711
  0
LINE
  8
0
 10
100.55
 20
49.2711
 11
100.425
 21
49.5594
  0
LINE
  8
0
 10
100.425
 20
49.5594
 11
100.319
 21
49.8549
  0
LINE
  8
0
 10
100.319
 20
49.8549
 11
100.231
 21
50.1565
  0
LINE
  8
0
 10
100.231
 20
50.1565
 11
100.163
 21
50.4631
  0
LINE
  8
0
 10
100.163
 20
50.4631
 11
100.113
 21
50.7733
  0
LINE
  8
0
 10
100.113
 20
50.7733
 11
100.084
 21
51.086
  0
LINE
  8
0
 10
100.084
 20
51.086
 11
100.074
 21
51.4
  0
LINE
  8
0
 10
100.074
 20
51.4
 11
100.074
 21
66.4
  0
LINE
  8
0
 10
100.074
 20
66.4
 11
100.084
 21
66.7139
  0
LINE
  8
0
 10
100.084
 20
66.7139
 11
100.113
 21
67.0267
  0
LINE
  8
0
 10
100.113
 20
67.0267
 11
100.163
 21
67.3369
  0
LINE
  8
0
 10
100.163
 20
67.3369
 11
100.231
 21
67.6434
  0
LINE
  8
0
 10
100.231
 20
67.6434
 11
100.319
 21
67.9451
  0
LINE
  8
0
 10
100.319
 20
67.9451
 11
100.425
 21
68.2406
  0
LINE
  8
0
 10
100.425
 20
68.2406
 11
100.55
 21
68.5289
  0
LINE
  8
0
 10
100.55
 20
68.5289
 11
100.693
 21
68.8088
  0
LINE
  8
0
 10
100.693
 20
68.8088
 11
100.852
 21
69.0791
  0
LINE
  8
0
 10
100.852
 20
69.0791
 11
101.029
 21
69.3389
  0
LINE
  8
0
 10
101.029
 20
69.3389
 11
101.221
 21
69.5871
  0
LINE
  8
0
 10
101.221
 20
69.5871
 11
101.429
 21
69.8227
  0
LINE
  8
0
 10
101.429
 20
69.8227
 11
101.651
 21
70.0448
  0
LINE
  8
0
 10
101.651
 20
70.0448
 11
101.887
 21
70.2526
  0
LINE
  8
0
 10
101.887
 20
70.2526
 11
102.135
 21
70.4451
  0
LINE
  8
0
 10
102.135
 20
70.4451
 11
102.395
 21
70.6216
  0
LINE
  8
0
 10
102.395
 20
70.6216
 11
102.665
 21
70.7815
  0
LINE
  8
0
 10
102.665
 20
70.7815
 11
102.945
 21
70.9241
  0
LINE
  8
0
 10
102.945
 20
70.9241
 11
103.233
 21
71.0489
  0
LINE
  8
0
 10
103.233
 20
71.0489
 11
103.529
 21
71.1553
  0
LINE
  8
0
 10
103.529
 20
71.1553
 11
103.831
 21
71.2429
  0
LINE
  8
0
 10
103.831
 20
71.2429
 11
104.137
 21
71.3114
  0
LINE
  8
0
 10
104.137
 20
71.3114
 11
104.447
 21
71.3606
  0
LINE
  8
0
 10
104.447
 20
71.3606
 11
104.76
 21
71.3901
  0
LINE
  8
0
 10
104.76
 20
71.3901
 11
105.074
 21
71.4
  0
LINE
  8
0
 10
105.074
 20
71.4
 11
105.388
 21
71.3901
  0
LINE
  8
0
 10
105.388
 20
71.3901
 11
105.701
 21
71.3606
  0
LINE
  8
0
 10
105.701
 20
71.3606
 11
106.011
 21
71.3114
  0
LINE
  8
0
 10
106.011
 20
71.3114
 11
106.318
 21
71.2429
  0
LINE
  8
0
 10
106.318
 20
71.2429
 11
106.619
 21
71.1553
  0
LINE
  8
0
 10
106.619
 20
71.1553
 11
106.915
 21
71.0489
  0
LINE
  8
0
 10
106.915
 20
71.0489
 11
107.203
 21
70.9241
  0
LINE
  8
0
 10
107.203
 20
70.9241
 11
107.483
 21
70.7815
  0
LINE
  8
0
 10
107.483
 20
70.7815
 11
107.753
 21
70.6216
  0
LINE
  8
0
 10
107.753
 20
70.6216
 11
108.013
 21
70.4451
  0
LINE
  8
0
 10
108.013
 20
70.4451
 11
108.261
 21
70.2526
  0
LINE
  8
0
 10
108.261
 20
70.2526
 11
108.497
 21
70.0448
  0
LINE
  8
0
 10
108.497
 20
70.0448
 11
108.719
 21
69.8227
  0
LINE
  8
0
 10
108.719
 20
69.8227
 11
108.927
 21
69.5871
  0
LINE
  8
0
 10
108.927
 20
69.5871
 11
109.119
 21
69.3389
  0
LINE
  8
0
 10
109.119
 20
69.3389
 11
109.296
 21
69.0791
  0
LINE
  8
0
 10
109.296
 20
69.0791
 11
109.456
 21
68.8088
  0
LINE
  8
0
 10
109.456
 20
68.8088
 11
109.598
 21
68.5289
  0
LINE
  8
0
 10
109.598
 20
68.5289
 11
109.723
 21
68.2406
  0
LINE
  8
0
 10
109.723
 20
68.2406
 11
109.829
 21
67.9451
  0
LINE
  8
0
 10
109.829
 20
67.9451
 11
109.917
 21
67.6434
  0
LINE
  8
0
 10
109.917
 20
67.6434
 11
109.986
 21
67.3369
  0
LINE
  8
0
 10
109.986
 20
67.3369
 11
110.035
 21
67.0267
  0
LINE
  8
0
 10
110.035
 20
67.0267
 11
110.064
 21
66.7139
  0
LINE
  8
0
 10
110.064
 20
66.7139
 11
110.074
 21
66.4
  0
LINE
  8
0
 10
110.074
 20
66.4
 11
110.074
 21
51.4
  0
LINE
  8
0
 10
110.074
 20
51.4
 11
110.064
 21
51.086
  0
LINE
  8
0
 10
110.064
 20
51.086
 11
110.035
 21
50.7733
  0
LINE
  8
0
 10
110.035
 20
50.7733
 11
109.986
 21
50.4631
  0
LINE
  8
0
 10
109.986
 20
50.4631
 11
109.917
 21
50.1565
  0
LINE
  8
0
 10
109.917
 20
50.1565
 11
109.829
 21
49.8549
  0
LINE
  8
0
 10
109.829
 20
49.8549
 11
109.723
 21
49.5594
  0
LINE
  8
0
 10
109.723
 20
49.5594
 11
109.598
 21
49.2711
  0
LINE
  8
0
 10
109.598
 20
49.2711
 11
109.456
 21
48.9912
  0
LINE
  8
0
 10
109.456
 20
48.9912
 11
109.296
 21
48.7209
  0
LINE
  8
0
 10
109.296
 20
48.7209
 11
109.119
 21
48.4611
  0
LINE
  8
0
 10
109.119
 20
48.4611
 11
108.927
 21
48.2129
  0
LINE
  8
0
 10
108.927
 20
48.2129
 11
108.719
 21
47.9773
  0
LINE
  8
0
 10
108.719
 20
47.9773
 11
108.497
 21
47.7552
  0
LINE
  8
0
 10
108.497
 20
47.7552
 11
108.261
 21
47.5474
  0
LINE
  8
0
 10
108.261
 20
47.5474
 11
108.013
 21
47.3549
  0
LINE
  8
0
 10
108.013
 20
47.3549
 11
107.753
 21
47.1784
  0
LINE
  8
0
 10
107.753
 20
47.1784
 11
107.483
 21
47.0185
  0
LINE
  8
0
 10
107.483
 20
47.0185
 11
107.203
 21
46.8759
  0
LINE
  8
0
 10
107.203
 20
46.8759
 11
106.915
 21
46.7511
  0
LINE
  8
0
 10
106.915
 20
46.7511
 11
106.619
 21
46.6447
  0
LINE
  8
0
 10
106.619
 20
46.6447
 11
106.318
 21
46.5571
  0
LINE
  8
0
 10
106.318
 20
46.5571
 11
106.011
 21
46.4886
  0
LINE
  8
0
 10
106.011
 20
46.4886
 11
105.701
 21
46.4394
  0
LINE
  8
0
 10
105.701
 20
46.4394
 11
105.388
 21
46.4099
  0
LINE
  8
0
 10
105.388
 20
46.4099
 11
105.074
 21
46.4
  0
LINE
  8
0
 10
105.074
 20
46.4
 11
104.76
 21
46.4099
  0
ENDSEC
  0
SECTION
  2
OBJECTS
  0
DICTIONARY
  0
ENDSEC
  0
EOF
