  0
SECTION
  2
BLOCKS
  0
ENDSEC
  0
SECTION
  2
ENTITIES
  0
LINE
  8
0
 10
299.667
 20
490.8
 11
299.667
 21
488.4
  0
LINE
  8
0
 10
299.667
 20
488.4
 11
225
 21
488.4
  0
LINE
  8
0
 10
225
 20
488.4
 11
225
 21
490.8
  0
LINE
  8
0
 10
225
 20
490.8
 11
150.333
 21
490.8
  0
LINE
  8
0
 10
150.333
 20
490.8
 11
150.333
 21
488.4
  0
LINE
  8
0
 10
150.333
 20
488.4
 11
75.6667
 21
488.4
  0
LINE
  8
0
 10
75.6667
 20
488.4
 11
75.6667
 21
490.8
  0
LINE
  8
0
 10
75.6667
 20
490.8
 11
1
 21
490.8
  0
LINE
  8
0
 10
1
 20
490.8
 11
1
 21
6
  0
LINE
  8
0
 10
1
 20
6
 11
75.6667
 21
6
  0
LINE
  8
0
 10
75.6667
 20
6
 11
75.6667
 21
8.39999
  0
LINE
  8
0
 10
75.6667
 20
8.39999
 11
150.333
 21
8.39999
  0
LINE
  8
0
 10
150.333
 20
8.39999
 11
150.333
 21
6
  0
LINE
  8
0
 10
150.333
 20
6
 11
225
 21
6
  0
LINE
  8
0
 10
225
 20
6
 11
225
 21
8.39999
  0
LINE
  8
0
 10
225
 20
8.39999
 11
299.667
 21
8.39999
  0
LINE
  8
0
 10
299.667
 20
8.39999
 11
299.667
 21
6
  0
LINE
  8
0
 10
299.667
 20
6
 11
374.333
 21
6
  0
LINE
  8
0
 10
374.333
 20
6
 11
374.333
 21
8.39999
  0
LINE
  8
0
 10
374.333
 20
8.39999
 11
449
 21
8.39999
  0
LINE
  8
0
 10
449
 20
8.39999
 11
449
 21
488.4
  0
LINE
  8
0
 10
449
 20
488.4
 11
374.333
 21
488.4
  0
LINE
  8
0
 10
374.333
 20
488.4
 11
374.333
 21
490.8
  0
LINE
  8
0
 10
374.333
 20
490.8
 11
299.667
 21
490.8
  0
LINE
  8
0
 10
524.667
 20
8.39999
 11
599.333
 21
8.39999
  0
LINE
  8
0
 10
599.333
 20
8.39999
 11
599.333
 21
6
  0
LINE
  8
0
 10
599.333
 20
6
 11
674
 21
6
  0
LINE
  8
0
 10
674
 20
6
 11
674
 21
8.39999
  0
LINE
  8
0
 10
674
 20
8.39999
 11
748.667
 21
8.39999
  0
LINE
  8
0
 10
748.667
 20
8.39999
 11
748.667
 21
6
  0
LINE
  8
0
 10
748.667
 20
6
 11
823.333
 21
6
  0
LINE
  8
0
 10
823.333
 20
6
 11
823.333
 21
8.39999
  0
LINE
  8
0
 10
823.333
 20
8.39999
 11
898
 21
8.39999
  0
LINE
  8
0
 10
898
 20
8.39999
 11
898
 21
488.4
  0
LINE
  8
0
 10
898
 20
488.4
 11
823.333
 21
488.4
  0
LINE
  8
0
 10
823.333
 20
488.4
 11
823.333
 21
490.8
  0
LINE
  8
0
 10
823.333
 20
490.8
 11
748.667
 21
490.8
  0
LINE
  8
0
 10
748.667
 20
490.8
 11
748.667
 21
488.4
  0
LINE
  8
0
 10
748.667
 20
488.4
 11
674
 21
488.4
  0
LINE
  8
0
 10
674
 20
488.4
 11
674
 21
490.8
  0
LINE
  8
0
 10
674
 20
490.8
 11
599.333
 21
490.8
  0
LINE
  8
0
 10
599.333
 20
490.8
 11
599.333
 21
488.4
  0
LINE
  8
0
 10
599.333
 20
488.4
 11
524.667
 21
488.4
  0
LINE
  8
0
 10
524.667
 20
488.4
 11
524.667
 21
490.8
  0
LINE
  8
0
 10
524.667
 20
490.8
 11
450
 21
490.8
  0
LINE
  8
0
 10
450
 20
490.8
 11
450
 21
6
  0
LINE
  8
0
 10
450
 20
6
 11
524.667
 21
6
  0
LINE
  8
0
 10
524.667
 20
6
 11
524.667
 21
8.39999
  0
ENDSEC
  0
SECTION
  2
OBJECTS
  0
DICTIONARY
  0
ENDSEC
  0
EOF
