  0
SECTION
  2
BLOCKS
  0
ENDSEC
  0
SECTION
  2
ENTITIES
  0
LINE
  8
0
 10
494.8
 20
8.39999
 11
517.2
 21
8.39999
  0
LINE
  8
0
 10
517.2
 20
8.39999
 11
517.2
 21
6
  0
LINE
  8
0
 10
517.2
 20
6
 11
539.6
 21
6
  0
LINE
  8
0
 10
539.6
 20
6
 11
539.6
 21
8.39999
  0
LINE
  8
0
 10
539.6
 20
8.39999
 11
562
 21
8.39999
  0
LINE
  8
0
 10
562
 20
8.39999
 11
562
 21
6
  0
LINE
  8
0
 10
562
 20
6
 11
584.4
 21
6
  0
LINE
  8
0
 10
584.4
 20
6
 11
584.4
 21
8.39999
  0
LINE
  8
0
 10
584.4
 20
8.39999
 11
606.8
 21
8.39999
  0
LINE
  8
0
 10
606.8
 20
8.39999
 11
606.8
 21
6
  0
LINE
  8
0
 10
606.8
 20
6
 11
629.2
 21
6
  0
LINE
  8
0
 10
629.2
 20
6
 11
629.2
 21
8.39999
  0
LINE
  8
0
 10
629.2
 20
8.39999
 11
651.6
 21
8.39999
  0
LINE
  8
0
 10
651.6
 20
8.39999
 11
651.6
 21
6
  0
LINE
  8
0
 10
651.6
 20
6
 11
674
 21
6
  0
LINE
  8
0
 10
674
 20
6
 11
674
 21
8.39999
  0
LINE
  8
0
 10
674
 20
8.39999
 11
696.4
 21
8.39999
  0
LINE
  8
0
 10
696.4
 20
8.39999
 11
696.4
 21
6
  0
LINE
  8
0
 10
696.4
 20
6
 11
718.8
 21
6
  0
LINE
  8
0
 10
718.8
 20
6
 11
718.8
 21
8.39999
  0
LINE
  8
0
 10
718.8
 20
8.39999
 11
741.2
 21
8.39999
  0
LINE
  8
0
 10
741.2
 20
8.39999
 11
741.2
 21
6
  0
LINE
  8
0
 10
741.2
 20
6
 11
763.6
 21
6
  0
LINE
  8
0
 10
763.6
 20
6
 11
763.6
 21
8.39999
  0
LINE
  8
0
 10
763.6
 20
8.39999
 11
786
 21
8.39999
  0
LINE
  8
0
 10
786
 20
8.39999
 11
786
 21
6
  0
LINE
  8
0
 10
786
 20
6
 11
808.4
 21
6
  0
LINE
  8
0
 10
808.4
 20
6
 11
808.4
 21
8.39999
  0
LINE
  8
0
 10
808.4
 20
8.39999
 11
830.8
 21
8.39999
  0
LINE
  8
0
 10
830.8
 20
8.39999
 11
830.8
 21
6
  0
LINE
  8
0
 10
830.8
 20
6
 11
853.2
 21
6
  0
LINE
  8
0
 10
853.2
 20
6
 11
853.2
 21
8.39999
  0
LINE
  8
0
 10
853.2
 20
8.39999
 11
875.6
 21
8.39999
  0
LINE
  8
0
 10
875.6
 20
8.39999
 11
875.6
 21
6
  0
LINE
  8
0
 10
875.6
 20
6
 11
898
 21
6
  0
LINE
  8
0
 10
898
 20
6
 11
898
 21
490.8
  0
LINE
  8
0
 10
898
 20
490.8
 11
875.6
 21
490.8
  0
LINE
  8
0
 10
875.6
 20
490.8
 11
875.6
 21
488.4
  0
LINE
  8
0
 10
875.6
 20
488.4
 11
853.2
 21
488.4
  0
LINE
  8
0
 10
853.2
 20
488.4
 11
853.2
 21
490.8
  0
LINE
  8
0
 10
853.2
 20
490.8
 11
830.8
 21
490.8
  0
LINE
  8
0
 10
830.8
 20
490.8
 11
830.8
 21
488.4
  0
LINE
  8
0
 10
830.8
 20
488.4
 11
808.4
 21
488.4
  0
LINE
  8
0
 10
808.4
 20
488.4
 11
808.4
 21
490.8
  0
LINE
  8
0
 10
808.4
 20
490.8
 11
786
 21
490.8
  0
LINE
  8
0
 10
786
 20
490.8
 11
786
 21
488.4
  0
LINE
  8
0
 10
786
 20
488.4
 11
763.6
 21
488.4
  0
LINE
  8
0
 10
763.6
 20
488.4
 11
763.6
 21
490.8
  0
LINE
  8
0
 10
763.6
 20
490.8
 11
741.2
 21
490.8
  0
LINE
  8
0
 10
741.2
 20
490.8
 11
741.2
 21
488.4
  0
LINE
  8
0
 10
741.2
 20
488.4
 11
718.8
 21
488.4
  0
LINE
  8
0
 10
718.8
 20
488.4
 11
718.8
 21
490.8
  0
LINE
  8
0
 10
718.8
 20
490.8
 11
696.4
 21
490.8
  0
LINE
  8
0
 10
696.4
 20
490.8
 11
696.4
 21
488.4
  0
LINE
  8
0
 10
696.4
 20
488.4
 11
674
 21
488.4
  0
LINE
  8
0
 10
674
 20
488.4
 11
674
 21
490.8
  0
LINE
  8
0
 10
674
 20
490.8
 11
651.6
 21
490.8
  0
LINE
  8
0
 10
651.6
 20
490.8
 11
651.6
 21
488.4
  0
LINE
  8
0
 10
651.6
 20
488.4
 11
629.2
 21
488.4
  0
LINE
  8
0
 10
629.2
 20
488.4
 11
629.2
 21
490.8
  0
LINE
  8
0
 10
629.2
 20
490.8
 11
606.8
 21
490.8
  0
LINE
  8
0
 10
606.8
 20
490.8
 11
606.8
 21
488.4
  0
LINE
  8
0
 10
606.8
 20
488.4
 11
584.4
 21
488.4
  0
LINE
  8
0
 10
584.4
 20
488.4
 11
584.4
 21
490.8
  0
LINE
  8
0
 10
584.4
 20
490.8
 11
562
 21
490.8
  0
LINE
  8
0
 10
562
 20
490.8
 11
562
 21
488.4
  0
LINE
  8
0
 10
562
 20
488.4
 11
539.6
 21
488.4
  0
LINE
  8
0
 10
539.6
 20
488.4
 11
539.6
 21
490.8
  0
LINE
  8
0
 10
539.6
 20
490.8
 11
517.2
 21
490.8
  0
LINE
  8
0
 10
517.2
 20
490.8
 11
517.2
 21
488.4
  0
LINE
  8
0
 10
517.2
 20
488.4
 11
494.8
 21
488.4
  0
LINE
  8
0
 10
494.8
 20
488.4
 11
494.8
 21
490.8
  0
LINE
  8
0
 10
494.8
 20
490.8
 11
472.4
 21
490.8
  0
LINE
  8
0
 10
472.4
 20
490.8
 11
472.4
 21
488.4
  0
LINE
  8
0
 10
472.4
 20
488.4
 11
450
 21
488.4
  0
LINE
  8
0
 10
450
 20
488.4
 11
450
 21
8.39999
  0
LINE
  8
0
 10
450
 20
8.39999
 11
472.4
 21
8.39999
  0
LINE
  8
0
 10
472.4
 20
8.39999
 11
472.4
 21
6
  0
LINE
  8
0
 10
472.4
 20
6
 11
494.8
 21
6
  0
LINE
  8
0
 10
494.8
 20
6
 11
494.8
 21
8.39999
  0
LINE
  8
0
 10
45.8
 20
8.39999
 11
68.2
 21
8.39999
  0
LINE
  8
0
 10
68.2
 20
8.39999
 11
68.2
 21
6
  0
LINE
  8
0
 10
68.2
 20
6
 11
90.6
 21
6
  0
LINE
  8
0
 10
90.6
 20
6
 11
90.6
 21
8.39999
  0
LINE
  8
0
 10
90.6
 20
8.39999
 11
113
 21
8.39999
  0
LINE
  8
0
 10
113
 20
8.39999
 11
113
 21
6
  0
LINE
  8
0
 10
113
 20
6
 11
135.4
 21
6
  0
LINE
  8
0
 10
135.4
 20
6
 11
135.4
 21
8.39999
  0
LINE
  8
0
 10
135.4
 20
8.39999
 11
157.8
 21
8.39999
  0
LINE
  8
0
 10
157.8
 20
8.39999
 11
157.8
 21
6
  0
LINE
  8
0
 10
157.8
 20
6
 11
180.2
 21
6
  0
LINE
  8
0
 10
180.2
 20
6
 11
180.2
 21
8.39999
  0
LINE
  8
0
 10
180.2
 20
8.39999
 11
202.6
 21
8.39999
  0
LINE
  8
0
 10
202.6
 20
8.39999
 11
202.6
 21
6
  0
LINE
  8
0
 10
202.6
 20
6
 11
225
 21
6
  0
LINE
  8
0
 10
225
 20
6
 11
225
 21
8.39999
  0
LINE
  8
0
 10
225
 20
8.39999
 11
247.4
 21
8.39999
  0
LINE
  8
0
 10
247.4
 20
8.39999
 11
247.4
 21
6
  0
LINE
  8
0
 10
247.4
 20
6
 11
269.8
 21
6
  0
LINE
  8
0
 10
269.8
 20
6
 11
269.8
 21
8.39999
  0
LINE
  8
0
 10
269.8
 20
8.39999
 11
292.2
 21
8.39999
  0
LINE
  8
0
 10
292.2
 20
8.39999
 11
292.2
 21
6
  0
LINE
  8
0
 10
292.2
 20
6
 11
314.6
 21
6
  0
LINE
  8
0
 10
314.6
 20
6
 11
314.6
 21
8.39999
  0
LINE
  8
0
 10
314.6
 20
8.39999
 11
337
 21
8.39999
  0
LINE
  8
0
 10
337
 20
8.39999
 11
337
 21
6
  0
LINE
  8
0
 10
337
 20
6
 11
359.4
 21
6
  0
LINE
  8
0
 10
359.4
 20
6
 11
359.4
 21
8.39999
  0
LINE
  8
0
 10
359.4
 20
8.39999
 11
381.8
 21
8.39999
  0
LINE
  8
0
 10
381.8
 20
8.39999
 11
381.8
 21
6
  0
LINE
  8
0
 10
381.8
 20
6
 11
404.2
 21
6
  0
LINE
  8
0
 10
404.2
 20
6
 11
404.2
 21
8.39999
  0
LINE
  8
0
 10
404.2
 20
8.39999
 11
426.6
 21
8.39999
  0
LINE
  8
0
 10
426.6
 20
8.39999
 11
426.6
 21
6
  0
LINE
  8
0
 10
426.6
 20
6
 11
449
 21
6
  0
LINE
  8
0
 10
449
 20
6
 11
449
 21
490.8
  0
LINE
  8
0
 10
449
 20
490.8
 11
426.6
 21
490.8
  0
LINE
  8
0
 10
426.6
 20
490.8
 11
426.6
 21
488.4
  0
LINE
  8
0
 10
426.6
 20
488.4
 11
404.2
 21
488.4
  0
LINE
  8
0
 10
404.2
 20
488.4
 11
404.2
 21
490.8
  0
LINE
  8
0
 10
404.2
 20
490.8
 11
381.8
 21
490.8
  0
LINE
  8
0
 10
381.8
 20
490.8
 11
381.8
 21
488.4
  0
LINE
  8
0
 10
381.8
 20
488.4
 11
359.4
 21
488.4
  0
LINE
  8
0
 10
359.4
 20
488.4
 11
359.4
 21
490.8
  0
LINE
  8
0
 10
359.4
 20
490.8
 11
337
 21
490.8
  0
LINE
  8
0
 10
337
 20
490.8
 11
337
 21
488.4
  0
LINE
  8
0
 10
337
 20
488.4
 11
314.6
 21
488.4
  0
LINE
  8
0
 10
314.6
 20
488.4
 11
314.6
 21
490.8
  0
LINE
  8
0
 10
314.6
 20
490.8
 11
292.2
 21
490.8
  0
LINE
  8
0
 10
292.2
 20
490.8
 11
292.2
 21
488.4
  0
LINE
  8
0
 10
292.2
 20
488.4
 11
269.8
 21
488.4
  0
LINE
  8
0
 10
269.8
 20
488.4
 11
269.8
 21
490.8
  0
LINE
  8
0
 10
269.8
 20
490.8
 11
247.4
 21
490.8
  0
LINE
  8
0
 10
247.4
 20
490.8
 11
247.4
 21
488.4
  0
LINE
  8
0
 10
247.4
 20
488.4
 11
225
 21
488.4
  0
LINE
  8
0
 10
225
 20
488.4
 11
225
 21
490.8
  0
LINE
  8
0
 10
225
 20
490.8
 11
202.6
 21
490.8
  0
LINE
  8
0
 10
202.6
 20
490.8
 11
202.6
 21
488.4
  0
LINE
  8
0
 10
202.6
 20
488.4
 11
180.2
 21
488.4
  0
LINE
  8
0
 10
180.2
 20
488.4
 11
180.2
 21
490.8
  0
LINE
  8
0
 10
180.2
 20
490.8
 11
157.8
 21
490.8
  0
LINE
  8
0
 10
157.8
 20
490.8
 11
157.8
 21
488.4
  0
LINE
  8
0
 10
157.8
 20
488.4
 11
135.4
 21
488.4
  0
LINE
  8
0
 10
135.4
 20
488.4
 11
135.4
 21
490.8
  0
LINE
  8
0
 10
135.4
 20
490.8
 11
113
 21
490.8
  0
LINE
  8
0
 10
113
 20
490.8
 11
113
 21
488.4
  0
LINE
  8
0
 10
113
 20
488.4
 11
90.6
 21
488.4
  0
LINE
  8
0
 10
90.6
 20
488.4
 11
90.6
 21
490.8
  0
LINE
  8
0
 10
90.6
 20
490.8
 11
68.2
 21
490.8
  0
LINE
  8
0
 10
68.2
 20
490.8
 11
68.2
 21
488.4
  0
LINE
  8
0
 10
68.2
 20
488.4
 11
45.8
 21
488.4
  0
LINE
  8
0
 10
45.8
 20
488.4
 11
45.8
 21
490.8
  0
LINE
  8
0
 10
45.8
 20
490.8
 11
23.4
 21
490.8
  0
LINE
  8
0
 10
23.4
 20
490.8
 11
23.4
 21
488.4
  0
LINE
  8
0
 10
23.4
 20
488.4
 11
1
 21
488.4
  0
LINE
  8
0
 10
1
 20
488.4
 11
1
 21
8.39999
  0
LINE
  8
0
 10
1
 20
8.39999
 11
23.4
 21
8.39999
  0
LINE
  8
0
 10
23.4
 20
8.39999
 11
23.4
 21
6
  0
LINE
  8
0
 10
23.4
 20
6
 11
45.8
 21
6
  0
LINE
  8
0
 10
45.8
 20
6
 11
45.8
 21
8.39999
  0
ENDSEC
  0
SECTION
  2
OBJECTS
  0
DICTIONARY
  0
ENDSEC
  0
EOF
