  0
SECTION
  2
BLOCKS
  0
ENDSEC
  0
SECTION
  2
ENTITIES
  0
LINE
  8
0
 10
505.8
 20
8.39999
 11
528.7
 21
8.39999
  0
LINE
  8
0
 10
528.7
 20
8.39999
 11
528.7
 21
6
  0
LINE
  8
0
 10
528.7
 20
6
 11
551.6
 21
6
  0
LINE
  8
0
 10
551.6
 20
6
 11
551.6
 21
8.39999
  0
LINE
  8
0
 10
551.6
 20
8.39999
 11
574.5
 21
8.39999
  0
LINE
  8
0
 10
574.5
 20
8.39999
 11
574.5
 21
6
  0
LINE
  8
0
 10
574.5
 20
6
 11
597.4
 21
6
  0
LINE
  8
0
 10
597.4
 20
6
 11
597.4
 21
8.39999
  0
LINE
  8
0
 10
597.4
 20
8.39999
 11
620.3
 21
8.39999
  0
LINE
  8
0
 10
620.3
 20
8.39999
 11
620.3
 21
6
  0
LINE
  8
0
 10
620.3
 20
6
 11
643.2
 21
6
  0
LINE
  8
0
 10
643.2
 20
6
 11
643.2
 21
8.39999
  0
LINE
  8
0
 10
643.2
 20
8.39999
 11
666.1
 21
8.39999
  0
LINE
  8
0
 10
666.1
 20
8.39999
 11
666.1
 21
6
  0
LINE
  8
0
 10
666.1
 20
6
 11
689
 21
6
  0
LINE
  8
0
 10
689
 20
6
 11
689
 21
8.39999
  0
LINE
  8
0
 10
689
 20
8.39999
 11
711.9
 21
8.39999
  0
LINE
  8
0
 10
711.9
 20
8.39999
 11
711.9
 21
6
  0
LINE
  8
0
 10
711.9
 20
6
 11
734.8
 21
6
  0
LINE
  8
0
 10
734.8
 20
6
 11
734.8
 21
8.39999
  0
LINE
  8
0
 10
734.8
 20
8.39999
 11
757.7
 21
8.39999
  0
LINE
  8
0
 10
757.7
 20
8.39999
 11
757.7
 21
6
  0
LINE
  8
0
 10
757.7
 20
6
 11
780.6
 21
6
  0
LINE
  8
0
 10
780.6
 20
6
 11
780.6
 21
8.39999
  0
LINE
  8
0
 10
780.6
 20
8.39999
 11
803.5
 21
8.39999
  0
LINE
  8
0
 10
803.5
 20
8.39999
 11
803.5
 21
6
  0
LINE
  8
0
 10
803.5
 20
6
 11
826.4
 21
6
  0
LINE
  8
0
 10
826.4
 20
6
 11
826.4
 21
8.39999
  0
LINE
  8
0
 10
826.4
 20
8.39999
 11
849.3
 21
8.39999
  0
LINE
  8
0
 10
849.3
 20
8.39999
 11
849.3
 21
6
  0
LINE
  8
0
 10
849.3
 20
6
 11
872.2
 21
6
  0
LINE
  8
0
 10
872.2
 20
6
 11
872.2
 21
8.39999
  0
LINE
  8
0
 10
872.2
 20
8.39999
 11
895.1
 21
8.39999
  0
LINE
  8
0
 10
895.1
 20
8.39999
 11
895.1
 21
6
  0
LINE
  8
0
 10
895.1
 20
6
 11
918
 21
6
  0
LINE
  8
0
 10
918
 20
6
 11
918
 21
510.8
  0
LINE
  8
0
 10
918
 20
510.8
 11
895.1
 21
510.8
  0
LINE
  8
0
 10
895.1
 20
510.8
 11
895.1
 21
508.4
  0
LINE
  8
0
 10
895.1
 20
508.4
 11
872.2
 21
508.4
  0
LINE
  8
0
 10
872.2
 20
508.4
 11
872.2
 21
510.8
  0
LINE
  8
0
 10
872.2
 20
510.8
 11
849.3
 21
510.8
  0
LINE
  8
0
 10
849.3
 20
510.8
 11
849.3
 21
508.4
  0
LINE
  8
0
 10
849.3
 20
508.4
 11
826.4
 21
508.4
  0
LINE
  8
0
 10
826.4
 20
508.4
 11
826.4
 21
510.8
  0
LINE
  8
0
 10
826.4
 20
510.8
 11
803.5
 21
510.8
  0
LINE
  8
0
 10
803.5
 20
510.8
 11
803.5
 21
508.4
  0
LINE
  8
0
 10
803.5
 20
508.4
 11
780.6
 21
508.4
  0
LINE
  8
0
 10
780.6
 20
508.4
 11
780.6
 21
510.8
  0
LINE
  8
0
 10
780.6
 20
510.8
 11
757.7
 21
510.8
  0
LINE
  8
0
 10
757.7
 20
510.8
 11
757.7
 21
508.4
  0
LINE
  8
0
 10
757.7
 20
508.4
 11
734.8
 21
508.4
  0
LINE
  8
0
 10
734.8
 20
508.4
 11
734.8
 21
510.8
  0
LINE
  8
0
 10
734.8
 20
510.8
 11
711.9
 21
510.8
  0
LINE
  8
0
 10
711.9
 20
510.8
 11
711.9
 21
508.4
  0
LINE
  8
0
 10
711.9
 20
508.4
 11
689
 21
508.4
  0
LINE
  8
0
 10
689
 20
508.4
 11
689
 21
510.8
  0
LINE
  8
0
 10
689
 20
510.8
 11
666.1
 21
510.8
  0
LINE
  8
0
 10
666.1
 20
510.8
 11
666.1
 21
508.4
  0
LINE
  8
0
 10
666.1
 20
508.4
 11
643.2
 21
508.4
  0
LINE
  8
0
 10
643.2
 20
508.4
 11
643.2
 21
510.8
  0
LINE
  8
0
 10
643.2
 20
510.8
 11
620.3
 21
510.8
  0
LINE
  8
0
 10
620.3
 20
510.8
 11
620.3
 21
508.4
  0
LINE
  8
0
 10
620.3
 20
508.4
 11
597.4
 21
508.4
  0
LINE
  8
0
 10
597.4
 20
508.4
 11
597.4
 21
510.8
  0
LINE
  8
0
 10
597.4
 20
510.8
 11
574.5
 21
510.8
  0
LINE
  8
0
 10
574.5
 20
510.8
 11
574.5
 21
508.4
  0
LINE
  8
0
 10
574.5
 20
508.4
 11
551.6
 21
508.4
  0
LINE
  8
0
 10
551.6
 20
508.4
 11
551.6
 21
510.8
  0
LINE
  8
0
 10
551.6
 20
510.8
 11
528.7
 21
510.8
  0
LINE
  8
0
 10
528.7
 20
510.8
 11
528.7
 21
508.4
  0
LINE
  8
0
 10
528.7
 20
508.4
 11
505.8
 21
508.4
  0
LINE
  8
0
 10
505.8
 20
508.4
 11
505.8
 21
510.8
  0
LINE
  8
0
 10
505.8
 20
510.8
 11
482.9
 21
510.8
  0
LINE
  8
0
 10
482.9
 20
510.8
 11
482.9
 21
508.4
  0
LINE
  8
0
 10
482.9
 20
508.4
 11
460
 21
508.4
  0
LINE
  8
0
 10
460
 20
508.4
 11
460
 21
8.39999
  0
LINE
  8
0
 10
460
 20
8.39999
 11
482.9
 21
8.39999
  0
LINE
  8
0
 10
482.9
 20
8.39999
 11
482.9
 21
6
  0
LINE
  8
0
 10
482.9
 20
6
 11
505.8
 21
6
  0
LINE
  8
0
 10
505.8
 20
6
 11
505.8
 21
8.39999
  0
LINE
  8
0
 10
46.8
 20
8.39999
 11
69.7
 21
8.39999
  0
LINE
  8
0
 10
69.7
 20
8.39999
 11
69.7
 21
6
  0
LINE
  8
0
 10
69.7
 20
6
 11
92.6
 21
6
  0
LINE
  8
0
 10
92.6
 20
6
 11
92.6
 21
8.39999
  0
LINE
  8
0
 10
92.6
 20
8.39999
 11
115.5
 21
8.39999
  0
LINE
  8
0
 10
115.5
 20
8.39999
 11
115.5
 21
6
  0
LINE
  8
0
 10
115.5
 20
6
 11
138.4
 21
6
  0
LINE
  8
0
 10
138.4
 20
6
 11
138.4
 21
8.39999
  0
LINE
  8
0
 10
138.4
 20
8.39999
 11
161.3
 21
8.39999
  0
LINE
  8
0
 10
161.3
 20
8.39999
 11
161.3
 21
6
  0
LINE
  8
0
 10
161.3
 20
6
 11
184.2
 21
6
  0
LINE
  8
0
 10
184.2
 20
6
 11
184.2
 21
8.39999
  0
LINE
  8
0
 10
184.2
 20
8.39999
 11
207.1
 21
8.39999
  0
LINE
  8
0
 10
207.1
 20
8.39999
 11
207.1
 21
6
  0
LINE
  8
0
 10
207.1
 20
6
 11
230
 21
6
  0
LINE
  8
0
 10
230
 20
6
 11
230
 21
8.39999
  0
LINE
  8
0
 10
230
 20
8.39999
 11
252.9
 21
8.39999
  0
LINE
  8
0
 10
252.9
 20
8.39999
 11
252.9
 21
6
  0
LINE
  8
0
 10
252.9
 20
6
 11
275.8
 21
6
  0
LINE
  8
0
 10
275.8
 20
6
 11
275.8
 21
8.39999
  0
LINE
  8
0
 10
275.8
 20
8.39999
 11
298.7
 21
8.39999
  0
LINE
  8
0
 10
298.7
 20
8.39999
 11
298.7
 21
6
  0
LINE
  8
0
 10
298.7
 20
6
 11
321.6
 21
6
  0
LINE
  8
0
 10
321.6
 20
6
 11
321.6
 21
8.39999
  0
LINE
  8
0
 10
321.6
 20
8.39999
 11
344.5
 21
8.39999
  0
LINE
  8
0
 10
344.5
 20
8.39999
 11
344.5
 21
6
  0
LINE
  8
0
 10
344.5
 20
6
 11
367.4
 21
6
  0
LINE
  8
0
 10
367.4
 20
6
 11
367.4
 21
8.39999
  0
LINE
  8
0
 10
367.4
 20
8.39999
 11
390.3
 21
8.39999
  0
LINE
  8
0
 10
390.3
 20
8.39999
 11
390.3
 21
6
  0
LINE
  8
0
 10
390.3
 20
6
 11
413.2
 21
6
  0
LINE
  8
0
 10
413.2
 20
6
 11
413.2
 21
8.39999
  0
LINE
  8
0
 10
413.2
 20
8.39999
 11
436.1
 21
8.39999
  0
LINE
  8
0
 10
436.1
 20
8.39999
 11
436.1
 21
6
  0
LINE
  8
0
 10
436.1
 20
6
 11
459
 21
6
  0
LINE
  8
0
 10
459
 20
6
 11
459
 21
510.8
  0
LINE
  8
0
 10
459
 20
510.8
 11
436.1
 21
510.8
  0
LINE
  8
0
 10
436.1
 20
510.8
 11
436.1
 21
508.4
  0
LINE
  8
0
 10
436.1
 20
508.4
 11
413.2
 21
508.4
  0
LINE
  8
0
 10
413.2
 20
508.4
 11
413.2
 21
510.8
  0
LINE
  8
0
 10
413.2
 20
510.8
 11
390.3
 21
510.8
  0
LINE
  8
0
 10
390.3
 20
510.8
 11
390.3
 21
508.4
  0
LINE
  8
0
 10
390.3
 20
508.4
 11
367.4
 21
508.4
  0
LINE
  8
0
 10
367.4
 20
508.4
 11
367.4
 21
510.8
  0
LINE
  8
0
 10
367.4
 20
510.8
 11
344.5
 21
510.8
  0
LINE
  8
0
 10
344.5
 20
510.8
 11
344.5
 21
508.4
  0
LINE
  8
0
 10
344.5
 20
508.4
 11
321.6
 21
508.4
  0
LINE
  8
0
 10
321.6
 20
508.4
 11
321.6
 21
510.8
  0
LINE
  8
0
 10
321.6
 20
510.8
 11
298.7
 21
510.8
  0
LINE
  8
0
 10
298.7
 20
510.8
 11
298.7
 21
508.4
  0
LINE
  8
0
 10
298.7
 20
508.4
 11
275.8
 21
508.4
  0
LINE
  8
0
 10
275.8
 20
508.4
 11
275.8
 21
510.8
  0
LINE
  8
0
 10
275.8
 20
510.8
 11
252.9
 21
510.8
  0
LINE
  8
0
 10
252.9
 20
510.8
 11
252.9
 21
508.4
  0
LINE
  8
0
 10
252.9
 20
508.4
 11
230
 21
508.4
  0
LINE
  8
0
 10
230
 20
508.4
 11
230
 21
510.8
  0
LINE
  8
0
 10
230
 20
510.8
 11
207.1
 21
510.8
  0
LINE
  8
0
 10
207.1
 20
510.8
 11
207.1
 21
508.4
  0
LINE
  8
0
 10
207.1
 20
508.4
 11
184.2
 21
508.4
  0
LINE
  8
0
 10
184.2
 20
508.4
 11
184.2
 21
510.8
  0
LINE
  8
0
 10
184.2
 20
510.8
 11
161.3
 21
510.8
  0
LINE
  8
0
 10
161.3
 20
510.8
 11
161.3
 21
508.4
  0
LINE
  8
0
 10
161.3
 20
508.4
 11
138.4
 21
508.4
  0
LINE
  8
0
 10
138.4
 20
508.4
 11
138.4
 21
510.8
  0
LINE
  8
0
 10
138.4
 20
510.8
 11
115.5
 21
510.8
  0
LINE
  8
0
 10
115.5
 20
510.8
 11
115.5
 21
508.4
  0
LINE
  8
0
 10
115.5
 20
508.4
 11
92.6
 21
508.4
  0
LINE
  8
0
 10
92.6
 20
508.4
 11
92.6
 21
510.8
  0
LINE
  8
0
 10
92.6
 20
510.8
 11
69.7
 21
510.8
  0
LINE
  8
0
 10
69.7
 20
510.8
 11
69.7
 21
508.4
  0
LINE
  8
0
 10
69.7
 20
508.4
 11
46.8
 21
508.4
  0
LINE
  8
0
 10
46.8
 20
508.4
 11
46.8
 21
510.8
  0
LINE
  8
0
 10
46.8
 20
510.8
 11
23.9
 21
510.8
  0
LINE
  8
0
 10
23.9
 20
510.8
 11
23.9
 21
508.4
  0
LINE
  8
0
 10
23.9
 20
508.4
 11
1
 21
508.4
  0
LINE
  8
0
 10
1
 20
508.4
 11
1
 21
8.39999
  0
LINE
  8
0
 10
1
 20
8.39999
 11
23.9
 21
8.39999
  0
LINE
  8
0
 10
23.9
 20
8.39999
 11
23.9
 21
6
  0
LINE
  8
0
 10
23.9
 20
6
 11
46.8
 21
6
  0
LINE
  8
0
 10
46.8
 20
6
 11
46.8
 21
8.39999
  0
ENDSEC
  0
SECTION
  2
OBJECTS
  0
DICTIONARY
  0
ENDSEC
  0
EOF
